<svg width="1126" height="428" viewBox="0 0 1126 428" fill="none" xmlns="http://www.w3.org/2000/svg">
<rect width="1126" height="428" fill="white"/>
<path d="M392.889 237.288L389.975 240.884H387.743C387.991 238.032 387.991 236.978 387.991 231.212V201.824C387.991 196.368 387.557 195.81 383.217 195.81V194.384L395.927 193.702C395.679 198.662 395.555 202.444 395.555 206.412V212.984C398.035 209.14 400.887 207.466 405.165 207.466C413.659 207.466 418.619 213.48 418.619 223.772C418.619 234.994 413.101 241.69 403.863 241.69C399.647 241.69 396.361 240.388 392.889 237.288ZM395.369 225.446C395.369 230.158 395.927 233.506 397.043 235.986C398.221 238.466 400.763 240.202 403.367 240.202C407.955 240.202 410.373 234.932 410.373 224.826C410.373 214.72 408.079 209.388 403.677 209.388C401.073 209.388 398.655 211.248 397.291 214.224C395.989 217.2 395.369 220.734 395.369 225.446ZM464.68 239.086V240.574C461.022 241.008 457.736 241.318 456.124 241.318C454.14 241.318 453.52 240.388 453.21 236.606C449.986 240.078 446.638 241.628 442.608 241.628C436.718 241.628 433.06 238.094 433.06 232.514C433.06 227.182 436.346 223.896 442.98 222.594C446.018 222.036 449.304 221.602 453.148 221.416V217.386C453.148 210.814 452.032 208.892 448.312 208.892C446.328 208.892 445.026 209.512 444.158 211C443.538 212.054 443.352 213.046 443.166 215.402C443.042 217.634 441.988 218.44 439.384 218.44C436.532 218.44 435.044 217.448 435.044 215.588C435.044 213.418 436.47 211.31 438.888 209.822C441.492 208.21 444.84 207.466 449.056 207.466C453.334 207.466 456.372 208.272 458.232 210.008C459.906 211.62 460.65 213.852 460.65 217.696L460.588 223.09L460.526 228.484C460.464 230.22 460.464 231.398 460.464 231.832C460.464 238.652 460.712 239.024 464.68 239.086ZM453.148 227.616V222.842C444.158 223.524 440.996 225.818 440.996 231.584C440.996 235.986 442.98 238.9 446.018 238.9C448.498 238.9 450.854 237.35 452.032 234.808C452.838 233.196 453.148 231.15 453.148 227.616ZM489.678 207.59L489.74 213.728C492.406 209.388 495.816 207.466 500.776 207.466C504.806 207.466 507.596 208.83 509.208 211.682C510.324 213.542 510.758 215.588 510.758 219.308V233.072C510.758 238.59 511.192 239.21 515.47 239.272V240.76H498.606V239.272C502.76 239.21 503.256 238.528 503.256 233.072V219.68C503.256 212.984 501.644 210.194 497.8 210.194C495.196 210.194 492.964 211.62 491.414 214.286C490.422 216.084 489.74 218.626 489.74 220.672V233.072C489.74 238.652 490.174 239.21 494.39 239.272V240.76H477.464V239.272C481.742 239.21 482.176 238.59 482.176 233.072V215.898C482.176 210.628 481.68 209.946 477.588 209.884V208.396L489.678 207.59ZM540.089 207.59L540.151 213.728C542.817 209.388 546.227 207.466 551.187 207.466C555.217 207.466 558.007 208.83 559.619 211.682C560.735 213.542 561.169 215.588 561.169 219.308V233.072C561.169 238.59 561.603 239.21 565.881 239.272V240.76H549.017V239.272C553.171 239.21 553.667 238.528 553.667 233.072V219.68C553.667 212.984 552.055 210.194 548.211 210.194C545.607 210.194 543.375 211.62 541.825 214.286C540.833 216.084 540.151 218.626 540.151 220.672V233.072C540.151 238.652 540.585 239.21 544.801 239.272V240.76H527.875V239.272C532.153 239.21 532.587 238.59 532.587 233.072V215.898C532.587 210.628 532.091 209.946 527.999 209.884V208.396L540.089 207.59ZM608.79 223.276H587.276C587.338 227.864 587.772 230.53 588.888 233.134C590.686 237.226 593.538 239.272 597.32 239.272C601.598 239.272 605.256 236.73 607.55 232.204L609.1 233.196C606 239.086 601.846 241.69 595.46 241.69C585.602 241.69 579.278 235.056 579.278 224.702C579.278 214.286 585.416 207.466 594.84 207.466C601.164 207.466 605.628 210.318 607.674 215.65C608.356 217.51 608.666 219.37 608.79 223.276ZM587.338 221.478H601.04C600.916 217.572 600.668 215.65 599.986 213.728C598.808 210.442 597.072 208.892 594.654 208.892C591.988 208.892 589.942 210.752 588.64 214.348C587.958 216.27 587.586 218.254 587.338 221.478ZM622.466 208.396L634.122 207.59C634.246 209.946 634.308 211.372 634.308 212.612C634.308 213.046 634.308 213.666 634.308 214.472C636.788 209.884 639.95 207.466 643.484 207.466C646.522 207.466 648.754 209.512 648.754 212.178C648.754 214.41 646.894 215.96 644.29 215.96C642.616 215.96 641.81 215.402 641.376 213.976C640.88 212.24 640.57 211.806 639.578 211.806C639.578 211.806 639.516 211.806 639.454 211.806C638.276 211.868 637.036 212.922 635.982 214.72C634.99 216.58 634.494 218.688 634.494 221.602V233.072C634.494 238.652 634.866 239.086 639.454 239.272V240.76H622.218V239.272C626.496 239.21 626.93 238.59 626.93 233.072V215.898C626.93 210.628 626.372 209.884 622.466 209.884V208.396ZM660.539 218.068C660.539 210.938 662.089 204.924 665.065 200.46C667.669 196.616 672.071 194.384 677.093 194.384C682.053 194.384 686.455 196.616 689.059 200.46C692.035 204.862 693.585 210.938 693.585 218.068C693.585 225.198 692.035 231.274 689.059 235.614C686.455 239.52 682.053 241.752 677.093 241.752C672.071 241.752 667.669 239.52 665.065 235.614C662.151 231.212 660.539 225.074 660.539 218.068ZM668.785 218.068C668.785 225.942 669.405 231.274 670.769 234.808C672.133 238.404 674.241 240.202 677.093 240.202C680.255 240.202 682.425 238.094 683.789 233.754C684.905 230.344 685.401 225.384 685.401 218.068C685.401 210.008 684.781 204.862 683.417 201.328C682.053 197.67 680.007 195.934 677.093 195.934C671.327 195.934 668.785 202.692 668.785 218.068ZM738.179 240.76H708.543C709.163 235.8 710.403 232.204 712.697 228.67C715.053 225.074 717.905 222.16 724.973 216.27C727.825 213.914 729.189 212.364 730.119 210.566C730.987 208.768 731.421 206.908 731.421 204.862C731.421 199.468 728.507 195.934 724.105 195.934C721.191 195.934 719.269 197.36 718.339 200.088C717.843 201.638 717.781 202.258 717.657 205.73C717.533 208.148 716.417 209.14 713.689 209.14C710.713 209.14 709.287 208.086 709.287 205.854C709.287 202.506 711.147 199.344 714.433 197.112C717.223 195.252 720.571 194.322 724.725 194.322C734.087 194.322 739.667 198.6 739.667 205.792C739.667 208.892 738.737 211.434 736.877 213.604C735.575 215.154 733.219 216.89 730.057 218.688C721.873 223.276 720.013 224.516 717.161 227.12C714.681 229.352 713.565 230.964 712.263 234.126H730.243C735.327 234.126 737.125 232.514 738.241 226.934L740.349 227.368L738.179 240.76Z" fill="black"/>
</svg>
