<svg width="450" height="450" viewBox="0 0 450 450" fill="none" xmlns="http://www.w3.org/2000/svg">
<rect width="450" height="450" fill="white"/>
<path d="M136.033 200.59V205.364C138.885 201.892 141.861 200.466 146.077 200.466C154.385 200.466 159.097 206.356 159.097 216.71C159.097 222.228 157.671 227.064 155.253 230.04C152.897 232.954 148.991 234.628 144.775 234.628C141.241 234.628 139.009 233.76 136.157 231.28V239.898C136.157 245.416 136.529 245.912 141.241 246.098V247.586H123.943V246.098C128.283 245.974 128.655 245.416 128.655 239.898V208.898C128.655 203.628 128.097 202.946 123.943 202.884V201.396L136.033 200.59ZM135.909 218.384C135.909 222.972 136.467 226.32 137.645 228.924C138.761 231.28 140.993 232.892 143.349 232.892C148.371 232.892 150.851 227.808 150.851 217.578C150.851 207.658 148.495 202.45 144.093 202.45C139.009 202.45 135.909 208.464 135.909 218.384ZM173.47 201.396L186.056 200.59C185.808 204.31 185.684 208.65 185.684 212.618V226.072C185.684 231.59 186.118 232.21 190.52 232.272V233.76H173.284V232.272C177.686 232.21 178.12 231.59 178.12 226.072V208.898C178.12 203.38 177.81 202.946 173.47 202.884V201.396ZM177.5 190.794C177.5 188.314 179.484 186.33 181.964 186.33C184.444 186.33 186.428 188.314 186.428 190.794C186.428 193.274 184.444 195.258 181.964 195.258C179.484 195.258 177.5 193.274 177.5 190.794ZM232.122 225.018L233.734 226.072C230.944 231.838 226.356 234.752 220.156 234.752C210.608 234.752 204.222 227.994 204.222 218.012C204.222 212.68 206.02 207.844 209.12 204.62C211.848 201.954 215.692 200.466 220.156 200.466C227.038 200.466 232.928 204.186 232.928 208.588C232.928 210.448 231.254 211.626 228.712 211.626C227.286 211.626 226.108 211.192 225.55 210.51C225.178 210.014 225.178 210.014 225.054 207.782C224.806 204.062 223.008 201.954 219.97 201.954C217.428 201.954 215.258 203.504 214.266 205.922C213.212 208.65 212.53 213.052 212.53 216.896C212.53 220.926 213.274 224.584 214.7 227.436C216.312 230.598 218.916 232.334 222.078 232.334C226.356 232.334 230.014 229.606 232.122 225.018ZM246.999 211.068C246.999 203.938 248.549 197.924 251.525 193.46C254.129 189.616 258.531 187.384 263.553 187.384C268.513 187.384 272.915 189.616 275.519 193.46C278.495 197.862 280.045 203.938 280.045 211.068C280.045 218.198 278.495 224.274 275.519 228.614C272.915 232.52 268.513 234.752 263.553 234.752C258.531 234.752 254.129 232.52 251.525 228.614C248.611 224.212 246.999 218.074 246.999 211.068ZM255.245 211.068C255.245 218.942 255.865 224.274 257.229 227.808C258.593 231.404 260.701 233.202 263.553 233.202C266.715 233.202 268.885 231.094 270.249 226.754C271.365 223.344 271.861 218.384 271.861 211.068C271.861 203.008 271.241 197.862 269.877 194.328C268.513 190.67 266.467 188.934 263.553 188.934C257.787 188.934 255.245 195.692 255.245 211.068ZM300.707 233.76V232.024C303.559 231.962 304.427 231.838 305.357 231.28C306.783 230.536 307.217 228.924 307.217 224.956V196.436C307.155 193.274 307.155 193.274 307.031 192.716C306.783 191.352 305.977 191.042 302.815 191.042H301.141V189.306C307.031 188.81 311.557 188.19 315.649 187.446C315.277 191.848 315.091 197.056 315.091 203.07V224.956C315.091 228.738 315.463 230.288 316.579 231.156C317.447 231.838 318.191 231.962 321.353 232.024V233.76H300.707Z" fill="black"/>
</svg>
