<svg width="300" height="300" viewBox="0 0 300 300" fill="none" xmlns="http://www.w3.org/2000/svg">
<rect width="300" height="300" fill="white"/>
<path d="M98.4301 143.575V146.27C100.04 144.31 101.72 143.505 104.1 143.505C108.79 143.505 111.45 146.83 111.45 152.675C111.45 155.79 110.645 158.52 109.28 160.2C107.95 161.845 105.745 162.79 103.365 162.79C101.37 162.79 100.11 162.3 98.5001 160.9V165.765C98.5001 168.88 98.7101 169.16 101.37 169.265V170.105H91.6051V169.265C94.0551 169.195 94.2651 168.88 94.2651 165.765V148.265C94.2651 145.29 93.9501 144.905 91.6051 144.87V144.03L98.4301 143.575ZM98.3601 153.62C98.3601 156.21 98.6751 158.1 99.3401 159.57C99.9701 160.9 101.23 161.81 102.56 161.81C105.395 161.81 106.795 158.94 106.795 153.165C106.795 147.565 105.465 144.625 102.98 144.625C100.11 144.625 98.3601 148.02 98.3601 153.62ZM119.564 144.03L126.669 143.575C126.529 145.675 126.459 148.125 126.459 150.365V157.96C126.459 161.075 126.704 161.425 129.189 161.46V162.3H119.459V161.46C121.944 161.425 122.189 161.075 122.189 157.96V148.265C122.189 145.15 122.014 144.905 119.564 144.87V144.03ZM121.839 138.045C121.839 136.645 122.959 135.525 124.359 135.525C125.759 135.525 126.879 136.645 126.879 138.045C126.879 139.445 125.759 140.565 124.359 140.565C122.959 140.565 121.839 139.445 121.839 138.045ZM152.674 157.365L153.584 157.96C152.009 161.215 149.419 162.86 145.919 162.86C140.529 162.86 136.924 159.045 136.924 153.41C136.924 150.4 137.939 147.67 139.689 145.85C141.229 144.345 143.399 143.505 145.919 143.505C149.804 143.505 153.129 145.605 153.129 148.09C153.129 149.14 152.184 149.805 150.749 149.805C149.944 149.805 149.279 149.56 148.964 149.175C148.754 148.895 148.754 148.895 148.684 147.635C148.544 145.535 147.529 144.345 145.814 144.345C144.379 144.345 143.154 145.22 142.594 146.585C141.999 148.125 141.614 150.61 141.614 152.78C141.614 155.055 142.034 157.12 142.839 158.73C143.749 160.515 145.219 161.495 147.004 161.495C149.419 161.495 151.484 159.955 152.674 157.365ZM161.072 149.49C161.072 145.465 161.947 142.07 163.627 139.55C165.097 137.38 167.582 136.12 170.417 136.12C173.217 136.12 175.702 137.38 177.172 139.55C178.852 142.035 179.727 145.465 179.727 149.49C179.727 153.515 178.852 156.945 177.172 159.395C175.702 161.6 173.217 162.86 170.417 162.86C167.582 162.86 165.097 161.6 163.627 159.395C161.982 156.91 161.072 153.445 161.072 149.49ZM165.727 149.49C165.727 153.935 166.077 156.945 166.847 158.94C167.617 160.97 168.807 161.985 170.417 161.985C172.202 161.985 173.427 160.795 174.197 158.345C174.827 156.42 175.107 153.62 175.107 149.49C175.107 144.94 174.757 142.035 173.987 140.04C173.217 137.975 172.062 136.995 170.417 136.995C167.162 136.995 165.727 140.81 165.727 149.49ZM204.901 162.3H188.171C188.521 159.5 189.221 157.47 190.516 155.475C191.846 153.445 193.456 151.8 197.446 148.475C199.056 147.145 199.826 146.27 200.351 145.255C200.841 144.24 201.086 143.19 201.086 142.035C201.086 138.99 199.441 136.995 196.956 136.995C195.311 136.995 194.226 137.8 193.701 139.34C193.421 140.215 193.386 140.565 193.316 142.525C193.246 143.89 192.616 144.45 191.076 144.45C189.396 144.45 188.591 143.855 188.591 142.595C188.591 140.705 189.641 138.92 191.496 137.66C193.071 136.61 194.961 136.085 197.306 136.085C202.591 136.085 205.741 138.5 205.741 142.56C205.741 144.31 205.216 145.745 204.166 146.97C203.431 147.845 202.101 148.825 200.316 149.84C195.696 152.43 194.646 153.13 193.036 154.6C191.636 155.86 191.006 156.77 190.271 158.555H200.421C203.291 158.555 204.306 157.645 204.936 154.495L206.126 154.74L204.901 162.3Z" fill="black"/>
</svg>
