<svg width="360" height="360" viewBox="0 0 360 360" fill="none" xmlns="http://www.w3.org/2000/svg">
<rect width="360" height="360" fill="white"/>
<path d="M148.036 170.075H153.356C154.161 169.025 154.441 168.64 155.386 167.415C156.996 168.64 157.486 169.025 159.061 170.32C159.131 170.425 159.201 170.565 159.201 170.635C159.201 170.74 159.061 170.81 158.886 170.81H148.071C148.281 175.92 148.701 178.965 149.611 181.66C151.186 178.58 152.061 175.955 152.341 173.54C156.436 174.73 157.346 175.08 157.346 175.5C157.346 175.85 156.996 176.025 155.806 176.2C154.266 180.435 153.216 182.535 151.291 185.265C152.446 187.12 153.181 187.96 155.456 189.885C156.961 187.505 157.486 186.56 159.061 183.34L159.446 183.445L158.011 189.92C157.906 190.34 157.871 190.585 157.871 190.795C157.871 191.11 157.871 191.11 158.536 191.81C158.851 192.195 159.026 192.65 159.026 193.175C159.026 194.33 158.151 195.24 157.101 195.24C155.771 195.24 153.986 194.085 151.781 191.845C150.661 190.69 149.751 189.57 148.876 188.205C147.686 189.395 146.671 190.27 145.481 191.215C142.926 193.105 141.106 194.085 137.431 195.38L137.256 195.03C141.911 192.02 144.676 189.43 147.371 185.475C145.726 181.87 144.886 177.67 144.431 170.81H134.001C134.001 174.1 133.966 175.325 133.861 177.145H138.586C139.356 176.2 139.601 175.92 140.406 175.01C141.631 175.85 142.016 176.13 143.241 177.04C143.521 177.285 143.626 177.46 143.626 177.6C143.626 177.845 143.416 178.055 142.506 178.545C142.121 184.81 141.666 187.645 140.861 189.01C140.266 190.025 139.146 190.655 137.536 190.935C137.221 191.005 136.766 191.04 136.486 191.04C136.101 191.04 135.961 190.9 135.961 190.41C135.926 188.695 135.296 188.03 133.021 187.26L133.091 186.84C135.681 187.05 136.416 187.12 136.976 187.12C137.746 187.12 137.991 186.875 138.201 185.685C138.516 184.005 138.831 180.575 138.866 177.88H133.826C133.616 181.8 133.406 183.375 133.021 185.16C132.391 187.75 131.271 190.34 129.731 192.51C128.961 193.595 128.366 194.33 126.896 195.8L126.581 195.59C128.086 192.475 128.786 190.41 129.346 187.225C129.906 184.005 130.116 180.4 130.116 173.365C130.116 170.775 130.081 169.865 129.976 167.73C131.901 168.64 132.496 168.955 134.421 170.075H144.396C144.326 169.06 144.291 168.57 144.291 167.835C144.221 165.385 144.186 164.86 144.011 163.67C148.911 164.09 149.261 164.16 149.261 164.615C149.261 164.93 148.981 165.14 148.071 165.455C148.036 166.925 148.001 167.8 148.001 168.29C148.001 168.71 148.001 169.025 148.036 170.075ZM149.681 164.685L149.786 164.405C151.501 164.615 152.341 164.79 153.076 165.035C154.266 165.455 154.826 166.05 154.826 166.89C154.826 168.045 153.916 169.165 152.936 169.165C152.726 169.165 152.481 169.06 152.341 168.955C152.131 168.78 152.096 168.675 151.746 167.765C151.221 166.4 150.696 165.63 149.681 164.685ZM178.311 175.605V177.145C178.311 177.53 178.241 177.705 178.066 177.845C177.786 178.02 176.841 178.16 175.721 178.16C174.636 178.16 174.391 178.02 174.356 177.425C174.426 174.52 174.461 173.05 174.461 169.515C174.461 166.68 174.461 165.91 174.356 163.845C176.351 164.685 176.946 164.965 178.801 165.98H189.196C190.071 165.035 190.351 164.755 191.261 163.88C192.591 164.825 192.976 165.105 194.166 166.085C194.481 166.365 194.586 166.54 194.586 166.715C194.586 167.03 194.376 167.205 193.291 167.765C193.291 168.535 193.291 169.2 193.291 169.55C193.291 170.845 193.326 172.42 193.431 176.97C193.431 177.46 193.291 177.67 192.906 177.81C192.591 177.95 191.401 178.09 190.596 178.09C189.756 178.09 189.476 177.915 189.476 177.32V175.605H178.311ZM178.311 166.715V174.87H189.476V166.715H178.311ZM173.131 192.545V194.33C173.131 194.75 173.061 194.925 172.816 195.065C172.431 195.24 171.556 195.38 170.541 195.38C169.526 195.38 169.281 195.205 169.281 194.575C169.386 190.515 169.421 189.535 169.421 188.24C169.421 181.52 169.421 180.645 169.281 178.79C171.171 179.7 171.696 179.98 173.446 180.995H178.346C179.151 180.015 179.431 179.735 180.271 178.825C181.496 179.735 181.846 180.015 182.896 180.855C183.246 181.135 183.351 181.31 183.351 181.52C183.351 181.8 183.106 182.01 182.231 182.5C182.231 185.265 182.266 190.585 182.336 193.91C182.301 194.715 181.706 194.96 179.781 194.96C178.871 194.96 178.591 194.785 178.556 194.26V192.545H173.131ZM173.131 181.73V191.81H178.556V181.73H173.131ZM188.951 192.545V194.155C188.916 194.575 188.811 194.75 188.426 194.89C188.146 194.995 187.026 195.1 186.326 195.1C185.521 195.1 185.241 194.925 185.206 194.33C185.311 190.165 185.311 189.325 185.311 187.61C185.311 182.395 185.276 180.645 185.206 178.79C187.061 179.7 187.621 179.98 189.301 180.995H194.271C195.111 180.05 195.391 179.735 196.231 178.86C197.526 179.84 197.911 180.12 199.066 181.065C199.381 181.31 199.486 181.485 199.486 181.66C199.486 181.94 199.206 182.15 198.331 182.605C198.331 187.575 198.366 192.23 198.436 194.19C198.401 194.54 198.331 194.715 198.156 194.82C197.806 195.065 196.931 195.205 195.986 195.205C194.901 195.205 194.656 195.1 194.621 194.505V192.545H188.951ZM188.951 181.73V191.81H194.621V181.73H188.951ZM208.026 179.49C208.026 175.465 208.901 172.07 210.581 169.55C212.051 167.38 214.536 166.12 217.371 166.12C220.171 166.12 222.656 167.38 224.126 169.55C225.806 172.035 226.681 175.465 226.681 179.49C226.681 183.515 225.806 186.945 224.126 189.395C222.656 191.6 220.171 192.86 217.371 192.86C214.536 192.86 212.051 191.6 210.581 189.395C208.936 186.91 208.026 183.445 208.026 179.49ZM212.681 179.49C212.681 183.935 213.031 186.945 213.801 188.94C214.571 190.97 215.761 191.985 217.371 191.985C219.156 191.985 220.381 190.795 221.151 188.345C221.781 186.42 222.061 183.62 222.061 179.49C222.061 174.94 221.711 172.035 220.941 170.04C220.171 167.975 219.016 166.995 217.371 166.995C214.116 166.995 212.681 170.81 212.681 179.49ZM238.345 192.3V191.32C239.955 191.285 240.445 191.215 240.97 190.9C241.775 190.48 242.02 189.57 242.02 187.33V171.23C241.985 169.445 241.985 169.445 241.915 169.13C241.775 168.36 241.32 168.185 239.535 168.185H238.59V167.205C241.915 166.925 244.47 166.575 246.78 166.155C246.57 168.64 246.465 171.58 246.465 174.975V187.33C246.465 189.465 246.675 190.34 247.305 190.83C247.795 191.215 248.215 191.285 250 191.32V192.3H238.345Z" fill="black"/>
</svg>
