<svg width="112" height="140" viewBox="0 0 112 140" fill="none" xmlns="http://www.w3.org/2000/svg">
<path d="M32.7067 15.4967L15.4922 24.0583C14.5576 24.3618 10.8608 27.1632 12.4452 31.7298C14.0296 36.2964 17.5766 36.4488 19.152 35.9542C21.2342 35.4814 35.6267 27.1497 37.4309 26.0557C38.8743 25.1805 39.0969 26.3616 39.0278 27.0615C37.8893 32.2921 37.1321 44.0229 43.2118 49.1014C50.8114 55.4494 66.5354 43.9416 67.8782 43.2261C68.9524 42.6537 69.071 43.457 68.996 43.9302C68.1488 51.6491 68.0964 67.8087 74.6639 70.6963C81.2313 73.584 92.3583 65.857 97.1008 61.6326C101.955 64.6902 108.753 58.7123 109.009 54.4125C107.704 44.7994 98.9624 47.9358 95.1804 50.1631C91.3511 52.5837 83.121 57.1987 80.8356 56.2945C78.5502 55.3903 78.4051 53.4253 79.6494 40.8267C80.8937 28.228 68.2121 27.8236 63.8995 31.1294C59.5869 34.4351 54.4933 39.1224 50.7554 37.1249C47.0175 35.1273 50.0356 25.5284 50.1073 22.2191C50.3697 10.1171 38.8588 12.4575 32.7067 15.4967Z" fill="#F8DC85"/>
<path d="M17.5937 34.8969C15.4822 35.1966 13.4637 33.2775 13.085 30.6104C12.7064 27.9434 14.1111 25.5383 16.2226 25.2385C18.334 24.9388 20.3526 26.8579 20.7312 29.525C21.1098 32.192 19.7051 34.5971 17.5937 34.8969Z" fill="#DDC479"/>
<path fill-rule="evenodd" clip-rule="evenodd" d="M73.6024 30.3723L73.6371 30.7481C73.8569 33.1312 74.035 37.063 73.8563 41.1296C73.6781 45.1854 73.1436 49.4218 71.9146 52.3865L71.77 52.7352L71.0727 52.4461L71.2172 52.0974C72.393 49.2611 72.9246 45.1359 73.1021 41.0964C73.2791 37.0677 73.1024 33.1703 72.8854 30.8175L72.8507 30.4416L73.6024 30.3723ZM103.993 50.6253L103.621 50.6858C102.22 50.9131 100.041 51.3265 98.0562 51.827C97.0635 52.0773 96.1268 52.3477 95.3637 52.6253C94.5836 52.9091 94.0393 53.1819 93.7831 53.417C93.0843 54.0582 92.0804 54.4734 91.1465 54.7368C90.205 55.0023 89.2882 55.1263 88.723 55.1592L88.3462 55.1811L88.3023 54.4275L88.6791 54.4056C89.1944 54.3756 90.0568 54.2598 90.9416 54.0102C91.834 53.7585 92.7032 53.3834 93.2728 52.8608C93.6508 52.5139 94.3257 52.1996 95.1056 51.9159C95.9025 51.626 96.8667 51.3484 97.8716 51.095C99.8823 50.5878 102.084 50.1704 103.5 49.9407L103.872 49.8802L103.993 50.6253ZM77.6382 34.0259L77.7498 34.3865C78.03 35.2921 78.1928 37.245 77.8635 40.2336C77.5327 43.2362 76.7017 47.3158 74.964 52.4927C71.5318 62.7177 74.5991 67.8473 76.3647 69.0937L76.6731 69.3113L76.2377 69.9281L75.9294 69.7104C73.7837 68.1957 70.7588 62.6482 74.2483 52.2525C75.9714 47.1191 76.7891 43.0925 77.1132 40.1509C77.4388 37.1954 77.2627 35.3662 77.0287 34.6097L76.9171 34.2491L77.6382 34.0259ZM47 14.7699L46.9428 15.143C46.6993 16.7332 45.7485 20.3787 44.5126 24.3478C43.2752 28.3212 41.7401 32.6577 40.3174 35.6306L40.1545 35.971L39.4736 35.6452L39.6365 35.3047C41.0351 32.382 42.5575 28.0871 43.7918 24.1233C45.0275 20.1551 45.9625 16.5575 46.1966 15.0287L46.2538 14.6556L47 14.7699ZM41.7906 13.4521L41.8795 13.819C42.2483 15.3406 42.6188 17.891 42.5416 20.6299C42.4647 23.363 41.9408 26.33 40.4809 28.6478L40.2797 28.9671L39.641 28.5648L39.8422 28.2455C41.1986 26.092 41.7118 23.2812 41.7871 20.6086C41.8622 17.9418 41.5001 15.4584 41.1458 13.9968L41.0569 13.63L41.7906 13.4521ZM49.682 19.3569L49.6279 19.7304C49.1813 22.8133 47.5192 30.2213 44.4192 35.1431C41.4488 39.8589 42.7355 43.999 43.6958 45.4318L43.9059 45.7453L43.2789 46.1656L43.0687 45.8521C41.9593 44.1969 40.6354 39.7339 43.7804 34.7407C46.7957 29.9535 48.4391 22.671 48.8808 19.6222L48.9349 19.2486L49.682 19.3569ZM66.8771 30.317L67.1903 30.5277C69.0253 31.7627 72.1603 35.725 70.5066 41.8528L70.4082 42.2172L69.6794 42.0206L69.7778 41.6561C71.3343 35.8884 68.3799 32.2383 66.7688 31.154L66.4557 30.9432L66.8771 30.317ZM38.8673 18.2283C38.0264 16.6673 36.6574 15.6133 35.6625 15.1274L35.3234 14.9617L35.6547 14.2834L35.9939 14.4491C37.1026 14.9907 38.6026 16.1453 39.5319 17.8703C40.4709 19.6131 40.8135 21.9155 39.6218 24.6915L39.4729 25.0383L38.7792 24.7405L38.9281 24.3937C40.0276 21.8324 39.6987 19.7714 38.8673 18.2283ZM67.9813 38.1033C65.9459 34.245 62.8746 33.8423 61.6799 34.0733L61.3094 34.145L61.166 33.4039L61.5366 33.3322C63.0511 33.0393 66.4553 33.5927 68.6489 37.7511L68.8251 38.0849L68.1574 38.4372L67.9813 38.1033ZM97.2069 56.0882L96.8444 56.1933C96.115 56.4046 94.0653 56.9888 91.6926 57.6372C89.2328 58.3094 86.2489 57.8881 85.0618 57.5972L84.6952 57.5073L84.8749 56.7741L85.2415 56.864C86.373 57.1413 89.2116 57.5326 91.4936 56.909C93.8625 56.2616 95.9085 55.6785 96.6343 55.4682L96.9968 55.3631L97.2069 56.0882ZM29.6656 20.5739C25.973 21.5375 22.0782 23.4181 19.6212 24.8589L19.2956 25.0498L18.9138 24.3986L19.2394 24.2077C21.7337 22.745 25.694 20.8302 29.475 19.8435C31.3644 19.3504 33.2329 19.0826 34.8618 19.233C36.494 19.3838 37.9241 19.9596 38.8655 21.19L39.0948 21.4898L38.4953 21.9485L38.2659 21.6487C37.4947 20.6407 36.2955 20.1235 34.7924 19.9847C33.2859 19.8456 31.5129 20.0918 29.6656 20.5739ZM62.2946 38.6752C60.392 37.9787 58.4458 37.5565 57.2416 37.382L56.868 37.3279L56.9763 36.5808L57.3498 36.6349C58.5983 36.8158 60.596 37.2495 62.5541 37.9663C64.4984 38.678 66.4682 39.6915 67.5949 41.0651L67.8343 41.3569L67.2506 41.8357L67.0112 41.5438C66.0184 40.3334 64.2109 39.3766 62.2946 38.6752ZM30.8829 23.9124C27.6763 25.1986 24.1128 27.1034 21.8105 28.4666L21.4857 28.6589L21.1011 28.0093L21.4259 27.817C23.7476 26.4423 27.3472 24.5172 30.6018 23.2117C32.2266 22.56 33.7852 22.0546 35.0645 21.8553C35.7036 21.7557 36.2931 21.7292 36.7954 21.81C37.2984 21.8908 37.7477 22.0854 38.0529 22.4575L38.2923 22.7493L37.7086 23.2281L37.4692 22.9362C37.3202 22.7546 37.0689 22.6185 36.6756 22.5553C36.2815 22.4919 35.7788 22.508 35.1807 22.6012C33.9853 22.7874 32.4888 23.2682 30.8829 23.9124ZM96.7272 60.368L96.3866 60.5306C90.0808 63.5408 84.664 60.6565 82.7267 58.8171L82.453 58.5572L82.9727 58.0097L83.2465 58.2696C85.031 59.964 90.1198 62.6857 96.0614 59.8493L96.402 59.6867L96.7272 60.368ZM37.0657 24.7653L36.7338 24.945C35.9634 25.3622 35.1929 25.9138 34.3492 26.5177C34.109 26.6897 33.8628 26.8659 33.609 27.0445C32.4768 27.8411 31.2183 28.6646 29.7423 29.2783C29.3305 29.4495 28.9401 29.6124 28.5679 29.7677C25.6715 30.9762 23.8799 31.7237 21.7684 32.3258L21.4054 32.4293L21.1984 31.7034L21.5614 31.5999C23.6276 31.0106 25.3753 30.2815 28.2814 29.0692C28.6519 28.9147 29.0412 28.7523 29.4524 28.5813C30.8504 28 32.0547 27.2151 33.1746 26.4271C33.414 26.2587 33.6507 26.0891 33.8853 25.9211C34.7359 25.312 35.5582 24.7231 36.3743 24.2812L36.7062 24.1015L37.0657 24.7653ZM47.9703 31.4792L48.6875 31.7146L48.5698 32.0733C47.8923 34.1378 47.1728 37.4839 47.2194 40.7901C47.2662 44.1102 48.0827 47.2919 50.3689 49.1537L50.6616 49.3921L50.1849 49.9774L49.8922 49.7391C47.343 47.6631 46.5124 44.1941 46.4646 40.8007C46.4166 37.3933 47.1552 33.9629 47.8526 31.8379L47.9703 31.4792ZM65.0457 43.3812L64.6684 43.3731C62.4023 43.3239 59.9835 42.6121 57.8949 41.7564C55.8029 40.8993 54.0138 39.886 52.9986 39.2086L52.6847 38.9991L53.1037 38.3712L53.4176 38.5807C54.3917 39.2306 56.1364 40.2201 58.1811 41.0579C60.2292 41.897 62.5501 42.5721 64.6847 42.6183L65.0621 42.6265L65.0457 43.3812ZM50.299 37.3358L50.3088 37.7132C50.3461 39.1545 50.6488 41.4009 51.4301 43.4339C52.216 45.479 53.4494 47.2175 55.2908 47.8041L55.6504 47.9187L55.4213 48.6379L55.0617 48.5234C52.8906 47.8317 51.5397 45.8236 50.7255 43.7047C49.9066 41.5738 49.5932 39.239 49.5541 37.7327L49.5444 37.3554L50.299 37.3358ZM80.9785 57.5409L81.0404 57.9133C81.3457 59.7521 82.1192 62.3738 83.4286 64.2838C84.0819 65.2367 84.8514 65.9872 85.7373 66.3906C86.611 66.7883 87.6291 66.8631 88.8264 66.4129L89.1797 66.28L89.4454 66.9866L89.0921 67.1194C87.7175 67.6364 86.4907 67.563 85.4245 67.0776C84.3705 66.5978 83.505 65.7302 82.806 64.7106C81.4109 62.6756 80.6108 59.9345 80.2957 58.0369L80.2338 57.6646L80.9785 57.5409ZM60.642 45.4377L60.2665 45.4761C57.9475 45.7134 55.9849 44.8203 54.4896 43.6359C52.998 42.4543 51.9459 40.9643 51.4279 39.9402L51.2576 39.6034L51.9312 39.2627L52.1016 39.5995C52.5769 40.5393 53.5633 41.9391 54.9583 43.0441C56.3498 44.1463 58.1221 44.9367 60.1897 44.7252L60.5652 44.6868L60.642 45.4377ZM78.3915 55.9603L78.3249 56.3319C78.0801 57.6963 77.9532 59.9441 78.3745 62.2165C78.7962 64.4917 79.757 66.7401 81.6407 68.1803L81.9406 68.4096L81.4821 69.0093L81.1822 68.78C79.0917 67.1817 78.0718 64.7254 77.6322 62.3541C77.1921 59.9801 77.3233 57.6397 77.5818 56.1986L77.6485 55.8271L78.3915 55.9603Z" fill="#FFEDBA"/>
<path d="M97.7208 59.4316C96.384 57.6652 97.2906 54.727 99.7457 52.869C102.201 51.0109 105.275 50.9366 106.612 52.703C107.949 54.4694 107.042 57.4076 104.587 59.2657C102.132 61.1237 99.0576 61.198 97.7208 59.4316Z" fill="#DDC479"/>
<path d="M36.4253 15.611C41.8671 15.4699 40.8288 22.548 39.6294 26.1046C39.0902 24.6944 36.8456 25.0947 35.7907 25.4711C37.8677 20.7572 36.7525 15.6911 36.4253 15.611Z" fill="#DDC479"/>
<path d="M66.5117 33.0002C69.961 35.1727 69.261 40.0848 68.4798 42.2693C67.7556 43.419 62.7556 44.9832 60.3462 45.6216C63.7821 42.4329 65.8882 35.8787 66.5117 33.0002Z" fill="#DDC479"/>
<path d="M24.2733 71.2853L7.05888 79.8469C6.12426 80.1504 2.42741 82.9517 4.01184 87.5184C5.59626 92.085 9.14324 92.2374 10.7187 91.7428C12.8008 91.2699 27.1933 82.9382 28.9976 81.8443C30.441 80.9691 30.6636 82.1502 30.5945 82.8501C29.4559 88.0807 28.6988 99.8115 34.7785 104.89C42.3781 111.238 58.102 99.7302 59.4448 99.0147C60.5191 98.4423 60.6377 99.2456 60.5626 99.7188C59.7155 107.438 59.663 123.597 66.2305 126.485C72.798 129.373 83.9249 121.646 88.6675 117.421C93.522 120.479 100.32 114.501 100.576 110.201C99.2702 100.588 90.5291 103.724 86.7471 105.952C82.9177 108.372 74.6877 112.987 72.4023 112.083C70.1169 111.179 69.9717 109.214 71.216 96.6153C72.4603 84.0166 59.7787 83.6122 55.4662 86.9179C51.1536 90.2237 46.06 94.911 42.3221 92.9134C38.5842 90.9159 41.6023 81.317 41.674 78.0076C41.9363 65.9057 30.4254 68.246 24.2733 71.2853Z" fill="#F8DC85"/>
<path d="M9.16033 90.6854C7.0489 90.9852 5.03031 89.0661 4.65168 86.399C4.27306 83.7319 5.67778 81.3269 7.78921 81.0271C9.90065 80.7274 11.9192 82.6465 12.2979 85.3135C12.6765 87.9806 11.2718 90.3857 9.16033 90.6854Z" fill="#DDC479"/>
<path fill-rule="evenodd" clip-rule="evenodd" d="M65.1689 86.1613L65.2036 86.5372C65.4235 88.9203 65.6015 92.852 65.4228 96.9186C65.2446 100.974 64.7101 105.211 63.4811 108.176L63.3365 108.524L62.6392 108.235L62.7837 107.886C63.9595 105.05 64.4912 100.925 64.6686 96.8855C64.8457 92.8567 64.669 88.9594 64.4519 86.6065L64.4172 86.2307L65.1689 86.1613ZM95.5598 106.414L95.1872 106.475C93.787 106.702 91.6071 107.116 89.6227 107.616C88.63 107.866 87.6933 108.137 86.9302 108.414C86.1501 108.698 85.6058 108.971 85.3497 109.206C84.6508 109.847 83.6469 110.262 82.713 110.526C81.7716 110.791 80.8548 110.915 80.2895 110.948L79.9127 110.97L79.8689 110.217L80.2457 110.195C80.7609 110.165 81.6234 110.049 82.5081 109.799C83.4005 109.548 84.2698 109.172 84.8393 108.65C85.2173 108.303 85.8922 107.989 86.6721 107.705C87.469 107.415 88.4332 107.137 89.4381 106.884C91.4488 106.377 93.6509 105.959 95.0663 105.73L95.4388 105.669L95.5598 106.414ZM69.2048 89.815L69.3163 90.1756C69.5966 91.0812 69.7594 93.0341 69.4301 96.0227C69.0993 99.0253 68.2682 103.105 66.5305 108.282C63.0983 118.507 66.1656 123.636 67.9312 124.883L68.2396 125.1L67.8042 125.717L67.4959 125.499C65.3502 123.985 62.3254 118.437 65.8148 108.042C67.538 102.908 68.3556 98.8815 68.6797 95.94C69.0054 92.9845 68.8293 91.1553 68.5952 90.3987L68.4836 90.0381L69.2048 89.815ZM38.5665 70.5589L38.5093 70.932C38.2658 72.5223 37.3151 76.1678 36.0791 80.1368C34.8418 84.1103 33.3066 88.4468 31.884 91.4196L31.721 91.7601L31.0401 91.4342L31.203 91.0938C32.6017 88.171 34.124 83.8762 35.3583 79.9124C36.594 75.9442 37.529 72.3465 37.7632 70.8178L37.8203 70.4447L38.5665 70.5589ZM33.3571 69.2412L33.446 69.608C33.8148 71.1297 34.1853 73.6801 34.1082 76.4189C34.0312 79.1521 33.5073 82.1191 32.0474 84.4368L31.8463 84.7562L31.2075 84.3539L31.4087 84.0345C32.7651 81.881 33.2783 79.0703 33.3536 76.3977C33.4287 73.7308 33.0666 71.2474 32.7123 69.7859L32.6234 69.419L33.3571 69.2412ZM41.2485 75.1459L41.1944 75.5195C40.7478 78.6024 39.0857 86.0104 35.9857 90.9321C33.0153 95.648 34.302 99.7881 35.2623 101.221L35.4725 101.534L34.8454 101.955L34.6352 101.641C33.5258 99.9859 32.2019 95.5229 35.3469 90.5298C38.3622 85.7426 40.0056 78.46 40.4473 75.4112L40.5014 75.0377L41.2485 75.1459ZM58.4437 86.106L58.7568 86.3168C60.5918 87.5518 63.7269 91.514 62.0731 97.6419L61.9748 98.0063L61.2459 97.8096L61.3443 97.4452C62.9008 91.6775 59.9464 88.0273 58.3353 86.943L58.0222 86.7323L58.4437 86.106ZM30.4339 74.0174C29.5929 72.4564 28.2239 71.4024 27.2291 70.9164L26.8899 70.7508L27.2213 70.0725L27.5604 70.2382C28.6692 70.7798 30.1691 71.9343 31.0984 73.6593C32.0374 75.4022 32.38 77.7046 31.1883 80.4805L31.0394 80.8274L30.3458 80.5296L30.4947 80.1828C31.5942 77.6215 31.2652 75.5605 30.4339 74.0174ZM59.5478 93.8924C57.5125 90.0341 54.4412 89.6313 53.2465 89.8624L52.8759 89.9341L52.7325 89.1929L53.1031 89.1213C54.6176 88.8283 58.0218 89.3817 60.2155 93.5402L60.3916 93.874L59.7239 94.2262L59.5478 93.8924ZM88.7734 111.877L88.4109 111.982C87.6815 112.194 85.6318 112.778 83.2591 113.426C80.7993 114.098 77.8154 113.677 76.6284 113.386L76.2618 113.296L76.4415 112.563L76.8081 112.653C77.9395 112.93 80.7782 113.322 83.0601 112.698C85.429 112.051 87.475 111.468 88.2008 111.257L88.5633 111.152L88.7734 111.877ZM21.2321 76.3629C17.5395 77.3266 13.6447 79.2072 11.1877 80.6479L10.8621 80.8389L10.4803 80.1877L10.8059 79.9967C13.3002 78.5341 17.2606 76.6192 21.0415 75.6325C22.931 75.1394 24.7994 74.8717 26.4283 75.0221C28.0606 75.1728 29.4906 75.7486 30.432 76.9791L30.6614 77.2789L30.0618 77.7376L29.8325 77.4378C29.0612 76.4297 27.862 75.9126 26.3589 75.7738C24.8524 75.6347 23.0795 75.8809 21.2321 76.3629ZM53.8611 94.4642C51.9585 93.7678 50.0123 93.3455 48.8081 93.1711L48.4346 93.117L48.5428 92.3699L48.9163 92.424C50.1648 92.6049 52.1626 93.0386 54.1206 93.7553C56.0649 94.467 58.0348 95.4805 59.1614 96.8542L59.4008 97.146L58.8171 97.6247L58.5778 97.3329C57.585 96.1225 55.7774 95.1657 53.8611 94.4642ZM22.4494 79.7014C19.2428 80.9876 15.6793 82.8924 13.377 84.2556L13.0522 84.4479L12.6676 83.7984L12.9924 83.606C15.3141 82.2314 18.9137 80.3063 22.1684 79.0008C23.7931 78.3491 25.3517 77.8436 26.631 77.6443C27.2702 77.5448 27.8596 77.5183 28.3619 77.599C28.865 77.6799 29.3142 77.8745 29.6194 78.2466L29.8588 78.5384L29.2751 79.0171L29.0357 78.7253C28.8868 78.5437 28.6354 78.4076 28.2421 78.3443C27.848 78.281 27.3453 78.2971 26.7472 78.3902C25.5519 78.5764 24.0553 79.0573 22.4494 79.7014ZM88.2937 116.157L87.9531 116.32C81.6473 119.33 76.2305 116.446 74.2932 114.606L74.0195 114.346L74.5393 113.799L74.813 114.059C76.5976 115.753 81.6864 118.475 87.6279 115.638L87.9685 115.476L88.2937 116.157ZM28.6322 80.5543L28.3003 80.7341C27.5299 81.1513 26.7594 81.7029 25.9158 82.3068C25.6755 82.4788 25.4293 82.655 25.1756 82.8335C24.0433 83.6302 22.7848 84.4537 21.3088 85.0674C20.8971 85.2386 20.5066 85.4015 20.1344 85.5568C17.238 86.7652 15.4464 87.5127 13.3349 88.1149L12.9719 88.2184L12.7649 87.4924L13.1279 87.3889C15.1941 86.7997 16.9419 86.0706 19.848 84.8583C20.2185 84.7037 20.6078 84.5413 21.019 84.3704C22.4169 83.7891 23.6213 83.0042 24.7412 82.2162C24.9805 82.0477 25.2173 81.8782 25.4519 81.7102C26.3024 81.1011 27.1247 80.5122 27.9409 80.0703L28.2728 79.8905L28.6322 80.5543ZM39.5368 87.2683L40.254 87.5037L40.1363 87.8623C39.4588 89.9268 38.7394 93.273 38.7859 96.5791C38.8327 99.8993 39.6492 103.081 41.9354 104.943L42.2281 105.181L41.7514 105.766L41.4587 105.528C38.9096 103.452 38.0789 99.9832 38.0311 96.5898C37.9831 93.1823 38.7217 89.7519 39.4191 87.6269L39.5368 87.2683ZM56.6122 99.1703L56.2349 99.1621C53.9688 99.113 51.55 98.4012 49.4614 97.5455C47.3694 96.6884 45.5803 95.675 44.5652 94.9977L44.2512 94.7882L44.6702 94.1603L44.9842 94.3698C45.9582 95.0197 47.7029 96.0092 49.7476 96.8469C51.7958 97.6861 54.1166 98.3611 56.2512 98.4074L56.6286 98.4156L56.6122 99.1703ZM41.8655 93.1249L41.8753 93.5022C41.9127 94.9436 42.2154 97.19 42.9967 99.223C43.7826 101.268 45.0159 103.007 46.8573 103.593L47.217 103.708L46.9878 104.427L46.6282 104.312C44.4571 103.621 43.1063 101.613 42.292 99.4938C41.4731 97.3629 41.1597 95.0281 41.1207 93.5218L41.1109 93.1445L41.8655 93.1249ZM72.5451 113.33L72.6069 113.702C72.9122 115.541 73.6858 118.163 74.9952 120.073C75.6484 121.026 76.4179 121.776 77.3038 122.18C78.1775 122.577 79.1956 122.652 80.3929 122.202L80.7462 122.069L81.012 122.776L80.6587 122.908C79.284 123.425 78.0573 123.352 76.991 122.867C75.937 122.387 75.0715 121.519 74.3725 120.5C72.9774 118.465 72.1773 115.724 71.8622 113.826L71.8004 113.454L72.5451 113.33ZM52.2086 101.227L51.8331 101.265C49.5141 101.502 47.5514 100.609 46.0561 99.4249C44.5645 98.2434 43.5125 96.7534 42.9945 95.7293L42.8241 95.3924L43.4977 95.0517L43.6681 95.3885C44.1435 96.3284 45.1298 97.7281 46.5249 98.8332C47.9163 99.9354 49.6886 100.726 51.7562 100.514L52.1317 100.476L52.2086 101.227ZM69.958 111.749L69.8914 112.121C69.6466 113.485 69.5197 115.733 69.941 118.006C70.3627 120.281 71.3235 122.529 73.2073 123.969L73.5071 124.199L73.0486 124.798L72.7488 124.569C70.6582 122.971 69.6383 120.514 69.1987 118.143C68.7587 115.769 68.8899 113.429 69.1484 111.988L69.215 111.616L69.958 111.749Z" fill="#FFEDBA"/>
<path d="M89.2873 115.221C87.9505 113.454 88.8571 110.516 91.3123 108.658C93.7674 106.8 96.8414 106.726 98.1783 108.492C99.5151 110.258 98.6085 113.197 96.1533 115.055C93.6981 116.913 90.6241 116.987 89.2873 115.221Z" fill="#DDC479"/>
<path d="M27.9922 71.3995C33.434 71.2585 32.3957 78.3366 31.1963 81.8932C30.6571 80.483 28.4125 80.8833 27.3576 81.2597C29.4346 76.5458 28.3194 71.4797 27.9922 71.3995Z" fill="#DDC479"/>
<path d="M58.0786 88.7888C61.5279 90.9613 60.8279 95.8734 60.0467 98.0578C59.3225 99.2076 54.3225 100.772 51.9131 101.41C55.349 98.2215 57.4551 91.6673 58.0786 88.7888Z" fill="#DDC479"/>
</svg>
