<svg width="149" height="133" viewBox="0 0 149 133" fill="none" xmlns="http://www.w3.org/2000/svg">
<path d="M3.76055 79.8098C4.9638 76.7981 14.7903 58.9789 19.5532 50.4458C24.2625 51.2316 31.1606 53.0401 38.3539 56.0698C49.5395 60.7811 61.4387 68.4455 66.931 79.8098C78.2114 103.15 60.1627 134.02 60.9148 132.514C61.5164 131.31 43.1167 127.495 33.8417 125.738C-12.7841 112.185 2.25649 83.5744 3.76055 79.8098Z" fill="#F8DC85"/>
<path fill-rule="evenodd" clip-rule="evenodd" d="M38.3523 55.6745C38.3754 56.0897 38.0579 56.445 37.6432 56.4681C35.4169 56.5919 31.8447 56.9645 28.3905 57.6772C26.6637 58.0335 24.9807 58.4719 23.5165 59.0009C22.0422 59.5336 20.839 60.1408 20.0342 60.8122C19.7151 61.0784 19.2409 61.0353 18.975 60.7158C18.7091 60.3964 18.7523 59.9216 19.0713 59.6554C20.0714 58.821 21.4627 58.142 23.0059 57.5845C24.5593 57.0233 26.3167 56.5676 28.0869 56.2024C31.6265 55.472 35.2738 55.0917 37.5597 54.9645C37.9744 54.9415 38.3293 55.2593 38.3523 55.6745ZM27.2153 65.2567C21.9435 67.4869 16.9578 70.6528 13.9877 72.8829C13.6555 73.1324 13.1841 73.065 12.9349 72.7323C12.6857 72.3997 12.753 71.9278 13.0853 71.6783C16.1315 69.3909 21.2229 66.1569 26.6299 63.8696C29.3344 62.7255 32.1391 61.8091 34.8206 61.373C37.4973 60.9376 40.0995 60.9729 42.3666 61.7835C42.7577 61.9234 42.9615 62.3542 42.8218 62.7458C42.6822 63.1374 42.2518 63.3415 41.8607 63.2017C39.9164 62.5064 37.5928 62.4476 35.0617 62.8593C32.5354 63.2702 29.8503 64.142 27.2153 65.2567ZM17.7739 77.5509C11.2171 81.1875 4.98372 86.0448 1.25512 89.4045C0.946401 89.6827 0.470901 89.6577 0.193057 89.3486C-0.0847872 89.0395 -0.0597609 88.5634 0.248955 88.2853C4.04064 84.8687 10.3661 79.938 17.0451 76.2336C20.3848 74.3813 23.8355 72.8228 27.1181 71.9193C30.3923 71.0181 33.5652 70.7501 36.3096 71.5583C36.708 71.6756 36.9361 72.0941 36.8189 72.493C36.7017 72.892 36.2837 73.1203 35.8852 73.0029C33.5158 72.3052 30.6537 72.5078 27.5168 73.3713C24.3884 74.2324 21.0521 75.7327 17.7739 77.5509ZM28.4751 78.8935C40.8854 74.4669 54.8618 73.4078 63.9538 73.7871C64.3687 73.8044 64.6911 74.1552 64.6738 74.5707C64.6566 74.9862 64.3061 75.3089 63.8912 75.2916C54.9345 74.918 41.1609 75.9671 28.9799 80.312C16.7856 84.6616 6.3724 92.2387 3.7442 104.811C3.65911 105.218 3.26058 105.478 2.85406 105.393C2.44753 105.308 2.18696 104.909 2.27204 104.502C5.05846 91.1733 16.0781 83.3154 28.4751 78.8935ZM24.6204 92.6158C16.1472 98.7933 11.4602 107.266 9.7463 113.149C9.63001 113.548 9.21251 113.778 8.81379 113.661C8.41507 113.545 8.18611 113.127 8.30241 112.728C10.098 106.564 14.9617 97.7948 23.735 91.3985C32.5341 84.9835 45.2189 80.9903 62.5609 84.341C62.9687 84.4198 63.2355 84.8147 63.1568 85.223C63.0781 85.6312 62.6837 85.8984 62.2759 85.8196C45.3254 82.5445 33.0679 86.4571 24.6204 92.6158ZM48.9679 89.3817C57.6183 87.9717 65.6426 91.422 70.3925 95.0208C70.7237 95.2717 70.789 95.744 70.5384 96.0755C70.2877 96.4071 69.8161 96.4725 69.4849 96.2216C64.9598 92.7931 57.3419 89.5424 49.2095 90.868C41.1316 92.1847 32.3476 98.0517 25.5025 113.248C25.3318 113.627 24.8864 113.796 24.5078 113.625C24.1292 113.454 23.9607 113.008 24.1314 112.629C31.1237 97.1059 40.263 90.8006 48.9679 89.3817ZM47.2958 104.333C40.6205 108.1 35.1736 114.177 32.2109 118.627C31.9806 118.973 31.5136 119.066 31.1681 118.835C30.8225 118.605 30.7291 118.137 30.9595 117.791C34.0131 113.205 39.621 106.935 46.5574 103.022C53.5158 99.0956 61.8981 97.5048 70.3221 102.503C70.6794 102.715 70.7974 103.177 70.5857 103.534C70.3739 103.892 69.9126 104.01 69.5553 103.798C61.7355 99.1587 53.9491 100.58 47.2958 104.333ZM51.5419 112.745C46.9124 115.697 43.2281 120.409 41.2625 123.853C41.0565 124.214 40.5971 124.339 40.2365 124.133C39.8758 123.927 39.7506 123.467 39.9566 123.106C42.0018 119.522 45.8379 114.597 50.734 111.475C55.6604 108.334 61.7396 106.984 68.0695 110.787C68.4257 111.001 68.5412 111.463 68.3275 111.82C68.1138 112.177 67.6518 112.292 67.2957 112.078C61.5932 108.653 56.1412 109.813 51.5419 112.745ZM55.8349 120.997C53.7677 122.532 52.852 124.539 52.6318 125.862C52.5635 126.272 52.1761 126.549 51.7664 126.481C51.3567 126.412 51.0799 126.025 51.1482 125.614C51.4294 123.925 52.5442 121.566 54.939 119.788C57.3506 117.997 60.9982 116.841 66.2664 117.461C66.6789 117.51 66.974 117.884 66.9254 118.297C66.8769 118.71 66.5032 119.005 66.0907 118.957C61.1313 118.373 57.8853 119.475 55.8349 120.997Z" fill="#FFEDBA"/>
<path d="M103.765 78.1006C106.979 77.6936 126.678 72.662 136.126 70.1971C136.553 65.4363 136.543 58.2971 135.427 50.5643C133.691 38.5397 129.281 25.0798 119.68 16.8952C99.9607 0.0852501 65.575 9.79524 67.22 9.44598C68.536 9.16657 67.5878 27.955 66.9492 37.3841C68.3023 85.9739 99.7469 78.6094 103.765 78.1006Z" fill="#F8DC85"/>
<path d="M69.9387 12.0469C67.4319 38.3992 76.5565 86.7369 133.109 69.2691C122.28 36.7428 86.4833 17.5684 69.9387 12.0469Z" fill="#C6B273" fill-opacity="0.5"/>
<path fill-rule="evenodd" clip-rule="evenodd" d="M87.9847 7.46687C88.0192 7.88126 87.7116 8.24518 87.2977 8.27971C81.3332 8.77735 77.853 11.4248 76.4183 13.1382C78.3171 13.7377 80.4352 14.5021 82.7119 15.4344C85.4716 12.4563 91.9432 7.70282 100.073 8.28423C100.488 8.31386 100.799 8.67411 100.77 9.08888C100.74 9.50365 100.38 9.81587 99.9662 9.78625C92.7907 9.2731 86.9418 13.2909 84.1983 16.0575C86.2938 16.9563 88.5059 17.9899 90.7908 19.1606C92.4232 17.1763 95.1624 14.6896 98.5729 13.0912C102.292 11.3481 106.855 10.6454 111.618 12.8706C111.995 13.0465 112.157 13.4945 111.982 13.8713C111.806 14.2481 111.359 14.4111 110.982 14.2352C106.721 12.2442 102.635 12.8499 99.2105 14.455C96.1737 15.8783 93.6919 18.0747 92.1573 19.8727C94.4258 21.0747 96.7573 22.4096 99.1107 23.8797C102.365 20.1706 110.657 14.8689 121.382 19.6411C121.762 19.8099 121.932 20.2549 121.764 20.6349C121.595 21.0149 121.151 21.186 120.771 21.0171C110.991 16.6651 103.45 21.3418 100.398 24.6963C102.71 26.1849 105.037 27.804 107.338 29.5557C109.499 26.6609 115.922 24.2506 128.163 29.9772C128.539 30.1532 128.702 30.6013 128.526 30.978C128.35 31.3548 127.903 31.5175 127.526 31.3414C115.439 25.6869 110.069 28.4568 108.534 30.4796C110.56 32.0687 112.561 33.762 114.511 35.5608C117.691 34.7425 124.889 34.3584 131.984 38.5018C132.343 38.7113 132.464 39.1723 132.255 39.5315C132.045 39.8907 131.585 40.012 131.226 39.8025C125.182 36.2725 119.073 36.249 115.844 36.8147C117.724 38.6193 119.55 40.5253 121.295 42.534C122.203 42.2546 123.58 42.1731 125.36 42.4809C127.602 42.8687 130.569 43.8873 134.24 46.031C134.599 46.2405 134.72 46.7016 134.511 47.0608C134.301 47.4199 133.841 47.5413 133.482 47.3317C129.933 45.2591 127.135 44.3161 125.104 43.9648C123.927 43.7612 123.033 43.76 122.405 43.8377C124.368 46.1935 126.218 48.6854 127.918 51.3153C128.777 51.5928 130.023 52.061 131.286 52.6654C132.673 53.3286 134.15 54.1885 135.145 55.1841C135.439 55.4781 135.439 55.9548 135.145 56.2488C134.851 56.5429 134.375 56.5429 134.081 56.2488C133.271 55.4374 131.98 54.666 130.638 54.0241C130.152 53.7918 129.669 53.5808 129.213 53.3948C132.079 58.1784 134.442 63.3962 136.087 69.0588C136.203 69.458 135.974 69.8759 135.575 69.992C135.176 70.1082 134.759 69.8787 134.643 69.4794C132.827 63.23 130.115 57.5284 126.8 52.3585C124.885 49.3698 122.767 46.5587 120.506 43.9223C118.381 41.4444 116.128 39.1212 113.796 36.9504C111.614 34.9188 109.362 33.021 107.08 31.255C104.362 29.1515 101.602 27.2356 98.8659 25.5039C96.0774 23.7391 93.3149 22.1661 90.6491 20.7815C88.0101 19.4109 85.4675 18.2257 83.0899 17.2221C82.8282 17.3684 82.4929 17.3489 82.2469 17.1473C82.123 17.0459 82.0398 16.913 81.9994 16.7697C79.4137 15.7158 77.0453 14.8859 74.9888 14.2747L74.8059 14.2204L74.6711 14.0853C72.5799 11.9917 71.1124 10.9332 70.1287 10.5266C69.6434 10.326 69.3449 10.3134 69.1775 10.3471C69.0372 10.3753 68.927 10.4468 68.8232 10.6089C68.5679 11.0074 68.4479 11.812 68.529 12.9487C68.6066 14.0368 68.8546 15.2652 69.1592 16.3631C69.2703 16.7638 69.036 17.1788 68.6358 17.2901C68.2357 17.4014 67.8211 17.1668 67.71 16.7661C67.3879 15.6052 67.1156 14.2737 67.0288 13.056C66.9454 11.8869 67.0165 10.6398 67.5571 9.79591C67.8512 9.33686 68.2902 8.98957 68.8814 8.87071C69.4454 8.75732 70.0607 8.8694 70.7026 9.1347C71.8415 9.60538 73.2777 10.6485 75.0898 12.388C76.7124 10.3196 80.6278 7.32513 87.1728 6.77907C87.5867 6.74454 87.9502 7.05247 87.9847 7.46687Z" fill="#FFEDBA"/>
</svg>
