<svg width="149" height="96" viewBox="0 0 149 96" fill="none" xmlns="http://www.w3.org/2000/svg">
<path d="M78.0494 37.6732C73.7382 39.1102 70.0439 38.4607 68.4825 37.7801C67.5372 37.8057 66.4495 37.4771 65.1744 36.7852C63.7698 36.0232 62.0524 34.7736 59.9211 32.8888C55.6733 29.1324 49.6734 22.7552 41.0854 12.3849C37.795 10.4558 31.6373 7.38295 26.2782 5.21733C23.5541 4.11649 21.0886 3.27169 19.3287 2.91882C18.4297 2.73857 17.8204 2.70975 17.4778 2.7748C17.4459 2.78085 17.4197 2.78712 17.3984 2.79304C17.4218 4.95915 18.2353 7.01572 19.0862 8.57203C19.5141 9.35485 19.9423 9.99434 20.2621 10.4363C20.4218 10.657 20.5537 10.8274 20.6442 10.9409C20.6894 10.9975 20.7242 11.0399 20.7468 11.0671L20.7713 11.0964L20.7763 11.1023L21.8222 12.3138L20.2435 12.5769C18.4745 12.8717 15.83 13.4459 13.6459 14.2031C12.5478 14.5838 11.6161 14.9939 10.9758 15.4109C10.6558 15.6193 10.446 15.8056 10.3237 15.9588C10.3155 15.9691 10.3078 15.9791 10.3007 15.9887C10.4113 16.1689 10.4654 16.334 10.5003 16.4738C10.5158 16.5358 10.5276 16.5901 10.5392 16.6436C10.5715 16.7927 10.6023 16.9353 10.7088 17.2192C11.0075 18.0156 11.8569 19.7419 14.5492 23.7804L15.3688 25.0098L13.9003 25.173C12.5779 25.3199 10.604 25.6281 8.97806 26.0689C8.15819 26.2912 7.47813 26.5338 7.02143 26.7813C6.80836 26.8967 6.68291 26.9927 6.6178 27.0577C6.62029 27.0711 6.6233 27.086 6.62692 27.1025C6.64467 27.1833 6.67389 27.2871 6.71747 27.4156C6.80495 27.6736 6.93791 27.9945 7.11304 28.3704C7.46277 29.121 7.9543 30.0344 8.51077 31.0027C9.62208 32.9364 10.9596 35.0321 11.8515 36.37L12.2162 36.9171L11.8055 37.4305C11.3977 37.9402 10.791 38.364 10.1424 38.7325C9.48017 39.1088 8.69421 39.471 7.8627 39.8301C7.36007 40.0471 6.8409 40.2632 6.31308 40.483C5.05994 41.0047 3.75784 41.5468 2.51296 42.1692C2.12295 42.3642 1.94883 42.5433 1.87313 42.663C1.80912 42.7643 1.78327 42.8713 1.80698 43.0296C1.86686 43.4295 2.22673 44.0361 2.99738 44.8377C4.15227 46.0389 5.8531 47.3128 7.49063 48.5392C7.99001 48.9132 8.4835 49.2828 8.95382 49.6446L9.92483 50.3915L8.92122 51.094C7.44409 52.128 5.33044 53.7592 3.77632 55.2916C2.99098 56.0659 2.40051 56.7649 2.09075 57.3152C1.93642 57.5893 1.8888 57.7627 1.88102 57.848C2.56451 58.5223 3.99228 59.6671 5.55638 60.8605C7.12856 62.0601 8.78435 63.2684 9.82745 64.0135L10.7519 64.6739L9.89693 65.422C8.72161 66.4504 7.05906 68.0718 5.87827 69.591C5.28196 70.3582 4.85239 71.0442 4.64902 71.5807C4.54793 71.8474 4.52368 72.0237 4.5281 72.1242C4.5301 72.1697 4.53755 72.19 4.53938 72.1945C4.53938 72.1945 4.54089 72.1983 4.54519 72.2026C5.17623 72.8336 6.43472 73.6827 7.83224 74.5167C9.20393 75.3353 10.6228 76.089 11.5054 76.5304L12.3097 76.9325L11.9076 77.7368C11.3197 78.9126 10.4826 80.7642 9.88445 82.4857C9.58456 83.3488 9.35461 84.1513 9.24096 84.8061C9.18416 85.1333 9.16053 85.4009 9.16479 85.6074C9.16836 85.7802 9.19085 85.8713 9.20304 85.9075C9.21588 85.9179 9.24247 85.9367 9.29081 85.9609C9.41 86.0207 9.60317 86.0835 9.88681 86.1321C10.4542 86.2295 11.2243 86.2447 12.1082 86.1937C13.865 86.0925 15.8826 85.7427 17.2029 85.4493L19.0472 85.0394L18.2023 86.7293C17.6111 87.9118 16.7712 89.7252 16.1714 91.3198C15.8697 92.1218 15.6416 92.8351 15.5302 93.3721C15.4909 93.5616 15.4705 93.7091 15.4628 93.8183C15.4907 93.8276 15.5231 93.8375 15.5604 93.848C15.7896 93.9125 16.1129 93.9722 16.5278 94.0184C17.3542 94.1102 18.4579 94.1388 19.7195 94.084C22.2459 93.9741 25.3065 93.534 27.9046 92.668C28.4792 92.4765 29.4742 91.9738 30.8349 91.1697C32.1751 90.3777 33.8133 89.3277 35.6517 88.0834C39.3276 85.5956 43.7787 82.3485 48.204 78.8754C52.6306 75.4014 57.0192 71.7109 60.5751 68.3363C64.162 64.9322 66.8054 61.9375 67.8507 59.8469L67.916 59.7164L68.0192 59.6132C68.8589 58.7735 70.5668 57.5544 72.5833 57.0194C74.6291 56.4767 77.0649 56.631 79.1356 58.6678L81.9636 60.7888L82.5084 61.5612C83.7487 63.5541 86.1103 66.1124 89.1744 68.9389C92.6435 72.139 96.9177 75.5982 101.231 78.8413C105.543 82.0834 109.881 85.1001 113.472 87.4156C115.268 88.5736 116.872 89.5524 118.188 90.295C119.522 91.0474 120.51 91.528 121.095 91.7231C123.694 92.5891 126.754 93.0292 129.281 93.139C130.542 93.1939 131.646 93.1653 132.472 93.0734C132.887 93.0273 133.21 92.9676 133.44 92.9031C133.472 92.8939 133.502 92.885 133.527 92.8767L133.537 92.8734C133.53 92.7642 133.509 92.6167 133.47 92.4272C133.358 91.8902 133.13 91.1769 132.829 90.3749C132.229 88.7803 131.389 86.9669 130.798 85.7844L129.953 84.0945L131.797 84.5044C133.117 84.7978 135.135 85.1476 136.892 85.2488C137.776 85.2997 138.546 85.2846 139.113 85.1872C139.397 85.1385 139.59 85.0757 139.709 85.016C139.758 84.9918 139.784 84.973 139.797 84.9626C139.809 84.9264 139.832 84.8353 139.835 84.6625C139.839 84.456 139.816 84.1884 139.759 83.8612C139.645 83.2064 139.415 82.4039 139.116 81.5408C138.517 79.8193 137.68 77.9677 137.092 76.7919L136.69 75.9876L137.495 75.5855C138.377 75.1441 139.796 74.3904 141.168 73.5718C142.565 72.7378 143.824 71.8887 144.455 71.2577C144.459 71.2534 144.46 71.2501 144.46 71.2501C144.462 71.2456 144.47 71.2248 144.472 71.1793C144.476 71.0788 144.452 70.9025 144.351 70.6358C144.148 70.0993 143.718 69.4133 143.122 68.6461C141.941 67.1269 140.278 65.5055 139.103 64.4771L138.248 63.729L139.173 63.0686C140.216 62.3235 141.871 61.1152 143.444 59.9156C145.008 58.7222 146.435 57.5774 147.119 56.9031C147.111 56.8178 147.064 56.6444 146.909 56.3703C146.599 55.82 146.009 55.121 145.224 54.3467C143.67 52.8143 141.556 51.1831 140.079 50.1491L139.075 49.4466L140.046 48.6997C140.517 48.3379 141.01 47.9683 141.509 47.5943C143.147 46.3679 144.848 45.094 146.003 43.8928C146.773 43.0912 147.133 42.4846 147.193 42.0847C147.217 41.9263 147.191 41.8194 147.127 41.7181C147.051 41.5984 146.877 41.4193 146.487 41.2243C145.242 40.6019 143.94 40.0599 142.687 39.5382C142.159 39.3185 141.64 39.1021 141.137 38.8851C140.306 38.5261 139.52 38.1639 138.858 37.7876C138.209 37.4191 137.602 36.9953 137.195 36.4856L136.784 35.9722L137.149 35.4251C138.04 34.0872 139.378 31.9915 140.489 30.0578C141.046 29.0895 141.537 28.1761 141.887 27.4255C142.062 27.0496 142.195 26.7286 142.283 26.4707C142.326 26.3422 142.355 26.2383 142.373 26.1576C142.377 26.1411 142.38 26.1262 142.382 26.1128C142.317 26.0478 142.192 25.9518 141.979 25.8363C141.522 25.5889 140.842 25.3463 140.022 25.124C138.396 24.6832 136.422 24.375 135.1 24.2281L133.631 24.0649L134.451 22.8355C137.143 18.797 137.993 17.0707 138.291 16.2743C138.398 15.9904 138.429 15.8478 138.461 15.6987C138.472 15.6452 138.484 15.5909 138.5 15.5289C138.535 15.3891 138.588 15.2251 138.699 15.0448C138.692 15.0352 138.685 15.0242 138.676 15.0139C138.554 14.8607 138.344 14.6744 138.024 14.466C137.384 14.0489 136.452 13.6388 135.354 13.2582C133.17 12.501 130.526 11.9268 128.757 11.632L127.178 11.3689L128.223 10.1582L128.229 10.1515L128.253 10.1222C128.276 10.095 128.311 10.0526 128.356 9.99594C128.446 9.8825 128.578 9.71205 128.738 9.49141C129.058 9.04943 129.486 8.40994 129.914 7.62712C130.765 6.07081 131.578 4.01424 131.602 1.84813C131.58 1.84221 131.554 1.83594 131.522 1.82989C131.18 1.76484 130.57 1.79366 129.671 1.97391C127.911 2.32678 125.446 3.17158 122.722 4.27242C117.363 6.43805 111.205 9.51087 107.915 11.44C99.3226 21.8129 93.6901 27.4614 89.7322 30.7485C86.2381 33.6503 84.0473 34.7098 82.3552 35.5282C82.1092 35.6471 81.8738 35.761 81.6464 35.8747L78.0494 37.6732Z" fill="#F8DC85"/>
<path d="M70.1411 56.6525L44.9622 55.7541C56.6524 57.5517 57.8935 68.3427 50.3577 75.5366L70.1411 56.6525Z" fill="#C1AC6E" fill-opacity="0.5"/>
<path d="M79.1338 56.6516L104.313 55.7532C92.6225 57.5508 91.3814 68.3418 98.9172 75.5357L79.1338 56.6516Z" fill="#C1AC6E" fill-opacity="0.5"/>
<path d="M67.4439 38.6676H44.0635C48.3799 37.2288 54.8544 34.1713 48.5597 23.3804C52.7562 26.9774 66.7245 38.6676 67.4439 38.6676Z" fill="#C1AC6E" fill-opacity="0.5"/>
<path d="M79.1528 38.6676H102.533C98.2168 37.2288 91.7423 34.1713 98.037 23.3804C93.8405 26.9774 79.8722 38.6676 79.1528 38.6676Z" fill="#C1AC6E" fill-opacity="0.5"/>
<path fill-rule="evenodd" clip-rule="evenodd" d="M95.3965 40.8842H52.6953V39.0671H95.3965V40.8842Z" fill="#FFF1C9"/>
<path fill-rule="evenodd" clip-rule="evenodd" d="M95.3965 57.2378H52.6953V55.4207H95.3965V57.2378Z" fill="#FFF1C9"/>
</svg>
