<svg width="141" height="121" viewBox="0 0 141 121" fill="none" xmlns="http://www.w3.org/2000/svg">
<path d="M15.7313 30.2217C5.63768 30.8125 1.62993 36.8679 0.887759 39.8217C-2.67468 61.0896 5.34081 65.9142 9.79386 65.6681C12.7626 65.0773 13.9995 60.0065 14.2469 57.5449C22.5593 59.3173 24.1426 54.3449 23.8952 51.6372C31.6138 55.1819 35.0278 48.6833 35.77 44.991C41.7074 47.9449 47.6448 42.2833 49.8713 39.0833C56.4025 42.6279 63.4779 35.6371 66.1992 31.6986C69.1679 32.9294 74.9568 34.2094 74.3631 29.4832C73.7694 24.757 77.0844 18.6524 78.8162 16.1908C80.0036 12.0554 86.7327 12.0062 89.9488 12.4985C88.4644 9.54465 84.3082 3.04614 79.5583 0.68305C74.8084 -1.68004 69.6627 2.65228 67.6835 5.11383C59.3712 3.34151 53.3348 9.29848 51.3557 12.4985C46.012 9.54464 40.223 14.7139 37.9965 17.6678C35.0278 14.1231 29.3378 20.6216 26.8639 24.314C20.9265 22.5416 16.9682 27.514 15.7313 30.2217Z" fill="#F8DC85"/>
<path d="M81.2061 2.85547C77.1233 3.46227 77.5607 11.1989 78.2898 14.9914C81.2061 10.7438 85.3374 11.1989 87.0385 11.9574C87.6218 11.3506 83.3932 5.63662 81.2061 2.85547Z" fill="#DDC479"/>
<path d="M2.48905 60.5272C-0.478677 54.6128 1.0057 33.9124 1.74768 40.5661C2.3283 45.7728 6.22747 53.799 9.76393 57.6255C11.0166 64.0301 10.6522 64.9628 9.16759 64.9628C8.11828 64.9628 3.68548 62.9115 2.48905 60.5272Z" fill="#DDC479"/>
<path d="M22.1303 54.8272C22.1303 57.1654 16.7439 57.2629 14.0507 57.0193C13.5463 56.4757 13.1066 55.9015 12.7261 55.3016C13.9008 53.9275 11.8703 48.6036 10.7083 46.1135C11.0931 39.9309 14.0254 33.5306 16.2543 29.9829C12.7288 40.5052 18.7027 50.93 22.1303 54.8272Z" fill="#DDC479"/>
<path d="M32.1245 49.0562C32.1245 51.456 26.738 51.556 24.0448 51.306C23.5404 50.7481 23.1007 50.1588 22.7203 49.5431C23.895 48.1328 21.8645 42.6689 20.7024 40.1131C21.0873 33.7679 24.0196 27.1991 26.2485 23.5581C22.723 34.3573 28.6968 45.0565 32.1245 49.0562Z" fill="#DDC479"/>
<path d="M44.2604 43.3452C44.2604 45.745 38.874 45.845 36.1808 45.595C35.6764 45.0372 35.2367 44.4478 34.8562 43.8322C36.031 42.4219 34.0005 36.9579 32.8384 34.4022C33.2233 28.057 36.1556 21.4882 38.3845 17.8472C34.8589 28.6463 40.8328 39.3455 44.2604 43.3452Z" fill="#DDC479"/>
<path d="M57.8242 36.98C57.8242 39.3183 52.1011 39.4157 49.2396 39.1721C48.7037 38.6286 48.2364 38.0543 47.8322 37.4545C49.0804 36.0804 46.923 30.7565 45.6882 28.2663C46.0972 22.0837 49.2127 15.6834 51.5809 12.1357C47.8351 22.658 54.1823 33.0829 57.8242 36.98Z" fill="#DDC479"/>
<path d="M66.2556 30.8892C59.2717 23.203 64.5144 10.1956 68.1518 4.2832C64.6602 14.9256 70.1348 26.9475 73.5295 30.8892C73.5295 33.2541 69.1655 31.6282 66.2556 30.8892Z" fill="#DDC479"/>
<path fill-rule="evenodd" clip-rule="evenodd" d="M78.9847 2.42989C79.818 2.05195 80.6739 2.08014 81.3823 2.31576L80.9124 3.72241C80.5063 3.58735 80.0434 3.57847 79.5996 3.77973C79.1597 3.97925 78.6563 4.4231 78.2396 5.3443C77.3879 7.22723 76.9814 10.9323 78.1644 17.7195L76.7004 17.9735C75.5058 11.1195 75.8422 7.04017 76.8852 4.73434C77.4158 3.56117 78.1476 2.80956 78.9847 2.42989ZM63.0853 12.3947C64.0659 9.80676 65.3891 7.35735 66.3859 5.61672L67.6761 6.35237C66.6916 8.07147 65.4142 10.441 64.4752 12.9191C63.5281 15.4187 62.9673 17.9231 63.3056 19.9487C63.4972 21.0956 63.8982 22.2013 64.3331 23.3779L64.3717 23.4824C64.7876 24.607 65.2291 25.8007 65.4612 27.0582C65.7038 28.372 65.7224 29.7708 65.2692 31.2929C64.8177 32.8093 63.9114 34.403 62.3712 36.132L61.2606 35.1469C62.6923 33.5397 63.4691 32.1323 63.8447 30.8706C64.2187 29.6145 64.2087 28.4579 63.9999 27.3268C63.7912 26.1964 63.3886 25.1073 62.9596 23.9468L62.9389 23.891C62.5102 22.7311 62.058 21.4984 61.8399 20.1925C61.4352 17.7699 62.1128 14.9611 63.0853 12.3947ZM47.4781 19.0671C48.4587 16.4791 49.7819 14.0297 50.7787 12.2891L52.0689 13.0247C51.0844 14.7438 49.807 17.1133 48.8681 19.5914C47.9209 22.091 47.3601 24.5954 47.6984 26.6211C47.89 27.7679 48.2912 28.8735 48.7265 30.0501C48.7396 30.0854 48.7527 30.1209 48.7659 30.1564C49.182 31.2804 49.6236 32.4734 49.8562 33.7302C50.0994 35.044 50.1186 36.4428 49.6658 37.965C49.2147 39.4816 48.3087 41.0753 46.7685 42.8043L45.6578 41.8192C47.0895 40.2121 47.866 38.8048 48.2412 37.5431C48.6148 36.2872 48.6043 35.1306 48.3949 33.9994C48.1859 32.8697 47.7831 31.7813 47.354 30.6215L47.3325 30.5636C46.9034 29.4037 46.4508 28.1709 46.2327 26.8648C45.828 24.4422 46.5057 21.6335 47.4781 19.0671ZM34.1005 24.998C35.0811 22.4101 36.4043 19.9607 37.4011 18.22L38.6913 18.9557C37.7069 20.6748 36.4294 23.0443 35.4905 25.5224C34.5434 28.022 33.9825 30.5264 34.3209 32.552C34.5073 33.668 34.8908 34.825 35.3112 36.093C35.3271 36.1408 35.343 36.1887 35.3589 36.2368C35.7905 37.5394 36.2481 38.945 36.4863 40.4192C36.973 43.4322 36.5351 46.699 33.4003 50.218L32.2897 49.2329C35.0988 46.0796 35.4422 43.2735 35.0192 40.6551C34.8025 39.3138 34.3826 38.014 33.948 36.7022C33.9274 36.6401 33.9068 36.5778 33.8861 36.5156C33.4779 35.285 33.061 34.0283 32.8551 32.7958C32.4505 30.3732 33.1281 27.5645 34.1005 24.998ZM22.2105 31.6704C23.1911 29.0824 24.5143 26.633 25.5111 24.8924L26.8013 25.628C25.8168 27.3471 24.5394 29.7166 23.6005 32.1947C22.6534 34.6943 22.0925 37.1988 22.4309 39.2244C22.6173 40.3403 23.0008 41.4973 23.4212 42.7654C23.4371 42.8131 23.4529 42.861 23.4689 42.9091C23.9005 44.2118 24.3581 45.6173 24.5962 47.0915C25.0829 50.1045 24.6451 53.3714 21.5103 56.8904L20.3997 55.9053C23.2088 52.7519 23.5521 49.9458 23.1292 47.3275C22.9125 45.9861 22.4926 44.6864 22.058 43.3745C22.0374 43.3124 22.0168 43.2502 21.9961 43.1879C21.5879 41.9574 21.171 40.7006 20.9651 39.4682C20.5605 37.0456 21.2381 34.2368 22.2105 31.6704ZM11.8052 37.6013C12.7858 35.0134 14.109 32.564 15.1058 30.8234L16.396 31.559C15.4115 33.2781 14.1341 35.6476 13.1952 38.1257C12.2481 40.6253 11.6872 43.1297 12.0256 45.1554C12.212 46.2713 12.5955 47.4283 13.0159 48.6963C13.0318 48.7441 13.0476 48.792 13.0636 48.8401C13.4952 50.1428 13.9528 51.5483 14.191 53.0225C14.6776 56.0355 14.2398 59.3023 11.105 62.8213L9.99438 61.8363C12.8035 58.6829 13.1468 55.8768 12.7239 53.2585C12.5072 51.9171 12.0873 50.6174 11.6527 49.3055C11.6321 49.2434 11.6115 49.1812 11.5908 49.1189C11.1826 47.8883 10.7657 46.6316 10.5598 45.3991C10.1552 42.9765 10.8328 40.1678 11.8052 37.6013Z" fill="#FFEDBA"/>
<path d="M58.7789 81.3298C49.7962 85.971 48.5949 93.1325 49.117 96.1331C54.504 117.014 63.7884 118.165 67.7572 116.13C70.2297 114.384 69.2995 109.248 68.5253 106.899C76.8406 105.14 76.2668 99.9537 74.9405 97.5802C83.4335 97.6826 83.9123 90.3575 83.0901 86.6822C89.7155 86.9685 92.8401 79.3828 93.5742 75.5541C100.982 76.1391 104.606 66.8764 105.493 62.1719C108.705 62.0902 114.515 60.9074 112.052 56.8303C109.589 52.7531 110.137 45.8281 110.719 42.8753C110.124 38.6141 116.253 35.8349 119.391 34.9779C116.835 32.882 110.396 28.633 105.096 28.4039C99.7958 28.1748 96.8544 34.2243 96.0463 37.2777C87.7309 39.036 84.636 46.9318 84.1279 50.66C78.045 50.1323 74.856 57.2079 74.0219 60.8116C69.869 58.7791 67.3105 67.029 66.5504 71.4081C60.4051 72.2013 58.8089 78.353 58.7789 81.3298Z" fill="#F8DC85"/>
<path d="M107.485 29.7193C104.001 31.9327 107.544 38.8241 109.751 41.9931C110.69 36.927 114.65 35.6641 116.512 35.6659C116.799 34.8745 110.613 31.3717 107.485 29.7193Z" fill="#DDC479"/>
<path d="M58.9937 114.402C53.8788 110.204 46.8236 90.6861 50.2052 96.4642C52.8515 100.986 59.6756 106.735 64.4619 108.794C68.2089 114.137 68.255 115.138 66.8984 115.741C65.9397 116.167 61.0558 116.094 58.9937 114.402Z" fill="#DDC479"/>
<path d="M74.6242 101.212C75.5743 103.349 70.6922 105.627 68.1324 106.498C67.4507 106.207 66.8155 105.861 66.2242 105.467C66.7392 103.734 62.7205 99.6948 60.6468 97.8916C58.4863 92.0861 58.5648 85.0465 59.1598 80.8992C60.2142 91.9462 69.9087 99.0441 74.6242 101.212Z" fill="#DDC479"/>
<path d="M81.4111 91.878C82.3862 94.0707 77.5052 96.3508 74.9428 97.2168C74.2552 96.912 73.6139 96.5522 73.0162 96.1443C73.5165 94.3783 69.4409 90.2109 67.3406 88.3479C65.1139 82.3937 65.124 75.2001 65.6811 70.9676C66.8479 82.2676 76.6539 89.6162 81.4111 91.878Z" fill="#DDC479"/>
<path d="M90.1792 81.7286C91.1543 83.9213 86.2733 86.2014 83.7108 87.0674C83.0233 86.7626 82.382 86.4028 81.7842 85.9949C82.2845 84.2289 78.209 80.0614 76.1086 78.1984C73.882 72.2443 73.8921 65.0507 74.4492 60.8182C75.616 72.1182 85.422 79.4668 90.1792 81.7286Z" fill="#DDC479"/>
<path d="M99.9864 70.4011C100.937 72.5377 95.7469 74.9522 93.0333 75.8925C92.3227 75.6135 91.6625 75.2787 91.0494 74.8949C91.6315 73.1321 87.4969 69.1442 85.3568 67.3706C83.2182 61.5554 83.4642 54.4412 84.1865 50.2374C85.0395 61.3739 95.0752 68.3201 99.9864 70.4011Z" fill="#DDC479"/>
<path d="M105.215 61.4095C95.7108 57.2244 95.2156 43.209 96.1367 36.3286C97.2708 47.4716 107.158 56.2317 111.862 58.4538C112.823 60.6147 108.174 60.9024 105.215 61.4095Z" fill="#DDC479"/>
<path fill-rule="evenodd" clip-rule="evenodd" d="M105.282 30.2335C105.89 29.5495 106.683 29.2275 107.426 29.1549L107.569 30.6312C107.143 30.6728 106.716 30.8528 106.392 31.217C106.071 31.578 105.792 32.1882 105.785 33.1992C105.772 35.2657 106.906 38.8163 110.745 44.5372L109.511 45.3643C105.634 39.587 104.284 35.7229 104.3 33.1922C104.308 31.9047 104.671 30.9205 105.282 30.2335ZM94.8035 45.7992C94.6478 43.0361 94.8616 40.2603 95.0651 38.2648L96.5429 38.4127C96.3419 40.3835 96.1375 43.0677 96.2866 45.7135C96.4369 48.3823 96.9421 50.8985 98.0743 52.6119C98.7154 53.582 99.5311 54.4294 100.407 55.3277L100.484 55.4075C101.321 56.266 102.21 57.1774 102.933 58.232C103.688 59.334 104.274 60.6044 104.478 62.1794C104.682 63.7485 104.501 65.5729 103.796 67.7785L102.381 67.3297C103.037 65.2795 103.174 63.6779 103.005 62.3724C102.836 61.0727 102.357 60.02 101.707 59.0713C101.057 58.1233 100.246 57.2917 99.3827 56.4057L99.3412 56.3631C98.4781 55.4775 97.564 54.5348 96.8341 53.4302C95.4799 51.3811 94.9578 48.5393 94.8035 45.7992ZM83.2541 58.2377C83.0985 55.4746 83.3123 52.6989 83.5158 50.7034L84.9936 50.8513C84.7926 52.8221 84.5882 55.5062 84.7372 58.1521C84.8875 60.8208 85.3927 63.3371 86.525 65.0504C87.166 66.0205 87.9819 66.8677 88.8578 67.7658C88.8841 67.7928 88.9105 67.8199 88.9369 67.847C89.7738 68.7049 90.6622 69.6156 91.3854 70.6694C92.1414 71.7711 92.7273 73.0414 92.9322 74.6162C93.1362 76.1852 92.956 78.0096 92.2512 80.2153L90.8361 79.7665C91.4912 77.7162 91.6289 76.1149 91.4591 74.8096C91.2901 73.5102 90.8105 72.4577 90.1596 71.5092C89.5095 70.5619 88.6992 69.731 87.8358 68.8457L87.7927 68.8015C86.9292 67.916 86.0148 66.9735 85.2848 65.8688C83.9306 63.8196 83.4085 60.9779 83.2541 58.2377ZM73.4408 69.0929C73.2852 66.3298 73.4989 63.554 73.7024 61.5585L75.1802 61.7064C74.9792 63.6772 74.7749 66.3614 74.9239 69.0072C75.0742 71.676 75.5794 74.1922 76.7117 75.9056C77.3354 76.8495 78.156 77.7508 79.0554 78.7386C79.0893 78.7758 79.1233 78.8132 79.1574 78.8506C80.0811 79.8655 81.0704 80.9638 81.887 82.2141C83.556 84.7693 84.4834 87.9322 83.049 92.4214L81.6339 91.9726C82.9193 87.9499 82.0928 85.2463 80.6424 83.0258C79.8994 81.8882 78.9876 80.8712 78.0574 79.8492C78.0133 79.8008 77.9692 79.7523 77.925 79.7038C77.052 78.7453 76.1603 77.7664 75.4714 76.7239C74.1173 74.6748 73.5951 71.833 73.4408 69.0929ZM65.2879 80.021C65.1323 77.2579 65.3461 74.4821 65.5496 72.4866L67.0274 72.6345C66.8264 74.6053 66.622 77.2895 66.771 79.9353C66.9213 82.6041 67.4265 85.1203 68.5588 86.8337C69.1826 87.7776 70.0032 88.6789 70.9026 89.6667C70.9364 89.7039 70.9704 89.7413 71.0045 89.7787C71.9282 90.7936 72.9175 91.8919 73.7341 93.1422C75.4031 95.6974 76.3306 98.8603 74.8961 103.35L73.4811 102.901C74.7664 98.878 73.9399 96.1744 72.4895 93.9539C71.7465 92.8163 70.8347 91.7993 69.9045 90.7773C69.8604 90.7289 69.8163 90.6804 69.7721 90.6319C68.8991 89.6734 68.0075 88.6945 67.3186 87.652C65.9644 85.6029 65.4423 82.7611 65.2879 80.021ZM58.1904 89.6684C58.0348 86.9052 58.2486 84.1295 58.4521 82.134L59.9299 82.2819C59.7289 84.2527 59.5245 86.9369 59.6735 89.5827C59.8238 92.2515 60.329 94.7677 61.4613 96.4811C62.0851 97.425 62.9057 98.3263 63.8051 99.3141C63.8389 99.3513 63.8729 99.3886 63.907 99.4261C64.8307 100.441 65.82 101.539 66.6366 102.79C68.3056 105.345 69.2331 108.508 67.7986 112.997L66.3836 112.548C67.6689 108.525 66.8424 105.822 65.392 103.601C64.649 102.464 63.7372 101.447 62.807 100.425C62.7629 100.376 62.7188 100.328 62.6746 100.279C61.8016 99.3208 60.91 98.3419 60.2211 97.2994C58.8669 95.2503 58.3448 92.4085 58.1904 89.6684Z" fill="#FFEDBA"/>
</svg>
