<svg width="120" height="126" viewBox="0 0 120 126" fill="none" xmlns="http://www.w3.org/2000/svg">
<path d="M39.1121 1.43295C34.2085 1.88245 37.0689 4.99149 39.1121 6.48982L53.0431 16.6036C53.0431 18.851 56.015 19.7875 57.5009 19.9748C57.9467 22.2223 60.6586 22.7842 61.9588 22.7842C62.4046 25.4812 65.1164 26.1554 66.4166 26.1554C66.4166 28.4029 69.3885 29.714 70.8745 30.0885C72.2118 33.235 74.4036 33.6471 75.3323 33.4598C75.3323 35.7073 78.3042 37.0183 79.7902 37.3929C80.236 40.0899 82.9478 40.7641 84.248 40.7641C83.8022 43.0116 87.0342 44.3227 88.7059 44.6973C89.1517 47.3943 91.8635 48.4431 93.1637 48.6304L104.866 57.6204C109.509 61.3662 118.796 67.397 118.796 61.5535C118.796 54.2491 113.224 40.7641 110.995 37.3929C109.212 34.6959 102.822 30.2758 99.8505 28.4029C100.296 26.1554 98.1788 25.219 97.0643 25.0317C96.1728 21.4357 94.0924 20.9113 93.1637 21.0985C93.1637 18.851 90.9348 17.54 89.8203 17.1654C89.3745 15.3674 87.0342 14.5433 85.9197 14.3561C85.0282 12.1086 82.2048 11.1721 80.9046 10.9848C80.0131 8.73731 76.8183 8.55002 75.3323 8.73731C75.3323 6.93931 72.7319 6.48982 71.4317 6.48982C68.6456 2.55671 63.0733 1.43295 60.2871 0.309206C58.0582 -0.589793 45.2417 0.683789 39.1121 1.43295Z" fill="#F8DC85"/>
<path fill-rule="evenodd" clip-rule="evenodd" d="M70.8746 15.9707C72.6907 13.5367 74.09 10.8253 74.8183 9.08105L75.8455 9.51713C75.0879 11.3315 73.6453 14.1264 71.7651 16.6463C69.9005 19.1452 67.5301 21.4767 64.8911 22.2024L64.5979 21.1183C66.8626 20.4955 69.0429 18.4256 70.8746 15.9707ZM75.7623 18.5538C77.8131 15.9967 79.4918 13.1387 80.4058 11.2953L81.4026 11.7979C80.4592 13.7004 78.7388 16.6296 76.6289 19.2604C74.5386 21.8668 71.9826 24.2875 69.349 25.0118L69.0557 23.9276C71.3258 23.3034 73.6919 21.1354 75.7623 18.5538ZM80.9036 21.7977C83.0043 19.1903 84.5971 16.4198 85.4157 14.6773L86.4229 15.1584C85.5698 16.9744 83.9307 19.8226 81.7686 22.5063C79.6142 25.1802 76.8925 27.7513 73.8602 28.9272L73.4602 27.8784C76.2232 26.8069 78.7951 24.4147 80.9036 21.7977ZM84.8989 24.8537C86.9243 22.0704 88.4946 19.2359 89.3163 17.4867L90.3235 17.9677C89.4736 19.777 87.8676 22.6737 85.7974 25.5185C83.7336 28.3545 81.1718 31.1902 78.3988 32.8213L77.8373 31.8506C80.4137 30.3352 82.867 27.6458 84.8989 24.8537ZM82.7988 35.2577C88.0297 31.3018 91.9196 24.0328 93.2053 20.8845L94.2358 21.3124C92.921 24.532 88.9354 32.0216 83.4675 36.1567L82.7988 35.2577ZM92.4705 31.4652C94.2531 28.906 95.7456 26.3416 96.5714 24.7687L97.5564 25.2945C96.7105 26.9055 95.194 29.5103 93.3825 32.1111C91.5775 34.7023 89.4494 37.3339 87.3759 38.9601L86.6916 38.073C88.6302 36.5527 90.6813 34.0338 92.4705 31.4652Z" fill="#FFEDBA"/>
<path d="M68.0882 10.4225C59.1725 14.468 44.6845 7.23852 38.5549 3.1181C39.4465 1.32011 53.4144 0.870605 60.2869 0.870605C68.7568 4.9161 69.0169 8.92414 68.0882 10.4225Z" fill="#DDC479"/>
<path d="M100.527 36.121C99.9949 45.9647 111.901 56.9897 117.921 61.2718C119.263 59.7856 114.649 46.4844 112.174 40.0196C105.381 33.509 101.579 34.7078 100.527 36.121Z" fill="#DDC479"/>
<path fill-rule="evenodd" clip-rule="evenodd" d="M63.7584 11.2789C59.578 11.085 55.4477 10.3193 52.9419 9.85139L53.1448 8.74643C55.6541 9.21498 59.715 9.96638 63.8096 10.1564C67.9372 10.3479 71.9533 9.95882 74.4663 8.26953L75.0845 9.20455C72.248 11.1113 67.9057 11.4714 63.7584 11.2789ZM100.959 29.05C100.09 34.7463 101.867 40.2145 102.603 42.2575L101.556 42.6415C100.807 40.5641 98.9432 34.8698 99.8572 28.8791L100.959 29.05Z" fill="#DDC479"/>
<path d="M71.4383 44.7599C71.5709 39.7968 68.1732 42.2964 66.4578 44.1666L54.8624 56.93C52.6489 56.6663 51.3778 59.5323 51.019 60.9984C48.7532 61.181 47.8816 63.8307 47.7291 65.1327C45.0205 65.2626 44.0383 67.8991 43.8857 69.2011C41.6722 68.9373 40.0323 71.7595 39.489 73.2035C36.2331 74.1735 35.5702 76.3199 35.6457 77.2719C33.4321 77.0082 31.7922 79.8303 31.2489 81.2744C28.5404 81.4043 27.5581 84.0408 27.4056 85.3427C25.2444 84.6326 23.5739 87.7152 23.0089 89.3452C20.3003 89.4751 18.9491 92.0676 18.6121 93.3477L8.385 104.011C4.15094 108.221 -2.87839 116.813 2.87678 117.499C10.0707 118.356 24.0057 114.358 27.5875 112.522C30.453 111.053 35.556 105.173 37.7493 102.417C39.9105 103.127 41.0813 101.117 41.3965 100.023C45.0427 99.5517 45.8033 97.53 45.7278 96.5781C47.9414 96.8418 49.4941 94.7636 49.9938 93.6916C51.8169 93.4562 52.9032 91.2093 53.2184 90.1153C55.5365 89.4862 56.7901 86.7689 57.1271 85.4889C59.4452 84.8598 60.0046 81.6826 59.9944 80.1727C61.7653 80.3836 62.5131 77.8324 62.6656 76.5304C66.8662 74.2019 68.6268 68.7539 70.0605 66.0958C71.2074 63.9693 71.4569 50.9858 71.4383 44.7599Z" fill="#F8DC85"/>
<path fill-rule="evenodd" clip-rule="evenodd" d="M53.3933 74.8597C55.5774 76.9639 58.0837 78.6833 59.7161 79.6172L59.1661 80.5946C57.4681 79.6231 54.8846 77.8506 52.6234 75.6722C50.381 73.5118 48.363 70.8646 47.9579 68.1369L49.06 67.9704C49.4077 70.3113 51.1905 72.7374 53.3933 74.8597ZM50.2757 79.451C52.5535 81.8046 55.1715 83.821 56.8797 84.9525L56.2678 85.8917C54.5047 84.7239 51.8216 82.6574 49.4781 80.2359C47.1564 77.8369 45.0722 74.9934 44.6679 72.2712L45.7701 72.1048C46.1185 74.4511 47.9761 77.0749 50.2757 79.451ZM46.4777 84.2187C48.7991 86.6282 51.3408 88.5483 52.961 89.5725L52.369 90.5246C50.6806 89.4572 48.0677 87.4817 45.6783 85.0017C43.2975 82.5307 41.0847 79.5035 40.2823 76.3292L41.3622 76.0517C42.0934 78.9442 44.1476 81.8003 46.4777 84.2187ZM42.9991 87.8609C45.5026 90.2157 48.11 92.1207 49.7364 93.1488L49.1444 94.1009C47.4622 93.0375 44.7978 91.0895 42.2389 88.6826C39.6879 86.2833 37.1956 83.3853 35.9146 80.4171L36.9365 79.9687C38.1267 82.7264 40.4875 85.4986 42.9991 87.8609ZM32.9987 84.5372C36.2811 90.2395 42.9837 94.9876 45.9336 96.6444L45.3913 97.6261C42.3746 95.9318 35.4659 91.0619 32.0349 85.1013L32.9987 84.5372ZM35.5991 94.6671C37.9104 96.7524 40.2609 98.5479 41.7132 99.5594L41.0798 100.484C39.5924 99.448 37.2048 97.6237 34.856 95.5046C32.5157 93.3931 30.1736 90.9533 28.8153 88.6861L29.7692 88.1051C31.039 90.2246 33.2792 92.5741 35.5991 94.6671Z" fill="#FFEDBA"/>
<path d="M59.1839 72.7205C56.2457 63.3179 65.0658 49.6583 69.8431 44.0039C71.5093 45.1076 70.3131 59.1474 69.5067 66.0293C64.5286 74.0361 60.5506 73.8263 59.1839 72.7205Z" fill="#DDC479"/>
<path d="M30.0686 102.189C20.4362 100.501 8.18077 111.13 3.25714 116.655C4.56335 118.174 18.2049 115.114 24.8624 113.394C32.0716 107.356 31.3371 103.408 30.0686 102.189Z" fill="#DDC479"/>
<path fill-rule="evenodd" clip-rule="evenodd" d="M58.849 68.2848C59.5305 64.1215 60.7692 60.0754 61.5241 57.621L62.5885 57.9539C61.8326 60.4116 60.6161 64.39 59.9486 68.4678C59.2756 72.5786 59.1876 76.6458 60.5565 79.3605L59.5631 79.8698C58.018 76.8058 58.1728 72.4152 58.849 68.2848ZM36.9817 103.451C31.4735 101.912 25.8794 103.05 23.7808 103.548L23.5255 102.454C25.6594 101.948 31.4863 100.75 37.2792 102.368L36.9817 103.451Z" fill="#DDC479"/>
</svg>
