<svg width="110" height="142" viewBox="0 0 110 142" fill="none" xmlns="http://www.w3.org/2000/svg">
<path d="M83.8399 69.3845L49.4863 117.271C45.8273 122.476 46.3632 129.243 47.4043 138.091C48.2371 145.17 53.6503 141.041 56.2529 138.091L86.4423 95.9303C89.045 92.2868 89.5655 89.1637 89.5655 88.6432C89.5655 84.8262 90.9637 76.9292 90.0858 69.9049C89.045 61.5769 85.0544 68.17 83.8399 69.3845Z" fill="#F8DC85"/>
<path d="M56.7735 124.558C53.8586 108.735 50.0069 117.965 48.4454 124.558C47.7498 127.057 48.1555 132.886 48.4454 135.489C49.6946 143.401 53.1301 138.785 55.2121 135.489C55.8696 134.448 56.947 128.202 56.7735 124.558Z" fill="#DDC479"/>
<path fill-rule="evenodd" clip-rule="evenodd" d="M88.3109 68.964C88.543 69.1335 88.5938 69.4592 88.4242 69.6913L54.5913 116.016C54.4217 116.249 54.0961 116.299 53.8639 116.13C53.6318 115.96 53.581 115.635 53.7506 115.402L87.5836 69.0773C87.7531 68.8452 88.0787 68.7944 88.3109 68.964Z" fill="#FFEDBA"/>
<path fill-rule="evenodd" clip-rule="evenodd" d="M89.8721 73.1279C90.1045 73.297 90.1559 73.6225 89.9869 73.855L56.6744 119.66C56.5053 119.892 56.1798 119.944 55.9473 119.774C55.7148 119.605 55.6634 119.28 55.8325 119.047L89.145 73.2427C89.314 73.0102 89.6396 72.9588 89.8721 73.1279Z" fill="#FFEDBA"/>
<path fill-rule="evenodd" clip-rule="evenodd" d="M89.8724 79.3739C90.1046 79.5433 90.1556 79.869 89.9862 80.1012L57.7147 124.344C57.5453 124.577 57.2197 124.627 56.9875 124.458C56.7552 124.289 56.7043 123.963 56.8737 123.731L89.1451 79.4877C89.3145 79.2555 89.6401 79.2045 89.8724 79.3739Z" fill="#FFEDBA"/>
<path fill-rule="evenodd" clip-rule="evenodd" d="M89.3486 86.1382C89.5822 86.3058 89.6356 86.631 89.468 86.8646L57.7171 131.108C57.5495 131.341 57.2243 131.395 56.9907 131.227C56.7572 131.059 56.7037 130.734 56.8713 130.501L88.6223 86.2576C88.7899 86.024 89.1151 85.9706 89.3486 86.1382Z" fill="#FFEDBA"/>
<path d="M102.935 3.62426L68.5813 51.5108C64.9223 56.7159 65.4582 63.4825 66.4992 72.3311C67.332 79.41 72.7453 75.2807 75.3478 72.3311L105.537 30.1701C108.14 26.5265 108.66 23.4035 108.66 22.883C108.66 19.0659 110.059 11.1689 109.181 4.1447C108.14 -4.18335 104.149 2.40974 102.935 3.62426Z" fill="#F8DC85"/>
<path d="M75.8684 58.798C72.9536 42.9745 69.1019 52.2049 67.5403 58.798C66.8447 61.2964 67.2505 67.1261 67.5403 69.7286C68.7895 77.6403 72.2251 73.0251 74.3071 69.7286C74.9646 68.6876 76.0419 62.4415 75.8684 58.798Z" fill="#DDC479"/>
<path fill-rule="evenodd" clip-rule="evenodd" d="M107.406 3.20372C107.638 3.37326 107.689 3.6989 107.519 3.93105L73.6862 50.2562C73.5167 50.4883 73.1911 50.5391 72.9589 50.3695C72.7268 50.2 72.676 49.8743 72.8456 49.6422L106.679 3.31707C106.848 3.08492 107.174 3.03417 107.406 3.20372Z" fill="#FFEDBA"/>
<path fill-rule="evenodd" clip-rule="evenodd" d="M108.967 7.36766C109.2 7.53674 109.251 7.86227 109.082 8.09476L75.7694 53.8994C75.6003 54.1319 75.2748 54.1833 75.0423 54.0142C74.8098 53.8451 74.7584 53.5196 74.9275 53.2871L108.24 7.48246C108.409 7.24998 108.735 7.19858 108.967 7.36766Z" fill="#FFEDBA"/>
<path fill-rule="evenodd" clip-rule="evenodd" d="M108.967 13.6137C109.2 13.7831 109.251 14.1087 109.081 14.341L76.8097 58.584C76.6403 58.8163 76.3147 58.8672 76.0825 58.6978C75.8502 58.5284 75.7993 58.2028 75.9687 57.9706L108.24 13.7275C108.41 13.4952 108.735 13.4443 108.967 13.6137Z" fill="#FFEDBA"/>
<path fill-rule="evenodd" clip-rule="evenodd" d="M108.444 20.3784C108.677 20.546 108.731 20.8712 108.563 21.1048L76.8121 65.3479C76.6445 65.5814 76.3193 65.6349 76.0857 65.4673C75.8522 65.2997 75.7987 64.9745 75.9663 64.7409L107.717 20.4978C107.885 20.2643 108.21 20.2108 108.444 20.3784Z" fill="#FFEDBA"/>
<path d="M38.1416 16.7099L47.6202 74.8773C48.5833 81.1664 45.0945 86.9891 40.2276 94.452C36.3341 100.422 33.3214 94.3167 32.3018 90.5176L24.0073 39.3301C23.2961 34.9093 24.2185 31.8805 24.4499 31.4143C26.1472 27.9953 28.406 20.3002 32.3156 14.3989C36.9509 7.40215 37.5937 15.082 38.1416 16.7099Z" fill="#F8DC85"/>
<path d="M37.8531 78.1644C47.4997 65.2872 46.8456 75.2676 45.3127 81.8674C44.8249 84.4145 41.8693 89.4558 40.4525 91.6581C35.8157 98.1892 34.7906 92.5278 34.3914 88.6493C34.2654 87.4245 36.0777 81.3508 37.8531 78.1644Z" fill="#DDC479"/>
<path fill-rule="evenodd" clip-rule="evenodd" d="M34.3238 14.3453C34.0404 14.394 33.8502 14.6631 33.8988 14.9464L43.6054 71.4837C43.654 71.7671 43.9232 71.9573 44.2065 71.9087C44.4898 71.86 44.68 71.5909 44.6314 71.3076L34.9248 14.7703C34.8762 14.4869 34.6071 14.2967 34.3238 14.3453Z" fill="#FFEDBA"/>
<path fill-rule="evenodd" clip-rule="evenodd" d="M31.0747 17.3808C30.7913 17.4289 30.6005 17.6976 30.6486 17.981L40.1203 73.8207C40.1684 74.1041 40.4372 74.2949 40.7206 74.2468C41.004 74.1987 41.1948 73.93 41.1467 73.6466L31.6749 17.8069C31.6269 17.5235 31.3581 17.3327 31.0747 17.3808Z" fill="#FFEDBA"/>
<path fill-rule="evenodd" clip-rule="evenodd" d="M28.2967 22.9756C28.0134 23.0241 27.823 23.2931 27.8714 23.5765L37.1051 77.5546C37.1535 77.8379 37.4225 78.0283 37.7059 77.9799C37.9892 77.9314 38.1796 77.6624 38.1312 77.379L28.8975 23.4009C28.8491 23.1176 28.5801 22.9272 28.2967 22.9756Z" fill="#FFEDBA"/>
<path fill-rule="evenodd" clip-rule="evenodd" d="M25.7584 29.267C25.4746 29.3132 25.2822 29.5808 25.3284 29.8645L34.0959 83.6112C34.1421 83.8949 34.4097 84.0874 34.6934 84.0411C34.9771 83.9948 35.1696 83.7273 35.1233 83.4436L26.3559 29.6969C26.3096 29.4132 26.0421 29.2207 25.7584 29.267Z" fill="#FFEDBA"/>
</svg>
