<svg width="150" height="100" viewBox="0 0 150 100" fill="none" xmlns="http://www.w3.org/2000/svg">
<path d="M98.4425 19.5877C98.4524 19.5925 98.4623 19.5974 98.4722 19.6022C102.367 21.5055 107.673 24.9506 109.306 28.6752C111.197 30.4442 111.854 32.3116 111.548 34.1666C112.644 34.3809 122.132 30.7631 122.497 37.629C128.409 40.7968 134.999 45.8405 133.746 49.8889C135.076 51.3594 136.148 53.3022 136.129 55.2776C145.849 61.3717 154.93 73.9068 137.79 82.0072C134.783 88.2124 122.743 98.4245 98.6364 89.6318C96.7477 89.814 94.656 89.9414 92.424 90.0224C72.6295 102.181 51.3032 92.7939 43.1144 86.5807C38.7329 85.7153 34.8168 84.7718 31.3248 83.7676C-0.330659 85.176 2.06593 75.2442 7.22116 70.1023C3.19041 63.9213 5.96436 57.976 9.98627 54.6235C11.0958 54.2111 13.3577 53.3865 13.5295 53.3865C12.7942 50.7805 16.447 47.8451 19.6923 45.8932C19.6457 44.238 20.8324 42.7086 22.5456 41.4527C24.2976 40.5312 28.6658 37.9964 29.4092 38.6881C26.1612 33.5326 27.1839 31.1808 29.4974 31.0923C30.6906 31.0304 33.2765 31.0795 34.0742 31.7712C31.8868 25.9495 33.7675 24.3479 35.777 24.5069L37.5576 24.8543C37.7295 23.5377 38.9716 23.2418 40.5472 23.4893C40.5472 21.9188 41.7576 19.0109 46.5994 19.9428C45.5906 18.8198 44.9996 17.776 44.7412 16.9536C44.818 16.0327 46.5755 14.6519 52.9907 16.4964C51.7203 15.1302 51.1824 13.8799 51.1201 12.9602C50.8621 12.0376 51.6142 10.5345 56.6866 11.9033C55.3827 10.7641 54.9631 9.76062 55.0531 9.06037C54.733 7.81292 56.1678 5.39834 64.4681 5.71954C71.9129 3.43572 83.9743 2.52137 89.4702 12.3583C90.0965 13.4793 90.4633 14.4189 90.6055 15.1972C93.0477 14.4656 98.0729 13.8418 98.6364 17.1991C98.6553 18.0536 98.5878 18.8491 98.4425 19.5877Z" fill="#F8DC85"/>
<path fill-rule="evenodd" clip-rule="evenodd" d="M77.4803 5.91743C73.132 5.24586 68.4855 5.99415 64.8909 7.09685C63.8327 7.42146 62.8782 7.77303 62.063 8.1203C61.3308 8.43221 60.4844 8.0915 60.1725 7.35931C60.1625 7.33588 60.1532 7.31232 60.1445 7.28867C58.7127 7.46543 57.7815 7.76775 57.2034 8.07437C56.602 8.39342 56.4779 8.64228 56.4571 8.73317L56.5178 8.96956L56.4826 9.2437C56.4827 9.24268 56.4827 9.24338 56.4829 9.24581C56.4857 9.28785 56.5229 9.84622 57.6349 10.8178C59.4212 12.3786 63.3917 14.4428 71.2164 16.2377C72.1067 16.4419 73.0453 16.6423 74.0346 16.8379C70.579 15.6039 67.1448 14.1632 64.3443 12.8748L64.0788 12.7527L63.8818 12.5367C63.418 12.0281 62.7271 11.0609 62.9673 9.90678C63.2429 8.58236 64.4773 8.01406 65.5991 7.78823C66.7999 7.54646 68.5016 7.54198 70.8219 7.80936C73.1668 8.07956 76.2392 8.63965 80.2277 9.5923C81.0018 9.77719 81.4795 10.5546 81.2946 11.3287C81.1097 12.1027 80.3323 12.5804 79.5582 12.3955C75.6365 11.4588 72.6843 10.9251 70.492 10.6724C68.3845 10.4296 67.0622 10.4571 66.2845 10.5918C71.0381 12.7376 77.2741 15.1661 82.2322 16.3051C84.8887 16.9154 86.955 17.0997 88.2067 16.8307C88.8084 16.7014 89.0321 16.5075 89.1126 16.3983C89.1741 16.3148 89.3022 16.0801 89.1881 15.4558C89.0849 14.8906 88.7963 14.1058 88.2124 13.0608C85.7293 8.61641 81.783 6.58198 77.4803 5.91743ZM81.637 19.1254C81.6582 19.2633 81.6597 19.4066 81.6387 19.5519C81.5392 20.2401 80.9687 20.744 80.3008 20.7843C82.3387 21.6277 84.2347 22.2295 85.8158 22.438C87.7923 22.6986 88.79 22.2974 89.2605 21.6427C89.563 21.2217 89.8026 20.5057 89.7988 19.3456C89.4783 19.4786 89.1451 19.5769 88.8122 19.6484C86.9062 20.058 84.3221 19.7389 81.637 19.1254ZM92.3331 16.2634C92.9457 19.3001 92.7765 21.6887 91.6009 23.3246C90.1686 25.3176 87.7209 25.5961 85.4391 25.2953C83.0997 24.9869 80.4115 24.0168 77.7946 22.8404C75.2264 21.6859 72.6333 20.2892 70.3645 18.9989C62.7998 17.2445 58.3779 15.1608 56.0054 13.2139C53.9673 12.6946 52.9662 12.7593 52.5586 12.8704C52.5943 13.3549 52.9204 14.304 54.0462 15.5148C56.4612 18.112 62.2047 21.5037 74.1101 23.3549C75.1421 23.5153 76.2196 23.6641 77.3443 23.7996C78.0181 23.8809 78.5269 24.4148 78.6031 25.0602C81.8648 25.9935 85.4219 26.3178 88.5557 25.8693C93.0762 25.2224 96.2881 23.0763 97.0288 19.3093C97.0557 19.1724 97.0796 19.0325 97.1004 18.8896C97.1011 18.8849 97.1018 18.8802 97.1025 18.8756C97.1709 18.3997 97.2044 17.8905 97.1979 17.3462C97.1138 16.9611 96.9299 16.7311 96.6744 16.5564C96.3542 16.3376 95.8571 16.1696 95.1744 16.0975C94.2732 16.0024 93.2475 16.0944 92.3331 16.2634ZM95.3534 26.4708C93.5069 27.6693 91.2785 28.391 88.9641 28.7223C83.9124 29.4453 78.0334 28.414 73.447 26.1681C71.6309 25.8812 69.9425 25.5573 68.3743 25.2032C73.5764 29.1205 80.1453 32.6444 85.6533 32.8878C88.4969 33.0135 90.9631 32.2646 92.8853 30.3228C93.8155 29.3832 94.6579 28.1245 95.3534 26.4708ZM65.6527 24.5269C58.7689 22.65 54.5786 20.1566 52.2231 17.7769C49.3315 16.9806 47.6444 16.9406 46.7496 17.1049C46.6042 17.1316 46.4887 17.1606 46.3973 17.189C46.6561 17.6926 47.0648 18.3039 47.6717 18.9795C48.1352 19.4956 48.7075 20.0411 49.4025 20.5959C52.3077 22.9148 57.34 25.3766 65.4202 26.5004C65.0379 25.9911 65.0283 25.2699 65.4404 24.7454C65.5046 24.6637 65.5759 24.5908 65.6527 24.5269ZM69.9619 29.8302C69.8855 29.8374 69.8076 29.8386 69.7285 29.8333C67.3001 29.6709 65.0712 29.3997 63.0291 29.0421C64.5703 30.2445 66.5711 31.6095 68.7191 32.7208C71.7996 34.3146 74.8943 35.2351 77.3127 34.76C78.0937 34.6066 78.8511 35.1153 79.0045 35.8963C79.1579 36.6772 78.6492 37.4346 77.8683 37.588C74.4521 38.2591 70.6122 36.9453 67.3947 35.2806C64.1196 33.586 61.1896 31.3697 59.4709 29.8273C59.0016 29.4061 58.8732 28.7467 59.1045 28.1964C58.4761 28.0334 57.8694 27.8617 57.2841 27.6822C57.606 29.1119 58.6582 31.5981 61.0885 34.7464C63.8463 38.3189 68.3168 42.6601 75.2841 47.1422C82.7468 47.8484 91.2133 46.3392 98.0008 43.6672C101.442 42.3125 104.389 40.6832 106.53 38.9467C108.361 37.4618 109.482 35.9992 109.939 34.6648C109.595 35.1299 109.183 35.5784 108.706 36.0092C106.202 38.272 101.711 40.2128 94.6546 41.7643C93.9484 42.2441 93.1898 42.6947 92.3774 43.1056C87.2171 45.7159 80.0252 46.6592 70.5687 43.5633C69.8123 43.3157 69.3999 42.5018 69.6475 41.7455C69.835 41.1727 70.3472 40.7972 70.9132 40.7561C70.4617 40.4434 70.21 39.8851 70.3159 39.3098C70.46 38.5271 71.2113 38.0094 71.994 38.1535C87.2413 40.9599 93.9762 35.7891 95.3372 33.5467C95.7502 32.8663 96.6364 32.6495 97.3168 33.0624C97.7249 33.3101 97.9662 33.7281 98.0049 34.1698C98.4207 33.4737 98.7411 32.8055 98.9709 32.1986C99.2527 31.4543 100.085 31.0794 100.829 31.3612C101.573 31.643 101.948 32.4748 101.666 33.2191C101.156 34.5677 100.313 36.1053 99.1123 37.6257C102.964 36.4282 105.378 35.1321 106.774 33.8706C107.724 33.0125 108.15 32.2191 108.298 31.5238C108.446 30.8277 108.349 30.0787 107.987 29.2536C107.315 27.721 105.807 26.1083 103.854 24.594C102.512 23.5529 101.028 22.6109 99.6148 21.8242C98.806 26.6069 97.203 30.0579 94.9335 32.3504C92.3144 34.9961 88.9871 35.92 85.526 35.767C80.3866 35.5399 74.7557 32.9389 69.9619 29.8302ZM100.018 18.7681C101.817 19.7054 103.819 20.9194 105.621 22.3167C107.617 23.8648 109.502 25.7409 110.501 27.8242C111.961 29.2577 112.806 30.8369 113.012 32.4924C113.132 32.4686 113.261 32.4434 113.398 32.4171C114.463 32.2123 115.87 31.9729 117.286 31.9621C118.677 31.9515 120.27 32.1576 121.578 33.017C122.786 33.8108 123.583 35.0493 123.85 36.7249C126.672 38.2908 129.624 40.2716 131.812 42.394C132.991 43.5383 134.008 44.7803 134.643 46.0773C135.163 47.1407 135.454 48.3057 135.302 49.4925C136.394 50.8515 137.325 52.5811 137.529 54.4635C142.297 57.5954 147.002 62.3161 148.422 67.5095C149.183 70.2898 148.999 73.2127 147.373 75.9967C145.824 78.6487 143.045 81.0422 138.853 83.0946C135.154 90.0297 122.393 99.708 98.4499 91.0965C96.7214 91.2558 94.8403 91.3707 92.8528 91.448C82.6912 97.5679 72.1626 98.2434 63.1598 96.6084C54.276 94.9949 46.8169 91.1242 42.5123 87.9299C38.3197 87.0939 34.545 86.1848 31.1536 85.2172C23.2976 85.5547 17.4605 85.1988 13.2018 84.3634C8.93234 83.5258 6.06907 82.1716 4.40863 80.3666C2.66343 78.4694 2.4057 76.2526 2.97306 74.2175C3.41515 72.6317 4.34982 71.1536 5.42735 69.913C3.71663 66.8102 3.47012 63.7218 4.18903 60.9412C4.97189 57.9132 6.87173 55.3435 9.06381 53.5162L9.25328 53.3583L9.48448 53.2724C10.0431 53.0648 10.893 52.7529 11.6274 52.4921C11.7563 52.4463 11.8826 52.4018 12.0038 52.3594C12.1252 50.8302 13.0812 49.4561 14.069 48.4066C15.2549 47.1467 16.8178 45.9947 18.3068 45.0542C18.6119 43.0694 20.1041 41.4555 21.6939 40.2902L21.7803 40.2269L21.875 40.1771C22.0878 40.0651 22.3545 39.9208 22.6579 39.7566C23.5189 39.2906 24.6762 38.6643 25.7409 38.1619C26.197 37.9467 26.6666 37.7391 27.1163 37.5682C26.1955 35.7344 25.7889 34.1452 25.9358 32.8298C26.0394 31.9022 26.4257 31.0788 27.1202 30.4911C27.7943 29.9207 28.6252 29.685 29.4322 29.6524C30.0527 29.6206 31.0015 29.616 31.9358 29.7013C31.5361 27.9279 31.5605 26.4828 32.0159 25.356C32.3646 24.4932 32.9535 23.8572 33.6959 23.4748C34.4143 23.1048 35.1908 23.0147 35.8909 23.0701L35.9726 23.0765L36.6983 23.2181C37.0256 22.7799 37.4718 22.4507 37.9997 22.2435C38.4275 22.0756 38.885 21.996 39.3441 21.9744C39.5883 21.1923 40.0418 20.3745 40.8006 19.7002C41.5675 19.0187 42.5575 18.5605 43.7767 18.3929C43.6049 18.0457 43.4682 17.7086 43.3667 17.3854L43.2818 17.1154L43.3054 16.8335C43.4232 15.4207 44.6985 14.5514 46.2289 14.2703C47.1807 14.0955 48.3988 14.0933 49.9455 14.3301C49.8139 13.9398 49.7299 13.5584 49.6936 13.1902C49.5942 12.7256 49.6056 12.1669 49.8564 11.6159C50.1468 10.978 50.6848 10.5115 51.3635 10.2366C51.9808 9.98646 52.7446 9.87973 53.6714 9.91979C53.6168 9.66312 53.5926 9.4055 53.6018 9.14812C53.3863 7.76973 54.2177 6.39578 55.8529 5.52837C57.5094 4.64963 60.1741 4.13509 64.2801 4.27051C68.1017 3.12677 73.1016 2.32495 77.9202 3.06917C82.8834 3.83573 87.7156 6.26261 90.7284 11.6551C91.0825 12.2889 91.3739 12.894 91.5966 13.4702C92.7713 13.2369 94.1674 13.0932 95.4769 13.2314C96.4262 13.3316 97.4437 13.5914 98.3005 14.177C99.2024 14.7934 99.8499 15.7223 100.058 16.9603L100.075 17.0628L100.077 17.1668C100.089 17.7177 100.069 18.2515 100.018 18.7681ZM45.8772 21.2815C44.0616 21.0197 43.1595 21.4595 42.7151 21.8545C42.5287 22.0201 42.3837 22.212 42.274 22.412C42.7222 22.5446 43.1703 22.7007 43.6074 22.8713C44.6507 23.2227 46.1793 23.7436 47.5036 24.2079C47.3567 23.5633 47.2458 22.9705 47.1651 22.487C46.6902 22.0847 46.2617 21.6814 45.8772 21.2815ZM50.6581 24.8944C50.7751 25.2901 50.9062 25.6851 51.0526 26.0641C52.9788 31.0534 57.4284 38.6664 66.1175 45.8897C67.1017 46.0579 68.1011 46.2181 69.1122 46.3687C64.4254 42.8594 61.1018 39.4801 58.8071 36.5075C55.8114 32.6268 54.5014 29.3476 54.3127 27.3383C54.2908 27.1048 54.3259 26.879 54.4066 26.6749C53.0102 26.12 51.7645 25.5201 50.6581 24.8944ZM60.6364 44.8427C54.1589 38.5699 50.4599 32.2729 48.586 27.6625C48.5451 27.6469 48.5015 27.6303 48.4553 27.6129C48.0202 27.449 47.4137 27.2313 46.7313 26.9913C45.3696 26.5123 43.7401 25.9569 42.6549 25.5916L42.6212 25.5803L42.5881 25.5673C41.7739 25.2477 40.9907 25.0173 40.3238 24.9125C39.6348 24.8043 39.2312 24.8562 39.0527 24.9263C39.0303 24.9351 39.0157 24.9425 39.0069 24.9476C39.0013 24.9628 38.9931 24.9919 38.9867 25.0405C38.9546 25.2862 38.9997 25.8399 39.415 26.8428C39.8194 27.8192 40.5217 29.0963 41.6279 30.7324C43.6994 33.7961 47.0997 37.9911 52.3408 43.6412C52.6921 43.2457 53.2489 43.0591 53.7944 43.2062C55.8685 43.7655 58.1718 44.3217 60.6364 44.8427ZM53.7639 46.1805C53.6955 46.4252 53.5615 46.6549 53.3627 46.8415C52.7826 47.3863 51.8706 47.3577 51.3258 46.7775C45.4193 40.488 41.5759 35.8009 39.2404 32.3467C38.0732 30.6205 37.2576 29.1658 36.7523 27.9455C36.479 27.2856 36.2785 26.652 36.1753 26.0524L35.5925 25.9388C35.3256 25.9271 35.1363 25.9748 35.0156 26.037C34.9085 26.0921 34.7872 26.1905 34.688 26.436C34.4512 27.0217 34.3609 28.4363 35.4233 31.264C36.7099 34.6883 39.5333 39.7827 44.9015 47.1536C52.985 49.2617 63.5492 51.3599 74.2595 52.4231C85.2129 53.5104 96.2017 53.5026 104.826 51.3891C106.964 50.8653 108.942 50.2153 110.731 49.4279C114.933 47.5783 118.032 44.9984 119.75 41.5513C120.35 40.3469 120.79 39.0192 121.048 37.5535C120.95 36.3258 120.492 35.7523 119.995 35.4254C119.386 35.0254 118.471 34.8352 117.308 34.8441C116.168 34.8527 114.976 35.0485 113.942 35.2473C113.754 35.2834 113.562 35.3215 113.375 35.3586C113.135 35.4063 112.904 35.4522 112.703 35.4896C112.016 37.5974 110.399 39.5194 108.345 41.1852C105.911 43.1592 102.683 44.9212 99.0565 46.3489C91.8114 49.2011 82.726 50.8157 74.6487 49.9753C71.4302 49.6404 68.2652 49.1884 65.2485 48.6645C61.0556 47.9363 57.1428 47.0683 53.7639 46.1805ZM123.483 39.8337C123.311 40.446 123.109 41.0395 122.878 41.6143C123.812 42.2265 124.718 42.9652 125.435 43.8065C126.435 44.981 127.229 46.5631 126.84 48.3495C126.456 50.1142 125.021 51.5855 122.746 52.7994C121.793 53.3079 120.651 53.7943 119.3 54.2547C122.897 53.8664 125.646 53.3127 127.692 52.6492C130.995 51.5787 132.094 50.3516 132.369 49.4625C132.542 48.9054 132.482 48.2188 132.054 47.3437C131.62 46.4574 130.855 45.4814 129.805 44.4627C128.109 42.8179 125.825 41.209 123.483 39.8337ZM113.179 52.9137C117.036 52.094 119.666 51.1759 121.389 50.2567C123.344 49.2136 123.902 48.298 124.024 47.7367C124.141 47.197 123.955 46.514 123.24 45.6751C122.798 45.1559 122.215 44.6556 121.565 44.2047C119.574 47.406 116.573 49.8109 112.942 51.5797C113.026 52.0305 113.105 52.4751 113.179 52.9137ZM110.225 52.7451C109.2 53.1312 108.135 53.4777 107.036 53.7874C109.123 60.1409 109.428 65.0373 108.27 68.7199C106.99 72.791 104.007 75.1258 100.362 76.2471C96.7797 77.3488 92.5112 77.3058 88.3625 76.7021C85.4693 76.2812 82.5746 75.5786 79.9174 74.7514C82.7251 75.906 85.7064 76.9076 88.6728 77.5966C94.1818 78.8761 99.4272 79.028 103.412 77.3165C104.815 76.7141 106.063 75.8805 107.125 74.7772C109.241 72.5795 110.746 69.172 111.064 64.011C111.201 61.7892 111.117 59.2521 110.769 56.3651C110.709 55.8645 110.64 55.3534 110.564 54.8319C110.465 54.1541 110.352 53.4587 110.225 52.7451ZM81.9487 72.3518C84.1435 72.9846 86.4678 73.5141 88.7775 73.8501C92.7278 74.4249 96.5128 74.4156 99.5144 73.4924C102.452 72.5888 104.583 70.8401 105.521 67.8555C106.434 64.9502 106.289 60.662 104.231 54.4842C95.3657 56.4115 84.5386 56.3397 73.9748 55.291C62.8728 54.1889 51.9436 51.9954 43.6721 49.8106L43.1791 49.6803L42.8777 49.269C37.4972 41.9259 34.4432 36.604 32.9225 32.7867C32.8906 32.7767 32.8546 32.7662 32.8144 32.7553C32.5436 32.6821 32.1922 32.6234 31.7886 32.5824C30.9825 32.5005 30.1134 32.503 29.5723 32.531L29.5625 32.5315L29.5527 32.5319C29.2062 32.5452 29.0458 32.6371 28.9819 32.6912C28.9354 32.7305 28.8353 32.8338 28.8001 33.1497C28.7176 33.8885 29.0481 35.4108 30.6287 37.9196C31.0596 38.6036 31.5753 39.3481 32.1857 40.1547C34.7072 43.4866 38.7962 47.8143 45.061 53.2427C45.5524 53.4687 46.091 53.7041 46.6746 53.9463C49.1656 54.9801 52.45 56.127 56.3329 57.1833C66.7427 60.0152 81.3268 62.1623 96.3481 59.8307C97.9182 59.5869 99.4926 59.2944 101.067 58.9487C101.845 58.778 102.613 59.2698 102.784 60.0471C102.954 60.8245 102.463 61.593 101.685 61.7637C101.304 61.8474 100.922 61.9282 100.541 62.0059C100.754 62.1693 100.952 62.3315 101.135 62.4929C102.03 63.2814 102.731 64.1893 102.906 65.238C103.101 66.4004 102.6 67.358 101.889 68.0379C101.219 68.6796 100.297 69.1524 99.3306 69.5181C97.3789 70.2567 94.7448 70.7396 92.0621 71.0498C89.446 71.3523 86.6916 71.5004 84.3018 71.5392C83.509 71.8288 82.7247 72.0994 81.9487 72.3518ZM89.7879 68.381C90.4401 68.3254 91.0906 68.2609 91.731 68.1868C94.3458 67.8845 96.6968 67.4333 98.3105 66.8226C99.1269 66.5136 99.6329 66.208 99.8967 65.9556C100.019 65.8384 100.055 65.7654 100.063 65.7453C100.066 65.7373 100.068 65.7372 100.064 65.7147C100.049 65.6264 99.9276 65.2701 99.2298 64.6552C98.6598 64.153 97.8068 63.5676 96.5963 62.902C96.425 63.1257 96.1864 63.3016 95.8982 63.3953C83.2819 67.4955 72.9545 68.658 65.1388 68.4231C57.3644 68.1895 51.9876 66.5691 49.3366 65.0014C48.6515 64.5963 48.4246 63.7126 48.8297 63.0275C49.2348 62.3425 50.1185 62.1156 50.8035 62.5206C52.8862 63.7522 57.7281 65.3171 65.2253 65.5424C70.2502 65.6934 76.4293 65.2406 83.6986 63.7028C73.084 63.7647 63.2865 62.0534 55.6773 59.9917C49.3913 59.2241 44.0877 58.3721 39.638 57.4615C44.9087 64.5926 55.5556 74.552 72.777 71.6641C74.0593 71.4491 75.3745 71.1788 76.7226 70.8485C78.9073 70.3133 81.1787 69.6204 83.5363 68.7501C84.9163 68.2406 86.3259 67.6703 87.7649 67.0351C88.493 66.7137 89.3437 67.0434 89.6651 67.7715C89.7527 67.97 89.7919 68.1775 89.7879 68.381ZM39.8674 52.4772C35.8333 48.7795 32.8418 45.6077 30.6898 42.923C30.0296 43.3899 29.4535 43.9356 29.0659 44.5088C28.5192 45.3174 28.4021 46.0665 28.7657 46.8404C29.1841 47.731 30.371 48.9516 33.2065 50.2419C34.8825 51.0045 37.066 51.7602 39.8674 52.4772ZM28.96 40.6168C28.8388 40.4424 28.7217 40.2704 28.6085 40.1006C28.1874 40.2271 27.6234 40.4604 26.9708 40.7683C25.9848 41.2336 24.9557 41.7905 24.1075 42.2496C23.8196 42.4054 23.5526 42.5499 23.3152 42.6757C21.7663 43.8326 21.1075 44.9483 21.133 45.8522C21.155 46.6332 21.711 47.8758 24.1595 49.3778C25.663 50.3001 27.772 51.2481 30.6355 52.1845C28.3533 50.9555 26.8714 49.5863 26.1571 48.0659C25.2533 46.142 25.7217 44.3095 26.6784 42.8945C27.2814 42.0027 28.0962 41.2368 28.96 40.6168ZM29.9278 54.985C26.8143 53.9784 24.4264 52.9226 22.6525 51.8345C20.8397 50.7224 19.5426 49.4934 18.8446 48.1529C17.834 48.8531 16.8916 49.6127 16.1677 50.3818C14.9989 51.6236 14.7712 52.4798 14.9165 52.9948C15.0876 53.6009 15.8373 54.5911 18.4507 55.5261C19.832 56.0203 21.8525 56.1923 24.7167 56.2332C25.2736 56.2412 25.9648 56.1267 26.8242 55.9065C27.5094 55.731 28.2308 55.5079 29.0212 55.2635C29.222 55.2014 29.4273 55.1379 29.6375 55.0735C29.7334 55.0441 29.8302 55.0146 29.9278 54.985ZM35.3893 56.7431C33.8003 56.8588 32.1582 57.3155 30.4817 57.8291C30.2912 57.8875 30.0991 57.9469 29.9064 58.0066C29.109 58.2533 28.3003 58.5034 27.5396 58.6984C26.9203 58.857 26.285 58.9925 25.6565 59.0632C25.6455 59.146 25.6425 59.232 25.6488 59.3207C25.6705 59.624 25.8111 60.0823 26.3452 60.647C27.4013 61.7637 29.8732 63.1545 35.0828 64.167C35.4134 63.268 35.6436 61.974 35.6989 60.5202C35.754 59.0717 35.6266 57.7152 35.3893 56.7431ZM32.3603 66.5193C28.2383 65.4998 25.6866 64.145 24.2513 62.6274C23.3315 61.6549 22.8504 60.5909 22.7741 59.5266C22.7629 59.3691 22.7607 59.2144 22.7667 59.0628C21.2877 58.9977 19.9376 58.8673 18.7541 58.6028C18.6843 59.0354 18.7167 59.6118 18.9685 60.3588C19.4362 61.7462 20.6514 63.6491 23.2389 65.984C26.9373 66.8854 29.5647 67.023 31.3877 66.7334C31.7442 66.6768 32.0673 66.6045 32.3603 66.5193ZM28.0793 69.7003C31.9202 72.2785 37.1882 75.1598 44.32 78.2771C45.7377 78.5846 47.2137 78.8835 48.7501 79.1727C50.4181 79.4867 52.1572 79.7893 53.97 80.0793C54.2229 80.1197 54.4497 80.2236 54.637 80.3722C64.1701 82.2369 75.35 84.0521 83.1904 84.4899C85.5674 84.6227 87.5891 84.6256 89.1423 84.4769C89.9188 84.4025 90.5431 84.2934 91.0191 84.1583C91.416 84.0456 91.6475 83.9322 91.7697 83.8525C91.7373 83.7782 91.6771 83.6647 91.5657 83.5081C91.0582 82.7944 89.8968 81.7497 87.7692 80.3448C82.4271 79.0745 77.1123 76.8759 72.7668 74.5852C55.5801 77.2629 44.5067 68.1174 38.5722 60.7877C38.4778 62.8481 38.0578 65.1325 37.0803 66.5839C36.031 68.1418 34.2889 69.1908 31.8398 69.5798C30.7449 69.7537 29.4968 69.7988 28.0793 69.7003ZM93.504 81.3168C93.6559 81.4932 93.7928 81.6668 93.9145 81.8379C94.3474 82.4467 94.6907 83.1657 94.689 83.9567C94.6871 84.8216 94.2761 85.5154 93.7008 86.0018C93.1675 86.4527 92.4882 86.7372 91.8059 86.9308C91.1066 87.1293 90.2974 87.2615 89.417 87.3458C87.6566 87.5144 85.4716 87.5039 83.0297 87.3675C73.28 86.823 58.6633 84.2222 48.2004 82.0019C46.594 81.6993 45.0504 81.386 43.5675 81.0628C27.6811 77.6011 18.6478 72.9947 13.925 68.4017C9.53077 64.1282 8.79874 59.7506 10.0348 56.5271C8.61028 57.9468 7.48212 59.7178 6.97932 61.6626C6.38884 63.9464 6.63305 66.5617 8.42841 69.3148C11.2573 73.6529 18.0226 78.4429 31.7232 82.3824C35.1712 83.3738 39.0471 84.3081 43.3938 85.1666C47.7367 86.0244 52.5474 86.8061 57.868 87.4935C68.0764 88.3015 81.8242 88.9644 92.372 88.5819C94.5833 88.5018 96.6452 88.3759 98.4982 88.1971C100.51 88.003 102.253 87.7485 103.663 87.4297C104.976 87.1326 106.071 86.1839 106.72 85.0722C107.041 84.5226 107.22 83.9868 107.273 83.5494C107.329 83.0982 107.242 82.8667 107.189 82.7857C106.824 82.217 105.851 81.3586 103.881 80.234C100.746 81.4162 97.1675 81.6628 93.504 81.3168ZM106.889 78.7037C107.759 79.2881 108.47 79.868 109.006 80.4506C109.884 80.3079 110.736 80.1633 111.562 80.0169C111.097 79.8719 110.717 79.4943 110.591 78.9866C110.4 78.2141 110.871 77.4329 111.644 77.2417C112.1 77.1289 112.546 77.0159 112.982 76.9029C111.699 77.0326 110.301 77.1308 108.781 77.1947C108.188 77.7599 107.555 78.2615 106.889 78.7037ZM111.188 74.1679C114.9 73.8862 117.573 73.3678 119.442 72.7227C121.822 71.9014 122.64 70.97 122.888 70.3268C123.125 69.7097 123.01 68.8901 122.334 67.8308C121.751 66.9161 120.852 66.0011 119.855 65.2098C118.027 65.3708 116.024 65.4771 113.831 65.5216C113.469 69.009 112.563 71.873 111.188 74.1679ZM114.002 62.6353C116.269 62.5843 118.31 62.4654 120.145 62.2888C122.582 62.0544 124.648 61.7191 126.391 61.3096C127.575 61.0311 128.606 60.7195 129.498 60.3842C133.717 58.799 134.674 56.7966 134.689 55.2633C134.697 54.3447 134.38 53.3726 133.847 52.4473C132.692 53.6706 130.904 54.6378 128.581 55.3908C125.231 56.4767 120.422 57.2352 113.796 57.565C113.964 59.3715 114.031 61.0597 114.002 62.6353ZM123.6 64.77C124.032 65.2483 124.428 65.7543 124.764 66.2805C125.673 67.7061 126.284 69.5233 125.578 71.3607C125.366 71.9127 125.052 72.4211 124.641 72.8875C124.859 72.7809 125.069 72.6746 125.272 72.5688C128.208 71.0385 129.423 69.6966 129.826 68.7362C130.168 67.9211 130.009 67.1604 129.346 66.3309C128.719 65.5469 127.709 64.815 126.549 64.2293C125.635 64.4306 124.654 64.6114 123.6 64.77ZM131.043 63.9094C131.24 64.109 131.425 64.3164 131.597 64.5318C132.728 65.946 133.339 67.8099 132.484 69.8501C131.69 71.7449 129.742 73.4888 126.604 75.1245C123.83 76.5707 119.962 78.0164 114.717 79.4257C120.855 78.2082 125.408 76.8853 128.702 75.5322C133.137 73.7103 135.014 71.9452 135.626 70.5811C136.158 69.3963 135.866 68.1559 134.671 66.7651C133.785 65.7335 132.499 64.7561 131.043 63.9094ZM133.179 61.8333C134.574 62.7098 135.869 63.7364 136.857 64.8872C138.451 66.7425 139.42 69.1655 138.256 71.7606C137.172 74.1764 134.399 76.3076 129.797 78.198C125.383 80.011 119.029 81.7069 110.172 83.1797C110.177 83.4243 110.163 83.6664 110.134 83.9012C110.025 84.7881 109.694 85.6949 109.209 86.525C109.12 86.6783 109.024 86.8308 108.922 86.9818C122.361 85.7072 131.386 83.4395 137.174 80.704C141.302 78.7534 143.673 76.6171 144.884 74.5433C146.073 72.5083 146.224 70.3977 145.642 68.27C144.59 64.4225 141.133 60.5644 137.105 57.6684C136.475 59.2394 135.191 60.6584 133.179 61.8333ZM105.286 90.1842C117.736 89.2367 126.97 87.4931 133.645 85.217C129.171 89.6412 120.144 93.9268 105.286 90.1842ZM12.5602 55.2192C13.1088 55.6367 13.2932 56.4006 12.9633 57.0322C11.9746 58.9251 11.8411 62.3549 15.9343 66.3356C18.5664 68.8954 22.9073 71.6213 29.7237 74.1445C26.2745 72.0901 23.6143 70.1612 21.5925 68.3774C18.6149 65.7503 16.9408 63.3662 16.2374 61.2794C15.7862 59.9406 15.7327 58.6996 16.0152 57.6388C14.5719 56.9581 13.4735 56.1324 12.7881 55.1385C12.7242 55.161 12.6587 55.1842 12.592 55.2079C12.5814 55.2117 12.5708 55.2154 12.5602 55.2192ZM7.12007 72.396C6.47626 73.2418 5.98893 74.1316 5.74924 74.9914C5.40657 76.2206 5.56155 77.3629 6.52972 78.4154C7.58266 79.56 9.73343 80.746 13.7566 81.5352C16.1339 82.0016 19.103 82.3175 22.7748 82.4229C15.0165 79.3901 10.0291 75.9532 7.12007 72.396ZM50.3916 89.3329C54.0863 91.1722 58.6369 92.8578 63.6748 93.7727C70.6201 95.0341 78.4495 94.8256 86.2479 91.5745C76.7428 91.5968 65.9662 91.0263 57.6049 90.3637L57.5695 90.3609L57.5343 90.3564C55.0473 90.0354 52.6678 89.6937 50.3916 89.3329ZM93.2655 39.2209C93.7144 38.9051 94.137 38.5764 94.5337 38.2387C90.5722 40.8738 83.4641 42.9544 72.6396 41.1905C80.8774 43.6301 86.8929 42.6501 91.0765 40.5339C91.8488 40.1432 92.563 39.7117 93.2209 39.2521C93.2356 39.2414 93.2504 39.231 93.2655 39.2209ZM46.0797 17.3484C46.0776 17.3473 46.0848 17.3365 46.1075 17.3192C46.0931 17.3409 46.0818 17.3495 46.0797 17.3484ZM56.4554 8.7705C56.4535 8.77006 56.4519 8.7585 56.4563 8.73719C56.4594 8.76029 56.4572 8.77095 56.4554 8.7705Z" fill="#FFEDBA"/>
</svg>
