<svg width="127" height="129" viewBox="0 0 127 129" fill="none" xmlns="http://www.w3.org/2000/svg">
<path d="M74.4771 44.296C73.7278 41.1545 73.4044 38.3402 73.4091 35.8276C71.3046 36.2619 64.4902 36.6419 54.0676 34.6876C53.745 34.6272 53.4192 34.5739 53.0905 34.5275C51.8762 34.3564 50.6217 34.2799 49.3448 34.286C48.8592 34.2883 48.3703 34.3026 47.8792 34.3281C38.051 34.8387 27.311 39.8603 23.4512 44.0154C22.6015 44.93 22.0853 45.8026 21.9855 46.5759C21.4014 51.1025 20.5555 53.5342 20.739 60.0927C20.7602 60.849 20.6321 62.488 20.6827 63.3635L21.6598 63.7454C22.5485 62.5845 24.7153 60.1993 27.6853 58.6571C30.9298 56.9724 35.5215 55.2386 41.6907 53.8452C49.1515 52.1601 58.9195 50.973 71.402 50.973C72.5284 48.7277 73.5534 46.485 74.4771 44.296Z" fill="#F8DC85"/>
<path d="M49.3448 34.286C50.6217 34.2799 51.8762 34.3564 53.0905 34.5275C53.0487 33.4981 53.0631 32.3401 53.1515 31.1049C53.2937 29.1161 53.6276 26.9274 54.2275 24.7536C54.7975 22.6877 55.6078 20.6354 56.7221 18.781C57.8065 16.9763 59.1789 15.3591 60.8981 14.0995C60.9012 14.0973 60.9043 14.095 60.9074 14.0927C63.4187 12.256 66.6691 11.1819 70.8415 11.3996C71.4035 11.4699 71.9549 11.6249 72.4781 11.8741C71.1287 11.0728 61.4867 4.27331 60.4189 2.44269C59.5069 0.879294 58.0846 0.705584 57.4875 0.814152C50.3898 2.3998 46.7581 8.39656 45.5371 14.9824C45.1782 16.9181 45.0276 18.9047 45.0585 20.8451C45.1083 23.9788 45.6315 26.9921 46.5152 29.4763C47.2378 31.508 48.2016 33.1858 49.3448 34.286Z" fill="#F8DC85"/>
<path d="M78.2492 34.0362C77.2736 37.15 76.0161 40.6485 74.4771 44.296C73.5534 46.485 72.5284 48.7277 71.402 50.973C69.7151 54.3356 67.801 57.704 65.6601 60.907C60.397 68.7807 53.7629 75.6545 45.7621 78.9837C41.4654 80.7716 37.373 81.9008 33.5481 82.4698C24.7745 83.7751 17.4086 82.1331 12.2143 78.7334C9.73573 77.1112 7.7516 75.0887 6.34488 72.7953C5.06425 70.7074 4.26215 68.395 4.00119 65.9555C3.93239 65.3123 3.9012 64.6603 3.90878 64.0012C3.96825 58.8274 5.34197 54.1581 7.12235 50.3216C4.80257 55.2614 0.228137 66.9652 0.488702 74.261C0.661359 79.0954 3.84672 83.72 7.00297 87.0167C8.60998 88.6953 10.2094 90.0296 11.3999 90.872C11.8917 91.1721 12.5459 91.5068 13.3543 91.8513C15.8737 92.9249 19.8911 94.0937 25.1598 94.6076C26.8916 94.6471 28.6479 94.7334 30.4131 94.8744C33.1733 94.8908 36.1803 94.7207 39.4106 94.2919C42.8341 93.8375 46.2358 92.7285 49.5077 91.2085C54.2291 89.0152 58.6802 85.9661 62.5359 82.7937C67.4986 78.7106 71.4751 74.4231 73.7727 71.4925C75.4555 68.344 78.528 61.4281 77.3555 58.9528C76.9832 58.1669 76.8581 56.1016 76.886 53.4158C76.8939 52.6472 76.9144 51.8278 76.9452 50.973C77.1361 45.6791 77.7225 39.0282 78.1797 34.6876C78.2032 34.4642 78.2264 34.2469 78.2492 34.0362Z" fill="#F8DC85"/>
<path d="M17.7513 61.5584C14.4072 57.9104 13.6971 54.7398 14.4004 52.1129C13.8158 53.1875 12.9407 57.8797 13.8243 68.2354C13.8781 68.8657 13.9384 69.5169 14.0057 70.1896C14.1771 71.1196 14.854 72.4826 16.2856 74.0099C18.9332 76.8345 24.1619 80.2211 33.5481 82.4698C37.373 81.9008 41.4654 80.7716 45.7621 78.9837C53.7629 75.6545 60.397 68.7807 65.6601 60.907C64.5989 61.1917 63.5576 61.4613 62.5359 61.7163C57.2434 63.0375 52.4773 63.9685 48.2049 64.5889C46.6765 64.8108 45.2113 64.9929 43.8078 65.139C32.9857 66.2651 25.8315 65.244 21.6598 63.7454C21.3137 63.621 20.9881 63.4934 20.6827 63.3635C19.9018 63.0312 19.2526 62.6837 18.7284 62.3369C18.3322 62.0747 18.0074 61.8129 17.7513 61.5584Z" fill="#F8DC85"/>
<path d="M77.3555 58.9528C78.528 61.4281 75.4555 68.344 73.7727 71.4925C71.4751 74.4231 67.4986 78.7106 62.5359 82.7937C71.3461 82.1325 87.7086 77.8268 99.6665 74.3215C103.27 73.2653 106.473 72.2817 108.949 71.4925C112.371 70.4525 117.833 65.8343 121.629 59.0445C123.976 54.8473 125.687 49.8204 125.886 44.296L108.949 50.3216L77.3555 58.9528Z" fill="#F8DC85"/>
<path d="M72.3071 92.1748C71.2215 91.6749 67.7473 89.0988 62.5359 82.7937C58.6802 85.9661 54.2291 89.0152 49.5077 91.2085C49.8546 93.2134 50.9818 97.8747 52.7151 100.48C56.4083 102.313 59.7546 104.652 62.5359 107.606C65.4022 109.397 69.4844 110.443 71.1672 110.742C80.6011 108.272 89.9184 104.917 95.5952 100.643L93.2634 110.903C103.556 106.083 108.298 99.449 108.949 96.8976C91.8821 102.369 77.4099 96.029 72.3071 92.1748Z" fill="#F8DC85"/>
<path d="M3.74591 96.409C7.98009 100.86 16.481 110.838 16.6113 115.137C17.0882 115.508 20.2343 116.024 28.9882 115.2C29.2019 115.18 29.4191 115.159 29.6396 115.137C38.8896 114.225 43.9164 115.083 45.2735 115.626C46.3987 115.498 47.6556 115.339 49.0191 115.148C53.7355 114.487 59.7275 113.448 65.9559 112.02C64.9461 110.415 63.7993 108.947 62.5359 107.606C59.7546 104.652 56.4083 102.313 52.7151 100.48C45.9916 97.1443 38.1186 95.4895 30.4131 94.8744C28.5466 94.8633 26.7931 94.7669 25.1598 94.6076C22.3885 94.5443 19.6802 94.6011 17.0999 94.7462C11.9744 95.0344 7.35362 95.6712 3.74591 96.409Z" fill="#F8DC85"/>
<path d="M69.2129 119.371C72.2094 120.674 75.4556 123.497 76.7042 124.745C77.8864 125.337 79.0965 125.749 80.287 126.024C84.3445 126.963 88.1745 126.31 89.8953 125.723L90.7096 122.14L93.2634 110.903L95.5952 100.643C89.9184 104.917 80.6011 108.272 71.1672 110.742C69.4267 111.198 67.6822 111.624 65.9559 112.02C59.7275 113.448 53.7355 114.487 49.0191 115.148C61.396 114.67 65.4673 117.743 69.2129 119.371Z" fill="#F8DC85"/>
<path d="M45.5371 14.9824C41.215 16.2309 32.0125 20.0613 29.6674 25.6635C29.7263 25.6782 29.7853 25.6932 29.8443 25.7083C31.8551 26.2234 33.9224 26.9629 35.9257 27.8092C37.3588 24.2916 42.6331 21.6594 45.0585 20.8451C45.0276 18.9047 45.1782 16.9181 45.5371 14.9824Z" fill="#F8DC85"/>
<path d="M79.7984 20.5536C78.878 20.0499 77.641 19.4267 76.2156 18.781C71.9247 16.8371 65.793 14.4938 60.9074 14.0927C60.9043 14.095 60.9012 14.0973 60.8981 14.0995C59.1789 15.3591 57.8065 16.9763 56.7221 18.781C57.9124 18.7273 59.0957 18.8354 60.256 19.0686C67.161 19.2987 73.4695 23.4973 75.7606 25.5678C76.8887 23.4426 78.3159 21.7924 79.7984 20.5536Z" fill="#F8DC85"/>
<path d="M82.3136 21.9851C81.3619 23.8588 80.5137 26.0185 79.7984 28.4992C81.4921 29.3166 83.544 31.4645 84.3583 32.4364C87.2621 31.3927 90.5318 30.2669 93.6409 29.2709C92.9532 28.7561 92.111 28.136 91.1981 27.4776C87.7081 24.9601 83.1857 21.8818 82.3136 21.9851Z" fill="#F8DC85"/>
<path d="M105.189 39.9875C105.059 39.5399 104.035 37.989 100.696 34.6876C98.4342 37.0671 95.9907 39.4784 93.5087 41.6903L95.4323 43.6233C98.7927 41.9951 102.328 40.7849 105.189 39.9875Z" fill="#F8DC85"/>
<path d="M54.0676 34.6876C64.4902 36.6419 71.3046 36.2619 73.4091 35.8276C73.4145 32.8729 73.8735 30.3354 74.6267 28.1735C73.3301 26.6283 70.9921 24.3737 68.073 22.4593C67.816 22.2931 61.7797 22.4994 57.3246 23.6329C56.0625 25.0922 53.4609 28.6295 53.1515 31.1049C53.0631 32.3401 53.0487 33.4981 53.0905 34.5275C53.4192 34.5739 53.745 34.6272 54.0676 34.6876Z" fill="#F8DC85"/>
<path d="M79.7984 28.4992C80.5137 26.0185 81.3619 23.8588 82.3136 21.9851C83.1348 20.3683 84.0331 18.9644 84.9895 17.7509C83.4662 18.1583 81.5919 19.0549 79.7984 20.5536C78.3159 21.7924 76.8887 23.4426 75.7606 25.5678C75.3359 26.3679 74.9536 27.2354 74.6267 28.1735C73.8735 30.3354 73.4145 32.8729 73.4091 35.8276C73.4044 38.3402 73.7278 41.1545 74.4771 44.296C76.0161 40.6485 77.2736 37.15 78.2492 34.0362C78.4772 33.3085 78.6898 32.6018 78.887 31.9191C79.2403 30.6963 79.5441 29.5505 79.7984 28.4992Z" fill="#F8DC85"/>
<path d="M65.6601 60.907C67.801 57.704 69.7151 54.3356 71.402 50.973C58.9195 50.973 49.1515 52.1601 41.6907 53.8452C43.0543 54.6745 45.4487 55.7133 48.2049 56.7808C53.0858 58.6712 59.1013 60.6514 62.5359 61.7163C63.5576 61.4613 64.5989 61.1917 65.6601 60.907Z" fill="#F8DC85"/>
<path d="M62.5359 61.7163C59.1013 60.6514 53.0858 58.6712 48.2049 56.7808V64.5889C52.4773 63.9685 57.2434 63.0375 62.5359 61.7163Z" fill="#F8DC85"/>
<path d="M78.1797 34.6876C77.7225 39.0282 77.1361 45.6791 76.9452 50.973C79.3726 51.0793 82.3336 49.8701 85.4983 47.8772C88.0922 46.2437 90.823 44.0838 93.5087 41.6903C95.9907 39.4784 98.4342 37.0671 100.696 34.6876C102.12 33.1897 103.471 31.7044 104.715 30.2893C105.424 29.4826 106.098 28.6986 106.73 27.9483C106.265 27.1936 105.756 26.4367 105.204 25.6954C102.762 26.4253 99.8911 27.3 96.898 28.2387C95.8233 28.5758 94.7329 28.9211 93.6409 29.2709C90.5318 30.2669 87.2621 31.3927 84.3583 32.4364C82.9493 32.9428 81.6264 33.4299 80.4498 33.8734C79.5064 34.229 78.9605 34.3649 78.1797 34.6876Z" fill="#F8DC85"/>
<path d="M76.9452 50.973C76.9144 51.8278 76.8939 52.6472 76.886 53.4158C78.1825 53.9586 82.2412 53.7089 88.1039 48.3673C87.5611 48.3663 86.28 48.2668 85.4983 47.8772C82.3336 49.8701 79.3726 51.0793 76.9452 50.973Z" fill="#F8DC85"/>
<path d="M85.4983 47.8772C86.28 48.2668 87.5611 48.3663 88.1039 48.3673C90.1385 46.5136 92.7288 44.9331 95.4323 43.6233L93.5087 41.6903C90.823 44.0838 88.0922 46.2437 85.4983 47.8772Z" fill="#F8DC85"/>
<path d="M90.0582 83.7065C87.8434 85.791 77.3013 90.2206 72.3071 92.1748C77.4099 96.029 91.8821 102.369 108.949 96.8976C109.765 96.6788 110.739 96.1609 111.779 95.2691C116.125 91.5421 121.629 81.2855 121.629 59.0445C118.359 69.0193 111.813 74.5393 108.949 76.0524C108.499 76.1933 108.008 76.3496 107.483 76.519C101.746 78.3734 92.0875 81.7965 90.0582 83.7065Z" fill="#F8DC85"/>
<path d="M108.949 13.3539C103.343 10.3809 92.4135 8.33164 84.9895 17.7509C84.0331 18.9644 83.1348 20.3683 82.3136 21.9851C92.2818 13.909 100.367 19.1983 105.204 25.6954C105.756 26.4367 106.265 27.1936 106.73 27.9483C107.647 29.4356 108.392 30.9138 108.949 32.2448V39.0847C110.914 38.759 115.948 38.303 120.365 39.0847C120.815 39.4206 121.236 39.7467 121.629 40.0618C120.7 26.6866 112.788 16.6835 108.949 13.3539Z" fill="#F8DC85"/>
<path d="M7.12235 50.3216C5.34197 54.1581 3.96825 58.8274 3.90878 64.0012C3.9012 64.6603 3.93239 65.3123 4.00119 65.9555C6.7781 58.7899 9.76508 55.9128 10.9115 55.37C11.3023 51.7221 12.5962 48.5302 13.1944 47.3902C10.9263 38.6011 18.8046 41.283 23.4512 44.0154C27.311 39.8603 38.051 34.8387 47.8792 34.3281C47.1038 33.7901 46.0722 33.1205 44.8549 32.3881C42.4292 30.9288 39.2665 29.2206 35.9257 27.8092C33.9224 26.9629 31.8551 26.2234 29.8443 25.7083C29.7853 25.6932 29.7263 25.6782 29.6674 25.6635C28.9985 25.4963 28.3364 25.3544 27.6853 25.2421C25.4054 25.0793 20.6827 25.861 20.0312 30.2906C18.7284 32.842 15.9925 38.1401 15.4713 38.9218C14.9502 39.7035 14.0599 40.4418 13.6798 40.7132C11.939 42.3655 9.24238 45.7531 7.12235 50.3216Z" fill="#F8DC85"/>
<path d="M77.3555 58.9528L108.949 50.3216L125.886 44.296C125.358 43.4661 124.005 41.9651 121.629 40.0618C121.236 39.7467 120.815 39.4206 120.365 39.0847C115.948 38.303 110.914 38.759 108.949 39.0847C107.951 39.2772 106.659 39.5779 105.189 39.9875C102.328 40.7849 98.7927 41.9951 95.4323 43.6233C92.7288 44.9331 90.1385 46.5136 88.1039 48.3673C82.2412 53.7089 78.1825 53.9586 76.886 53.4158C76.8581 56.1016 76.9832 58.1669 77.3555 58.9528Z" fill="#F8DC85"/>
<path d="M41.7012 53.5454C35.532 54.9388 30.9403 56.6726 27.6958 58.3573C27.5148 59.6486 30.4858 62.7529 43.8183 64.8392C45.2218 64.6931 46.687 64.511 48.2154 64.289V56.481C45.4592 55.4135 43.0648 54.3747 41.7012 53.5454Z" fill="#DDC479"/>
<path d="M44.8654 32.0883C44.4745 31.0461 45.8403 29.6108 46.5256 29.1765C45.642 26.6923 45.1188 23.679 45.069 20.5453C42.6436 21.3596 37.3693 23.9918 35.9362 27.5094C39.277 28.9208 42.4397 30.629 44.8654 32.0883Z" fill="#DDC479"/>
<path d="M56.7326 18.4812C55.6183 20.3356 54.808 22.3879 54.238 24.4538C55.0628 24.0066 56.1423 23.6366 57.3351 23.3331C61.7902 22.1995 67.8265 21.9933 68.0835 22.1594C65.7671 20.6403 63.0849 19.3353 60.2665 18.7688C59.1062 18.5356 57.9229 18.4275 56.7326 18.4812Z" fill="#DDC479"/>
<path d="M60.9179 13.7929C65.8035 14.194 71.9352 16.5373 76.2261 18.4812C75.9279 14.7366 74.4733 12.5989 72.6434 11.6512C72.6331 11.6551 72.5797 11.6284 72.4886 11.5743C71.9654 11.3251 71.414 11.1701 70.852 11.0998C66.6796 10.8821 63.4292 11.9562 60.9179 13.7929Z" fill="#DDC479"/>
<path d="M108.96 31.945C108.417 31.6728 106.81 30.9004 104.725 29.9895C103.482 31.4046 102.13 32.8899 100.706 34.3878C104.046 37.6892 105.07 39.2401 105.2 39.6877C106.669 39.2781 107.961 38.9773 108.96 38.7849V31.945Z" fill="#DDC479"/>
<path d="M93.6514 28.9711C94.7434 28.6213 95.8338 28.276 96.9085 27.9389C96.1485 27.6161 93.9446 27.0118 91.2086 27.1777C92.1215 27.8362 92.9636 28.4563 93.6514 28.9711Z" fill="#DDC479"/>
<path d="M79.8089 28.1994C79.5546 29.2507 79.2508 30.3965 78.8975 31.6193C79.4634 31.7496 80.0666 33.045 80.4603 33.5736C81.6369 33.13 82.9598 32.643 84.3688 32.1366C83.5545 31.1647 81.5026 29.0167 79.8089 28.1994Z" fill="#DDC479"/>
<path d="M68.0835 22.1594C71.0026 24.0739 73.3405 26.3285 74.6372 27.8737C74.9641 26.9355 75.3464 26.0681 75.7711 25.268C73.48 23.1975 67.1715 18.9989 60.2665 18.7688C63.0849 19.3353 65.7671 20.6403 68.0835 22.1594Z" fill="#DDC479"/>
<path d="M78.2597 33.7364C78.2369 33.9471 78.2137 34.1644 78.1902 34.3878C78.9709 34.0651 79.5169 33.9291 80.4603 33.5736C80.0666 33.045 79.4634 31.7496 78.8975 31.6193C78.7003 32.302 78.4877 33.0087 78.2597 33.7364Z" fill="#DDC479"/>
<path d="M27.6958 58.3573C24.7258 59.8995 22.559 62.2847 21.6703 63.4456C25.842 64.9442 32.9962 65.9653 43.8183 64.8392C30.4858 62.7529 27.5148 59.6486 27.6958 58.3573Z" fill="#DDC479"/>
<path d="M21.996 46.2761C22.0958 45.5028 22.612 44.6302 23.4617 43.7156C20.53 44.7525 16.6454 47.0143 14.9797 50.3287C14.896 50.4952 14.818 50.6643 14.7459 50.836C14.613 51.1528 14.5005 51.4786 14.4109 51.8131C13.7076 54.4399 14.4177 57.6106 17.7618 61.2586C18.0179 61.5131 18.3427 61.7749 18.7389 62.0371C18.7389 60.9662 20.0793 60.0948 20.7495 59.7929C20.566 53.2344 21.4119 50.8026 21.996 46.2761Z" fill="#DDC479"/>
<path d="M14.4109 51.8131C12.8635 54.2016 9.08596 61.682 6.35537 72.4955C7.7621 74.7889 9.74623 76.8114 12.2248 78.4336C11.9642 74.3249 13.1896 69.723 13.8348 67.9356C12.9512 57.5799 13.8263 52.8877 14.4109 51.8131Z" fill="#DDC479"/>
<path d="M12.2248 78.4336C17.4191 81.8333 24.785 83.4753 33.5586 82.17C24.1724 79.9213 18.9437 76.5347 16.2961 73.7101L12.2248 78.4336Z" fill="#DDC479"/>
<path d="M11.4104 90.5722C10.2199 89.7298 8.62048 88.3955 7.01347 86.7169C5.43922 89.4677 2.58386 95.1972 3.75641 96.1092C7.36412 95.3714 11.9849 94.7346 17.1104 94.4464L13.3648 91.5515C12.5564 91.207 11.9022 90.8723 11.4104 90.5722Z" fill="#DDC479"/>
<path d="M49.5182 90.9087C46.2463 92.4287 42.8446 93.5377 39.4211 93.9921C36.1908 94.4209 33.1838 94.591 30.4236 94.5746C38.1291 95.1897 46.0021 96.8445 52.7256 100.181C50.9923 97.5749 49.8651 92.9136 49.5182 90.9087Z" fill="#DDC479"/>
<path d="M13.3648 91.5515L17.1104 94.4464C19.6907 94.3013 22.399 94.2445 25.1703 94.3078C19.9016 93.7939 15.8842 92.6251 13.3648 91.5515Z" fill="#DDC479"/>
<path d="M72.3176 91.875C77.3118 89.9208 87.8539 85.4912 90.0687 83.4067C92.098 81.4967 101.757 78.0736 107.494 76.2192C105.279 74.7686 101.36 74.1498 99.677 74.0217C87.7191 77.527 71.3566 81.8327 62.5464 82.4939C67.7578 88.799 71.232 91.3751 72.3176 91.875Z" fill="#DDC479"/>
<path d="M108.96 71.1927C106.483 71.9819 103.28 72.9655 99.677 74.0217C101.36 74.1498 105.279 74.7686 107.494 76.2192C108.018 76.0498 108.51 75.8935 108.96 75.7526C111.824 74.2395 118.37 68.7195 121.64 58.7447C117.843 65.5345 112.381 70.1527 108.96 71.1927Z" fill="#DDC479"/>
<path d="M108.96 96.5978C108.308 99.1492 103.566 105.783 93.2739 110.603L90.7201 121.84C95.1714 120.157 105.019 116.042 108.797 113.046C110.575 110.657 113.662 103.698 111.789 94.9692C110.749 95.8611 109.776 96.379 108.96 96.5978Z" fill="#DDC479"/>
<path d="M76.7147 124.446C75.4661 123.197 72.2199 120.374 69.2234 119.072C65.4778 117.443 61.4065 114.37 49.0296 114.848C55.598 118.807 68.8326 127.019 69.2234 128.191C69.6143 129.364 76.769 127.035 80.2975 125.724C79.1069 125.449 77.8968 125.037 76.7147 124.446Z" fill="#DDC479"/>
<path d="M65.9664 111.72C67.6927 111.324 69.4372 110.898 71.1777 110.443C69.4949 110.144 65.4127 109.098 62.5464 107.306C63.8098 108.647 64.9566 110.115 65.9664 111.72Z" fill="#DDC479"/>
<path d="M45.284 115.326C43.9269 114.783 38.9001 113.925 29.6501 114.837C29.4296 114.859 29.2124 114.88 28.9987 114.9C30.1386 116.073 32.5489 118.746 33.07 120.049C33.5911 121.351 43.9269 117.124 49.0296 114.848C47.6661 115.039 46.4092 115.198 45.284 115.326Z" fill="#DDC479"/>
<path d="M13.7488 48.5348C14.0881 49.3236 14.4946 50.1976 14.7459 50.836C14.818 50.6643 14.896 50.4952 14.9797 50.3287C16.6454 47.0143 20.53 44.7525 23.4617 43.7156C21.3184 42.2804 16.2082 39.7685 12.913 41.2016C12.8905 41.2258 12.8679 41.2502 12.8452 41.2748C11.7961 42.4962 12.7096 45.8635 13.7488 48.5348Z" fill="#DDC479"/>
<path d="M7.13285 50.0217C5.35247 53.8583 3.97875 58.5276 3.91928 63.7014C3.9117 64.3605 3.94289 65.0125 4.01169 65.6557C6.7886 58.4901 9.77558 55.613 10.922 55.0702C11.3128 51.4223 12.6067 48.2304 13.2049 47.0904C13.2977 47.4502 13.5061 47.9707 13.7488 48.5348C12.7096 45.8635 11.7961 42.4962 12.8452 41.2748C11.1514 43.1114 8.93403 46.1404 7.13285 50.0217Z" fill="#DDC479"/>
<path d="M49.3553 33.9862C48.2121 32.886 47.2483 31.2082 46.5256 29.1765C45.8403 29.6108 44.4745 31.0461 44.8654 32.0883C46.0826 32.8207 47.1143 33.4903 47.8897 34.0283C48.3808 34.0028 48.8697 33.9885 49.3553 33.9862Z" fill="#DDC479"/>
<path d="M57.3351 23.3331C56.1423 23.6366 55.0628 24.0066 54.238 24.4538C53.6381 26.6276 53.3042 28.8163 53.162 30.8051C53.4714 28.3297 56.073 24.7924 57.3351 23.3331Z" fill="#DDC479"/>
<path d="M85.5088 47.5774C86.2905 47.967 87.5716 48.0665 88.1144 48.0675C90.149 46.2138 92.7393 44.6333 95.4428 43.3234L93.5192 41.3905C90.8335 43.784 88.1027 45.9439 85.5088 47.5774Z" fill="#DDC479"/>
<path fill-rule="evenodd" clip-rule="evenodd" d="M57.594 0.993435C50.7705 2.52294 47.2294 8.29091 46.028 14.7716C45.6754 16.673 45.5271 18.627 45.5575 20.5375C45.6066 23.6251 46.1224 26.5849 46.986 29.0127C47.6634 30.9173 48.5446 32.4656 49.5561 33.4973C50.5852 33.4994 51.6015 33.5548 52.5955 33.6702C52.578 32.7739 52.6012 31.7977 52.6747 30.7701C52.8189 28.7538 53.1574 26.5327 53.767 24.3237C54.3462 22.2248 55.1721 20.1296 56.3138 18.2295C57.4254 16.3796 58.8393 14.7101 60.6198 13.4056C60.6199 13.4055 60.6198 13.4056 60.6198 13.4056C60.946 13.1666 61.2841 12.9402 61.6342 12.7274C63.923 11.3366 66.7301 10.5281 70.1425 10.5863C68.9841 9.77776 67.5146 8.72313 66.0608 7.63575C64.701 6.61873 63.3449 5.56568 62.2593 4.64945C61.7167 4.19159 61.2369 3.7638 60.8561 3.38898C60.4846 3.02336 60.1761 2.67826 60.0074 2.38898C59.2194 1.03821 58.0276 0.91901 57.594 0.993435ZM70.8086 11.5867C67.3441 11.409 64.5549 12.1445 62.3132 13.46C66.7174 14.0903 71.807 15.9938 75.6501 17.6885C75.2314 14.6136 73.9498 12.899 72.4639 12.1087C72.4287 12.0962 72.398 12.0815 72.3784 12.0717C72.3421 12.0536 72.3012 12.0307 72.2595 12.0063C71.7969 11.7885 71.3088 11.6509 70.8086 11.5867ZM72.7199 11.1433C72.0388 10.7341 69.3345 8.86409 66.646 6.85328C65.2932 5.84144 63.9542 4.8013 62.8895 3.90272C62.3568 3.45317 61.8977 3.04315 61.5415 2.6926C61.176 2.33286 60.9496 2.06502 60.8514 1.89664C59.8207 0.129698 58.1786 -0.106041 57.4106 0.0336014L57.401 0.035347L57.3915 0.0374745C50.1351 1.65858 46.4175 7.72337 45.1236 14.2981C42.9278 14.9573 39.6652 16.2089 36.6266 17.9676C33.6076 19.715 30.7255 22.0107 29.3983 24.7929C28.8537 24.6644 28.3131 24.5529 27.7789 24.4608L27.7549 24.4567L27.7307 24.455C26.5292 24.3691 24.6906 24.5295 23.0499 25.3023C21.408 26.0757 19.9462 27.4765 19.5708 29.8388C18.919 31.1145 17.9303 33.0357 17.0359 34.7433C16.1158 36.5 15.3175 37.9877 15.0754 38.3509C14.6016 39.0615 13.7657 39.7592 13.4064 40.0158L13.3787 40.0355L13.354 40.059C13.1056 40.2948 12.8399 40.5633 12.561 40.8627C12.5332 40.8908 12.5064 40.9197 12.4807 40.9494C10.7547 42.8222 8.51153 45.8905 6.69024 49.8149C5.52204 52.3026 3.79043 56.4835 2.38235 60.9614C0.978061 65.4272 -0.122432 70.2434 0.0109683 73.9786C0.185526 78.8662 3.31105 83.4856 6.4102 86.7905C5.63401 88.173 4.62042 90.142 3.90195 91.9195C3.51572 92.875 3.20476 93.7993 3.06845 94.5572C3.00055 94.9347 2.97068 95.2986 3.01035 95.617C3.04811 95.92 3.1577 96.2433 3.42359 96.4681C5.531 98.6853 8.68889 102.265 11.3362 105.822C12.6646 107.607 13.8572 109.376 14.7236 110.958C15.6 112.558 16.1047 113.901 16.1335 114.852L16.1405 115.082L16.3219 115.223C16.449 115.322 16.6147 115.391 16.7815 115.445C16.9582 115.502 17.1776 115.554 17.4413 115.601C17.9692 115.693 18.7045 115.768 19.6882 115.805C21.6217 115.877 24.5477 115.802 28.8101 115.408C29.3711 115.994 30.1629 116.86 30.8902 117.738C31.7073 118.723 32.3887 119.661 32.6164 120.23C32.7157 120.478 32.9191 120.616 33.1058 120.687C33.2867 120.755 33.491 120.778 33.6895 120.781C34.0893 120.786 34.5997 120.709 35.1717 120.583C36.3246 120.327 37.8482 119.841 39.4966 119.25C42.7005 118.102 46.4399 116.532 48.9955 115.398C52.2755 117.377 57.0968 120.343 61.1784 122.975C63.2656 124.321 65.1544 125.576 66.5434 126.566C67.2389 127.062 67.8017 127.486 68.1996 127.818C68.3992 127.985 68.5491 128.122 68.6513 128.229C68.7397 128.322 68.7642 128.363 68.7656 128.363C68.7656 128.363 68.7656 128.362 68.7656 128.362C68.9077 128.761 69.297 128.902 69.5748 128.955C69.8826 129.014 70.2621 129.01 70.6685 128.971C71.4899 128.893 72.562 128.663 73.7081 128.362C75.9496 127.772 78.5591 126.887 80.331 126.233C84.4366 127.147 88.2905 126.491 90.0637 125.885L90.3218 125.797L91.1384 122.204C93.3847 121.348 96.8388 119.94 100.216 118.379C103.704 116.766 107.16 114.967 109.1 113.429L109.15 113.389L109.189 113.338C111.021 110.877 114.107 103.899 112.326 95.1482C116.783 91.1431 122.108 80.7198 122.128 58.8716C124.474 54.6414 126.184 49.5795 126.385 44.0137L126.39 43.8619L126.309 43.7338C125.752 42.8587 124.403 41.3691 122.112 39.5147C121.102 26.0851 113.169 16.0582 109.28 12.6849L109.238 12.6484L109.189 12.6224C106.321 11.1017 102.097 9.81727 97.6287 10.118C93.1825 10.4172 88.5046 12.2871 84.7165 17.0224C83.228 17.4455 81.4604 18.2994 79.7532 19.668C78.9193 19.221 77.8722 18.6975 76.6877 18.1546C76.3299 14.4725 74.8428 12.24 72.868 11.2173C72.8189 11.1918 72.7695 11.1672 72.7199 11.1433ZM78.9551 20.3508C78.1376 19.9222 77.1398 19.4314 76.0245 18.9262C71.7937 17.0095 65.8265 14.7318 61.0602 14.2956C59.7031 15.3168 58.5689 16.575 57.6274 17.9821C58.5369 18.0007 59.4378 18.1061 60.3231 18.2818C66.949 18.5171 72.9964 22.3002 75.6352 24.5037C76.6004 22.8243 77.7494 21.4507 78.9551 20.3508ZM75.1617 25.3827C73.4378 23.9065 69.9677 21.583 65.8055 20.2595C66.6938 20.7178 67.5456 21.2224 68.3514 21.7508C70.9419 23.4498 73.0825 25.4127 74.4652 26.9351C74.6798 26.3936 74.9128 25.8763 75.1617 25.3827ZM74.0852 27.9791C72.7977 26.4903 70.6015 24.4064 67.8873 22.6151C67.8467 22.611 67.7885 22.6069 67.7108 22.6038C67.5263 22.5963 67.263 22.595 66.9321 22.6017C66.2721 22.6152 65.3644 22.6602 64.3237 22.7457C62.2858 22.9133 59.763 23.2343 57.605 23.769C56.9892 24.4942 56.0951 25.6639 55.3074 26.944C54.4699 28.3049 53.7928 29.7273 53.6484 30.853C53.5734 31.9066 53.5532 32.9017 53.5759 33.8049C53.7744 33.8366 53.9718 33.8708 54.1681 33.9076C63.9703 35.7455 70.5293 35.5025 72.9346 35.119C72.9778 32.4043 73.4012 30.0341 74.0852 27.9791ZM72.9356 36.1072C70.2579 36.501 63.6477 36.6791 53.9881 34.868C53.673 34.8089 53.3545 34.7568 53.0328 34.7114C51.8444 34.5439 50.6138 34.4687 49.3577 34.4747C48.88 34.477 48.3988 34.491 47.915 34.5161C43.069 34.7679 37.9825 36.1338 33.626 37.9559C29.2591 39.7824 25.6817 42.0435 23.8196 44.048C22.9945 44.9363 22.5608 45.7163 22.4805 46.3386C22.3247 47.5466 22.1519 48.5997 21.9853 49.615C21.5204 52.4489 21.1038 54.9882 21.2379 59.7792C21.2476 60.1265 21.2277 60.6431 21.2075 61.168C21.2045 61.2459 21.2015 61.3241 21.1985 61.4018C21.1806 61.8797 21.1658 62.3483 21.1708 62.7257L21.5107 62.8586C22.535 61.5915 24.6448 59.391 27.4707 57.9237C30.7591 56.2162 35.3917 54.4695 41.5936 53.0688C49.0346 51.3882 58.7418 50.2037 71.1104 50.1848C72.1538 48.0899 73.1089 45.9988 73.9753 43.9531C73.3002 41.0785 72.9773 38.4694 72.9356 36.1072ZM74.6305 42.374C75.8963 39.2594 76.9507 36.2801 77.7935 33.5903C78.0204 32.866 78.232 32.1628 78.4282 31.4837C78.7796 30.2671 79.0815 29.1283 79.3341 28.0845L79.3366 28.0742L79.3395 28.064C80.0623 25.5571 80.9213 23.3683 81.8885 21.464C82.4503 20.358 83.0486 19.3479 83.6779 18.4274C82.5527 18.9061 81.3208 19.627 80.1222 20.6286C78.6853 21.8293 77.2994 23.4308 76.2026 25.497C75.7896 26.2751 75.4173 27.1197 75.0986 28.0344C74.3644 30.1415 73.9134 32.6247 73.9081 35.5286C73.9043 37.5918 74.1255 39.8684 74.6305 42.374ZM70.6166 51.1633C59.2375 51.2097 50.1659 52.2513 43.0806 53.7444C44.4348 54.428 46.2978 55.2143 48.3918 56.0254C53.1971 57.8865 59.1114 59.837 62.5607 60.9093C63.4798 60.6791 64.415 60.4371 65.3663 60.1828C67.3035 57.2701 69.0538 54.2204 70.6166 51.1633ZM64.5303 61.4142C63.9014 61.5783 63.2795 61.737 62.6648 61.8905C57.3578 63.2153 52.5755 64.1496 48.2856 64.7725C46.7509 64.9953 45.2792 65.1783 43.8689 65.325C41.1915 65.6036 38.7338 65.7518 36.4861 65.7938C34.3084 65.8346 32.3279 65.7757 30.5358 65.6393C26.6845 65.3461 23.7033 64.695 21.5051 63.9053C21.4947 63.9016 21.4844 63.8978 21.474 63.8941C21.335 63.8439 21.1992 63.7931 21.0664 63.7419C20.8716 63.6667 20.6834 63.5904 20.5019 63.5131C20.1002 63.3423 19.7304 63.1666 19.3917 62.9879C19.0531 62.8092 18.7458 62.6274 18.4693 62.4445C18.0515 62.168 17.7005 61.8864 17.4174 61.6051L17.4093 61.5971L17.4017 61.5887C15.6615 59.6903 14.599 57.8938 14.0753 56.2134C14.0699 56.2839 14.0647 56.3554 14.0597 56.4278C13.8804 58.9987 13.8814 62.7347 14.3216 67.894C14.3746 68.5153 14.434 69.1573 14.5002 69.8202C14.6551 70.6283 15.2704 71.9012 16.6526 73.3759C19.2083 76.1025 24.3159 79.4392 33.5802 81.6727C37.3356 81.1056 41.3575 79.9918 45.5849 78.2328C53.0958 75.1074 59.4175 68.7903 64.5303 61.4142ZM30.9251 81.9878C23.4162 79.8606 18.8754 76.9846 16.3174 74.4336L12.9637 78.3245C17.4918 81.1224 23.638 82.6124 30.9251 81.9878ZM12.6778 77.1596L15.6435 73.7188C14.5244 72.4522 13.8844 71.2806 13.6229 70.3504C13.1497 72.2173 12.6909 74.7203 12.6778 77.1596ZM13.3391 67.8712C12.9046 62.7292 12.9026 58.9748 13.0849 56.3599C13.1201 55.855 13.1622 55.3919 13.2096 54.9689C11.4072 58.5481 8.87289 64.5896 6.88007 72.414C8.084 74.3238 9.70699 76.0405 11.7016 77.481C11.6613 73.6328 12.7262 69.6096 13.3391 67.8712ZM6.18558 71.2018C8.87271 61.0687 12.4133 54.026 13.9594 51.6118C14.0314 51.3533 14.116 51.1002 14.2123 50.8526C13.927 50.2503 13.6063 49.5153 13.2966 48.7198C13.2468 48.6041 13.1978 48.4887 13.1505 48.3749C12.5257 49.8746 11.703 52.3665 11.4077 55.1222L11.3786 55.3945L11.1311 55.5117C10.6666 55.7316 9.69162 56.5097 8.47192 58.1687C7.27678 59.7944 5.87242 62.2313 4.51049 65.721C4.73105 67.6473 5.30002 69.4911 6.18558 71.2018ZM4.41268 63.4114C5.54116 60.8639 6.67459 58.9639 7.68466 57.59C8.79681 56.0772 9.78095 55.1731 10.4651 54.7624C10.8763 51.3059 12.0574 48.2904 12.6906 47.0229C12.4103 46.1544 12.1734 45.2683 12.0323 44.4433C11.956 43.9968 11.9063 43.56 11.8947 43.148C10.49 44.9301 8.91674 47.3383 7.57603 50.2273C5.85236 53.9417 4.51892 58.4381 4.41268 63.4114ZM13.2015 41.6103C13.0404 41.808 12.9245 42.1263 12.8845 42.5907C12.8437 43.0632 12.8858 43.637 12.9955 44.2787C13.0777 44.7594 13.1959 45.2672 13.3386 45.7839L13.3612 45.7408L13.59 46.6276C13.776 47.2115 13.985 47.794 14.201 48.3496C14.319 48.6236 14.4483 48.9152 14.5774 49.2061C14.646 49.3607 14.7145 49.5151 14.7812 49.6666C16.4425 46.7704 19.6705 44.7299 22.3719 43.611C21.3347 43.0035 19.9424 42.3207 18.47 41.8481C16.5847 41.243 14.6698 41.0154 13.2015 41.6103ZM22.0048 44.839C19.4644 46.0189 16.7138 47.9661 15.4162 50.548C15.4092 50.562 15.4022 50.5759 15.3953 50.5899C15.3244 50.7331 15.258 50.8781 15.1964 51.025C15.1919 51.0357 15.1874 51.0465 15.183 51.0573C15.0641 51.3444 14.9634 51.6384 14.8828 51.9394C14.236 54.3552 14.8516 57.357 18.1141 60.9198C18.2108 61.0154 18.3198 61.1135 18.4414 61.2135C18.6164 60.8398 18.8888 60.5211 19.1602 60.2688C19.5138 59.94 19.9164 59.6759 20.2531 59.4943C20.143 54.802 20.5686 52.2081 21.0275 49.4117C21.1923 48.4073 21.3614 47.3768 21.5114 46.2135C21.5696 45.7626 21.742 45.3019 22.0048 44.839ZM20.2491 60.6438C20.1047 60.7453 19.9597 60.8596 19.8256 60.9844C19.534 61.2554 19.3405 61.5306 19.2642 61.7923C19.4361 61.8976 19.6211 62.0033 19.8196 62.1087C19.9397 62.1726 20.0648 62.2363 20.1949 62.2999C20.1994 61.9971 20.2105 61.6752 20.2221 61.3652C20.2251 61.2856 20.2281 61.2068 20.2311 61.1292C20.2376 60.9608 20.2438 60.7978 20.2491 60.6438ZM23.3894 43.086C22.2673 42.3776 20.5806 41.4993 18.7687 40.9177C17.4263 40.4869 15.9668 40.2032 14.6017 40.307C15.0273 39.9336 15.5318 39.4278 15.8884 38.8929C16.1674 38.4745 16.9976 36.9223 17.9015 35.1966C18.8145 33.4535 19.825 31.4896 20.4769 30.2129L20.5134 30.1413L20.5251 30.0618C20.8219 28.0435 22.0326 26.8617 23.4663 26.1863C24.9091 25.5067 26.558 25.3548 27.6371 25.4279C28.2672 25.5372 28.9093 25.6751 29.5594 25.8376C29.5594 25.8376 29.5594 25.8376 29.5594 25.8376C29.6174 25.8521 29.6755 25.8668 29.7336 25.8817C29.9813 25.9451 30.2299 26.0121 30.4793 26.0822C32.225 26.5736 34.0071 27.2247 35.7461 27.9594C36.6706 28.35 37.5817 28.7636 38.4673 29.1885C40.6795 30.2501 42.7324 31.3822 44.4364 32.4007C44.4959 32.4362 44.5549 32.4716 44.6135 32.5069C45.2808 32.9083 45.8946 33.2926 46.4377 33.6446C41.9003 34.0696 37.2627 35.3758 33.249 37.0545C29.0269 38.8203 25.4445 41.0199 23.3894 43.086ZM46.4377 33.6446C46.4377 33.6446 46.4377 33.6446 46.4377 33.6446ZM48.031 33.5321C48.1127 33.5282 48.1944 33.5247 48.2761 33.5215C47.5076 32.5593 46.8462 31.3499 46.3046 29.9783C46.0968 30.1751 45.8772 30.4188 45.6929 30.6835C45.3872 31.1226 45.2599 31.4994 45.2897 31.7737C46.3739 32.4302 47.3046 33.033 48.031 33.5321ZM44.3661 31.2238C44.4652 30.8165 44.6754 30.4349 44.891 30.1252C45.2028 29.6773 45.5981 29.2744 45.9458 28.9944C45.1774 26.7094 44.7038 24.0282 44.5988 21.2358C43.44 21.6856 41.8776 22.4368 40.4013 23.4201C38.7864 24.4958 37.336 25.8088 36.5899 27.2575C37.5061 27.6538 38.4067 28.0705 39.2802 28.4964C41.1342 29.4002 42.8659 30.3451 44.3661 31.2238ZM35.6877 26.8761C36.5406 25.1746 38.1793 23.7261 39.8596 22.6069C41.541 21.487 43.327 20.6553 44.5769 20.2001C44.5694 18.604 44.6831 16.98 44.933 15.3797C42.8156 16.0518 39.8671 17.221 37.1161 18.8133C34.2076 20.4967 31.6 22.6074 30.3667 25.0378C30.6743 25.1206 30.9829 25.2083 31.292 25.3006C32.7596 25.7387 34.2397 26.2786 35.6877 26.8761ZM43.831 64.3465C45.0799 64.2158 46.3781 64.0563 47.7268 63.8655V56.8152C45.2091 55.8322 42.9888 54.8675 41.6188 54.065C35.7583 55.4024 31.3574 57.0449 28.2077 58.6437C28.256 58.7977 28.3718 59.0152 28.6245 59.292C29.0318 59.738 29.7467 60.28 30.9087 60.8634C33.224 62.0258 37.2259 63.3088 43.831 64.3465ZM27.3392 59.1097C25.1386 60.379 23.442 62.0815 22.4894 63.2083C24.5556 63.8745 27.2987 64.4251 30.7954 64.6788C32.5276 64.8045 34.4448 64.8573 36.5562 64.8153C37.6633 64.7932 38.8259 64.7449 40.0412 64.6675C35.4729 63.7568 32.4327 62.7219 30.4703 61.7367C29.2457 61.1218 28.4184 60.5153 27.903 59.9509C27.6495 59.6733 27.4579 59.39 27.3392 59.1097ZM48.7039 57.192V63.723C52.349 63.176 56.3514 62.4037 60.7309 61.3571C57.4008 60.2947 52.7371 58.7294 48.7039 57.192ZM54.1544 26.9695C54.2594 26.7878 54.3667 26.6083 54.4752 26.4319C54.9652 25.6356 55.4939 24.8817 55.9776 24.242C55.4876 24.4101 55.0418 24.592 54.6534 24.7878C54.458 25.5165 54.2926 26.2466 54.1544 26.9695ZM55.0132 23.5573C55.6812 23.2902 56.4296 23.0593 57.2147 22.8596C59.4795 22.2833 62.1325 21.9455 64.2436 21.7719C65.0152 21.7085 65.7179 21.6667 66.3069 21.6433C64.4055 20.5596 62.3233 19.6805 60.1702 19.2477C59.1302 19.0387 58.0752 18.9341 57.0169 18.9601C56.178 20.401 55.5197 21.9625 55.0132 23.5573ZM121.059 38.6883C119.801 26.0789 112.359 16.6711 108.682 13.4596C105.944 12.0187 101.923 10.8083 97.6943 11.0929C93.4575 11.378 89.0021 13.1626 85.3838 17.7534C84.8562 18.4228 84.3457 19.1527 83.8559 19.9474C88.2324 17.0293 92.2722 16.5726 95.8299 17.6063C99.7344 18.7407 102.972 21.6457 105.4 24.8302C106.682 24.4478 107.839 24.1075 108.823 23.8217L110.297 23.3937L109.342 24.595C109.063 24.9459 108.763 25.4454 108.423 26.0095C108.391 26.063 108.359 26.117 108.326 26.1716C108.021 26.6773 107.689 27.2204 107.336 27.6857C108.185 29.0954 108.88 30.49 109.41 31.7563L109.448 31.8468V38.2172C111.73 37.9028 116.348 37.5759 120.46 38.3037L120.574 38.3239L120.667 38.3932C120.8 38.4924 120.931 38.5908 121.059 38.6883ZM108.471 38.384V32.2484C107.814 31.9269 106.504 31.306 104.856 30.5803C103.771 31.8087 102.608 33.0868 101.389 34.3775C102.878 35.8669 103.881 36.9867 104.537 37.8014C104.889 38.2388 105.145 38.5925 105.324 38.8715C105.377 38.9539 105.424 39.0327 105.467 39.1074C106.601 38.7995 107.621 38.5584 108.471 38.384ZM104.49 39.3813C104.336 39.1423 104.106 38.8234 103.776 38.4143C103.151 37.6375 102.179 36.5498 100.716 35.086C98.6616 37.2323 96.4646 39.3967 94.2287 41.4108L95.5443 42.7328C98.618 41.2715 101.81 40.1562 104.49 39.3813ZM94.6171 43.1862L93.4983 42.062C91.2091 44.082 88.8858 45.9311 86.64 47.4264C86.7497 47.4485 86.8617 47.468 86.9744 47.4851C87.3359 47.5399 87.6795 47.5661 87.9307 47.5751C89.8305 45.8772 92.1719 44.4165 94.6171 43.1862ZM86.9246 48.4653C86.8925 48.4608 86.8603 48.4561 86.8279 48.4511C86.4148 48.3885 85.9538 48.2887 85.5483 48.1287C82.6445 49.9295 79.8432 51.1118 77.4278 51.1662C77.4103 51.7147 77.3974 52.2464 77.3897 52.757C77.7841 52.8413 78.3905 52.8662 79.2063 52.7186C80.2622 52.5276 81.6376 52.0525 83.29 51.0873C84.3856 50.4473 85.6014 49.5929 86.9246 48.4653ZM77.3813 53.7487C77.3802 54.8255 77.4071 55.7775 77.4682 56.5588C77.5193 57.212 77.5924 57.7129 77.6794 58.0608L108.813 49.5552L125.12 43.7537C124.468 42.9282 123.248 41.6767 121.334 40.1432C120.973 39.8535 120.587 39.5541 120.176 39.246C115.865 38.5059 110.967 38.948 109.046 39.2657C108.063 39.4554 106.786 39.7526 105.331 40.1583C102.49 40.9501 98.9834 42.1508 95.6558 43.763C92.9768 45.0611 90.4313 46.6175 88.4435 48.4286C86.7394 49.9811 85.1785 51.1158 83.7828 51.931C82.049 52.9437 80.5666 53.4655 79.3803 53.6802C78.5892 53.8233 77.9147 53.8322 77.3813 53.7487ZM125.373 44.7008L109.106 50.4881L77.997 58.987C78.1605 59.6551 78.1397 60.4534 78.0211 61.2829C77.8656 62.3706 77.5286 63.5976 77.1076 64.8285C76.265 67.2917 75.0642 69.8323 74.2141 71.4229L74.194 71.4605L74.1677 71.494C72.0378 74.2107 68.4895 78.0698 64.0595 81.8618C73.0847 80.8689 88.2462 76.8633 99.5396 73.5528C103.139 72.4975 106.339 71.5151 108.811 70.7271L108.814 70.7261L108.818 70.7252C110.427 70.2361 112.583 68.8773 114.824 66.7689C117.057 64.6692 119.34 61.8567 121.213 58.5062C123.426 54.5487 125.061 49.8515 125.373 44.7008ZM62.4804 83.1789C64.9616 86.15 67.0426 88.2713 68.6518 89.724C70.2722 91.1868 71.4381 91.9936 72.0638 92.2954C75.9351 95.2017 84.9244 99.4301 96.2983 99.2104L95.3118 99.953C89.7375 104.149 80.5487 107.476 71.1585 109.942C69.4529 109.626 65.5874 108.612 62.8583 106.924C60.0697 103.976 56.7317 101.637 53.0619 99.8022C52.265 98.565 51.5907 96.8526 51.0685 95.1742C50.5951 93.6524 50.2559 92.1889 50.0662 91.1911C54.5547 89.0615 58.784 86.1823 62.4804 83.1789ZM49.1527 91.6124C46.0219 93.0146 42.7686 94.0406 39.4854 94.4764C38.492 94.6083 37.5193 94.7159 36.5681 94.8012C41.7609 95.613 46.8844 96.9718 51.5368 99.0765C50.9829 97.9562 50.5145 96.6828 50.1355 95.4644C49.6868 94.0221 49.3553 92.6306 49.1527 91.6124ZM25.141 94.7957C26.7785 94.9549 28.5348 95.0513 30.4026 95.0629C38.0648 95.6762 45.8643 97.3215 52.5085 100.618C56.1588 102.429 59.4556 104.736 62.1908 107.641C63.2789 108.796 64.2786 110.046 65.1767 111.398C59.2086 112.744 53.494 113.729 48.9619 114.364C47.6495 114.548 46.4369 114.702 45.3465 114.827C44.5468 114.537 42.927 114.209 40.4587 114.048C37.8462 113.878 34.2501 113.893 29.6022 114.351C29.3824 114.373 29.166 114.394 28.9529 114.414C24.5888 114.824 21.6365 114.9 19.7246 114.829C18.768 114.793 18.0801 114.721 17.6104 114.638C17.3805 114.598 17.21 114.556 17.0895 114.518C16.9713 113.372 16.3935 111.973 15.5806 110.489C14.684 108.851 13.4623 107.042 12.12 105.239C9.67926 101.959 6.81562 98.6683 4.71723 96.4171C8.16303 95.7575 12.4357 95.1985 17.1378 94.9341C19.7007 94.79 22.3898 94.7335 25.141 94.7957ZM30.4445 94.086C28.6818 93.9457 26.9284 93.8595 25.1998 93.8197C19.9849 93.3093 16.023 92.1531 13.5563 91.1019C12.772 90.7677 12.1446 90.4466 11.6789 90.1636C10.5163 89.3393 8.94649 88.0294 7.36639 86.379C4.23286 83.106 1.15352 78.5932 0.987465 73.9437C0.8603 70.383 1.91674 65.6994 3.31447 61.2545C3.43279 60.8782 3.55342 60.5041 3.67582 60.1329C3.53027 61.2899 3.44475 62.4789 3.43077 63.6957C3.42297 64.3739 3.45506 65.0452 3.52592 65.7076C3.79478 68.221 4.62131 70.6027 5.93893 72.7509C7.38607 75.1102 9.42284 77.1835 11.9572 78.8423C17.269 82.3189 24.7605 83.9728 33.6305 82.6532C37.4982 82.0778 41.6294 80.937 45.9603 79.1349C54.0873 75.7532 60.7882 68.7905 66.0767 60.8786C68.2307 57.6563 70.1547 54.2699 71.8492 50.8922C72.9807 48.6366 74.0102 46.3842 74.9377 44.186C75.834 42.0619 76.6353 39.9878 77.3414 38.0101C76.9752 41.9588 76.6106 46.6854 76.4675 50.6555C76.4366 51.5136 76.416 52.3373 76.4079 53.1108C76.3939 54.4605 76.4182 55.6643 76.4941 56.635C76.5682 57.5819 76.6954 58.3784 76.9244 58.862C77.1538 59.3462 77.2 60.122 77.0538 61.1446C76.9104 62.1482 76.5939 63.3111 76.1831 64.5122C75.3684 66.8937 74.2038 69.3645 73.3724 70.9247C71.0924 73.8269 67.1521 78.0718 62.236 82.1166C58.402 85.2711 53.9859 88.2944 49.3124 90.4655C46.0741 91.9699 42.7204 93.0613 39.3569 93.5077C36.1561 93.9326 33.1775 94.1015 30.4445 94.086ZM78.6454 34.7319C78.2081 38.9299 77.6662 45.1162 77.4631 50.1878C79.65 50.1207 82.3225 49.0064 85.2484 47.1639C87.8117 45.5498 90.5202 43.4086 93.1941 41.0257C95.6639 38.8247 98.0977 36.4232 100.352 34.0512C101.771 32.5582 103.119 31.0775 104.359 29.6669C105.065 28.8627 105.737 28.0814 106.367 27.3336C106.745 26.8853 107.116 26.2869 107.489 25.6674C107.523 25.61 107.558 25.5523 107.593 25.4945C107.665 25.3749 107.737 25.2549 107.809 25.136C107.056 25.3572 106.233 25.601 105.354 25.8637C102.914 26.5929 100.045 27.467 97.0547 28.405C95.9809 28.7418 94.8915 29.0868 93.8005 29.4363C90.6978 30.4302 87.4337 31.5541 84.534 32.5963C83.1272 33.1019 81.8067 33.5881 80.6326 34.0307C80.2056 34.1916 79.8573 34.3088 79.5401 34.4156C79.4998 34.4291 79.4599 34.4426 79.4205 34.4559C79.1571 34.5447 78.911 34.6294 78.6454 34.7319ZM78.8034 33.6341C78.9052 33.5987 79.0062 33.5644 79.1081 33.53C79.1482 33.5165 79.1884 33.503 79.2288 33.4894C79.3851 33.4368 79.5449 33.383 79.7159 33.3234C79.7148 33.3217 79.7137 33.3199 79.7126 33.3181L79.6729 33.253C79.5628 33.0724 79.4518 32.8903 79.3369 32.718C79.2758 32.6262 79.2163 32.5415 79.1587 32.4653C79.0448 32.8482 78.9264 33.238 78.8034 33.6341ZM79.4742 31.3803C79.5501 31.4404 79.6179 31.5049 79.6773 31.5667C79.8493 31.7456 80.0088 31.9642 80.15 32.1761C80.2765 32.3659 80.3982 32.5656 80.507 32.744C80.5204 32.766 80.5336 32.7876 80.5466 32.8089C80.5837 32.8697 80.6187 32.9267 80.6517 32.9796C81.5427 32.6455 82.51 32.289 83.5292 31.92C83.1408 31.4934 82.6393 30.977 82.0878 30.4695C81.4524 29.8847 80.77 29.3299 80.1306 28.935C79.9364 29.707 79.7176 30.5241 79.4742 31.3803ZM80.3902 27.9533C81.1931 28.4083 82.0248 29.0835 82.7495 29.7505C83.4586 30.4032 84.0885 31.0696 84.5205 31.563C87.0659 30.6513 89.8733 29.6832 92.5989 28.7973C92.0863 28.4186 91.5197 28.0045 90.9228 27.5739C89.1808 26.3173 87.1861 24.9245 85.5215 23.8603C84.6881 23.3275 83.9459 22.8826 83.3636 22.579C83.0717 22.4268 82.8302 22.3156 82.6435 22.2465C82.6275 22.2405 82.6123 22.2351 82.5978 22.2301C81.7751 23.8999 81.0319 25.799 80.3902 27.9533ZM83.3666 21.4912C83.508 21.5563 83.6582 21.6307 83.8153 21.7126C84.4353 22.0358 85.2054 22.4985 86.0478 23.037C87.69 24.0868 89.6395 25.4459 91.3542 26.6804C93.9118 26.5537 96.0057 27.0711 96.9282 27.4207C99.5917 26.5861 102.154 25.8037 104.397 25.1303C102.066 22.1541 99.0677 19.5645 95.5573 18.5446C92.0507 17.5258 87.9509 18.0496 83.3666 21.4912ZM95.2309 27.9553C94.5384 27.8083 93.6696 27.6823 92.6851 27.6475C93.0622 27.9241 93.4172 28.1866 93.7422 28.429C94.2394 28.27 94.7361 28.1119 95.2309 27.9553ZM19.1762 93.8617C18.5323 93.885 17.895 93.9141 17.2651 93.9484L16.1177 93.0616C17.0407 93.3436 18.0617 93.6148 19.1762 93.8617ZM13.1153 91.9761C12.317 91.6333 11.6604 91.297 11.1559 90.9892L11.1417 90.9805L11.1282 90.9709C10.0257 90.1908 8.58998 89.0054 7.11937 87.5251C6.37831 88.8642 5.46313 90.6646 4.80786 92.2856C4.43004 93.2204 4.14863 94.0713 4.03014 94.7302C3.97063 95.061 3.9575 95.3159 3.97997 95.4962C3.98308 95.5211 3.9867 95.5435 3.99064 95.5634C7.25879 94.9118 11.3078 94.3467 15.7851 94.0395L13.1153 91.9761ZM66.1929 111.166C67.1549 110.944 68.122 110.712 69.0903 110.471C67.7687 110.123 66.1405 109.606 64.584 108.919C65.151 109.636 65.688 110.385 66.1929 111.166ZM96.3645 99.209L93.9748 109.724C98.6051 107.434 102.024 104.791 104.385 102.406C106.373 100.397 107.588 98.5951 108.16 97.3561C104.038 98.5808 100.075 99.1318 96.3645 99.209ZM109.354 96.9896C108.896 98.4121 107.498 100.65 105.079 103.093C102.521 105.678 98.7848 108.53 93.6976 110.944L91.3991 121.057C93.6162 120.197 96.7441 118.907 99.8058 117.492C103.267 115.892 106.594 114.153 108.443 112.703C110.101 110.436 112.956 103.996 111.467 95.8513C110.722 96.4012 110.007 96.7752 109.354 96.9896ZM94.844 101.49C89.0329 105.463 80.1863 108.588 71.3015 110.915C69.5557 111.372 67.8064 111.799 66.0756 112.196C62.1944 113.086 58.4051 113.825 54.9574 114.416C58.0902 114.622 60.5182 115.105 62.5039 115.702C64.6958 116.361 66.3631 117.169 67.7957 117.863C68.3678 118.14 68.9025 118.399 69.4182 118.623C72.4539 119.943 75.7003 122.753 77.0031 124.043C78.125 124.597 79.274 124.986 80.4076 125.248C84.1698 126.118 87.7336 125.582 89.491 125.043L94.844 101.49ZM45.6598 115.774C45.5518 115.787 45.4449 115.799 45.3392 115.811L45.2169 115.825L45.1026 115.779C44.4967 115.537 42.9627 115.191 40.3951 115.024C37.9062 114.861 34.4763 114.869 30.0405 115.29C30.5328 115.823 31.1042 116.464 31.6426 117.114C32.4159 118.047 33.1715 119.055 33.4887 119.784C33.5302 119.793 33.5988 119.803 33.7027 119.804C33.9879 119.808 34.4102 119.751 34.9603 119.629C36.0514 119.387 37.5283 118.918 39.1668 118.331C41.2592 117.58 43.5874 116.647 45.6598 115.774ZM50.7076 115.292C53.9007 117.232 58.0922 119.822 61.7079 122.154C63.7991 123.502 65.7029 124.767 67.1105 125.771C67.8134 126.272 68.3999 126.712 68.8263 127.069C69.0388 127.246 69.2197 127.41 69.3575 127.554C69.4631 127.664 69.5898 127.81 69.6612 127.971C69.6806 127.978 69.7116 127.987 69.7587 127.996C69.9309 128.029 70.202 128.034 70.5764 127.998C71.3167 127.928 72.3271 127.715 73.4595 127.417C75.1631 126.968 77.0927 126.344 78.6917 125.784C77.9574 125.543 77.2221 125.246 76.4962 124.883L76.4253 124.847L76.3692 124.791C75.135 123.557 71.9407 120.786 69.0286 119.52C68.4561 119.271 67.8897 118.996 67.2985 118.709C65.8879 118.025 64.3359 117.273 62.2226 116.638C59.5259 115.827 55.9372 115.221 50.7076 115.292ZM69.6336 127.958C69.6337 127.958 69.636 127.959 69.6397 127.962C69.6353 127.959 69.6335 127.958 69.6336 127.958ZM73.3308 92.0005C78.8875 95.7975 92.6724 101.307 108.811 96.1325L108.822 96.1289L108.833 96.1258C109.561 95.9306 110.472 95.4557 111.471 94.5983C115.476 91.1646 120.68 81.7897 121.121 61.5472C117.615 69.9864 111.89 74.7572 109.188 76.1845L109.148 76.2054L109.106 76.2187C108.657 76.3592 108.167 76.515 107.644 76.6841C104.781 77.6094 100.942 78.9254 97.5691 80.2469C95.882 80.9078 94.3179 81.5676 93.0532 82.1785C91.771 82.7978 90.8501 83.3421 90.4035 83.7624C89.7972 84.333 88.6693 85.0273 87.2939 85.7649C85.9031 86.5108 84.2111 87.3259 82.4381 88.1342C79.2649 89.5808 75.8148 91.0134 73.3308 92.0005ZM119.273 63.2548C115.867 70.1405 111.071 74.0689 108.77 75.2998C108.394 75.4178 107.989 75.5463 107.561 75.6841C106.406 74.9803 104.903 74.486 103.5 74.1494C102.991 74.0272 102.49 73.9245 102.016 73.8396C104.725 73.0315 107.142 72.2846 109.105 71.6591C110.917 71.1075 113.201 69.6376 115.494 67.4806C116.767 66.2833 118.052 64.8647 119.273 63.2548ZM99.728 74.5158C88.1982 77.8933 72.5517 82.0219 63.5218 82.8998C65.849 85.6589 67.7986 87.6375 69.3065 88.9987C70.7722 90.3218 71.8008 91.0437 72.343 91.3403C74.8384 90.3598 78.6009 88.8096 82.0328 87.2451C83.7964 86.4411 85.4673 85.6358 86.8321 84.9038C88.2123 84.1636 89.2327 83.5224 89.7338 83.0508C90.3019 82.5161 91.3494 81.9163 92.6282 81.2986C93.9245 80.6725 95.5142 80.0025 97.2126 79.3371C100.205 78.165 103.554 76.9994 106.274 76.1034C105.377 75.6824 104.319 75.3508 103.272 75.0995C101.882 74.766 100.554 74.584 99.728 74.5158ZM105.531 29.8104C106.489 30.2353 107.324 30.62 107.968 30.924C107.594 30.1367 107.162 29.3148 106.674 28.4839C106.305 28.9168 105.924 29.3596 105.531 29.8104Z" fill="#FFEDBA"/>
</svg>
