<svg width="121" height="117" viewBox="0 0 121 117" fill="none" xmlns="http://www.w3.org/2000/svg">
<path d="M1.19669 48.0826C0.535775 46.2558 1.57468 44.7543 3.51714 44.7289L26.7303 44.425C28.6727 44.3996 30.7832 45.8599 31.4441 47.6866L38.5046 67.2016C39.1655 69.0283 38.1266 70.5298 36.1841 70.5552L12.971 70.8591C11.0285 70.8845 8.91806 69.4243 8.25715 67.5975L1.19669 48.0826Z" fill="#ECBABA"/>
<path d="M1.19669 48.0826C0.535775 46.2558 1.57468 44.7543 3.51714 44.7289L26.7303 44.425C28.6727 44.3996 30.7832 45.8599 31.4441 47.6866L32.4014 50.3327L2.15404 50.7287L1.19669 48.0826Z" fill="#AF7858"/>
<path d="M38.5045 67.2015C39.1654 69.0283 38.1265 70.5298 36.184 70.5552L12.9709 70.8591C11.0284 70.8845 8.91799 69.4242 8.25708 67.5975L7.29973 64.9514L37.5471 64.5554L38.5045 67.2015Z" fill="#EFA4A4"/>
<path d="M2.15381 50.7286L32.4012 50.3327L34.6749 56.6172L4.42752 57.0131L2.15381 50.7286Z" fill="#FFECEC"/>
<path d="M6.24854 62.0454L36.4959 61.6495L37.5986 64.6972L7.3512 65.0932L6.24854 62.0454Z" fill="#FFECEC"/>
<path d="M57.3606 73.9848C58.0605 72.1727 59.8233 71.7288 61.2979 72.9935L78.9198 88.1068C80.3943 89.3715 81.0223 91.8658 80.3224 93.6779L72.8454 113.037C72.1455 114.849 70.3827 115.293 68.9081 114.028L51.2863 98.9151C49.8117 97.6504 49.1837 95.1562 49.8836 93.344L57.3606 73.9848Z" fill="#ECBABA"/>
<path d="M57.3606 73.9848C58.0605 72.1727 59.8233 71.7288 61.2979 72.9935L78.9198 88.1068C80.3943 89.3715 81.0223 91.8658 80.3224 93.6779L79.3086 96.3029L56.3468 76.6098L57.3606 73.9848Z" fill="#AF7858"/>
<path d="M72.8454 113.037C72.1455 114.849 70.3827 115.293 68.9081 114.028L51.2863 98.915C49.8117 97.6503 49.1837 95.1561 49.8836 93.3439L50.8974 90.7189L73.8593 110.412L72.8454 113.037Z" fill="#EFA4A4"/>
<path d="M56.3467 76.6097L79.3085 96.3028L76.9006 102.537L53.9388 82.844L56.3467 76.6097Z" fill="#FFECEC"/>
<path d="M52.0107 87.8362L74.9725 107.529L73.8048 110.553L50.843 90.8596L52.0107 87.8362Z" fill="#FFECEC"/>
<path d="M43.8224 14.3625C43.6392 12.4285 44.9605 10.2953 46.7736 9.59784L68.4409 1.26287C70.254 0.565405 71.8723 1.56779 72.0555 3.50177L74.0124 24.1622C74.1956 26.0962 72.8743 28.2294 71.0612 28.9268L49.3939 37.2618C47.5808 37.9593 45.9625 36.9569 45.7793 35.0229L43.8224 14.3625Z" fill="#ECBABA"/>
<path d="M43.8224 14.3625C43.6392 12.4285 44.9605 10.2953 46.7736 9.59784L68.4409 1.26287C70.254 0.565405 71.8723 1.56779 72.0555 3.50177L72.3208 6.30318L44.0877 17.1639L43.8224 14.3625Z" fill="#AF7858"/>
<path d="M74.0126 24.1622C74.1957 26.0962 72.8744 28.2294 71.0613 28.9268L49.3941 37.2618C47.581 37.9593 45.9627 36.9569 45.7795 35.0229L45.5141 32.2215L73.7472 21.3608L74.0126 24.1622Z" fill="#EFA4A4"/>
<path d="M44.0879 17.1639L72.321 6.30316L72.9512 12.9565L44.7181 23.8172L44.0879 17.1639Z" fill="#FFECEC"/>
<path d="M45.2227 29.145L73.4557 18.2842L73.7614 21.5109L45.5283 32.3716L45.2227 29.145Z" fill="#FFECEC"/>
<path d="M90.75 37.4888C90.75 35.5461 92.3248 33.9713 94.2674 33.9713H117.483C119.425 33.9713 121 35.5461 121 37.4888V58.2417C121 60.1843 119.425 61.7591 117.483 61.7591H94.2674C92.3248 61.7591 90.75 60.1843 90.75 58.2417V37.4888Z" fill="#ECBABA"/>
<path d="M90.75 37.4888C90.75 35.5461 92.3248 33.9713 94.2674 33.9713H117.483C119.425 33.9713 121 35.5461 121 37.4888V40.3027H90.75V37.4888Z" fill="#AF7858"/>
<path d="M121 58.2417C121 60.1843 119.425 61.7591 117.483 61.7591L94.2674 61.7591C92.3248 61.7591 90.75 60.1843 90.75 58.2417V55.4277L121 55.4277V58.2417Z" fill="#EFA4A4"/>
<path d="M90.75 40.3027H121V46.9858H90.75V40.3027Z" fill="#FFECEC"/>
<path d="M90.75 52.3374H121V55.5784H90.75V52.3374Z" fill="#FFECEC"/>
</svg>
