<svg width="125" height="102" viewBox="0 0 125 102" fill="none" xmlns="http://www.w3.org/2000/svg">
<path fill-rule="evenodd" clip-rule="evenodd" d="M62.6689 35.874C57.4355 8.97962 18.5165 4.53589 12.8764 8.02446C9.69766 9.6206 9.48857 10.2602 8.19253 11.9083C0.739843 21.3849 9.65734 31.3273 16.562 35.0067C32.0499 45.1513 60.2056 57.2014 63.0058 41.8325C63.3786 39.7866 63.2838 39.0335 62.6689 35.874ZM10.7215 16.6261C16.9244 25.6476 31.5698 38.0873 58.0604 41.6074C50.5188 19.2148 21.8215 12.7951 10.7215 16.6261Z" fill="#F5F1F5"/>
<path d="M11.3334 17.1581C10.207 16.1083 9.27092 13.3841 8.94369 12.1532C45.5216 1.84879 60.2124 28.1039 62.9857 42.5194C60.5662 42.9805 58.6193 42.2978 57.9483 41.8988C48.1831 15.366 22.8029 14.3497 11.3334 17.1581Z" fill="#E4E2E2"/>
<path d="M62.1238 42.8529C30.9881 42.5625 12.684 23.3759 7.42392 13.8188C5.56254 15.622 5.13517 18.232 5.15415 19.3117C18.48 44.4678 53.7273 48.3148 56.9798 47.8725C59.5818 47.5187 61.4933 44.3787 62.1238 42.8529Z" fill="#997D8B" fill-opacity="0.75"/>
<path d="M108.138 60.2048C105.997 48.699 96.3199 53.6269 91.7488 57.5291C91.7488 62.3455 78.8158 74.6986 72.3493 80.2731C59.8625 87.7429 32.0123 101.01 20.5065 94.3208C9.00066 87.6314 9.24594 89.9727 10.8068 91.9795C16.6935 106.161 46.7067 100.564 60.9775 95.9932C77.5895 88.8578 110.278 71.7106 108.138 60.2048Z" fill="#F5F1F5"/>
<path d="M105.796 66.5597C109.81 59.6027 105.908 55.1877 103.455 53.8498C103.455 60.0041 100.333 64.8874 98.7725 66.5597C94.7589 71.5768 83.0524 79.9386 71.3459 87.9659C61.9807 94.3877 43.1389 97.777 34.8886 98.6689L17.8306 98.3345C17.9421 98.7804 21.376 99.873 34.2196 100.676C47.0633 101.478 64.322 94.7668 71.3459 91.3106C81.1571 85.959 101.783 73.5167 105.796 66.5597Z" fill="#B09AA5"/>
<path d="M89.8346 66.1516C95.7213 64.011 94.5172 60.3541 93.1793 58.7932C91.0387 57.4553 89.6116 58.6817 89.1657 59.4622C86.9359 62.5839 83.9479 68.2922 89.8346 66.1516Z" fill="#E0D8E0"/>
<path d="M89.1581 64.8131C93.1552 63.283 92.3376 60.669 91.4292 59.5532C89.9757 58.5969 89.0067 59.4735 88.7039 60.0314C87.1898 62.2629 85.1609 66.3433 89.1581 64.8131Z" fill="#F5F1F5"/>
<path d="M89.2436 64.2187C92.2414 63.0285 91.6282 60.9954 90.9469 60.1276C89.8568 59.3838 89.13 60.0656 88.9029 60.4995C87.7673 62.2351 86.2457 65.4088 89.2436 64.2187Z" fill="#C7BFC7"/>
<path d="M97.192 57.4553C103.079 55.3147 101.875 51.6578 100.537 50.097C98.3961 48.7591 96.969 49.9855 96.5231 50.7659C94.2933 53.8876 91.3053 59.5959 97.192 57.4553Z" fill="#E0D8E0"/>
<path d="M96.5155 56.1169C100.513 54.5867 99.695 51.9727 98.7866 50.857C97.3331 49.9006 96.3641 50.7773 96.0613 51.3352C94.5472 53.5666 92.5184 57.647 96.5155 56.1169Z" fill="#F5F1F5"/>
<path d="M96.601 55.5224C99.5988 54.3323 98.9856 52.2992 98.3043 51.4314C97.2142 50.6875 96.4874 51.3694 96.2603 51.8033C95.1248 53.5389 93.6031 56.7125 96.601 55.5224Z" fill="#C7BFC7"/>
<path d="M81.8073 74.8478C87.694 72.7072 86.4899 69.0503 85.152 67.4895C83.0114 66.1516 81.5843 67.378 81.1383 68.1584C78.9085 71.2801 75.9206 76.9884 81.8073 74.8478Z" fill="#E0D8E0"/>
<path d="M81.1307 73.5094C85.1279 71.9792 84.3103 69.3652 83.4018 68.2495C81.9483 67.2931 80.9793 68.1698 80.6765 68.7276C79.1625 70.9591 77.1336 75.0395 81.1307 73.5094Z" fill="#F5F1F5"/>
<path d="M81.2162 72.9149C84.2141 71.7248 83.6009 69.6916 82.9195 68.8239C81.8294 68.08 81.1027 68.7619 80.8756 69.1958C79.74 70.9314 78.2184 74.105 81.2162 72.9149Z" fill="#C7BFC7"/>
<path d="M71.5895 82.2827C77.4471 81.5689 77.1191 77.9568 76.2228 76.24C74.5425 74.5572 72.9721 75.3796 72.397 76.0011C69.6872 78.3923 65.7319 82.9965 71.5895 82.2827Z" fill="#E0D8E0"/>
<path d="M71.2532 80.9105C75.2469 80.3555 75.052 77.7826 74.4553 76.5656C73.3245 75.379 72.2489 75.9777 71.8524 76.4254C69.9887 78.1517 67.2596 81.4655 71.2532 80.9105Z" fill="#F5F1F5"/>
<path d="M71.4579 80.383C74.4622 79.9277 74.3314 77.9315 73.8905 76.9902C73.048 76.0759 72.2361 76.5473 71.9355 76.8972C70.5245 78.2488 68.4536 80.8383 71.4579 80.383Z" fill="#C7BFC7"/>
<path d="M60.5638 88.369C66.1122 88.9819 66.5934 85.5847 66.1404 83.8096C64.9581 81.8957 63.3338 82.3124 62.6694 82.76C59.6557 84.3743 55.0154 87.756 60.5638 88.369Z" fill="#E0D8E0"/>
<path d="M60.5516 87.0326C64.3493 87.3875 64.7277 84.9762 64.4422 83.7261C63.6582 82.3883 62.538 82.7064 62.0759 83.0326C59.9854 84.218 56.7539 86.6776 60.5516 87.0326Z" fill="#F5F1F5"/>
<path d="M60.855 86.5912C63.7201 86.8234 64.0325 84.9569 63.8306 83.9946C63.2532 82.97 62.4034 83.228 62.0507 83.4851C60.4583 84.4237 57.99 86.3589 60.855 86.5912Z" fill="#C7BFC7"/>
<path d="M50.0291 92.4363C54.8672 94.0397 55.9435 91.0977 55.8769 89.4262C55.1853 87.4921 53.6555 87.5551 52.9771 87.8283C49.9786 88.6962 45.1911 90.8329 50.0291 92.4363Z" fill="#E0D8E0"/>
<path d="M50.2729 91.2406C53.5967 92.2804 54.3935 90.1991 54.3765 89.0285C53.9311 87.6846 52.8702 87.7554 52.3954 87.9588C50.303 88.6195 46.9491 90.2008 50.2729 91.2406Z" fill="#F5F1F5"/>
<path d="M50.6267 90.904C53.141 91.6568 53.7753 90.0494 53.7781 89.1517C53.4575 88.1268 52.6495 88.1954 52.2856 88.3579C50.685 88.893 48.1124 90.1513 50.6267 90.904Z" fill="#C7BFC7"/>
<path d="M39.4452 95.8672C43.3532 97.8678 44.656 95.5046 44.8189 94.0729C44.4842 92.3355 43.1736 92.1881 42.5601 92.3316C39.8935 92.6765 35.5371 93.8666 39.4452 95.8672Z" fill="#E0D8E0"/>
<path d="M39.8097 94.8813C42.5027 96.2031 43.4545 94.536 43.5938 93.5372C43.3911 92.3346 42.4787 92.2555 42.0478 92.3663C40.1797 92.6538 37.1167 93.5594 39.8097 94.8813Z" fill="#F5F1F5"/>
<path d="M40.156 94.6413C42.1975 95.6124 42.9487 94.3274 43.069 93.5635C42.9307 92.6489 42.2338 92.6012 41.9027 92.6917C40.4698 92.9369 38.1144 93.6702 40.156 94.6413Z" fill="#C7BFC7"/>
<path d="M31.6118 97.1391C34.5331 98.6346 35.507 96.868 35.6287 95.7978C35.3786 94.4991 34.3989 94.3889 33.9403 94.4962C31.9469 94.7541 28.6905 95.6436 31.6118 97.1391Z" fill="#E0D8E0"/>
<path d="M31.8841 96.4021C33.8971 97.3902 34.6086 96.144 34.7127 95.3974C34.5613 94.4984 33.8792 94.4393 33.5571 94.5221C32.1607 94.737 29.8711 95.414 31.8841 96.4021Z" fill="#F5F1F5"/>
<path d="M32.1432 96.2227C33.6693 96.9486 34.2308 95.988 34.3208 95.417C34.2174 94.7333 33.6965 94.6977 33.449 94.7653C32.3779 94.9486 30.6172 95.4967 32.1432 96.2227Z" fill="#C7BFC7"/>
<path d="M24.3157 96.4719C26.2366 98.5221 27.5323 97.3807 27.9401 96.5537C28.1144 95.435 27.357 95.0627 26.9565 95.0164C25.2759 94.6473 22.3949 94.4216 24.3157 96.4719Z" fill="#E0D8E0"/>
<path d="M24.749 95.9568C26.0849 97.3355 27.0187 96.5373 27.3187 95.9659C27.4568 95.1979 26.9244 94.9528 26.6409 94.9263C25.4536 94.6954 23.4131 94.5782 24.749 95.9568Z" fill="#F5F1F5"/>
<path d="M25.0089 95.8871C26.0284 96.9136 26.7587 96.3022 26.9965 95.8682C27.111 95.2875 26.7016 95.108 26.4826 95.0908C25.5666 94.9286 23.9895 94.8607 25.0089 95.8871Z" fill="#C7BFC7"/>
<path d="M19.1389 94.6298C20.1965 96.9118 21.6184 96.3052 22.1972 95.7166C22.6593 94.8144 22.1199 94.2854 21.7924 94.1336C20.4673 93.3482 18.0814 92.3478 19.1389 94.6298Z" fill="#E0D8E0"/>
<path d="M19.6513 94.3135C20.4001 95.8604 21.4179 95.4439 21.8333 95.0424C22.1662 94.4282 21.7824 94.0704 21.5489 93.9684C20.6044 93.4388 18.9025 92.7666 19.6513 94.3135Z" fill="#F5F1F5"/>
<path d="M19.8922 94.3272C20.4708 95.4859 21.2632 95.1711 21.5872 94.8689C21.8475 94.4073 21.5499 94.1399 21.3685 94.0638C20.6353 93.6688 19.3136 93.1685 19.8922 94.3272Z" fill="#C7BFC7"/>
<path d="M14.4026 92.3328C15.2738 94.2127 16.4452 93.7129 16.9219 93.2281C17.3026 92.4849 16.8583 92.0491 16.5885 91.9241C15.4969 91.277 13.5314 90.4529 14.4026 92.3328Z" fill="#E0D8E0"/>
<path d="M14.8252 92.0723C15.442 93.3466 16.2805 93.0035 16.6227 92.6727C16.897 92.1667 16.5808 91.8721 16.3884 91.788C15.6103 91.3518 14.2083 90.7979 14.8252 92.0723Z" fill="#F5F1F5"/>
<path d="M15.0235 92.0836C15.5001 93.0381 16.1529 92.7788 16.4198 92.5298C16.6342 92.1496 16.3891 91.9293 16.2397 91.8666C15.6357 91.5412 14.5469 91.129 15.0235 92.0836Z" fill="#C7BFC7"/>
<path d="M106.905 34.8686C96.7371 38.6147 90.4045 33.9767 88.5092 31.1894C69.5112 26.6406 71.0052 24.3885 74.1269 23.8311L97.4094 17.8106C99.1519 15.6066 100.758 13.9335 101.888 13.4625C103.295 12.8761 104.368 15.4378 105.158 19.1485C112.764 22.6047 127.241 29.8515 124.297 31.1894C121.354 32.5273 111.42 33.0848 106.82 33.1963C106.854 33.783 106.882 34.343 106.905 34.8686Z" fill="#F5F1F5"/>
<path d="M88.8437 30.855L94.8642 21.1553C91.0735 23.7196 83.4922 28.9819 83.4922 29.5171C83.4922 30.0522 87.0599 30.632 88.8437 30.855Z" fill="#E6E1E6" fill-opacity="0.5"/>
<path d="M106.999 32.8308L105.691 21.4898C108.026 25.426 113.07 32.6225 112.591 32.8618C111.922 33.1962 108.707 33.3901 106.999 32.8308Z" fill="#E6E1E6" fill-opacity="0.5"/>
<path d="M89.1777 31.1894C90.9616 33.1962 96.8706 36.6747 106.236 34.5341C104.675 33.4192 99.0781 31.1894 89.1777 31.1894Z" fill="#E6E1E6"/>
</svg>
