<svg width="134" height="98" viewBox="0 0 134 98" fill="none" xmlns="http://www.w3.org/2000/svg">
<path d="M0.337357 62.9702C-3.26264 41.3702 22.8374 13.6369 36.3374 2.47021C57.1373 -4.72979 68.3374 7.4702 68.3374 21.4702C40.3374 49.4702 38.8374 70.4702 32.8374 76.4702C28.3374 80.9702 3.93736 84.5702 0.337357 62.9702Z" fill="#D78F8F"/>
<path d="M36.3374 3.01688C39.3374 -1.52994 69.3374 -4.52979 68.3374 21.7509C59.0041 25.4176 37.5374 25.0169 36.3374 3.01688Z" fill="#F8CFCF"/>
<path d="M9.8374 75.9702L7.3374 65.4702M13.8374 76.9702L17.3374 67.4702M17.3374 78.4702L25.8374 71.9702" stroke="#BF7575"/>
<path d="M23.8374 21.9702C19.6707 26.3035 13.3374 34.4702 10.3374 45.4702" stroke="#FFE1E1" stroke-width="3" stroke-linecap="round"/>
<path d="M76.6847 95.9702C57.9448 82.0672 68.8764 65.5106 76.6847 58.9702H124.531C140.48 71.0793 132.837 93.9702 124.531 95.9702H76.6847Z" fill="#D78F8F"/>
<path d="M77.1893 95.954C71.7491 95.6766 53.9391 71.3496 77.0913 58.8736C84.9874 65.0548 95.5366 83.7549 77.1893 95.954Z" fill="#F8CFCF"/>
<path d="M118.42 63.7931C112.629 63.7931 106.338 63.3397 94.3379 63.7931" stroke="#FFE1E1" stroke-width="3" stroke-linecap="round"/>
</svg>
