<svg width="136" height="124" viewBox="0 0 136 124" fill="none" xmlns="http://www.w3.org/2000/svg">
<path d="M47.5902 43.2888C45.5611 50.4272 54.0557 53.5036 58.5566 54.1494C58.5566 54.1494 67.0206 56.3116 64.2269 60.5964C61.4331 64.8812 69.8971 67.0433 69.8971 67.0433C73.5841 70.4913 76.5535 68.609 78.0056 67.3743C82.0972 72.5199 86.7321 68.0592 88.5381 65.1857C94.6044 69.845 99.5394 64.4334 101.249 61.1452C109.572 57.2336 107.076 48.9534 104.162 45.3532C110.644 43.1902 107.324 35.8333 105.479 32.3744C109.814 25.478 100.85 20.5607 95.8256 18.9641C91.529 9.49714 81.7354 10.4919 77.3756 12.1726C70.2822 3.79911 62.9794 9.27425 60.2147 13.0585C48.9565 14.3734 48.8437 22.2678 50.1946 26.0506C39.6371 32.7792 44.0594 40.3463 47.5902 43.2888Z" fill="#6C8C53"/>
<path d="M64.2172 71.4272C62.1881 78.5656 69.0655 82.4968 75.1836 82.2879C75.1836 82.2879 68.8737 90.2761 84.4137 92.0894C85.6927 99.124 93.1805 96.7474 94.6326 95.5128C98.7242 100.658 103.359 96.1976 105.165 93.3241C111.231 97.9834 116.166 92.5718 117.876 89.2836C126.199 85.372 123.703 77.0918 120.789 73.4916C127.271 71.3286 123.951 63.9718 122.106 60.5128C126.441 53.6164 117.476 48.6991 112.453 47.1025C108.156 37.6356 98.3623 38.6303 94.0026 40.311C86.9092 31.9375 79.6064 37.4127 76.8416 41.1969C65.5835 42.5118 65.4707 50.4062 66.8215 54.189C56.264 60.9176 60.6863 68.4847 64.2172 71.4272Z" fill="#77985D"/>
<path d="M15.4523 54.5417C17.4728 61.6825 25.3901 61.4179 30.4876 58.0282C30.4876 58.0282 29.3108 68.1397 43.4891 61.5248C48.2707 66.8406 53.396 60.887 53.9837 59.0738C60.1674 61.3053 61.7705 55.0756 61.7991 51.6818C69.4082 52.4627 70.7675 45.266 70.496 41.5701C75.5267 33.8713 69.0556 28.1341 64.6849 26.6C69.0669 21.3558 62.3785 16.8375 58.9929 14.8617C59.0615 6.71663 48.8504 7.23745 43.7363 8.516C35.1095 2.71415 27.2961 8.7022 24.4678 12.4215C14.0346 9.01854 10.6934 17.5123 10.327 22.1846C1.43528 29.214 5.48362 35.9922 8.61925 38.5027C3.16592 49.772 10.9024 53.8909 15.4523 54.5417Z" fill="#77985D"/>
<path d="M17.6313 110.34L37.3708 78.7464V51.8039L40.2453 50.7042L47.3225 74.233L62.0312 59.478L64.5892 60.7571L53.7176 81.2213L85.0535 71.6287L86.9724 74.233L58.6286 88.7761L40.4075 120.871C20.5669 129.296 16.9565 117.36 17.6313 110.34Z" fill="#E3F3D7"/>
</svg>
