<svg width="172" height="170" viewBox="0 0 172 170" fill="none" xmlns="http://www.w3.org/2000/svg">
<path d="M56.7022 133.43C123.805 167.726 125.555 83.4249 119.08 50.5266C117.157 32.1357 102.855 32.6085 95.9438 35.1437C33.066 51.7579 19.8346 54.7446 17.0129 77.4278C15.3535 90.7707 24.4829 116.964 56.7022 133.43Z" fill="#EDE8DD"/>
<path d="M115.872 40.4415C122.011 71.6476 122.165 135.288 89.0146 140.199C105.641 138.408 137.359 115.95 115.872 40.4415Z" fill="#9D927D"/>
<path d="M59.6663 127.796C117.565 157.387 119.074 84.6498 113.488 56.2642C111.828 40.3959 99.488 40.8039 93.5251 42.9914C39.2723 57.3265 27.8558 59.9036 25.4212 79.4754C23.9894 90.988 31.8665 113.588 59.6663 127.796Z" fill="#E6E0D3"/>
<g filter="url(#filter0_d_718_1177)">
<path d="M77.3332 50.97C87.562 47.8059 107.911 50.1431 107.477 84.805C107.242 103.519 99.8431 110.949 91.1245 112.825C86.7502 118.147 85.3935 118.542 80.43 121.167C75.4665 123.792 47.5799 109.322 43.5961 103.283C40.409 98.4512 45.2239 96.2626 48.0297 95.7722C41.2686 90.4002 36.4631 84.5977 37.5012 79.5459C39.5661 69.4969 49.8628 60.0662 77.3332 50.97Z" fill="#F8F1D5"/>
</g>
<path d="M73.771 110.254C61.801 107.705 51.3178 99.2989 47.5725 95.4144C43.4162 94.5293 36.1611 95.8653 43.1549 104.763C50.1487 113.661 76.7611 123.108 78.637 122.609C85.2491 120.986 88.8114 115.822 91.8764 112.531L73.771 110.254Z" fill="#E6DCB5"/>
<defs>
<filter id="filter0_d_718_1177" x="37.3604" y="49.9454" width="72.7351" height="72.8428" filterUnits="userSpaceOnUse" color-interpolation-filters="sRGB">
<feFlood flood-opacity="0" result="BackgroundImageFix"/>
<feColorMatrix in="SourceAlpha" type="matrix" values="0 0 0 0 0 0 0 0 0 0 0 0 0 0 0 0 0 0 127 0" result="hardAlpha"/>
<feOffset dx="2.6121" dy="1.30605"/>
<feComposite in2="hardAlpha" operator="out"/>
<feColorMatrix type="matrix" values="0 0 0 0 0 0 0 0 0 0 0 0 0 0 0 0 0 0 0.25 0"/>
<feBlend mode="normal" in2="BackgroundImageFix" result="effect1_dropShadow_718_1177"/>
<feBlend mode="normal" in="SourceGraphic" in2="effect1_dropShadow_718_1177" result="shape"/>
</filter>
</defs>
</svg>
