<svg width="102" height="97" viewBox="0 0 102 97" fill="none" xmlns="http://www.w3.org/2000/svg">
<path d="M1.79661 34.1658C-5.03729 16.2291 7.77479 3.41697 37.67 0C74.3979 1.13883 104.856 22.3725 100.877 61.4972C95.7519 111.892 49.344 98.5109 27.421 78.581C17.1715 69.6979 24.8587 68.0472 29.9834 68.3323C75.2532 90.5399 75.2851 64.1463 70.9818 52.9568C66.7115 41.8529 59.8777 35.874 37.67 40.9988C19.904 45.0987 6.06651 44.4157 1.79661 34.1658Z" fill="#FFF1EA"/>
<path d="M30.8369 41.8529C38.3534 26.1368 27.7051 9.68037 21.4414 3.41669C24.858 0.000130355 31.9758 0.284843 35.1076 0.854269C48.7739 5.9791 47.0656 36.7281 43.649 39.2905C40.9158 41.3405 33.9688 41.8529 30.8369 41.8529Z" fill="#FFAC9A"/>
<path d="M57.5305 38.7009C71.5144 34.4135 75.6319 18.4804 75.9427 11.0498C79.9958 11.2193 83.8652 15.7797 85.2933 18.0387C89.8934 29.3965 69.9209 45.8168 66.3956 45.1619C63.5754 44.6379 59.3105 40.6362 57.5305 38.7009Z" fill="#FFAC9A"/>
<path d="M71.169 54.3996C82.357 59.3661 93.7035 51.5598 97.9783 47.0357C100.446 49.3674 100.388 54.3724 100.05 56.5834C96.7224 66.2841 75.0914 65.696 73.2237 63.3473C71.7295 61.4684 71.2313 56.5993 71.169 54.3996Z" fill="#FFAC9A"/>
<path d="M68.8223 72.6678C71.9504 82.5584 82.991 86.0513 88.1203 86.5614C88.0528 89.3722 84.9545 91.8815 83.4137 92.7849C75.6355 95.5332 64.0652 80.9994 64.4739 78.5747C64.8009 76.635 67.5091 73.8286 68.8223 72.6678Z" fill="#FFAC9A"/>
<path d="M47.9199 91.3932C41.0868 85.2434 45.6422 78.5811 48.7741 76.0187C44.5033 74.5951 34.5952 71.2355 29.1288 69.1855C23.6623 67.1356 22.2956 70.6091 22.2956 72.6021C19.5623 77.3853 38.2396 87.1225 47.9199 91.3932Z" fill="#FFAC9A"/>
<path d="M9.4835 19.6454C14.0389 21.069 22.4664 26.1368 19.7332 35.0199C16.3166 46.1237 -3.32858 23.9161 9.4835 19.6454Z" fill="#E9DFDA"/>
<path d="M36.4746 41.3375C49.8485 26.748 103.344 40.1218 66.2619 75.9879C73.5568 60.7905 79.0279 32.827 36.4746 41.3375Z" fill="#D4CAC4" fill-opacity="0.59"/>
</svg>
