<svg width="101" height="113" viewBox="0 0 101 113" fill="none" xmlns="http://www.w3.org/2000/svg">
<path d="M26.8483 40.1573C20.2632 35.5058 21.3659 30.6266 29.3114 29.2593L53.4286 25.109C61.3741 23.7416 73.1536 26.4039 79.7388 31.0554L84.5082 34.4243C91.0934 39.0758 89.9906 43.955 82.0451 45.3224L57.9279 49.4727C49.9824 50.84 38.2029 48.1777 31.6178 43.5262L26.8483 40.1573Z" fill="#C25151"/>
<path d="M61.4241 28.693C72.5233 29.6602 81.0089 36.4955 83.8643 39.7923C85.677 42.2563 81.3227 43.3505 77.8854 42.5355C70.5873 41.4987 60.5001 37.489 55.4196 33.9729C52.7964 31.8099 50.3248 27.7258 61.4241 28.693Z" fill="#9A4646"/>
<path d="M72.6647 35.256C69.9909 33.5193 69.8255 35.5804 70.077 36.8281C70.1262 37.1478 70.5902 37.4381 70.8161 37.5433C72.5464 37.5044 75.3386 36.9926 72.6647 35.256Z" fill="#E6D0A5"/>
<path d="M67.9421 33.7304C65.2682 31.9937 65.1029 34.0549 65.3544 35.3026C65.4035 35.6222 65.8676 35.9125 66.0934 36.0177C67.8237 35.9789 70.6159 35.4671 67.9421 33.7304Z" fill="#E6D0A5"/>
<path d="M26.128 33.8655L49.1151 28.7993L49.0133 30.8613L26.7475 35.2741L26.128 33.8655Z" fill="#FFB4B4"/>
<path d="M21.2713 106.042C13.2094 106.116 11.2529 101.512 16.9015 95.7589L34.0468 78.2975C39.6954 72.5447 50.8101 67.8215 58.872 67.7479L64.711 67.6945C72.773 67.6209 74.7294 72.2247 69.0808 77.9775L51.9355 95.4389C46.2869 101.192 35.1723 105.915 27.1103 105.989L21.2713 106.042Z" fill="#C25151"/>
<path d="M42.6297 76.5331C52.2017 70.8318 63.082 71.4198 67.3257 72.4265C70.2366 73.3666 67.3425 76.7991 64.077 78.1465C57.5488 81.5699 47.0201 84.2109 40.8426 84.3266C37.45 84.1043 33.0576 82.2344 42.6297 76.5331Z" fill="#9A4646"/>
<path d="M55.5868 75.2903C52.4022 75.4435 53.4724 77.2128 54.4057 78.0783C54.6324 78.3089 55.1785 78.2734 55.4233 78.2267C56.8047 77.1841 58.7715 75.1371 55.5868 75.2903Z" fill="#E6D0A5"/>
<path d="M50.8632 76.8121C47.6785 76.9653 48.7488 78.7346 49.682 79.6001C49.9087 79.8308 50.4549 79.7952 50.6997 79.7485C52.0811 78.7059 54.0478 76.6589 50.8632 76.8121Z" fill="#E6D0A5"/>
<path d="M17.0106 101.357L32.7036 83.8127L33.826 85.5454L18.3364 102.138L17.0106 101.357Z" fill="#FFB4B4"/>
</svg>
