<svg width="118" height="97" viewBox="0 0 118 97" fill="none" xmlns="http://www.w3.org/2000/svg">
<path d="M0.0506288 61.8395C1.37832 29.2278 65.8819 8.04135 97.9678 1.52456C130.097 -7.2107 118.298 23.9867 93.4039 34.3858C73.4885 42.7051 43.6155 92.2547 36.5621 93.8688C23.8384 96.7806 -1.27706 94.4512 0.0506288 61.8395Z" fill="#F9ECDB"/>
<path d="M16.7858 91.3335C-2.172 56.1825 76.029 18.5959 117.006 4.44339C119.968 14.811 106.638 31.1029 94.7896 34.5587C82.941 38.0146 54.8005 73.0668 42.9518 89.3587C33.4729 102.392 21.5583 95.6122 16.7858 91.3335Z" fill="#FFF8EF"/>
<path d="M21.7236 61.7119L23.2047 94.2957M30.6101 51.838C31.2684 65.1677 32.5849 92.3209 32.5849 94.2957M39.9903 44.9263L41.4714 88.865M48.8768 38.5083L51.3453 78.4975M57.2696 32.584L59.738 67.1425M65.6624 28.1407L67.6371 57.2686M74.5489 24.1912L76.5236 48.8759M84.9164 19.2542L86.3975 38.5083M93.8029 14.811L95.7777 32.584M103.677 9.87405L104.664 25.6722M113.057 7.40558L114.044 15.7984" stroke="#EDE4D9" stroke-width="0.906504"/>
<path d="M51.8208 20.382C19.2334 30.2621 11.132 43.2215 10.3643 46.2923C10.3643 49.5168 16.506 43.7973 19.5768 40.5345C20.7284 36.2746 69.6702 14.9703 51.8208 20.382Z" fill="#FFFAF4"/>
</svg>
