<svg width="132" height="114" viewBox="0 0 132 114" fill="none" xmlns="http://www.w3.org/2000/svg">
<path d="M2 6C2 2.68629 4.68629 0 8 0H51C54.3137 0 57 2.68629 57 6V47C57 50.3137 54.3137 53 51 53H8C4.68629 53 2 50.3137 2 47V6Z" fill="#FFBFAB"/>
<path fill-rule="evenodd" clip-rule="evenodd" d="M42.9655 2.23859C43.1099 2.77167 42.7948 3.32086 42.2617 3.46523C34.6793 5.5188 16.9 17.4205 8.96966 48.7454C8.83411 49.2808 8.29021 49.605 7.75482 49.4694C7.21942 49.3339 6.89528 48.79 7.03082 48.2546C15.1004 16.3795 33.3213 3.81454 41.7389 1.53478C42.272 1.3904 42.8212 1.70551 42.9655 2.23859ZM26.3616 1.99202C26.6422 2.46774 26.4839 3.08082 26.0082 3.36137C19.7017 7.08061 10.4553 15.9997 8.99528 30.5995C8.94032 31.1491 8.45028 31.55 7.90074 31.495C7.35119 31.4401 6.95025 30.95 7.0052 30.4005C8.54523 15.0003 18.2988 5.58607 24.9923 1.63864C25.468 1.35809 26.0811 1.5163 26.3616 1.99202ZM54.8209 1.92851C55.1366 2.38172 55.025 3.00498 54.5718 3.32061C49.9822 6.51693 42.9065 12.6491 36.6882 20.6034C30.465 28.5639 25.1652 38.2667 23.994 48.6125C23.9318 49.1613 23.4366 49.5558 22.8878 49.4937C22.3391 49.4315 21.9445 48.9363 22.0067 48.3875C23.2354 37.5333 28.769 27.4861 35.1125 19.3716C41.4608 11.2509 48.6851 4.98308 53.4288 1.6794C53.882 1.36377 54.5053 1.4753 54.8209 1.92851ZM13.1588 1.74744C13.5744 2.11112 13.6165 2.74289 13.2528 3.15852C13.1169 3.31389 12.9596 3.48837 12.7871 3.67986C12.1712 4.36335 11.3601 5.26352 10.6239 6.28477C9.65896 7.62342 9.00024 8.94021 9.00024 10C9.00024 10.5523 8.55252 11 8.00024 11C7.44795 11 7.00024 10.5523 7.00024 10C7.00024 8.2598 8.00817 6.49326 9.00152 5.11524C9.81012 3.99352 10.7257 2.97838 11.3408 2.29645C11.4984 2.12162 11.6364 1.9687 11.7477 1.84149C12.1114 1.42586 12.7431 1.38375 13.1588 1.74744ZM54.8483 19.97C55.141 20.4383 54.9987 21.0553 54.5303 21.348C49.3448 24.5889 39.0003 34.5864 39.0003 48.5C39.0003 49.0523 38.5526 49.5 38.0003 49.5C37.448 49.5 37.0003 49.0523 37.0003 48.5C37.0003 33.6136 47.9892 23.0777 53.4703 19.652C53.9387 19.3593 54.5556 19.5017 54.8483 19.97ZM54.7596 35.3492C55.119 35.7685 55.0704 36.3998 54.6511 36.7593C52.479 38.6211 49.5289 42.3343 49.9973 48.4233C50.0397 48.974 49.6276 49.4547 49.0769 49.4971C48.5263 49.5394 48.0455 49.1274 48.0032 48.5767C47.4716 41.6657 50.855 37.3789 53.3495 35.2407C53.7689 34.8813 54.4002 34.9299 54.7596 35.3492Z" fill="#F9EAE5"/>
<path d="M0 4C0 1.79086 1.79086 0 4 0H55C57.2091 0 59 1.79086 59 4V15C59 17.2091 57.2091 19 55 19H4C1.79086 19 0 17.2091 0 15V4Z" fill="#8A8A8A"/>
<path fill-rule="evenodd" clip-rule="evenodd" d="M23.626 2.51436C23.8942 2.03157 24.503 1.85763 24.9858 2.12584C25.4283 2.37166 25.9188 2.71693 26.3464 3.14445C26.7685 3.56664 27.178 4.11803 27.3723 4.7813C27.5767 5.47879 27.5248 6.24613 27.0968 6.99057C26.6878 7.70215 25.9758 8.32414 24.9858 8.87416C24.503 9.14237 23.8942 8.96843 23.626 8.48564C23.3578 8.00286 23.5318 7.39405 24.0145 7.12584C24.8245 6.67585 25.2001 6.27702 25.3629 5.9938C25.5068 5.74345 25.5112 5.54205 25.453 5.3437C25.3849 5.11114 25.2131 4.83961 24.9321 4.55867C24.6565 4.28307 24.3221 4.045 24.0145 3.87416C23.5318 3.60594 23.3578 2.99714 23.626 2.51436Z" fill="#B6B6B6"/>
<path fill-rule="evenodd" clip-rule="evenodd" d="M33.126 10.5144C33.3942 10.0316 34.003 9.85763 34.4858 10.1258C34.9283 10.3717 35.4188 10.7169 35.8464 11.1445C36.2685 11.5666 36.678 12.118 36.8723 12.7813C37.0767 13.4788 37.0248 14.2461 36.5968 14.9906C36.1878 15.7021 35.4758 16.3241 34.4858 16.8742C34.003 17.1424 33.3942 16.9684 33.126 16.4856C32.8578 16.0029 33.0318 15.3941 33.5145 15.1258C34.3245 14.6759 34.7001 14.277 34.8629 13.9938C35.0068 13.7434 35.0112 13.542 34.953 13.3437C34.8849 13.1111 34.7131 12.8396 34.4321 12.5587C34.1565 12.2831 33.8221 12.045 33.5145 11.8742C33.0318 11.6059 32.8578 10.9971 33.126 10.5144Z" fill="#B6B6B6"/>
<path fill-rule="evenodd" clip-rule="evenodd" d="M14.126 10.5144C14.3942 10.0316 15.003 9.85763 15.4858 10.1258C15.9283 10.3717 16.4188 10.7169 16.8464 11.1445C17.2685 11.5666 17.678 12.118 17.8723 12.7813C18.0767 13.4788 18.0248 14.2461 17.5968 14.9906C17.1878 15.7021 16.4758 16.3241 15.4858 16.8742C15.003 17.1424 14.3942 16.9684 14.126 16.4856C13.8578 16.0029 14.0318 15.3941 14.5145 15.1258C15.3245 14.6759 15.7001 14.277 15.8629 13.9938C16.0068 13.7434 16.0112 13.542 15.953 13.3437C15.8849 13.1111 15.7131 12.8396 15.4321 12.5587C15.1565 12.2831 14.8221 12.045 14.5145 11.8742C14.0318 11.6059 13.8578 10.9971 14.126 10.5144Z" fill="#B6B6B6"/>
<path fill-rule="evenodd" clip-rule="evenodd" d="M5.12602 2.51436C5.39424 2.03157 6.00304 1.85763 6.48583 2.12584C6.9283 2.37166 7.41882 2.71693 7.84635 3.14445C8.26854 3.56664 8.67798 4.11803 8.87233 4.7813C9.07671 5.47879 9.02478 6.24613 8.59682 6.99057C8.18776 7.70215 7.47585 8.32414 6.48583 8.87416C6.00304 9.14237 5.39424 8.96843 5.12602 8.48564C4.85781 8.00286 5.03176 7.39405 5.51454 7.12584C6.32452 6.67585 6.7001 6.27702 6.86291 5.9938C7.00683 5.74345 7.01115 5.54205 6.95303 5.3437C6.88489 5.11114 6.71308 4.83961 6.43214 4.55867C6.15654 4.28307 5.82207 4.045 5.51454 3.87416C5.03176 3.60594 4.85781 2.99714 5.12602 2.51436Z" fill="#B6B6B6"/>
<path fill-rule="evenodd" clip-rule="evenodd" d="M42.126 2.51436C42.3942 2.03157 43.003 1.85763 43.4858 2.12584C43.9283 2.37166 44.4188 2.71693 44.8464 3.14445C45.2685 3.56664 45.678 4.11803 45.8723 4.7813C46.0767 5.47879 46.0248 6.24613 45.5968 6.99057C45.1878 7.70215 44.4758 8.32414 43.4858 8.87416C43.003 9.14237 42.3942 8.96843 42.126 8.48564C41.8578 8.00286 42.0318 7.39405 42.5145 7.12584C43.3245 6.67585 43.7001 6.27702 43.8629 5.9938C44.0068 5.74345 44.0112 5.54205 43.953 5.3437C43.8849 5.11114 43.7131 4.83961 43.4321 4.55867C43.1565 4.28307 42.8221 4.045 42.5145 3.87416C42.0318 3.60594 41.8578 2.99714 42.126 2.51436Z" fill="#B6B6B6"/>
<path fill-rule="evenodd" clip-rule="evenodd" d="M52.126 10.5144C52.3942 10.0316 53.003 9.85763 53.4858 10.1258C53.9283 10.3717 54.4188 10.7169 54.8464 11.1445C55.2685 11.5666 55.678 12.118 55.8723 12.7813C56.0767 13.4788 56.0248 14.2461 55.5968 14.9906C55.1878 15.7021 54.4758 16.3241 53.4858 16.8742C53.003 17.1424 52.3942 16.9684 52.126 16.4856C51.8578 16.0029 52.0318 15.3941 52.5145 15.1258C53.3245 14.6759 53.7001 14.277 53.8629 13.9938C54.0068 13.7434 54.0112 13.542 53.953 13.3437C53.8849 13.1111 53.7131 12.8396 53.4321 12.5587C53.1565 12.2831 52.8221 12.045 52.5145 11.8742C52.0318 11.6059 51.8578 10.9971 52.126 10.5144Z" fill="#B6B6B6"/>
<path d="M75 67C75 63.6863 77.6863 61 81 61H124C127.314 61 130 63.6863 130 67V108C130 111.314 127.314 114 124 114H81C77.6863 114 75 111.314 75 108V67Z" fill="#FFBFAB"/>
<path fill-rule="evenodd" clip-rule="evenodd" d="M115.966 63.2386C116.11 63.7717 115.795 64.3209 115.262 64.4652C107.679 66.5188 89.9 78.4205 81.9697 109.745C81.8341 110.281 81.2902 110.605 80.7548 110.469C80.2194 110.334 79.8953 109.79 80.0308 109.255C88.1004 77.3795 106.321 64.8145 114.739 62.5348C115.272 62.3904 115.821 62.7055 115.966 63.2386ZM99.3616 62.992C99.6422 63.4677 99.4839 64.0808 99.0082 64.3614C92.7017 68.0806 83.4553 76.9997 81.9953 91.5995C81.9403 92.1491 81.4503 92.55 80.9007 92.495C80.3512 92.4401 79.9502 91.95 80.0052 91.4005C81.5452 76.0003 91.2988 66.5861 97.9923 62.6386C98.468 62.3581 99.0811 62.5163 99.3616 62.992ZM127.821 62.9285C128.137 63.3817 128.025 64.005 127.572 64.3206C122.982 67.5169 115.906 73.6491 109.688 81.6034C103.465 89.5639 98.1652 99.2667 96.994 109.612C96.9318 110.161 96.4366 110.556 95.8878 110.494C95.3391 110.432 94.9445 109.936 95.0067 109.388C96.2354 98.5333 101.769 88.4861 108.112 80.3716C114.461 72.2509 121.685 65.9831 126.429 62.6794C126.882 62.3638 127.505 62.4753 127.821 62.9285ZM86.1588 62.7474C86.5744 63.1111 86.6165 63.7429 86.2528 64.1585C86.1169 64.3139 85.9596 64.4884 85.7871 64.6799C85.1712 65.3634 84.3601 66.2635 83.6239 67.2848C82.659 68.6234 82.0002 69.9402 82.0002 71C82.0002 71.5523 81.5525 72 81.0002 72C80.448 72 80.0002 71.5523 80.0002 71C80.0002 69.2598 81.0082 67.4933 82.0015 66.1152C82.8101 64.9935 83.7257 63.9784 84.3408 63.2964C84.4984 63.1216 84.6364 62.9687 84.7477 62.8415C85.1114 62.4259 85.7431 62.3837 86.1588 62.7474ZM127.848 80.97C128.141 81.4383 127.999 82.0553 127.53 82.348C122.345 85.5889 112 95.5864 112 109.5C112 110.052 111.553 110.5 111 110.5C110.448 110.5 110 110.052 110 109.5C110 94.6136 120.989 84.0777 126.47 80.652C126.939 80.3593 127.556 80.5017 127.848 80.97ZM127.76 96.3492C128.119 96.7685 128.07 97.3998 127.651 97.7593C125.479 99.6211 122.529 103.334 122.997 109.423C123.04 109.974 122.628 110.455 122.077 110.497C121.526 110.539 121.046 110.127 121.003 109.577C120.472 102.666 123.855 98.3789 126.35 96.2407C126.769 95.8813 127.4 95.9299 127.76 96.3492Z" fill="#F9EAE5"/>
<path d="M73 65C73 62.7909 74.7909 61 77 61H128C130.209 61 132 62.7909 132 65V76C132 78.2091 130.209 80 128 80H77C74.7909 80 73 78.2091 73 76V65Z" fill="#8A8A8A"/>
<path fill-rule="evenodd" clip-rule="evenodd" d="M96.626 63.5144C96.8942 63.0316 97.503 62.8576 97.9858 63.1258C98.4283 63.3717 98.9188 63.7169 99.3464 64.1445C99.7685 64.5666 100.178 65.118 100.372 65.7813C100.577 66.4788 100.525 67.2461 100.097 67.9906C99.6878 68.7021 98.9758 69.3241 97.9858 69.8742C97.503 70.1424 96.8942 69.9684 96.626 69.4856C96.3578 69.0029 96.5318 68.3941 97.0145 68.1258C97.8245 67.6759 98.2001 67.277 98.3629 66.9938C98.5068 66.7434 98.5112 66.542 98.453 66.3437C98.3849 66.1111 98.2131 65.8396 97.9321 65.5587C97.6565 65.2831 97.3221 65.045 97.0145 64.8742C96.5318 64.6059 96.3578 63.9971 96.626 63.5144Z" fill="#B6B6B6"/>
<path fill-rule="evenodd" clip-rule="evenodd" d="M106.126 71.5144C106.394 71.0316 107.003 70.8576 107.486 71.1258C107.928 71.3717 108.419 71.7169 108.846 72.1445C109.269 72.5666 109.678 73.118 109.872 73.7813C110.077 74.4788 110.025 75.2461 109.597 75.9906C109.188 76.7021 108.476 77.3241 107.486 77.8742C107.003 78.1424 106.394 77.9684 106.126 77.4856C105.858 77.0029 106.032 76.3941 106.515 76.1258C107.325 75.6759 107.7 75.277 107.863 74.9938C108.007 74.7434 108.011 74.542 107.953 74.3437C107.885 74.1111 107.713 73.8396 107.432 73.5587C107.157 73.2831 106.822 73.045 106.515 72.8742C106.032 72.6059 105.858 71.9971 106.126 71.5144Z" fill="#B6B6B6"/>
<path fill-rule="evenodd" clip-rule="evenodd" d="M87.126 71.5144C87.3942 71.0316 88.003 70.8576 88.4858 71.1258C88.9283 71.3717 89.4188 71.7169 89.8464 72.1445C90.2685 72.5666 90.678 73.118 90.8723 73.7813C91.0767 74.4788 91.0248 75.2461 90.5968 75.9906C90.1878 76.7021 89.4758 77.3241 88.4858 77.8742C88.003 78.1424 87.3942 77.9684 87.126 77.4856C86.8578 77.0029 87.0318 76.3941 87.5145 76.1258C88.3245 75.6759 88.7001 75.277 88.8629 74.9938C89.0068 74.7434 89.0112 74.542 88.953 74.3437C88.8849 74.1111 88.7131 73.8396 88.4321 73.5587C88.1565 73.2831 87.8221 73.045 87.5145 72.8742C87.0318 72.6059 86.8578 71.9971 87.126 71.5144Z" fill="#B6B6B6"/>
<path fill-rule="evenodd" clip-rule="evenodd" d="M78.126 63.5144C78.3942 63.0316 79.003 62.8576 79.4858 63.1258C79.9283 63.3717 80.4188 63.7169 80.8464 64.1445C81.2685 64.5666 81.678 65.118 81.8723 65.7813C82.0767 66.4788 82.0248 67.2461 81.5968 67.9906C81.1878 68.7021 80.4758 69.3241 79.4858 69.8742C79.003 70.1424 78.3942 69.9684 78.126 69.4856C77.8578 69.0029 78.0318 68.3941 78.5145 68.1258C79.3245 67.6759 79.7001 67.277 79.8629 66.9938C80.0068 66.7434 80.0112 66.542 79.953 66.3437C79.8849 66.1111 79.7131 65.8396 79.4321 65.5587C79.1565 65.2831 78.8221 65.045 78.5145 64.8742C78.0318 64.6059 77.8578 63.9971 78.126 63.5144Z" fill="#B6B6B6"/>
<path fill-rule="evenodd" clip-rule="evenodd" d="M115.126 63.5144C115.394 63.0316 116.003 62.8576 116.486 63.1258C116.928 63.3717 117.419 63.7169 117.846 64.1445C118.269 64.5666 118.678 65.118 118.872 65.7813C119.077 66.4788 119.025 67.2461 118.597 67.9906C118.188 68.7021 117.476 69.3241 116.486 69.8742C116.003 70.1424 115.394 69.9684 115.126 69.4856C114.858 69.0029 115.032 68.3941 115.515 68.1258C116.325 67.6759 116.7 67.277 116.863 66.9938C117.007 66.7434 117.011 66.542 116.953 66.3437C116.885 66.1111 116.713 65.8396 116.432 65.5587C116.157 65.2831 115.822 65.045 115.515 64.8742C115.032 64.6059 114.858 63.9971 115.126 63.5144Z" fill="#B6B6B6"/>
<path fill-rule="evenodd" clip-rule="evenodd" d="M125.126 71.5144C125.394 71.0316 126.003 70.8576 126.486 71.1258C126.928 71.3717 127.419 71.7169 127.846 72.1445C128.269 72.5666 128.678 73.118 128.872 73.7813C129.077 74.4788 129.025 75.2461 128.597 75.9906C128.188 76.7021 127.476 77.3241 126.486 77.8742C126.003 78.1424 125.394 77.9684 125.126 77.4856C124.858 77.0029 125.032 76.3941 125.515 76.1258C126.325 75.6759 126.7 75.277 126.863 74.9938C127.007 74.7434 127.011 74.542 126.953 74.3437C126.885 74.1111 126.713 73.8396 126.432 73.5587C126.157 73.2831 125.822 73.045 125.515 72.8742C125.032 72.6059 124.858 71.9971 125.126 71.5144Z" fill="#B6B6B6"/>
</svg>
