<svg width="124" height="124" viewBox="0 0 124 124" fill="none" xmlns="http://www.w3.org/2000/svg">
<circle cx="61.8025" cy="61.8025" r="60.4291" stroke="#208553" stroke-width="2.74678"/>
<path d="M17.8578 28.8409C16.6314 30.1413 15.5935 31.8384 14.786 33.4338C14.5317 33.9362 14.9026 33.2059 14.1874 34.7078" stroke="#208553" stroke-width="2.06008" stroke-linecap="round"/>
<path d="M12.3573 38.4556C11.857 39.0064 11.3075 40.4588 11.3075 40.4588" stroke="#208553" stroke-width="2.06008" stroke-linecap="round"/>
<path d="M87.6387 111.181C84.2754 111.855 88.8787 112.056 96.3522 105.709C100.667 102.045 102.143 99.6517 102.143 99.6517" stroke="#208553" stroke-width="2.06008" stroke-linecap="round"/>
<path d="M44.7481 26.8313L33.8277 32.2625C33.2348 32.4551 30.8897 34.2322 31.8948 37.1291C32.8999 40.026 35.15 40.1227 36.1494 39.809C37.4703 39.509 46.6005 34.2236 47.745 33.5296C48.6607 32.9744 48.8019 33.7237 48.758 34.1677C48.0358 37.4858 47.5555 44.9275 51.4123 48.1491C56.2332 52.1762 66.2081 44.8759 67.0599 44.4221C67.7414 44.059 67.8166 44.5685 67.769 44.8687C67.2316 49.7653 67.1983 60.0166 71.3645 61.8484C75.5308 63.6802 82.5894 58.7784 85.5979 56.0986C88.6775 58.0383 92.9899 54.246 93.152 51.5183C92.324 45.4201 86.7789 47.4098 84.3797 48.8227C81.9504 50.3582 76.7295 53.2858 75.2797 52.7123C73.8299 52.1387 73.7378 50.8921 74.5272 42.8999C75.3166 34.9077 67.2717 34.6512 64.5359 36.7482C61.8002 38.8453 58.5689 41.8188 56.1977 40.5516C53.8265 39.2844 55.7411 33.1951 55.7866 31.0958C55.953 23.4186 48.6508 24.9033 44.7481 26.8313Z" fill="#F6D164"/>
<path d="M35.1609 39.1383C33.8215 39.3284 32.5409 38.111 32.3007 36.4191C32.0606 34.7272 32.9517 33.2014 34.2911 33.0113C35.6305 32.8211 36.9111 34.0386 37.1513 35.7305C37.3915 37.4224 36.5003 38.9481 35.1609 39.1383Z" fill="#DDC479"/>
<path fill-rule="evenodd" clip-rule="evenodd" d="M70.6911 36.2678L70.713 36.5063C70.8525 38.018 70.9654 40.5122 70.8521 43.092C70.7391 45.6649 70.4 48.3523 69.6203 50.233L69.5286 50.4542L69.0862 50.2708L69.1779 50.0496C69.9238 48.2504 70.2611 45.6335 70.3737 43.0709C70.486 40.5152 70.3739 38.0428 70.2362 36.5502L70.2142 36.3118L70.6911 36.2678ZM89.9701 49.1158L89.7338 49.1542C88.8455 49.2983 87.4627 49.5606 86.2038 49.8781C85.5741 50.0369 84.9799 50.2084 84.4958 50.3845C84.0009 50.5646 83.6556 50.7376 83.4931 50.8867C83.0498 51.2935 82.4129 51.5569 81.8205 51.724C81.2233 51.8924 80.6417 51.9711 80.2831 51.992L80.0441 52.0059L80.0163 51.5278L80.2553 51.5139C80.5821 51.4949 81.1293 51.4214 81.6905 51.2631C82.2566 51.1034 82.8081 50.8654 83.1694 50.5339C83.4092 50.3139 83.8373 50.1145 84.3321 49.9345C84.8376 49.7506 85.4492 49.5745 86.0867 49.4137C87.3623 49.092 88.7592 48.8272 89.6571 48.6815L89.8934 48.6431L89.9701 49.1158ZM73.2513 38.5856L73.322 38.8144C73.4998 39.3889 73.6031 40.6277 73.3942 42.5236C73.1843 44.4284 72.6571 47.0163 71.5548 50.3004C69.3775 56.7869 71.3233 60.0409 72.4434 60.8316L72.639 60.9697L72.3628 61.3609L72.1672 61.2228C70.806 60.262 68.8872 56.7428 71.1008 50.148C72.1939 46.8915 72.7126 44.3372 72.9182 42.4711C73.1248 40.5962 73.0131 39.4358 72.8646 38.9559L72.7938 38.7272L73.2513 38.5856ZM53.8152 26.3701L53.779 26.6068C53.6245 27.6156 53.0213 29.9282 52.2373 32.4461C51.4524 34.9667 50.4785 37.7177 49.576 39.6036L49.4727 39.8195L49.0407 39.6128L49.144 39.3968C50.0313 37.5427 50.997 34.8182 51.7801 32.3037C52.5639 29.7864 53.1571 27.5041 53.3056 26.5343L53.3419 26.2976L53.8152 26.3701ZM50.5105 25.5342L50.5669 25.7669C50.8009 26.7322 51.0359 28.3501 50.987 30.0875C50.9382 31.8214 50.6058 33.7036 49.6797 35.1739L49.5521 35.3765L49.1469 35.1212L49.2745 34.9186C50.135 33.5525 50.4605 31.7695 50.5083 30.0741C50.5559 28.3823 50.3262 26.8069 50.1015 25.8797L50.0451 25.647L50.5105 25.5342ZM55.5166 29.28L55.4823 29.5169C55.199 31.4727 54.1446 36.1721 52.178 39.2943C50.2937 42.2859 51.1099 44.9123 51.7191 45.8212L51.8524 46.0201L51.4547 46.2867L51.3213 46.0878C50.6176 45.0378 49.7777 42.2066 51.7728 39.0391C53.6857 36.0022 54.7282 31.3823 55.0084 29.4483L55.0427 29.2113L55.5166 29.28ZM66.4247 36.2328L66.6234 36.3665C67.7874 37.1499 69.7762 39.6634 68.7271 43.5508L68.6648 43.782L68.2024 43.6572L68.2648 43.426C69.2522 39.7671 67.378 37.4516 66.356 36.7637L66.1574 36.63L66.4247 36.2328ZM48.6561 28.5641C48.1226 27.5738 47.2542 26.9052 46.6231 26.5969L46.4079 26.4918L46.6181 26.0615L46.8333 26.1666C47.5366 26.5102 48.4882 27.2426 49.0777 28.3369C49.6733 29.4425 49.8907 30.9031 49.1347 32.6641L49.0403 32.8841L48.6002 32.6952L48.6947 32.4752C49.3922 30.8504 49.1835 29.543 48.6561 28.5641ZM67.1252 41.1722C65.834 38.7246 63.8856 38.4691 63.1278 38.6157L62.8927 38.6612L62.8018 38.191L63.0368 38.1455C63.9976 37.9597 66.1571 38.3108 67.5487 40.9488L67.6604 41.1605L67.2369 41.384L67.1252 41.1722ZM85.6651 52.5813L85.4351 52.6479C84.9724 52.782 83.6721 53.1526 82.1669 53.5639C80.6065 53.9903 78.7136 53.7231 77.9606 53.5385L77.728 53.4816L77.842 53.0164L78.0746 53.0734C78.7924 53.2493 80.5931 53.4976 82.0407 53.102C83.5435 52.6913 84.8414 52.3214 85.3018 52.188L85.5318 52.1213L85.6651 52.5813ZM42.8188 30.052C40.4763 30.6633 38.0056 31.8563 36.4469 32.7703L36.2404 32.8914L35.9981 32.4783L36.2047 32.3572C37.787 31.4293 40.2993 30.2146 42.6979 29.5887C43.8965 29.2759 45.0818 29.106 46.1151 29.2014C47.1506 29.297 48.0577 29.6623 48.6549 30.4429L48.8004 30.6331L48.4201 30.924L48.2746 30.7339C47.7854 30.0944 47.0246 29.7663 46.0711 29.6783C45.1154 29.59 43.9907 29.7462 42.8188 30.052ZM63.5177 41.535C62.3107 41.0932 61.0761 40.8253 60.3122 40.7146L60.0752 40.6803L60.1439 40.2064L60.3809 40.2407C61.1729 40.3554 62.4402 40.6306 63.6823 41.0853C64.9157 41.5367 66.1653 42.1797 66.8801 43.0511L67.0319 43.2362L66.6616 43.5399L66.5098 43.3548C65.88 42.5869 64.7333 41.9799 63.5177 41.535ZM43.591 32.1699C41.5568 32.9858 39.2963 34.1941 37.8357 35.0589L37.6297 35.1809L37.3857 34.7688L37.5918 34.6468C39.0646 33.7748 41.3481 32.5536 43.4127 31.7254C44.4434 31.312 45.4321 30.9913 46.2437 30.8649C46.6492 30.8017 47.0231 30.7849 47.3417 30.8362C47.6608 30.8874 47.9458 31.0109 48.1394 31.2469L48.2913 31.4321L47.921 31.7358L47.7692 31.5506C47.6747 31.4354 47.5152 31.3491 47.2657 31.309C47.0157 31.2688 46.6968 31.279 46.3174 31.3381C45.5591 31.4562 44.6097 31.7612 43.591 32.1699ZM85.3608 55.2963L85.1447 55.3994C81.1444 57.309 77.7082 55.4793 76.4792 54.3124L76.3056 54.1475L76.6353 53.8003L76.809 53.9651C77.941 55.04 81.1692 56.7665 84.9384 54.9673L85.1545 54.8641L85.3608 55.2963ZM47.5132 32.7109L47.3027 32.8249C46.8139 33.0896 46.3251 33.4395 45.7899 33.8226C45.6375 33.9317 45.4814 34.0435 45.3204 34.1568C44.6021 34.6622 43.8038 35.1846 42.8674 35.5739C42.6062 35.6825 42.3585 35.7858 42.1224 35.8843C40.285 36.6509 39.1485 37.1251 37.809 37.5071L37.5788 37.5728L37.4474 37.1123L37.6777 37.0466C38.9885 36.6728 40.0972 36.2103 41.9407 35.4412C42.1757 35.3432 42.4227 35.2402 42.6836 35.1317C43.5704 34.763 44.3344 34.265 45.0448 33.7651C45.1967 33.6583 45.3468 33.5507 45.4957 33.4442C46.0352 33.0578 46.5569 32.6842 47.0746 32.4038L47.2852 32.2898L47.5132 32.7109ZM54.4307 36.9701L54.8858 37.1194L54.8111 37.3469C54.3813 38.6566 53.9249 40.7793 53.9544 42.8766C53.9841 44.9828 54.5021 47.0012 55.9524 48.1823L56.138 48.3335L55.8356 48.7048L55.65 48.5536C54.0328 47.2367 53.5059 45.036 53.4756 42.8833C53.4451 40.7218 53.9137 38.5456 54.3561 37.1976L54.4307 36.9701ZM65.2629 44.5204L65.0235 44.5152C63.586 44.484 62.0516 44.0324 60.7267 43.4896C59.3996 42.9459 58.2646 42.3031 57.6206 41.8734L57.4214 41.7405L57.6872 41.3421L57.8864 41.475C58.5043 41.8873 59.6111 42.515 60.9082 43.0465C62.2075 43.5788 63.6798 44.007 65.0339 44.0364L65.2733 44.0416L65.2629 44.5204ZM55.908 40.6853L55.9142 40.9247C55.9379 41.839 56.13 43.2641 56.6256 44.5538C57.1241 45.8511 57.9065 46.9539 59.0747 47.3261L59.3028 47.3988L59.1575 47.8551L58.9293 47.7824C57.5521 47.3436 56.6951 46.0697 56.1786 44.7256C55.6591 43.3738 55.4603 41.8926 55.4355 40.9371L55.4293 40.6977L55.908 40.6853ZM75.3703 53.5029L75.4095 53.7391C75.6032 54.9055 76.0939 56.5687 76.9245 57.7803C77.3389 58.3849 77.8271 58.861 78.3891 59.1168C78.9433 59.3691 79.5892 59.4166 80.3487 59.131L80.5728 59.0467L80.7414 59.4949L80.5173 59.5792C79.6453 59.9071 78.867 59.8606 78.1907 59.5527C77.522 59.2483 76.973 58.6979 76.5295 58.0511C75.6445 56.7601 75.1369 55.0213 74.9371 53.8175L74.8978 53.5813L75.3703 53.5029ZM62.4694 45.8249L62.2312 45.8493C60.76 45.9998 59.515 45.4333 58.5664 44.6819C57.6202 43.9323 56.9528 42.9871 56.6242 42.3375L56.5161 42.1238L56.9434 41.9076L57.0515 42.1213C57.3531 42.7175 57.9788 43.6055 58.8638 44.3065C59.7465 45.0057 60.8708 45.5071 62.1824 45.3729L62.4206 45.3485L62.4694 45.8249ZM73.7291 52.5002L73.6868 52.7359C73.5316 53.6014 73.4511 55.0274 73.7183 56.4689C73.9858 57.9122 74.5953 59.3385 75.7903 60.2522L75.9806 60.3976L75.6897 60.7781L75.4995 60.6326C74.1733 59.6187 73.5263 58.0605 73.2474 56.5562C72.9683 55.0502 73.0515 53.5655 73.2155 52.6513L73.2578 52.4156L73.7291 52.5002Z" fill="#F8DC85"/>
<path d="M85.9913 54.7024C85.1432 53.5818 85.7184 51.7179 87.2759 50.5392C88.8333 49.3605 90.7834 49.3134 91.6314 50.4339C92.4795 51.5545 91.9043 53.4184 90.3469 54.5971C88.7894 55.7758 86.8393 55.823 85.9913 54.7024Z" fill="#DDC479"/>
<path d="M47.1072 26.9034C50.5593 26.814 49.9006 31.3041 49.1398 33.5603C48.7977 32.6657 47.3738 32.9196 46.7046 33.1584C48.0222 30.1681 47.3147 26.9543 47.1072 26.9034Z" fill="#DDC479"/>
<path d="M66.1931 37.9347C68.3812 39.3129 67.9372 42.4289 67.4416 43.8147C66.9822 44.5441 63.8104 45.5364 62.2819 45.9414C64.4616 43.9185 65.7976 39.7607 66.1931 37.9347Z" fill="#DDC479"/>
<path d="M39.3983 62.2214L28.4779 67.6527C27.8851 67.8452 25.5399 69.6223 26.545 72.5192C27.5501 75.4162 29.8002 75.5129 30.7996 75.1991C32.1205 74.8991 41.2507 69.6137 42.3952 68.9198C43.3109 68.3646 43.4521 69.1138 43.4082 69.5578C42.686 72.876 42.2057 80.3177 46.0625 83.5393C50.8835 87.5663 60.8583 80.2661 61.7101 79.8122C62.3916 79.4491 62.4668 79.9587 62.4192 80.2588C61.8818 85.1555 61.8485 95.4067 66.0147 97.2385C70.181 99.0703 77.2396 94.1686 80.2481 91.4887C83.3277 93.4284 87.6401 89.6361 87.8023 86.9085C86.9742 80.8102 81.4291 82.7999 79.0299 84.2128C76.6006 85.7484 71.3797 88.676 69.9299 88.1024C68.4802 87.5288 68.3881 86.2823 69.1774 78.29C69.9668 70.2978 61.9219 70.0413 59.1861 72.1384C56.4504 74.2354 53.2191 77.2089 50.8479 75.9417C48.4767 74.6746 50.3913 68.5853 50.4368 66.4859C50.6032 58.8088 43.301 60.2934 39.3983 62.2214Z" fill="#F6D164"/>
<path d="M29.8111 74.5284C28.4717 74.7185 27.1911 73.5011 26.951 71.8092C26.7108 70.1173 27.6019 68.5916 28.9413 68.4014C30.2808 68.2113 31.5613 69.4287 31.8015 71.1206C32.0417 72.8125 31.1506 74.3382 29.8111 74.5284Z" fill="#DDC479"/>
<path fill-rule="evenodd" clip-rule="evenodd" d="M65.3413 71.6585L65.3633 71.8969C65.5027 73.4087 65.6157 75.9029 65.5023 78.4826C65.3893 81.0555 65.0502 83.743 64.2705 85.6237L64.1788 85.8448L63.7365 85.6615L63.8282 85.4403C64.5741 83.641 64.9113 81.0241 65.0239 78.4616C65.1362 75.9058 65.0241 73.4335 64.8864 71.9409L64.8644 71.7024L65.3413 71.6585ZM84.6203 84.5064L84.384 84.5448C83.4957 84.689 82.1129 84.9512 80.854 85.2687C80.2243 85.4275 79.6301 85.5991 79.146 85.7752C78.6511 85.9552 78.3058 86.1283 78.1433 86.2774C77.7 86.6842 77.0631 86.9475 76.4707 87.1146C75.8735 87.2831 75.2919 87.3617 74.9333 87.3826L74.6943 87.3965L74.6665 86.9184L74.9055 86.9045C75.2324 86.8855 75.7795 86.812 76.3407 86.6537C76.9068 86.494 77.4583 86.256 77.8196 85.9245C78.0594 85.7045 78.4875 85.5051 78.9823 85.3251C79.4878 85.1412 80.0994 84.9651 80.7369 84.8044C82.0125 84.4827 83.4094 84.2178 84.3073 84.0721L84.5436 84.0337L84.6203 84.5064ZM67.9015 73.9762L67.9723 74.205C68.15 74.7795 68.2533 76.0184 68.0444 77.9142C67.8345 79.819 67.3073 82.407 66.205 85.691C64.0277 92.1775 65.9735 95.4316 67.0936 96.2222L67.2892 96.3603L67.013 96.7515L66.8174 96.6134C65.4563 95.6526 63.5374 92.1334 65.751 85.5387C66.8441 82.2821 67.3628 79.7278 67.5684 77.8618C67.775 75.9869 67.6633 74.8265 67.5148 74.3465L67.444 74.1178L67.9015 73.9762ZM48.4654 61.7607L48.4292 61.9974C48.2747 63.0063 47.6715 65.3188 46.8875 67.8367C46.1026 70.3574 45.1287 73.1083 44.2262 74.9942L44.1229 75.2102L43.6909 75.0034L43.7943 74.7875C44.6815 72.9334 45.6473 70.2088 46.4303 67.6943C47.2142 65.177 47.8073 62.8948 47.9558 61.9249L47.9921 61.6883L48.4654 61.7607ZM45.1607 60.9248L45.2171 61.1575C45.4511 62.1228 45.6861 63.7407 45.6372 65.4782C45.5884 67.212 45.256 69.0942 44.3299 70.5645L44.2023 70.7671L43.7971 70.5119L43.9247 70.3093C44.7852 68.9432 45.1108 67.1601 45.1585 65.4647C45.2062 63.7729 44.9765 62.1975 44.7517 61.2703L44.6953 61.0376L45.1607 60.9248ZM50.1668 64.6706L50.1325 64.9076C49.8492 66.8633 48.7948 71.5627 46.8282 74.6849C44.9439 77.6765 45.7602 80.3029 46.3693 81.2118L46.5027 81.4107L46.1049 81.6773L45.9715 81.4784C45.2678 80.4284 44.4279 77.5972 46.423 74.4297C48.3359 71.3928 49.3784 66.773 49.6586 64.8389L49.6929 64.6019L50.1668 64.6706ZM61.0749 71.6234L61.2736 71.7571C62.4377 72.5405 64.4264 75.0541 63.3774 78.9414L63.315 79.1726L62.8526 79.0478L62.915 78.8166C63.9024 75.1577 62.0282 72.8422 61.0062 72.1544L60.8076 72.0207L61.0749 71.6234ZM43.3063 63.9547C42.7728 62.9644 41.9044 62.2958 41.2733 61.9875L41.0581 61.8824L41.2683 61.4522L41.4835 61.5573C42.1869 61.9008 43.1384 62.6333 43.7279 63.7275C44.3235 64.8332 44.5409 66.2937 43.7849 68.0547L43.6905 68.2748L43.2504 68.0859L43.3449 67.8658C44.0424 66.241 43.8337 64.9336 43.3063 63.9547ZM61.7754 76.5628C60.4842 74.1152 58.5359 73.8597 57.778 74.0063L57.5429 74.0518L57.452 73.5816L57.687 73.5362C58.6478 73.3503 60.8073 73.7014 62.1989 76.3394L62.3106 76.5512L61.8871 76.7746L61.7754 76.5628ZM80.3153 87.9719L80.0853 88.0386C79.6226 88.1726 78.3223 88.5432 76.8171 88.9546C75.2567 89.381 73.3638 89.1137 72.6108 88.9292L72.3782 88.8722L72.4922 88.4071L72.7248 88.4641C73.4426 88.64 75.2433 88.8882 76.6909 88.4926C78.1937 88.0819 79.4916 87.712 79.952 87.5786L80.182 87.512L80.3153 87.9719ZM37.469 65.4426C35.1265 66.054 32.6558 67.2469 31.0971 68.1609L30.8906 68.282L30.6483 67.8689L30.8549 67.7478C32.4372 66.82 34.9495 65.6052 37.3481 64.9793C38.5467 64.6665 39.732 64.4966 40.7653 64.5921C41.8008 64.6877 42.708 65.0529 43.3051 65.8335L43.4506 66.0237L43.0703 66.3147L42.9248 66.1245C42.4356 65.485 41.6748 65.157 40.7213 65.0689C39.7656 64.9807 38.6409 65.1368 37.469 65.4426ZM58.1679 76.9256C56.9609 76.4838 55.7263 76.2159 54.9624 76.1053L54.7254 76.0709L54.7941 75.597L55.0311 75.6313C55.8231 75.7461 57.0904 76.0212 58.3325 76.4759C59.5659 76.9274 60.8155 77.5703 61.5303 78.4417L61.6821 78.6268L61.3119 78.9305L61.16 78.7454C60.5302 77.9775 59.3835 77.3706 58.1679 76.9256ZM38.2412 67.5605C36.207 68.3764 33.9465 69.5848 32.486 70.4495L32.2799 70.5715L32.0359 70.1595L32.242 70.0375C33.7148 69.1654 35.9983 67.9442 38.0629 67.116C39.0936 66.7026 40.0823 66.3819 40.8939 66.2555C41.2994 66.1924 41.6733 66.1756 41.9919 66.2268C42.3111 66.2781 42.5961 66.4015 42.7897 66.6376L42.9415 66.8227L42.5712 67.1264L42.4194 66.9413C42.3249 66.826 42.1654 66.7397 41.9159 66.6996C41.6659 66.6594 41.347 66.6696 40.9676 66.7287C40.2093 66.8468 39.2599 67.1519 38.2412 67.5605ZM80.011 90.6869L79.7949 90.79C75.7947 92.6997 72.3584 90.8699 71.1294 89.703L70.9558 89.5382L71.2855 89.1909L71.4592 89.3557C72.5913 90.4306 75.8194 92.1572 79.5886 90.3579L79.8047 90.2547L80.011 90.6869ZM42.1634 68.1015L41.9529 68.2156C41.4642 68.4802 40.9753 68.8301 40.4402 69.2132C40.2878 69.3223 40.1316 69.4341 39.9706 69.5474C39.2523 70.0528 38.454 70.5752 37.5176 70.9645C37.2564 71.0731 37.0087 71.1765 36.7726 71.275C34.9352 72.0416 33.7987 72.5158 32.4592 72.8977L32.229 72.9634L32.0976 72.5029L32.3279 72.4372C33.6387 72.0634 34.7474 71.6009 36.5909 70.8319C36.826 70.7338 37.0729 70.6308 37.3338 70.5223C38.2206 70.1536 38.9846 69.6556 39.695 69.1558C39.8469 69.0489 39.9971 68.9414 40.1459 68.8348C40.6854 68.4484 41.2071 68.0748 41.7248 67.7945L41.9354 67.6804L42.1634 68.1015ZM49.081 72.3607L49.536 72.51L49.4613 72.7375C49.0315 74.0472 48.5751 76.1699 48.6046 78.2672C48.6343 80.3734 49.1523 82.3918 50.6026 83.5729L50.7882 83.7241L50.4858 84.0954L50.3002 83.9442C48.6831 82.6273 48.1561 80.4266 48.1258 78.274C48.0953 76.1124 48.5639 73.9362 49.0063 72.5882L49.081 72.3607ZM59.9131 79.911L59.6737 79.9058C58.2362 79.8746 56.7018 79.4231 55.3769 78.8802C54.0498 78.3365 52.9148 77.6937 52.2708 77.264L52.0716 77.1311L52.3374 76.7328L52.5366 76.8657C53.1545 77.2779 54.2613 77.9057 55.5584 78.4371C56.8577 78.9694 58.33 79.3977 59.6841 79.427L59.9235 79.4322L59.9131 79.911ZM50.5582 76.076L50.5644 76.3153C50.5881 77.2297 50.7802 78.6547 51.2758 79.9444C51.7744 81.2417 52.5568 82.3446 53.7249 82.7167L53.953 82.7894L53.8077 83.2457L53.5795 83.173C52.2023 82.7342 51.3453 81.4603 50.8288 80.1162C50.3093 78.7644 50.1105 77.2833 50.0857 76.3277L50.0795 76.0884L50.5582 76.076ZM70.0205 88.8935L70.0597 89.1297C70.2534 90.2962 70.7441 91.9593 71.5747 93.171C71.9892 93.7755 72.4773 94.2516 73.0393 94.5074C73.5935 94.7598 74.2394 94.8072 74.9989 94.5216L75.223 94.4373L75.3916 94.8855L75.1675 94.9698C74.2955 95.2978 73.5172 95.2512 72.8409 94.9433C72.1722 94.6389 71.6232 94.0885 71.1798 93.4417C70.2947 92.1508 69.7872 90.4119 69.5873 89.2081L69.548 88.9719L70.0205 88.8935ZM57.1196 81.2156L56.8814 81.2399C55.4103 81.3904 54.1652 80.8239 53.2166 80.0725C52.2704 79.323 51.603 78.3777 51.2744 77.7281L51.1663 77.5144L51.5937 77.2983L51.7017 77.5119C52.0033 78.1081 52.629 78.9961 53.514 79.6971C54.3967 80.3963 55.521 80.8977 56.8326 80.7635L57.0708 80.7392L57.1196 81.2156ZM68.3793 87.8908L68.337 88.1265C68.1818 88.9921 68.1013 90.418 68.3685 91.8595C68.636 93.3028 69.2455 94.7292 70.4406 95.6428L70.6308 95.7883L70.3399 96.1687L70.1497 96.0233C68.8235 95.0093 68.1765 93.4511 67.8976 91.9468C67.6185 90.4408 67.7017 88.9561 67.8657 88.0419L67.908 87.8063L68.3793 87.8908Z" fill="#F8DC85"/>
<path d="M80.6415 90.0925C79.7934 88.972 80.3686 87.1081 81.9261 85.9294C83.4835 84.7507 85.4336 84.7035 86.2816 85.8241C87.1297 86.9446 86.5545 88.8086 84.9971 89.9873C83.4396 91.166 81.4895 91.2131 80.6415 90.0925Z" fill="#DDC479"/>
<path d="M41.7574 62.2936C45.2095 62.2041 44.5508 66.6942 43.79 68.9505C43.4479 68.0559 42.024 68.3098 41.3548 68.5486C42.6724 65.5582 41.9649 62.3444 41.7574 62.2936Z" fill="#DDC479"/>
<path d="M60.8434 73.3248C63.0314 74.703 62.5874 77.8191 62.0919 79.2048C61.6325 79.9342 58.4606 80.9265 56.9321 81.3315C59.1118 79.3086 60.4478 75.1508 60.8434 73.3248Z" fill="#DDC479"/>
</svg>
