<svg width="124" height="124" viewBox="0 0 124 124" fill="none" xmlns="http://www.w3.org/2000/svg">
<path d="M29.8175 68.5301C30.399 67.0762 35.1487 58.4736 37.4508 54.354C39.727 54.7334 43.0612 55.6065 46.538 57.0691C51.9446 59.3436 57.696 63.0438 60.3507 68.5301C65.8031 79.7984 57.0793 94.7015 57.4428 93.9745C57.7336 93.3929 48.8402 91.5512 44.3571 90.7031C21.8207 84.1603 29.0905 70.3476 29.8175 68.5301Z" fill="#F6D164"/>
<path fill-rule="evenodd" clip-rule="evenodd" d="M46.5375 56.878C46.5486 57.0784 46.3952 57.25 46.1947 57.2611C45.1187 57.3209 43.3921 57.5008 41.7225 57.8449C40.8878 58.0169 40.0743 58.2285 39.3666 58.4839C38.654 58.741 38.0725 59.0342 37.6835 59.3584C37.5292 59.4869 37.3 59.466 37.1715 59.3118C37.043 59.1576 37.0638 58.9284 37.2181 58.7999C37.7014 58.3971 38.3739 58.0692 39.1199 57.8001C39.8706 57.5292 40.7201 57.3092 41.5757 57.1328C43.2866 56.7802 45.0495 56.5966 46.1544 56.5352C46.3548 56.5241 46.5263 56.6776 46.5375 56.878ZM41.1545 61.504C38.6063 62.5807 36.1965 64.1091 34.7609 65.1858C34.6003 65.3062 34.3725 65.2737 34.252 65.1131C34.1316 64.9525 34.1641 64.7246 34.3247 64.6042C35.7971 63.4999 38.258 61.9386 40.8715 60.8344C42.1787 60.282 43.5343 59.8396 44.8304 59.6291C46.1242 59.4189 47.382 59.4359 48.4778 59.8273C48.6668 59.8948 48.7653 60.1028 48.6978 60.2918C48.6303 60.4809 48.4223 60.5794 48.2332 60.5119C47.2935 60.1763 46.1704 60.1479 44.947 60.3466C43.7259 60.545 42.428 60.9659 41.1545 61.504ZM36.591 67.4393C33.4218 69.195 30.4089 71.54 28.6067 73.162C28.4574 73.2962 28.2276 73.2842 28.0933 73.1349C27.959 72.9857 27.9711 72.7559 28.1203 72.6216C29.953 70.9722 33.0104 68.5918 36.2387 66.8034C37.8529 65.9091 39.5208 65.1568 41.1075 64.7205C42.69 64.2855 44.2236 64.1561 45.5501 64.5462C45.7427 64.6029 45.8529 64.8049 45.7963 64.9975C45.7396 65.1901 45.5376 65.3003 45.345 65.2437C44.1998 64.9069 42.8164 65.0047 41.3002 65.4215C39.788 65.8372 38.1754 66.5615 36.591 67.4393ZM41.7634 68.0875C47.7618 65.9504 54.5173 65.4392 58.9119 65.6223C59.1124 65.6306 59.2683 65.8 59.2599 66.0006C59.2516 66.2012 59.0822 66.357 58.8816 66.3486C54.5524 66.1682 47.895 66.6747 42.0073 68.7723C36.1133 70.8722 31.0801 74.5302 29.8097 80.5995C29.7686 80.796 29.576 80.922 29.3795 80.8809C29.183 80.8397 29.0571 80.6471 29.0982 80.4506C30.445 74.0159 35.7713 70.2223 41.7634 68.0875ZM39.9002 74.7123C35.8047 77.6946 33.5392 81.7851 32.7108 84.6253C32.6546 84.818 32.4528 84.9286 32.2601 84.8724C32.0674 84.8162 31.9567 84.6144 32.0129 84.4217C32.8808 81.4461 35.2317 77.2126 39.4723 74.1246C43.7253 71.0276 49.8564 69.0998 58.2386 70.7174C58.4357 70.7555 58.5647 70.9461 58.5267 71.1432C58.4886 71.3403 58.298 71.4693 58.1009 71.4312C49.9079 69.8501 43.9833 71.739 39.9002 74.7123ZM51.6685 73.1509C55.8496 72.4702 59.7282 74.1359 62.024 75.8733C62.1841 75.9945 62.2157 76.2225 62.0945 76.3825C61.9734 76.5426 61.7454 76.5742 61.5853 76.453C59.3981 74.7979 55.716 73.2285 51.7853 73.8685C47.8808 74.5041 43.6351 77.3366 40.3266 84.6729C40.244 84.8559 40.0288 84.9374 39.8458 84.8548C39.6628 84.7723 39.5813 84.5571 39.6639 84.374C43.0435 76.88 47.461 73.8359 51.6685 73.1509ZM50.8603 80.3692C47.6338 82.1875 45.001 85.1216 43.5691 87.2695C43.4577 87.4366 43.232 87.4817 43.065 87.3704C42.898 87.259 42.8528 87.0333 42.9642 86.8663C44.4401 84.6524 47.1507 81.6252 50.5034 79.7359C53.8667 77.8405 57.9182 77.0725 61.99 79.4854C62.1627 79.5877 62.2197 79.8107 62.1174 79.9834C62.015 80.1561 61.7921 80.2132 61.6194 80.1108C57.8397 77.871 54.0762 78.557 50.8603 80.3692ZM52.9126 84.4302C50.675 85.8553 48.8942 88.1301 47.9441 89.7927C47.8445 89.967 47.6225 90.0276 47.4482 89.928C47.2739 89.8284 47.2133 89.6063 47.3129 89.432C48.3015 87.7021 50.1556 85.3242 52.5221 83.817C54.9033 82.3006 57.8417 81.6491 60.9012 83.4848C61.0733 83.5881 61.1292 83.8114 61.0259 83.9835C60.9226 84.1557 60.6993 84.2115 60.5272 84.1082C57.7709 82.4544 55.1357 83.0145 52.9126 84.4302ZM54.9876 88.414C53.9884 89.155 53.5458 90.124 53.4394 90.7626C53.4064 90.9606 53.2191 91.0944 53.0211 91.0614C52.8231 91.0284 52.6893 90.8411 52.7223 90.6431C52.8582 89.8276 53.3971 88.6885 54.5546 87.8301C55.7202 86.9657 57.4833 86.4073 60.0297 86.7069C60.2291 86.7304 60.3717 86.911 60.3482 87.1104C60.3248 87.3098 60.1441 87.4524 59.9447 87.4289C57.5476 87.1469 55.9787 87.6791 54.9876 88.414Z" fill="#F8DC85"/>
<path d="M78.1547 67.7051C79.7082 67.5085 89.23 65.0794 93.7967 63.8895C94.003 61.5911 93.9981 58.1445 93.4585 54.4113C92.6195 48.6061 90.4877 42.108 85.8471 38.1567C76.316 30.0413 59.6958 34.729 60.4909 34.5604C61.127 34.4255 60.6687 43.4961 60.36 48.0482C61.014 71.5061 76.2127 67.9507 78.1547 67.7051Z" fill="#F6D164"/>
<path d="M61.8046 35.8159C60.593 48.5381 65.0033 71.8742 92.3379 63.4412C87.1036 47.7384 69.8014 38.4815 61.8046 35.8159Z" fill="#C6B273" fill-opacity="0.5"/>
<path fill-rule="evenodd" clip-rule="evenodd" d="M70.5273 33.6048C70.544 33.8049 70.3953 33.9806 70.1952 33.9972C67.3123 34.2375 65.6302 35.5156 64.9367 36.3428C65.8545 36.6322 66.8783 37.0012 67.9787 37.4513C69.3126 36.0136 72.4406 33.7187 76.3703 33.9994C76.5705 34.0137 76.7213 34.1876 76.707 34.3879C76.6927 34.5881 76.5187 34.7388 76.3185 34.7245C72.8502 34.4768 70.0232 36.4165 68.6971 37.7521C69.71 38.186 70.7792 38.6851 71.8836 39.2502C72.6726 38.2923 73.9966 37.0918 75.645 36.3201C77.4428 35.4785 79.6483 35.1393 81.9505 36.2136C82.1324 36.2985 82.211 36.5148 82.1261 36.6967C82.0413 36.8786 81.825 36.9573 81.643 36.8724C79.5833 35.9112 77.6087 36.2036 75.9533 36.9785C74.4854 37.6656 73.2859 38.726 72.5441 39.594C73.6406 40.1743 74.7675 40.8188 75.905 41.5285C77.4782 39.7378 81.486 37.1783 86.6698 39.4822C86.8532 39.5637 86.9358 39.7785 86.8543 39.962C86.7728 40.1454 86.558 40.228 86.3745 40.1465C81.6472 38.0455 78.0026 40.3033 76.5273 41.9227C77.6449 42.6414 78.7693 43.4231 79.8817 44.2687C80.9261 42.8712 84.0307 41.7075 89.9474 44.4722C90.1293 44.5572 90.2079 44.7735 90.1229 44.9554C90.0379 45.1373 89.8216 45.2158 89.6397 45.1308C83.7975 42.401 81.2018 43.7382 80.4597 44.7147C81.4388 45.4819 82.4061 46.2994 83.3486 47.1678C84.8858 46.7727 88.365 46.5873 91.7942 48.5876C91.9676 48.6888 92.0261 48.9114 91.925 49.0848C91.8238 49.2582 91.6013 49.3167 91.4279 49.2156C88.5064 47.5114 85.5537 47.5001 83.9928 47.7731C84.9017 48.6444 85.7842 49.5645 86.6279 50.5343C87.0666 50.3994 87.7321 50.3601 88.5923 50.5086C89.6763 50.6959 91.1105 51.1876 92.8846 52.2225C93.058 52.3237 93.1166 52.5463 93.0155 52.7197C92.9143 52.8931 92.6917 52.9517 92.5183 52.8505C90.803 51.8499 89.4504 51.3946 88.4686 51.225C87.8997 51.1268 87.4676 51.1262 87.1642 51.1637C88.113 52.301 89.0074 53.504 89.8291 54.7736C90.244 54.9076 90.8462 55.1337 91.4569 55.4254C92.127 55.7456 92.8414 56.1607 93.322 56.6414C93.464 56.7833 93.464 57.0135 93.322 57.1554C93.18 57.2974 92.9499 57.2974 92.8079 57.1554C92.4162 56.7637 91.792 56.3913 91.1435 56.0814C90.9087 55.9693 90.6752 55.8674 90.4549 55.7776C91.8403 58.087 92.9822 60.606 93.7775 63.3397C93.8336 63.5325 93.7228 63.7342 93.53 63.7903C93.3372 63.8463 93.1355 63.7355 93.0794 63.5428C92.2018 60.5257 90.8907 57.7732 89.2888 55.2773C88.3627 53.8344 87.3394 52.4773 86.2464 51.2045C85.2191 50.0083 84.1304 48.8867 83.0032 47.8387C81.9483 46.8579 80.8599 45.9416 79.757 45.0891C78.4432 44.0736 77.1091 43.1486 75.7867 42.3126C74.4389 41.4606 73.1036 40.7012 71.8151 40.0328C70.5396 39.371 69.3106 38.7989 68.1614 38.3144C68.0349 38.385 67.8729 38.3756 67.7539 38.2783C67.694 38.2293 67.6538 38.1652 67.6343 38.096C66.3845 37.5872 65.2398 37.1865 64.2458 36.8915L64.1574 36.8652L64.0922 36.8C63.0814 35.7893 62.3721 35.2782 61.8967 35.082C61.6621 34.9851 61.5178 34.979 61.4369 34.9953C61.3691 35.0089 61.3158 35.0434 61.2656 35.1217C61.1422 35.3141 61.0842 35.7025 61.1234 36.2513C61.161 36.7766 61.2808 37.3697 61.428 37.8997C61.4817 38.0931 61.3685 38.2935 61.1751 38.3472C60.9816 38.4009 60.7813 38.2877 60.7276 38.0942C60.5719 37.5338 60.4403 36.891 60.3983 36.3031C60.358 35.7387 60.3924 35.1366 60.6537 34.7292C60.7958 34.5076 61.008 34.3399 61.2937 34.2825C61.5664 34.2278 61.8638 34.2819 62.174 34.41C62.7245 34.6372 63.4187 35.1408 64.2946 35.9806C65.0788 34.982 66.9714 33.5364 70.1349 33.2728C70.3349 33.2561 70.5106 33.4048 70.5273 33.6048Z" fill="#F8DC85"/>
<circle cx="61.8025" cy="61.8025" r="60.4291" stroke="#208553" stroke-width="2.74678"/>
<path d="M17.8578 28.8409C16.6314 30.1413 15.5935 31.8384 14.786 33.4338C14.5317 33.9362 14.9026 33.2059 14.1874 34.7078" stroke="#208553" stroke-width="2.06008" stroke-linecap="round"/>
<path d="M12.3574 38.4556C11.8571 39.0064 11.3076 40.4588 11.3076 40.4588" stroke="#208553" stroke-width="2.06008" stroke-linecap="round"/>
<path d="M87.6386 111.181C84.2753 111.855 88.8787 112.056 96.3521 105.709C100.667 102.045 102.143 99.6517 102.143 99.6517" stroke="#208553" stroke-width="2.06008" stroke-linecap="round"/>
</svg>
