<svg width="124" height="124" viewBox="0 0 124 124" fill="none" xmlns="http://www.w3.org/2000/svg">
<path d="M63.7576 56.6038C61.2854 57.4278 59.1668 57.0554 58.2715 56.6651C57.7294 56.6798 57.1057 56.4913 56.3744 56.0946C55.569 55.6576 54.5841 54.941 53.3619 53.8602C50.926 51.706 47.4854 48.049 42.5606 42.1021C40.6737 40.9959 37.1425 39.2338 34.0693 37.9919C32.5072 37.3606 31.0933 36.8762 30.0841 36.6738C29.5686 36.5704 29.2192 36.5539 29.0227 36.5912C29.0044 36.5947 28.9894 36.5983 28.9772 36.6017C28.9906 37.8438 29.4571 39.0232 29.945 39.9157C30.1904 40.3646 30.436 40.7313 30.6194 40.9847C30.7109 41.1113 30.7866 41.209 30.8385 41.2741C30.8644 41.3066 30.8843 41.3309 30.8973 41.3465L30.9114 41.3633L30.9142 41.3666L31.514 42.0614L30.6087 42.2123C29.5943 42.3813 28.0778 42.7106 26.8253 43.1448C26.1956 43.3631 25.6613 43.5983 25.2941 43.8374C25.1106 43.9569 24.9903 44.0638 24.9202 44.1516C24.9154 44.1575 24.911 44.1632 24.9069 44.1687C24.9704 44.2721 25.0014 44.3668 25.0214 44.4469C25.0303 44.4825 25.0371 44.5136 25.0437 44.5443C25.0622 44.6298 25.0799 44.7116 25.141 44.8744C25.3123 45.3311 25.7994 46.3211 27.3433 48.637L27.8133 49.342L26.9712 49.4355C26.2129 49.5198 25.0809 49.6965 24.1485 49.9493C23.6783 50.0767 23.2884 50.2159 23.0265 50.3578C22.9043 50.424 22.8323 50.479 22.795 50.5163C22.7964 50.524 22.7982 50.5326 22.8002 50.542C22.8104 50.5883 22.8272 50.6479 22.8522 50.7216C22.9023 50.8695 22.9786 51.0536 23.079 51.2691C23.2795 51.6995 23.5614 52.2233 23.8805 52.7786C24.5178 53.8875 25.2848 55.0893 25.7963 55.8565L26.0054 56.1702L25.7699 56.4646C25.536 56.7569 25.1881 57 24.8162 57.2113C24.4364 57.427 23.9857 57.6348 23.5089 57.8407C23.2207 57.9651 22.9229 58.0891 22.6203 58.2151C21.9016 58.5143 21.1549 58.8251 20.4411 59.1821C20.2174 59.2939 20.1176 59.3966 20.0742 59.4652C20.0374 59.5233 20.0226 59.5846 20.0362 59.6755C20.0706 59.9048 20.2769 60.2526 20.7189 60.7123C21.3811 61.4011 22.3565 62.1316 23.2955 62.8349C23.5819 63.0494 23.8649 63.2614 24.1346 63.4688L24.6914 63.8972L24.1159 64.3C23.2688 64.893 22.0568 65.8284 21.1655 66.7071C20.7152 67.1512 20.3766 67.552 20.1989 67.8676C20.1104 68.0248 20.0831 68.1242 20.0787 68.1731C20.4706 68.5598 21.2894 69.2162 22.1863 69.9006C23.0879 70.5886 24.0374 71.2815 24.6356 71.7087L25.1657 72.0874L24.6754 72.5164C24.0014 73.1062 23.048 74.036 22.3709 74.9072C22.029 75.3471 21.7826 75.7405 21.666 76.0482C21.608 76.2011 21.5941 76.3022 21.5967 76.3598C21.5978 76.3859 21.6021 76.3976 21.6031 76.4002C21.6031 76.4002 21.604 76.4023 21.6065 76.4048C21.9683 76.7667 22.69 77.2536 23.4914 77.7318C24.278 78.2012 25.0917 78.6335 25.5978 78.8866L26.0591 79.1172L25.8284 79.5784C25.4913 80.2527 25.0113 81.3145 24.6683 82.3017C24.4963 82.7966 24.3644 83.2568 24.2993 83.6323C24.2667 83.8199 24.2531 83.9734 24.2556 84.0918C24.2576 84.1909 24.2705 84.2431 24.2775 84.2639C24.2849 84.2699 24.3001 84.2806 24.3278 84.2945C24.3962 84.3288 24.507 84.3648 24.6696 84.3927C24.995 84.4485 25.4366 84.4572 25.9435 84.428C26.9509 84.37 28.1079 84.1694 28.8651 84.0011L29.9227 83.7661L29.4382 84.7352C29.0991 85.4133 28.6175 86.4532 28.2735 87.3676C28.1005 87.8275 27.9697 88.2366 27.9058 88.5445C27.8833 88.6531 27.8716 88.7378 27.8672 88.8004C27.8832 88.8057 27.9018 88.8114 27.9231 88.8174C28.0546 88.8544 28.24 88.8887 28.4779 88.9151C28.9518 88.9677 29.5847 88.9842 30.3082 88.9527C31.757 88.8897 33.5121 88.6373 35.002 88.1407C35.3314 88.0309 35.9021 87.7427 36.6824 87.2815C37.4509 86.8274 38.3903 86.2252 39.4446 85.5117C41.5525 84.085 44.105 82.223 46.6427 80.2313C49.1811 78.2392 51.6978 76.1228 53.737 74.1876C55.7939 72.2356 57.3097 70.5183 57.9092 69.3194L57.9466 69.2445L58.0058 69.1853C58.4873 68.7038 59.4667 68.0047 60.6231 67.698C61.7963 67.3867 63.1931 67.4752 64.3806 68.6432L66.0023 69.8595L66.3147 70.3024C67.0259 71.4453 68.3802 72.9123 70.1373 74.5332C72.1267 76.3683 74.5777 78.352 77.0511 80.2118C79.5237 82.071 82.0113 83.8009 84.0709 85.1287C85.1008 85.7928 86.0204 86.3541 86.7753 86.7799C87.5401 87.2114 88.1069 87.487 88.4425 87.5989C89.9324 88.0955 91.6875 88.3479 93.1363 88.4109C93.8597 88.4423 94.4927 88.4259 94.9666 88.3732C95.2045 88.3468 95.3899 88.3126 95.5213 88.2756C95.5402 88.2703 95.5568 88.2652 95.5715 88.2604L95.5773 88.2585C95.5729 88.1959 95.5612 88.1113 95.5386 88.0027C95.4748 87.6947 95.3439 87.2856 95.1709 86.8257C94.827 85.9113 94.3454 84.8714 94.0063 84.1933L93.5218 83.2243L94.5794 83.4593C95.3365 83.6275 96.4935 83.8281 97.501 83.8862C98.0079 83.9154 98.4495 83.9067 98.7749 83.8509C98.9375 83.8229 99.0483 83.7869 99.1166 83.7527C99.1443 83.7388 99.1596 83.728 99.167 83.7221C99.174 83.7013 99.1869 83.649 99.1889 83.55C99.1913 83.4315 99.1778 83.2781 99.1452 83.0904C99.08 82.715 98.9482 82.2548 98.7762 81.7598C98.4332 80.7726 97.9532 79.7108 97.616 79.0365L97.3854 78.5753L97.8467 78.3447C98.3528 78.0916 99.1665 77.6594 99.953 77.19C100.754 76.7117 101.476 76.2248 101.838 75.8629C101.84 75.8605 101.841 75.8586 101.841 75.8586C101.842 75.856 101.847 75.844 101.848 75.818C101.85 75.7604 101.836 75.6592 101.778 75.5063C101.662 75.1986 101.416 74.8053 101.074 74.3653C100.396 73.4941 99.443 72.5643 98.7691 71.9746L98.2787 71.5456L98.8089 71.1669C99.4071 70.7396 100.357 70.0467 101.258 69.3588C102.155 68.6744 102.974 68.0179 103.366 67.6313C103.361 67.5823 103.334 67.4829 103.246 67.3257C103.068 67.0102 102.729 66.6093 102.279 66.1652C101.388 65.2865 100.176 64.3511 99.3286 63.7582L98.753 63.3553L99.3099 62.927C99.5796 62.7195 99.8626 62.5076 100.149 62.2931C101.088 61.5898 102.063 60.8593 102.726 60.1704C103.168 59.7108 103.374 59.3629 103.408 59.1336C103.422 59.0428 103.407 58.9814 103.37 58.9234C103.327 58.8547 103.227 58.752 103.003 58.6402C102.29 58.2833 101.543 57.9725 100.824 57.6733C100.522 57.5473 100.224 57.4232 99.9356 57.2988C99.4588 57.0929 99.008 56.8852 98.6283 56.6694C98.2564 56.4581 97.9084 56.2151 97.6746 55.9228L97.439 55.6283L97.6482 55.3146C98.1596 54.5474 98.9267 53.3456 99.564 52.2367C99.8831 51.6815 100.165 51.1576 100.365 50.7272C100.466 50.5117 100.542 50.3276 100.592 50.1797C100.617 50.106 100.634 50.0465 100.644 50.0001C100.646 49.9907 100.648 49.9822 100.649 49.9745C100.612 49.9372 100.54 49.8821 100.418 49.8159C100.156 49.674 99.7661 49.5349 99.296 49.4074C98.3636 49.1546 97.2316 48.9779 96.4733 48.8937L95.6312 48.8001L96.1012 48.0951C97.6451 45.7792 98.1322 44.7892 98.3035 44.3325C98.3645 44.1697 98.3822 44.088 98.4007 44.0025C98.4074 43.9718 98.4141 43.9406 98.423 43.9051C98.4431 43.8249 98.4737 43.7309 98.5372 43.6275C98.5331 43.622 98.529 43.6157 98.5243 43.6097C98.4542 43.5219 98.3339 43.4151 98.1504 43.2955C97.7832 43.0564 97.2489 42.8212 96.6192 42.603C95.3667 42.1688 93.8502 41.8395 92.8358 41.6704L91.9305 41.5195L92.5299 40.8252L92.5331 40.8214L92.5472 40.8046C92.5601 40.789 92.5801 40.7647 92.606 40.7322C92.6579 40.6671 92.7335 40.5694 92.8251 40.4429C93.0085 40.1894 93.254 39.8227 93.4995 39.3738C93.9874 38.4813 94.4539 37.302 94.4673 36.0598C94.4551 36.0564 94.44 36.0528 94.4218 36.0494C94.2253 36.0121 93.8759 36.0286 93.3604 36.1319C92.3512 36.3343 90.9373 36.8188 89.3751 37.45C86.302 38.6919 82.7708 40.454 80.8839 41.5603C75.9568 47.5087 72.7269 50.7478 70.4572 52.6328C68.4535 54.2969 67.1972 54.9045 66.2268 55.3737C66.0858 55.4419 65.9507 55.5072 65.8203 55.5724L63.7576 56.6038Z" fill="#F6D164"/>
<path d="M59.2225 67.4879L44.7836 66.9727C51.4874 68.0035 52.1991 74.1916 47.8777 78.317L59.2225 67.4879Z" fill="#C1AC6E" fill-opacity="0.5"/>
<path d="M64.3795 67.4874L78.8184 66.9722C72.1146 68.003 71.4029 74.1912 75.7244 78.3165L64.3795 67.4874Z" fill="#C1AC6E" fill-opacity="0.5"/>
<path d="M57.6757 57.1742H44.2682C46.7434 56.3491 50.4563 54.5958 46.8466 48.4077C49.253 50.4704 57.2632 57.1742 57.6757 57.1742Z" fill="#C1AC6E" fill-opacity="0.5"/>
<path d="M64.3903 57.1742H77.7979C75.3226 56.3491 71.6098 54.5958 75.2195 48.4077C72.813 50.4704 64.8028 57.1742 64.3903 57.1742Z" fill="#C1AC6E" fill-opacity="0.5"/>
<path fill-rule="evenodd" clip-rule="evenodd" d="M73.7054 58.4453H49.2183V57.4033H73.7054V58.4453Z" fill="#F8DC85"/>
<path fill-rule="evenodd" clip-rule="evenodd" d="M73.7054 67.8233H49.2183V66.7812H73.7054V67.8233Z" fill="#F8DC85"/>
<circle cx="61.8025" cy="61.8025" r="60.4291" stroke="#208553" stroke-width="2.74678"/>
<path d="M17.8578 28.8409C16.6314 30.1413 15.5935 31.8384 14.786 33.4338C14.5317 33.9362 14.9026 33.2059 14.1874 34.7078" stroke="#208553" stroke-width="2.06008" stroke-linecap="round"/>
<path d="M12.3574 38.4556C11.8571 39.0064 11.3076 40.4588 11.3076 40.4588" stroke="#208553" stroke-width="2.06008" stroke-linecap="round"/>
<path d="M87.6386 111.181C84.2753 111.855 88.8787 112.056 96.3521 105.709C100.667 102.045 102.143 99.6517 102.143 99.6517" stroke="#208553" stroke-width="2.06008" stroke-linecap="round"/>
</svg>
