<svg width="124" height="124" viewBox="0 0 124 124" fill="none" xmlns="http://www.w3.org/2000/svg">
<path d="M38.1446 50.6468C32.9188 50.9527 30.8439 54.0878 30.4596 55.6171C28.6152 66.6282 32.7651 69.1261 35.0706 68.9987C36.6076 68.6928 37.248 66.0675 37.3761 64.793C41.6797 65.7106 42.4995 63.1363 42.3714 61.7344C46.3676 63.5696 48.1351 60.2051 48.5194 58.2934C51.5934 59.8227 54.6674 56.8915 55.8201 55.2348C59.2015 57.07 62.8647 53.4506 64.2736 51.4115C65.8106 52.0487 68.8078 52.7114 68.5004 50.2645C68.193 47.8176 69.9093 44.657 70.8059 43.3826C71.4207 41.2415 74.9045 41.216 76.5696 41.4709C75.8011 39.9416 73.6493 36.5771 71.1901 35.3536C68.7309 34.1302 66.0668 36.3732 65.0421 37.6476C60.7385 36.73 57.6133 39.8142 56.5886 41.4709C53.822 39.9416 50.8249 42.6179 49.6721 44.1472C48.1351 42.312 45.1892 45.6765 43.9084 47.5882C40.8344 46.6706 38.785 49.2449 38.1446 50.6468Z" fill="#F6D164"/>
<path d="M72.0438 36.4785C69.93 36.7927 70.1565 40.7982 70.5339 42.7617C72.0438 40.5626 74.1827 40.7982 75.0634 41.1909C75.3654 40.8768 73.1761 37.9184 72.0438 36.4785Z" fill="#DDC479"/>
<path d="M31.2893 66.3372C29.7528 63.2752 30.5213 52.5578 30.9054 56.0027C31.206 58.6984 33.2248 62.8538 35.0557 64.835C35.7042 68.1508 35.5156 68.6337 34.747 68.6337C34.2037 68.6337 31.9087 67.5717 31.2893 66.3372Z" fill="#DDC479"/>
<path d="M41.4585 63.3862C41.4585 64.5968 38.6697 64.6472 37.2754 64.5211C37.0142 64.2397 36.7865 63.9424 36.5896 63.6318C37.1978 62.9204 36.1465 60.164 35.5449 58.8748C35.7441 55.6739 37.2623 52.3602 38.4163 50.5234C36.591 55.9712 39.6839 61.3685 41.4585 63.3862Z" fill="#DDC479"/>
<path d="M46.6324 60.398C46.6324 61.6405 43.8436 61.6922 42.4492 61.5628C42.1881 61.274 41.9604 60.9689 41.7635 60.6501C42.3717 59.92 41.3204 57.0911 40.7188 55.7679C40.918 52.4827 42.4362 49.0819 43.5901 47.1968C41.7649 52.7879 44.8578 58.3272 46.6324 60.398Z" fill="#DDC479"/>
<path d="M52.916 57.4415C52.916 58.6839 50.1272 58.7357 48.7329 58.6063C48.4717 58.3175 48.2441 58.0123 48.0471 57.6936C48.6553 56.9634 47.604 54.1345 47.0024 52.8114C47.2016 49.5262 48.7198 46.1253 49.8738 44.2402C48.0485 49.8313 51.1414 55.3707 52.916 57.4415Z" fill="#DDC479"/>
<path d="M59.9379 54.1459C59.9379 55.3566 56.9748 55.407 55.4933 55.2809C55.2159 54.9995 54.974 54.7022 54.7647 54.3916C55.4109 53.6802 54.2939 50.9238 53.6547 49.6346C53.8664 46.4336 55.4794 43.1199 56.7055 41.2832C54.7662 46.731 58.0524 52.1283 59.9379 54.1459Z" fill="#DDC479"/>
<path d="M64.3037 50.9926C60.6879 47.0132 63.4022 40.2788 65.2854 37.2178C63.4777 42.7277 66.3121 48.9519 68.0696 50.9926C68.0696 52.217 65.8103 51.3752 64.3037 50.9926Z" fill="#DDC479"/>
<path fill-rule="evenodd" clip-rule="evenodd" d="M70.8934 36.2581C71.3248 36.0625 71.7679 36.0771 72.1347 36.1991L71.8914 36.9273C71.6812 36.8574 71.4415 36.8528 71.2118 36.957C70.984 37.0603 70.7234 37.2901 70.5076 37.767C70.0667 38.7419 69.8562 40.6601 70.4687 44.1741L69.7107 44.3056C69.0922 40.7571 69.2664 38.645 69.8064 37.4512C70.0811 36.8438 70.46 36.4547 70.8934 36.2581ZM62.6617 41.4173C63.1694 40.0774 63.8545 38.8093 64.3705 37.9081L65.0385 38.2889C64.5288 39.179 63.8675 40.4058 63.3813 41.6888C62.891 42.9829 62.6006 44.2795 62.7758 45.3283C62.875 45.922 63.0826 46.4945 63.3077 47.1037L63.3277 47.1578C63.5431 47.74 63.7716 48.358 63.8918 49.0091C64.0174 49.6893 64.027 50.4135 63.7924 51.2015C63.5586 51.9866 63.0894 52.8117 62.292 53.7069L61.717 53.1969C62.4582 52.3648 62.8604 51.6361 63.0549 50.9829C63.2485 50.3326 63.2433 49.7338 63.1352 49.1481C63.0272 48.5629 62.8187 47.9991 62.5966 47.3982L62.5859 47.3693C62.364 46.7688 62.1298 46.1306 62.0169 45.4545C61.8074 44.2002 62.1582 42.746 62.6617 41.4173ZM54.5813 44.8718C55.089 43.5319 55.7741 42.2638 56.2902 41.3626L56.9581 41.7435C56.4484 42.6335 55.7871 43.8603 55.3009 45.1433C54.8106 46.4374 54.5202 47.734 54.6954 48.7828C54.7946 49.3765 55.0023 49.9489 55.2277 50.5581C55.2344 50.5764 55.2412 50.5947 55.248 50.6131C55.4635 51.195 55.6921 51.8127 55.8125 52.4634C55.9384 53.1436 55.9484 53.8678 55.714 54.6559C55.4804 55.4411 55.0114 56.2662 54.2139 57.1614L53.6389 56.6514C54.3801 55.8193 54.7821 55.0907 54.9764 54.4375C55.1698 53.7872 55.1644 53.1884 55.056 52.6028C54.9478 52.0179 54.7392 51.4544 54.517 50.8539L54.5059 50.8239C54.2838 50.2234 54.0495 49.5851 53.9365 48.909C53.727 47.6547 54.0778 46.2005 54.5813 44.8718ZM47.6553 47.9425C48.163 46.6026 48.848 45.3344 49.3641 44.4333L50.0321 44.8141C49.5224 45.7042 48.861 46.9309 48.3749 48.2139C47.8846 49.5081 47.5942 50.8047 47.7694 51.8534C47.8659 52.4312 48.0644 53.0302 48.2821 53.6867C48.2903 53.7115 48.2985 53.7363 48.3068 53.7612C48.5302 54.4356 48.7672 55.1633 48.8905 55.9265C49.1424 57.4865 48.9158 59.1778 47.2928 60.9997L46.7177 60.4897C48.1721 58.8571 48.3499 57.4043 48.1309 56.0487C48.0187 55.3542 47.8013 54.6813 47.5763 54.0021C47.5657 53.9699 47.555 53.9377 47.5443 53.9055C47.3329 53.2684 47.1171 52.6177 47.0105 51.9796C46.801 50.7254 47.1518 49.2712 47.6553 47.9425ZM41.4994 51.397C42.0071 50.0571 42.6922 48.789 43.2082 47.8878L43.8762 48.2686C43.3665 49.1587 42.7052 50.3855 42.219 51.6684C41.7287 52.9626 41.4383 54.2592 41.6135 55.3079C41.71 55.8857 41.9086 56.4847 42.1262 57.1412C42.1344 57.166 42.1426 57.1908 42.1509 57.2157C42.3744 57.8901 42.6113 58.6178 42.7346 59.381C42.9866 60.941 42.7599 62.6323 41.1369 64.4542L40.5619 63.9442C42.0162 62.3116 42.194 60.8588 41.975 59.5032C41.8629 58.8087 41.6455 58.1358 41.4204 57.4566C41.4098 57.4245 41.3991 57.3922 41.3884 57.36C41.177 56.7229 40.9612 56.0722 40.8546 55.4341C40.6451 54.1799 40.9959 52.7257 41.4994 51.397ZM36.1122 54.4676C36.6199 53.1278 37.305 51.8596 37.8211 50.9584L38.489 51.3393C37.9793 52.2293 37.318 53.4561 36.8318 54.7391C36.3415 56.0333 36.0511 57.3299 36.2263 58.3786C36.3228 58.9564 36.5214 59.5554 36.739 60.2119C36.7472 60.2366 36.7555 60.2614 36.7637 60.2863C36.9872 60.9608 37.2241 61.6884 37.3474 62.4517C37.5994 64.0116 37.3727 65.703 35.7497 67.5249L35.1747 67.0149C36.6291 65.3823 36.8068 63.9295 36.5879 62.5739C36.4757 61.8794 36.2583 61.2065 36.0333 60.5273C36.0226 60.4951 36.0119 60.4629 36.0012 60.4307C35.7899 59.7936 35.574 59.1429 35.4674 58.5048C35.2579 57.2506 35.6088 55.7964 36.1122 54.4676Z" fill="#F8DC85"/>
<path d="M60.4313 77.1074C55.7806 79.5104 55.1586 83.2181 55.429 84.7716C58.218 95.5821 63.0249 96.1782 65.0796 95.1249C66.3598 94.2209 65.8781 91.5619 65.4773 90.3454C69.7824 89.435 69.4854 86.7497 68.7987 85.5208C73.1958 85.5738 73.4437 81.7814 73.018 79.8785C76.4482 80.0268 78.0659 76.0994 78.446 74.1172C82.2814 74.42 84.1578 69.6244 84.6166 67.1887C86.2799 67.1464 89.2877 66.5341 88.0126 64.4232C86.7374 62.3123 87.0213 58.727 87.3227 57.1982C87.0145 54.992 90.1874 53.5531 91.8124 53.1094C90.4887 52.0243 87.1555 49.8245 84.4113 49.7059C81.6671 49.5872 80.1443 52.7193 79.7259 54.3001C75.4207 55.2104 73.8184 59.2984 73.5553 61.2286C70.406 60.9554 68.7549 64.6187 68.3231 66.4845C66.173 65.4322 64.8484 69.7034 64.4548 71.9706C61.2732 72.3813 60.4468 75.5663 60.4313 77.1074Z" fill="#F6D164"/>
<path d="M85.647 50.3872C83.8433 51.5332 85.6778 55.1011 86.8206 56.7418C87.3066 54.1189 89.3567 53.465 90.321 53.466C90.4693 53.0562 87.2668 51.2427 85.647 50.3872Z" fill="#DDC479"/>
<path d="M60.5414 94.2302C57.8932 92.0567 54.2405 81.9518 55.9913 84.9433C57.3614 87.2843 60.8945 90.2609 63.3725 91.3271C65.3124 94.0933 65.3363 94.6112 64.634 94.9236C64.1376 95.1443 61.609 95.1065 60.5414 94.2302Z" fill="#DDC479"/>
<path d="M68.6338 87.4013C69.1257 88.5074 66.5981 89.6867 65.2728 90.1381C64.9198 89.987 64.591 89.8079 64.2848 89.6042C64.5515 88.707 62.4709 86.6156 61.3972 85.6821C60.2786 82.6764 60.3193 79.0317 60.6274 76.8845C61.1732 82.6039 66.1924 86.2788 68.6338 87.4013Z" fill="#DDC479"/>
<path d="M72.1479 82.5684C72.6527 83.7037 70.1257 84.8842 68.799 85.3325C68.443 85.1747 68.111 84.9885 67.8015 84.7773C68.0606 83.863 65.9505 81.7053 64.8631 80.7408C63.7102 77.6581 63.7155 73.9337 64.0039 71.7424C64.608 77.5928 69.6849 81.3974 72.1479 82.5684Z" fill="#DDC479"/>
<path d="M76.6877 77.3141C77.1926 78.4493 74.6655 79.6298 73.3389 80.0782C72.9829 79.9204 72.6509 79.7341 72.3414 79.5229C72.6004 78.6086 70.4903 76.4509 69.4029 75.4864C68.2501 72.4037 68.2553 68.6794 68.5438 66.488C69.1479 72.3384 74.2248 76.143 76.6877 77.3141Z" fill="#DDC479"/>
<path d="M81.7649 71.4493C82.2568 72.5555 79.5699 73.8056 78.165 74.2924C77.7971 74.148 77.4552 73.9746 77.1378 73.7759C77.4392 72.8632 75.2986 70.7986 74.1906 69.8803C73.0834 66.8695 73.2107 63.1863 73.5847 61.0098C74.0263 66.7756 79.2221 70.3719 81.7649 71.4493Z" fill="#DDC479"/>
<path d="M84.4721 66.794C79.5512 64.6272 79.2949 57.371 79.7718 53.8087C80.3589 59.5778 85.4779 64.1133 87.9131 65.2637C88.4106 66.3825 86.0041 66.5314 84.4721 66.794Z" fill="#DDC479"/>
<path fill-rule="evenodd" clip-rule="evenodd" d="M84.5066 50.653C84.8213 50.2989 85.2321 50.1322 85.6168 50.0946L85.6905 50.8589C85.4699 50.8805 85.2491 50.9737 85.0815 51.1622C84.9154 51.3492 84.7706 51.665 84.7673 52.1885C84.7605 53.2584 85.3477 55.0967 87.3352 58.0586L86.696 58.4868C84.689 55.4957 83.9899 53.4951 83.9982 52.1849C84.0024 51.5183 84.1905 51.0087 84.5066 50.653ZM79.0816 58.7119C79.001 57.2814 79.1116 55.8443 79.217 54.8111L79.9821 54.8877C79.8781 55.9081 79.7723 57.2978 79.8494 58.6676C79.9272 60.0493 80.1888 61.3521 80.775 62.2391C81.1069 62.7414 81.5292 63.1801 81.9825 63.6452L82.0227 63.6865C82.4561 64.131 82.916 64.6028 83.2904 65.1489C83.6816 65.7194 83.9846 66.3772 84.0905 67.1926C84.1959 68.0049 84.1024 68.9495 83.7376 70.0914L83.0049 69.8591C83.3441 68.7976 83.4155 67.9684 83.3278 67.2925C83.2404 66.6196 82.9923 66.0745 82.6556 65.5834C82.3191 65.0926 81.8995 64.662 81.4524 64.2033L81.4309 64.1812C80.9841 63.7227 80.5108 63.2347 80.1329 62.6628C79.4318 61.6019 79.1615 60.1306 79.0816 58.7119ZM73.1021 65.1518C73.0215 63.7213 73.1322 62.2842 73.2375 61.251L74.0026 61.3276C73.8986 62.348 73.7928 63.7376 73.8699 65.1075C73.9477 66.4892 74.2093 67.7919 74.7955 68.679C75.1274 69.1812 75.5498 69.6198 76.0033 70.0849C76.0169 70.0988 76.0305 70.1128 76.0442 70.1269C76.4775 70.571 76.9375 71.0425 77.3119 71.5881C77.7033 72.1585 78.0067 72.8162 78.1127 73.6315C78.2184 74.4439 78.1251 75.3884 77.7602 76.5304L77.0275 76.298C77.3667 75.2365 77.438 74.4074 77.3501 73.7317C77.2626 73.0589 77.0142 72.514 76.6773 72.0229C76.3407 71.5325 75.9212 71.1023 75.4741 70.6439L75.4518 70.6211C75.0048 70.1626 74.5313 69.6746 74.1534 69.1027C73.4523 68.0418 73.182 66.5705 73.1021 65.1518ZM68.0214 70.7719C67.9408 69.3413 68.0515 67.9042 68.1568 66.8711L68.9219 66.9477C68.8179 67.968 68.7121 69.3577 68.7892 70.7276C68.867 72.1093 69.1286 73.412 69.7148 74.2991C70.0377 74.7878 70.4626 75.2544 70.9283 75.7659C70.9458 75.7851 70.9634 75.8044 70.981 75.8238C71.4593 76.3493 71.9714 76.9179 72.3943 77.5652C73.2584 78.8882 73.7385 80.5257 72.9959 82.8499L72.2632 82.6176C72.9287 80.5348 72.5008 79.1351 71.7499 77.9855C71.3652 77.3965 70.8931 76.87 70.4115 76.3408C70.3887 76.3158 70.3659 76.2907 70.343 76.2656C69.891 75.7693 69.4294 75.2625 69.0727 74.7228C68.3716 73.6619 68.1013 72.1906 68.0214 70.7719ZM63.8003 76.4298C63.7198 74.9992 63.8304 73.5621 63.9358 72.529L64.7009 72.6055C64.5968 73.6259 64.491 75.0156 64.5682 76.3854C64.646 77.7671 64.9076 79.0699 65.4938 79.957C65.8167 80.4456 66.2416 80.9123 66.7072 81.4237C66.7248 81.443 66.7424 81.4623 66.76 81.4817C67.2382 82.0071 67.7504 82.5758 68.1732 83.2231C69.0373 84.546 69.5175 86.1836 68.7748 88.5078L68.0422 88.2754C68.7077 86.1927 68.2798 84.793 67.5289 83.6433C67.1442 83.0543 66.6721 82.5278 66.1905 81.9987C66.1677 81.9736 66.1448 81.9485 66.122 81.9234C65.67 81.4272 65.2083 80.9204 64.8517 80.3806C64.1506 79.3197 63.8802 77.8484 63.8003 76.4298ZM60.1257 81.4246C60.0451 79.994 60.1558 78.5569 60.2612 77.5238L61.0263 77.6003C60.9222 78.6207 60.8164 80.0104 60.8936 81.3802C60.9714 82.7619 61.2329 84.0647 61.8191 84.9517C62.1421 85.4404 62.5669 85.9071 63.0326 86.4185C63.0501 86.4378 63.0677 86.4571 63.0854 86.4765C63.5636 87.0019 64.0758 87.5705 64.4986 88.2179C65.3627 89.5408 65.8429 91.1783 65.1002 93.5026L64.3676 93.2702C65.0331 91.1875 64.6051 89.7878 63.8542 88.6381C63.4695 88.0491 62.9975 87.5226 62.5159 86.9935C62.493 86.9684 62.4702 86.9433 62.4473 86.9182C61.9953 86.422 61.5337 85.9152 61.177 85.3754C60.4759 84.3145 60.2056 82.8432 60.1257 81.4246Z" fill="#F8DC85"/>
<circle cx="61.8025" cy="61.8025" r="60.4291" stroke="#208553" stroke-width="2.74678"/>
<path d="M17.8582 28.8409C16.6318 30.1413 15.594 31.8384 14.7865 33.4338C14.5322 33.9362 14.9031 33.2059 14.1879 34.7078" stroke="#208553" stroke-width="2.06008" stroke-linecap="round"/>
<path d="M12.3569 38.4556C11.8566 39.0064 11.3071 40.4588 11.3071 40.4588" stroke="#208553" stroke-width="2.06008" stroke-linecap="round"/>
<path d="M87.6391 111.181C84.2758 111.855 88.8792 112.056 96.3526 105.709C100.667 102.045 102.143 99.6517 102.143 99.6517" stroke="#208553" stroke-width="2.06008" stroke-linecap="round"/>
</svg>
