<svg width="124" height="124" viewBox="0 0 124 124" fill="none" xmlns="http://www.w3.org/2000/svg">
<path d="M50.8594 31.7579C48.2442 31.9957 49.7697 33.6401 50.8594 34.4327L58.2894 39.7821C58.2894 40.9709 59.8744 41.4662 60.6669 41.5653C60.9047 42.754 62.351 43.0512 63.0444 43.0512C63.2822 44.4777 64.7285 44.8344 65.422 44.8344C65.422 46.0231 67.007 46.7166 67.7995 46.9147C68.5128 48.579 69.6817 48.7969 70.1771 48.6979C70.1771 49.8866 71.7621 50.5801 72.5546 50.7782C72.7923 52.2047 74.2387 52.5614 74.9321 52.5614C74.6944 53.7501 76.4181 54.4436 77.3097 54.6417C77.5474 56.0682 78.9938 56.623 79.6872 56.7221L85.9282 61.4771C88.4048 63.4584 93.358 66.6483 93.358 63.5575C93.358 59.694 90.3861 52.5614 89.1973 50.7782C88.2463 49.3517 84.8385 47.0138 83.2535 46.0231C83.4913 44.8344 82.3619 44.3391 81.7675 44.24C81.292 42.338 80.1825 42.0606 79.6872 42.1596C79.6872 40.9709 78.4984 40.2774 77.904 40.0793C77.6663 39.1283 76.4181 38.6924 75.8237 38.5933C75.3482 37.4046 73.8424 36.9093 73.149 36.8102C72.6735 35.6214 70.9696 35.5224 70.1771 35.6214C70.1771 34.6704 68.7902 34.4327 68.0967 34.4327C66.6108 32.3523 63.6388 31.7579 62.1529 31.1635C60.9641 30.688 54.1286 31.3617 50.8594 31.7579Z" fill="#F6D164"/>
<path fill-rule="evenodd" clip-rule="evenodd" d="M67.7996 39.4473C68.7682 38.1599 69.5145 36.7258 69.903 35.8032L70.4508 36.0339C70.0467 36.9935 69.2774 38.4719 68.2746 39.8047C67.2801 41.1265 66.0159 42.3596 64.6084 42.7435L64.452 42.1701C65.6598 41.8406 66.8227 40.7458 67.7996 39.4473ZM70.4064 40.8137C71.5002 39.4611 72.3955 37.9494 72.883 36.9744L73.4146 37.2402C72.9115 38.2465 71.9939 39.7959 70.8686 41.1874C69.7538 42.566 68.3906 43.8464 66.986 44.2295L66.8296 43.656C68.0402 43.3258 69.3022 42.1791 70.4064 40.8137ZM73.1484 42.5294C74.2688 41.1503 75.1184 39.6849 75.5549 38.7632L76.0921 39.0177C75.6371 39.9782 74.7629 41.4848 73.6098 42.9042C72.4608 44.3185 71.0092 45.6785 69.392 46.3005L69.1786 45.7457C70.6522 45.1789 72.0239 43.9137 73.1484 42.5294ZM75.2793 44.1458C76.3595 42.6737 77.197 41.1744 77.6353 40.2492L78.1724 40.5037C77.7191 41.4606 76.8626 42.9928 75.7585 44.4975C74.6578 45.9975 73.2915 47.4974 71.8126 48.3601L71.5131 47.8467C72.8872 47.0452 74.1956 45.6227 75.2793 44.1458ZM74.1592 49.6488C76.9491 47.5564 79.0237 43.7117 79.7094 42.0464L80.259 42.2727C79.5578 43.9757 77.4321 47.9372 74.5159 50.1243L74.1592 49.6488ZM79.3175 47.6428C80.2682 46.2892 81.0642 44.9329 81.5047 44.1009L82.03 44.379C81.5789 45.2311 80.7701 46.6089 79.8039 47.9845C78.8413 49.3551 77.7063 50.747 76.6004 51.6071L76.2354 51.1379C77.2693 50.3338 78.3633 49.0015 79.3175 47.6428Z" fill="#F8DC85"/>
<path d="M66.3137 36.5127C61.5587 38.6525 53.8317 34.8286 50.5626 32.6492C51.0381 31.6982 58.4877 31.4604 62.153 31.4604C66.6704 33.6002 66.8091 35.7202 66.3137 36.5127Z" fill="#DDC479"/>
<path d="M83.6143 50.1056C83.3305 55.3122 89.6805 61.1437 92.891 63.4086C93.607 62.6225 91.146 55.5871 89.826 52.1677C86.203 48.724 84.1753 49.3581 83.6143 50.1056Z" fill="#DDC479"/>
<path fill-rule="evenodd" clip-rule="evenodd" d="M64.0042 36.9658C61.7747 36.8632 59.5718 36.4582 58.2354 36.2107L58.3436 35.6263C59.6818 35.8741 61.8477 36.2715 64.0315 36.372C66.2329 36.4733 68.3748 36.2675 69.7151 35.374L70.0448 35.8686C68.532 36.8771 66.2161 37.0676 64.0042 36.9658ZM83.8445 46.3654C83.381 49.3783 84.3287 52.2707 84.7217 53.3513L84.1631 53.5544C83.7635 52.4556 82.7696 49.4437 83.2571 46.275L83.8445 46.3654Z" fill="#DDC479"/>
<path d="M68.1007 54.6752C68.1714 52.0501 66.3593 53.3722 65.4444 54.3614L59.2602 61.1123C58.0796 60.9728 57.4017 62.4888 57.2104 63.2642C56.0019 63.3608 55.5371 64.7623 55.4557 65.451C54.0111 65.5197 53.4873 66.9142 53.4059 67.6029C52.2253 67.4634 51.3507 68.9561 51.061 69.7199C49.3245 70.2329 48.9709 71.3682 49.0112 71.8718C47.8306 71.7323 46.956 73.225 46.6662 73.9888C45.2217 74.0575 44.6978 75.452 44.6164 76.1407C43.4638 75.7651 42.5729 77.3955 42.2715 78.2577C40.8269 78.3264 40.1063 79.6977 39.9265 80.3747L34.472 86.0147C32.2139 88.2417 28.4648 92.7864 31.5343 93.1491C35.3711 93.6024 42.8032 91.4879 44.7135 90.5166C46.2417 89.7395 48.9633 86.6296 50.1331 85.1717C51.2858 85.5473 51.9102 84.4839 52.0783 83.9053C54.023 83.6562 54.4286 82.5869 54.3884 82.0834C55.5689 82.2229 56.3971 81.1237 56.6636 80.5566C57.6359 80.4321 58.2152 79.2437 58.3834 78.665C59.6197 78.3323 60.2883 76.895 60.468 76.218C61.7044 75.8852 62.0027 74.2047 61.9973 73.4061C62.9417 73.5177 63.3406 72.1682 63.4219 71.4796C65.6623 70.248 66.6012 67.3663 67.3659 65.9604C67.9776 64.8356 68.1106 57.9683 68.1007 54.6752Z" fill="#F6D164"/>
<path fill-rule="evenodd" clip-rule="evenodd" d="M58.4766 70.5956C59.6415 71.7086 60.9782 72.618 61.8488 73.112L61.5554 73.629C60.6498 73.1151 59.272 72.1776 58.066 71.0254C56.87 69.8827 55.7937 68.4825 55.5777 67.0397L56.1655 66.9517C56.3509 68.1898 57.3017 69.4731 58.4766 70.5956ZM56.8139 73.0241C58.0287 74.269 59.4249 75.3355 60.336 75.934L60.0097 76.4308C59.0694 75.8131 57.6384 74.72 56.3885 73.4392C55.1502 72.1704 54.0386 70.6663 53.823 69.2265L54.4108 69.1384C54.5967 70.3795 55.5874 71.7673 56.8139 73.0241ZM54.7882 75.5459C56.0264 76.8203 57.3819 77.8359 58.246 78.3776L57.9303 78.8812C57.0298 78.3167 55.6362 77.2718 54.3619 75.96C53.0921 74.653 51.9119 73.0519 51.484 71.3729L52.06 71.2261C52.4499 72.756 53.5455 74.2667 54.7882 75.5459ZM52.933 77.4723C54.2682 78.7178 55.6588 79.7255 56.5262 80.2693L56.2105 80.7729C55.3133 80.2104 53.8923 79.18 52.5275 77.907C51.167 76.6379 49.8378 75.105 49.1545 73.5351L49.6995 73.2979C50.3343 74.7566 51.5935 76.2229 52.933 77.4723ZM47.5994 75.7143C49.35 78.7304 52.9248 81.2418 54.4981 82.1182L54.2088 82.6374C52.5999 81.7413 48.9152 79.1654 47.0853 76.0127L47.5994 75.7143ZM48.9863 81.0723C50.219 82.1753 51.4726 83.125 52.2472 83.66L51.9093 84.1491C51.116 83.6011 49.8427 82.6362 48.5899 81.5153C47.3418 80.3985 46.0926 79.108 45.3682 77.9088L45.877 77.6015C46.5542 78.7226 47.749 79.9653 48.9863 81.0723Z" fill="#F8DC85"/>
<path d="M61.5652 69.4646C59.9981 64.4913 64.7022 57.2664 67.2502 54.2756C68.1388 54.8594 67.5008 62.2854 67.0708 65.9255C64.4157 70.1605 62.2941 70.0495 61.5652 69.4646Z" fill="#DDC479"/>
<path d="M46.0365 85.0507C40.8991 84.158 34.3629 89.7799 31.7369 92.7024C32.4335 93.5057 39.7091 91.8872 43.2598 90.9775C47.1047 87.7836 46.713 85.6955 46.0365 85.0507Z" fill="#DDC479"/>
<path fill-rule="evenodd" clip-rule="evenodd" d="M61.3862 67.1179C61.7497 64.9158 62.4103 62.7757 62.8129 61.4775L63.3807 61.6536C62.9775 62.9535 62.3287 65.0578 61.9727 67.2147C61.6138 69.389 61.5668 71.5403 62.2969 72.9761L61.7671 73.2455C60.943 71.6249 61.0256 69.3026 61.3862 67.1179ZM49.7236 85.7183C46.7858 84.9045 43.8023 85.5063 42.6831 85.7697L42.5469 85.1911C43.685 84.9233 46.7927 84.2896 49.8823 85.1455L49.7236 85.7183Z" fill="#DDC479"/>
<circle cx="61.8025" cy="61.8025" r="60.4291" stroke="#208553" stroke-width="2.74678"/>
<path d="M17.8578 28.8409C16.6314 30.1413 15.5935 31.8384 14.786 33.4338C14.5317 33.9362 14.9026 33.2059 14.1874 34.7078" stroke="#208553" stroke-width="2.06008" stroke-linecap="round"/>
<path d="M12.3573 38.4556C11.857 39.0064 11.3075 40.4588 11.3075 40.4588" stroke="#208553" stroke-width="2.06008" stroke-linecap="round"/>
<path d="M87.6387 111.181C84.2754 111.855 88.8787 112.056 96.3522 105.709C100.667 102.045 102.143 99.6517 102.143 99.6517" stroke="#208553" stroke-width="2.06008" stroke-linecap="round"/>
</svg>
