<svg width="124" height="124" viewBox="0 0 124 124" fill="none" xmlns="http://www.w3.org/2000/svg">
<path d="M72.5702 65.7113L50.7481 85.4215C48.4128 87.5718 47.9574 90.9279 47.5278 95.3526C47.1841 98.8924 50.2609 97.4523 51.8423 96.2898L71.0275 78.9302C72.6825 77.4293 73.267 75.9617 73.3222 75.7079C73.7264 73.8468 75.2446 70.1444 75.5605 66.6265C75.935 62.4557 73.291 65.2477 72.5702 65.7113Z" fill="#F6D164"/>
<path d="M53.5294 89.7457C53.784 81.7217 50.9284 85.8144 49.4687 88.8636C48.8649 90.0082 48.4453 92.8936 48.311 94.1932C48.0822 98.1832 50.2461 96.2968 51.6104 94.9099C52.0412 94.472 53.2281 91.5406 53.5294 89.7457Z" fill="#DDC479"/>
<path fill-rule="evenodd" clip-rule="evenodd" d="M74.7948 65.9801C74.89 66.0874 74.8803 66.2515 74.773 66.3467L53.3702 85.3508C53.2629 85.446 53.0988 85.4362 53.0036 85.329C52.9083 85.2217 52.9181 85.0576 53.0253 84.9624L74.4281 65.9583C74.5354 65.8631 74.6996 65.8729 74.7948 65.9801Z" fill="#F8DC85"/>
<path fill-rule="evenodd" clip-rule="evenodd" d="M75.1147 68.1746C75.2102 68.2817 75.2008 68.4458 75.0937 68.5413L53.9998 87.3466C53.8927 87.4421 53.7286 87.4327 53.6331 87.3256C53.5377 87.2185 53.5471 87.0544 53.6542 86.9589L74.7481 68.1536C74.8551 68.0581 75.0193 68.0675 75.1147 68.1746Z" fill="#F8DC85"/>
<path fill-rule="evenodd" clip-rule="evenodd" d="M74.4535 71.2209C74.5488 71.3281 74.5391 71.4922 74.4319 71.5875L54.011 89.7417C53.9038 89.837 53.7396 89.8274 53.6443 89.7202C53.549 89.613 53.5587 89.4488 53.6659 89.3535L74.0868 71.1993C74.194 71.104 74.3582 71.1137 74.4535 71.2209Z" fill="#F8DC85"/>
<path fill-rule="evenodd" clip-rule="evenodd" d="M73.4817 74.4636C73.5778 74.57 73.5694 74.7342 73.463 74.8304L53.2958 93.0397C53.1894 93.1358 53.0251 93.1275 52.929 93.021C52.8329 92.9146 52.8413 92.7503 52.9477 92.6542L73.1149 74.4448C73.2213 74.3487 73.3855 74.3571 73.4817 74.4636Z" fill="#F8DC85"/>
<path d="M88.8454 35.6693L67.0233 55.3795C64.6879 57.5298 64.2326 60.8859 63.803 65.3106C63.4593 68.8504 66.5361 67.4103 68.1174 66.2478L87.3027 48.8882C88.9576 47.3873 89.5422 45.9197 89.5973 45.6659C90.0016 43.8048 91.5197 40.1024 91.8356 36.5846C92.2102 32.4137 89.5662 35.2057 88.8454 35.6693Z" fill="#F6D164"/>
<path d="M69.8046 59.7042C70.0593 51.6802 67.2036 55.7728 65.744 58.8221C65.1402 59.9667 64.7206 62.8521 64.5863 64.1517C64.3574 68.1417 66.5213 66.2553 67.8857 64.8684C68.3165 64.4305 69.5033 61.4991 69.8046 59.7042Z" fill="#DDC479"/>
<path fill-rule="evenodd" clip-rule="evenodd" d="M91.0701 35.9371C91.1653 36.0444 91.1555 36.2085 91.0483 36.3038L69.6455 55.3078C69.5382 55.403 69.3741 55.3933 69.2788 55.286C69.1836 55.1788 69.1933 55.0146 69.3006 54.9194L90.7034 35.9154C90.8107 35.8201 90.9748 35.8299 91.0701 35.9371Z" fill="#F8DC85"/>
<path fill-rule="evenodd" clip-rule="evenodd" d="M91.3901 38.1331C91.4856 38.2402 91.4762 38.4043 91.3691 38.4998L70.2752 57.3051C70.1681 57.4006 70.004 57.3912 69.9085 57.2841C69.8131 57.177 69.8225 57.0129 69.9295 56.9174L91.0235 38.1121C91.1305 38.0166 91.2947 38.026 91.3901 38.1331Z" fill="#F8DC85"/>
<path fill-rule="evenodd" clip-rule="evenodd" d="M90.729 41.1789C90.8243 41.2861 90.8146 41.4502 90.7074 41.5455L70.2865 59.6998C70.1793 59.7951 70.0152 59.7854 69.9199 59.6782C69.8246 59.571 69.8342 59.4069 69.9414 59.3116L90.3623 41.1573C90.4695 41.062 90.6337 41.0717 90.729 41.1789Z" fill="#F8DC85"/>
<path fill-rule="evenodd" clip-rule="evenodd" d="M89.7571 44.4216C89.8532 44.528 89.8448 44.6922 89.7384 44.7884L69.5712 62.9977C69.4647 63.0939 69.3005 63.0855 69.2044 62.979C69.1083 62.8726 69.1166 62.7083 69.2231 62.6122L89.3903 44.4028C89.4967 44.3067 89.6609 44.3151 89.7571 44.4216Z" fill="#F8DC85"/>
<path d="M55.8673 35.1866L54.3283 64.552C54.1317 67.7204 51.8139 70.19 48.6505 73.3133C46.1198 75.812 45.2975 72.5159 45.2027 70.5555L46.5799 44.7188C46.7014 42.488 47.4719 41.1089 47.6341 40.9061C48.8238 39.4188 50.7402 35.906 53.2715 33.4427C56.2726 30.5222 55.7726 34.3348 55.8673 35.1866Z" fill="#F6D164"/>
<path d="M49.2181 65.1206C55.2854 59.8636 53.9094 64.6606 52.463 67.7162C51.9554 68.9065 49.9804 71.0515 49.0563 71.9752C46.1038 74.6686 46.2035 71.7996 46.4197 69.8662C46.488 69.2557 48.0149 66.4862 49.2181 65.1206Z" fill="#DDC479"/>
<path fill-rule="evenodd" clip-rule="evenodd" d="M54.2564 33.6296C54.1131 33.6233 53.9918 33.7344 53.9855 33.8777L52.7302 62.4724C52.7239 62.6157 52.835 62.737 52.9783 62.7432C53.1216 62.7495 53.2429 62.6385 53.2492 62.4952L54.5044 33.9005C54.5107 33.7572 54.3997 33.6359 54.2564 33.6296Z" fill="#F8DC85"/>
<path fill-rule="evenodd" clip-rule="evenodd" d="M52.3508 34.765C52.2075 34.7584 52.086 34.8692 52.0795 35.0125L50.7836 63.2422C50.777 63.3855 50.8878 63.507 51.0311 63.5136C51.1744 63.5201 51.2959 63.4093 51.3025 63.266L52.5983 35.0363C52.6049 34.8931 52.4941 34.7716 52.3508 34.765Z" fill="#F8DC85"/>
<path fill-rule="evenodd" clip-rule="evenodd" d="M50.4035 37.1993C50.2602 37.1929 50.1389 37.3039 50.1325 37.4472L48.9177 64.744C48.9113 64.8873 49.0223 65.0086 49.1656 65.015C49.3089 65.0214 49.4302 64.9104 49.4366 64.7671L50.6514 37.4703C50.6578 37.327 50.5468 37.2057 50.4035 37.1993Z" fill="#F8DC85"/>
<path fill-rule="evenodd" clip-rule="evenodd" d="M48.4998 39.9979C48.3566 39.9904 48.2344 40.1004 48.2269 40.2437L46.8093 67.3782C46.8018 67.5215 46.9119 67.6437 47.0551 67.6511C47.1983 67.6586 47.3205 67.5486 47.328 67.4053L48.7456 40.2708C48.7531 40.1275 48.6431 40.0053 48.4998 39.9979Z" fill="#F8DC85"/>
<circle cx="62.0423" cy="61.8025" r="60.4291" stroke="#208553" stroke-width="2.74678"/>
<path d="M18.0975 28.8409C16.8711 30.1413 15.8332 31.8384 15.0257 33.4338C14.7714 33.9362 15.1423 33.2059 14.4271 34.7078" stroke="#208553" stroke-width="2.06008" stroke-linecap="round"/>
<path d="M12.5971 38.4556C12.0968 39.0064 11.5473 40.4588 11.5473 40.4588" stroke="#208553" stroke-width="2.06008" stroke-linecap="round"/>
<path d="M87.8784 111.181C84.5151 111.855 89.1184 112.056 96.5919 105.709C100.907 102.045 102.382 99.6517 102.382 99.6517" stroke="#208553" stroke-width="2.06008" stroke-linecap="round"/>
</svg>
