<svg width="124" height="124" viewBox="0 0 124 124" fill="none" xmlns="http://www.w3.org/2000/svg">
<path d="M75.159 45.5771C75.1644 45.5797 75.1697 45.5823 75.175 45.5849C77.2781 46.6127 80.1434 48.473 81.0255 50.4843C82.0464 51.4396 82.4013 52.448 82.236 53.4497C82.8276 53.5654 87.9513 51.6118 88.1484 55.3194C91.3407 57.03 94.8993 59.7536 94.2228 61.9397C94.9412 62.7338 95.5202 63.783 95.5099 64.8496C100.759 68.1405 105.662 74.9094 96.4065 79.2837C94.7829 82.6344 88.2813 88.149 75.2637 83.4009C74.2438 83.4993 73.1143 83.5681 71.909 83.6118C61.22 90.1773 49.7038 85.1085 45.2818 81.7533C42.9158 81.286 40.8011 80.7765 38.9154 80.2343C21.8215 80.9948 23.1157 75.6316 25.8995 72.855C23.7229 69.5172 25.2208 66.3068 27.3926 64.4964C27.9918 64.2738 29.2132 63.8284 29.306 63.8284C28.9089 62.4212 30.8814 60.8361 32.6339 59.7821C32.6087 58.8883 33.2495 58.0624 34.1747 57.3842C35.1208 56.8866 37.4796 55.5178 37.881 55.8913C36.1271 53.1074 36.6793 51.8374 37.9286 51.7896C38.573 51.7562 39.9693 51.7827 40.4001 52.1562C39.2189 49.0125 40.2345 48.1476 41.3196 48.2335L42.2812 48.4211C42.374 47.7101 43.0447 47.5503 43.8955 47.684C43.8955 46.8359 44.5492 45.2657 47.1637 45.7689C46.619 45.1624 46.2999 44.5988 46.1603 44.1547C46.2018 43.6574 47.1508 42.9118 50.615 43.9078C49.929 43.17 49.6386 42.4949 49.6049 41.9983C49.4656 41.5 49.8717 40.6884 52.6108 41.4275C51.9067 40.8124 51.6801 40.2705 51.7287 39.8923C51.5559 39.2187 52.3307 37.9148 56.8128 38.0883C60.833 36.855 67.3462 36.3613 70.314 41.6732C70.6522 42.2785 70.8502 42.7859 70.927 43.2062C72.2458 42.8112 74.9594 42.4743 75.2637 44.2873C75.2739 44.7487 75.2374 45.1783 75.159 45.5771Z" fill="#F6D164"/>
<path fill-rule="evenodd" clip-rule="evenodd" d="M63.8393 38.1956C61.4913 37.833 58.9822 38.2371 57.0411 38.8325C56.4697 39.0078 55.9542 39.1977 55.514 39.3852C55.1186 39.5536 54.6616 39.3696 54.4931 38.9743C54.4878 38.9616 54.4827 38.9489 54.478 38.9361C53.7048 39.0316 53.202 39.1948 52.8898 39.3604C52.5651 39.5327 52.4981 39.6671 52.4868 39.7161L52.5196 39.8438L52.5006 39.9918C52.5007 39.9913 52.5007 39.9917 52.5008 39.993C52.5023 40.0157 52.5224 40.3172 53.1229 40.8418C54.0875 41.6846 56.2315 42.7993 60.4569 43.7686C60.9376 43.8788 61.4445 43.9871 61.9787 44.0927C60.1126 43.4263 58.2582 42.6483 56.7459 41.9526L56.6025 41.8867L56.4962 41.7701C56.2457 41.4954 55.8727 40.9731 56.0023 40.3499C56.1512 39.6347 56.8178 39.3278 57.4235 39.2059C58.072 39.0753 58.9909 39.0729 60.2438 39.2173C61.5101 39.3632 63.1692 39.6656 65.323 40.1801C65.741 40.2799 65.9989 40.6997 65.8991 41.1177C65.7992 41.5357 65.3794 41.7936 64.9614 41.6938C62.8437 41.188 61.2495 40.8998 60.0657 40.7633C58.9276 40.6322 58.2136 40.6471 57.7936 40.7198C60.3606 41.8785 63.728 43.1899 66.4054 43.805C67.8399 44.1345 68.9557 44.2341 69.6316 44.0888C69.9565 44.019 70.0773 43.9143 70.1208 43.8553C70.154 43.8102 70.2232 43.6835 70.1616 43.3464C70.1058 43.0411 69.95 42.6174 69.6347 42.0531C68.2938 39.6531 66.1628 38.5545 63.8393 38.1956ZM66.084 45.328C66.0954 45.4024 66.0962 45.4798 66.0849 45.5582C66.0312 45.9299 65.7231 46.202 65.3624 46.2237C66.4629 46.6792 67.4867 47.0042 68.3405 47.1167C69.4078 47.2575 69.9466 47.0408 70.2006 46.6873C70.364 46.46 70.4934 46.0733 70.4913 45.4468C70.3183 45.5187 70.1383 45.5718 69.9586 45.6104C68.9294 45.8315 67.5339 45.6593 66.084 45.328ZM71.8599 43.7825C72.1907 45.4223 72.0993 46.7121 71.4645 47.5955C70.691 48.6717 69.3693 48.8221 68.1371 48.6597C66.8739 48.4931 65.4222 47.9693 64.0091 47.3341C62.6222 46.7106 61.222 45.9564 59.9968 45.2596C55.9119 44.3122 53.5241 43.187 52.2429 42.1358C51.1423 41.8553 50.6018 41.8902 50.3816 41.9502C50.4009 42.2119 50.577 42.7244 51.1849 43.3782C52.489 44.7807 55.5906 46.6122 62.0195 47.6118C62.5767 47.6985 63.1586 47.7788 63.7659 47.852C64.1298 47.8959 64.4045 48.1842 64.4457 48.5327C66.207 49.0367 68.1278 49.2119 69.8201 48.9697C72.2611 48.6203 73.9955 47.4614 74.3955 45.4273C74.4101 45.3533 74.423 45.2778 74.4342 45.2006C74.4346 45.1981 74.435 45.1956 74.4353 45.193C74.4723 44.936 74.4904 44.6611 74.4869 44.3671C74.4414 44.1592 74.3422 44.035 74.2041 43.9407C74.0313 43.8225 73.7628 43.7318 73.3942 43.6929C72.9075 43.6415 72.3537 43.6912 71.8599 43.7825ZM73.4908 49.2945C72.4937 49.9416 71.2904 50.3314 70.0406 50.5103C67.3127 50.9007 64.138 50.3438 61.6614 49.131C60.6807 48.9761 59.769 48.8012 58.9221 48.6099C61.7313 50.7253 65.2784 52.6282 68.2528 52.7596C69.7883 52.8275 71.1201 52.4231 72.1581 51.3745C72.6604 50.8671 73.1153 50.1874 73.4908 49.2945ZM57.4524 48.2447C53.7352 47.2312 51.4724 45.8848 50.2005 44.5998C48.639 44.1698 47.728 44.1481 47.2448 44.2369C47.1663 44.2513 47.1039 44.267 47.0546 44.2823C47.1943 44.5542 47.415 44.8843 47.7427 45.2491C47.993 45.5278 48.302 45.8224 48.6774 46.122C50.2462 47.3742 52.9636 48.7036 57.3269 49.3104C57.1204 49.0354 57.1153 48.6459 57.3378 48.3627C57.3725 48.3186 57.411 48.2792 57.4524 48.2447ZM59.7794 51.1085C59.7382 51.1124 59.6961 51.1131 59.6534 51.1102C58.342 51.0225 57.1385 50.8761 56.0357 50.683C56.868 51.3322 57.9484 52.0693 59.1083 52.6695C60.7718 53.5301 62.4429 54.0272 63.7489 53.7706C64.1706 53.6878 64.5796 53.9625 64.6624 54.3842C64.7453 54.8059 64.4706 55.2149 64.0489 55.2978C62.2042 55.6601 60.1306 54.9507 58.3932 54.0517C56.6246 53.1367 55.0424 51.9399 54.1143 51.107C53.8609 50.8795 53.7915 50.5234 53.9164 50.2263C53.5771 50.1383 53.2495 50.0455 52.9334 49.9486C53.1072 50.7207 53.6754 52.0632 54.9878 53.7633C56.477 55.6925 58.8911 58.0367 62.6534 60.457C66.6833 60.8384 71.2552 60.0234 74.9204 58.5805C76.7785 57.849 78.3699 56.9692 79.5262 56.0314C80.5149 55.2296 81.1201 54.4398 81.3672 53.7192C81.1811 53.9703 80.9589 54.2125 80.7014 54.4452C79.3488 55.6671 76.924 56.7151 73.1135 57.553C72.7321 57.812 72.3225 58.0553 71.8838 58.2772C69.0972 59.6868 65.2136 60.1962 60.1071 58.5244C59.6987 58.3907 59.476 57.9512 59.6097 57.5428C59.7109 57.2335 59.9875 57.0307 60.2931 57.0085C60.0493 56.8397 59.9134 56.5382 59.9706 56.2275C60.0484 55.8049 60.4541 55.5253 60.8767 55.6031C69.1103 57.1186 72.7472 54.3263 73.4821 53.1154C73.7051 52.748 74.1837 52.631 74.5511 52.8539C74.7714 52.9877 74.9017 53.2134 74.9226 53.4519C75.1472 53.076 75.3202 52.7152 75.4443 52.3875C75.5965 51.9855 76.0456 51.7831 76.4476 51.9352C76.8495 52.0874 77.0519 52.5366 76.8998 52.9385C76.624 53.6668 76.1691 54.4971 75.5207 55.3181C77.6005 54.6715 78.9041 53.9716 79.6581 53.2904C80.171 52.827 80.4008 52.3985 80.4808 52.0231C80.5609 51.6472 80.5083 51.2427 80.3129 50.7972C79.95 49.9696 79.1356 49.0987 78.0813 48.281C77.3564 47.7188 76.5553 47.2101 75.792 46.7853C75.3552 49.368 74.4896 51.2315 73.2641 52.4694C71.8498 53.8981 70.053 54.397 68.1841 54.3144C65.4088 54.1918 62.3681 52.7872 59.7794 51.1085ZM76.0097 45.135C76.9811 45.6412 78.0623 46.2967 79.0351 47.0512C80.113 47.8872 81.131 48.9003 81.6708 50.0253C82.4588 50.7994 82.9151 51.6521 83.0264 52.5461C83.0915 52.5332 83.1607 52.5197 83.2348 52.5054C83.8098 52.3949 84.5699 52.2656 85.3343 52.2598C86.0854 52.2541 86.946 52.3653 87.6521 52.8294C88.3042 53.2581 88.7347 53.9269 88.8789 54.8317C90.4027 55.6773 91.9967 56.7469 93.1783 57.893C93.8153 58.5109 94.3645 59.1816 94.7071 59.882C94.988 60.4562 95.1454 61.0853 95.0628 61.7262C95.6527 62.4601 96.1555 63.394 96.2658 64.4105C98.8403 66.1017 101.381 68.6509 102.148 71.4553C102.559 72.9567 102.459 74.5351 101.581 76.0384C100.745 77.4705 99.2444 78.763 96.9805 79.8713C94.9831 83.6163 88.0924 88.8425 75.1629 84.1923C74.2295 84.2783 73.2138 84.3404 72.1405 84.3821C66.6532 87.6869 60.9678 88.0517 56.1063 87.1687C51.309 86.2975 47.2811 84.2073 44.9566 82.4824C42.6926 82.0309 40.6543 81.54 38.823 81.0175C34.5807 81.1997 31.4287 81.0076 29.129 80.5565C26.8235 80.1042 25.2773 79.3729 24.3807 78.3982C23.4383 77.3737 23.2991 76.1767 23.6055 75.0777C23.8442 74.2213 24.3489 73.4232 24.9308 72.7532C24.007 71.0777 23.8739 69.41 24.2621 67.9085C24.6848 66.2734 25.7107 64.8857 26.8945 63.899L26.9968 63.8137L27.1216 63.7673C27.4233 63.6552 27.8822 63.4868 28.2788 63.3459C28.3484 63.3212 28.4166 63.2972 28.4821 63.2743C28.5476 62.4485 29.0638 61.7065 29.5973 61.1398C30.2376 60.4594 31.0816 59.8374 31.8857 59.3295C32.0504 58.2577 32.8562 57.3862 33.7147 56.7569L33.7613 56.7227L33.8125 56.6958C33.9274 56.6354 34.0714 56.5575 34.2353 56.4688C34.7002 56.2171 35.3251 55.8789 35.9001 55.6076C36.1464 55.4914 36.4 55.3794 36.6428 55.287C36.1456 54.2968 35.926 53.4387 36.0053 52.7283C36.0613 52.2274 36.2699 51.7828 36.6449 51.4654C37.0089 51.1574 37.4576 51.0301 37.8934 51.0125C38.2284 50.9954 38.7408 50.9929 39.2453 51.0389C39.0295 50.0813 39.0427 49.3009 39.2886 48.6924C39.4769 48.2266 39.7949 47.8831 40.1958 47.6766C40.5837 47.4768 41.003 47.4281 41.3811 47.4581L41.4252 47.4616L41.8171 47.538C41.9938 47.3014 42.2348 47.1236 42.5198 47.0117C42.7508 46.9211 42.9979 46.878 43.2458 46.8664C43.3777 46.444 43.6226 46.0025 44.0323 45.6383C44.4464 45.2703 44.981 45.0229 45.6394 44.9324C45.5466 44.7449 45.4729 44.5629 45.418 44.3883L45.3722 44.2426L45.3849 44.0903C45.4485 43.3274 46.1372 42.858 46.9636 42.7062C47.4776 42.6118 48.1354 42.6106 48.9706 42.7385C48.8995 42.5277 48.8541 42.3218 48.8345 42.123C48.7808 41.872 48.787 41.5703 48.9225 41.2728C49.0793 40.9284 49.3698 40.6765 49.7363 40.528C50.0696 40.3929 50.4821 40.3353 50.9826 40.3569C50.9531 40.2183 50.94 40.0792 50.945 39.9402C50.8286 39.1959 51.2775 38.4539 52.1605 37.9855C53.0551 37.511 54.494 37.2332 56.7112 37.3063C58.7749 36.6887 61.4749 36.2557 64.0769 36.6576C66.757 37.0715 69.3664 38.382 70.9933 41.294C71.1845 41.6362 71.3419 41.963 71.4621 42.2741C72.0965 42.1481 72.8504 42.0705 73.5575 42.1452C74.0701 42.1993 74.6196 42.3396 75.0823 42.6558C75.5693 42.9887 75.919 43.4903 76.0312 44.1588L76.0405 44.2142L76.0417 44.2703C76.0483 44.5678 76.0375 44.856 76.0097 45.135ZM46.7737 46.4922C45.7933 46.3509 45.3061 46.5883 45.0661 46.8016C44.9655 46.8911 44.8872 46.9947 44.8279 47.1027C45.07 47.1743 45.312 47.2586 45.548 47.3507C46.1114 47.5405 46.9368 47.8218 47.6519 48.0725C47.5726 47.7244 47.5127 47.4043 47.4692 47.1432C47.2127 46.926 46.9813 46.7082 46.7737 46.4922ZM49.3554 48.4432C49.4185 48.6569 49.4893 48.8702 49.5684 49.0749C50.6086 51.7691 53.0113 55.8801 57.7034 59.7807C58.2349 59.8715 58.7746 59.958 59.3206 60.0393C56.7897 58.1443 54.995 56.3195 53.7558 54.7143C52.1382 52.6187 51.4308 50.848 51.3289 49.7629C51.317 49.6368 51.336 49.5149 51.3795 49.4046C50.6255 49.105 49.9528 48.7811 49.3554 48.4432ZM54.7437 59.2153C51.2458 55.828 49.2484 52.4276 48.2365 49.938C48.2143 49.9295 48.1908 49.9206 48.1659 49.9112C47.9309 49.8227 47.6034 49.7051 47.2349 49.5755C46.4996 49.3169 45.6197 49.017 45.0336 48.8197L45.0154 48.8136L44.9976 48.8065C44.5579 48.634 44.135 48.5095 43.7748 48.453C43.4028 48.3945 43.1848 48.4226 43.0884 48.4604C43.0763 48.4652 43.0685 48.4692 43.0637 48.4719C43.0607 48.4801 43.0563 48.4958 43.0528 48.5221C43.0355 48.6548 43.0599 48.9538 43.2841 49.4953C43.5024 50.0226 43.8817 50.7122 44.4791 51.5957C45.5977 53.2501 47.4338 55.5154 50.264 58.5665C50.4537 58.3529 50.7544 58.2522 51.049 58.3316C52.169 58.6336 53.4128 58.934 54.7437 59.2153ZM51.0325 59.9377C50.9956 60.0698 50.9232 60.1939 50.8159 60.2946C50.5026 60.5888 50.0101 60.5734 49.7159 60.2601C46.5264 56.8638 44.451 54.3327 43.1898 52.4674C42.5595 51.5353 42.1191 50.7498 41.8462 50.0908C41.6987 49.7345 41.5904 49.3923 41.5346 49.0685L41.22 49.0072C41.0758 49.0009 40.9736 49.0266 40.9084 49.0602C40.8506 49.09 40.7851 49.1431 40.7315 49.2756C40.6036 49.592 40.5549 50.3558 41.1286 51.8828C41.8234 53.7319 43.348 56.4829 46.2468 60.4632C50.6119 61.6015 56.3166 62.7346 62.1001 63.3087C68.015 63.8958 73.9489 63.8916 78.6061 62.7504C79.7603 62.4675 80.8289 62.1165 81.7948 61.6913C84.0638 60.6925 85.7375 59.2994 86.6648 57.4379C86.9888 56.7875 87.2268 56.0706 87.366 55.2791C87.3132 54.6162 87.0659 54.3065 86.7973 54.1299C86.4687 53.914 85.9745 53.8112 85.3461 53.816C84.731 53.8207 84.0869 53.9264 83.5287 54.0337C83.4272 54.0533 83.3234 54.0739 83.2227 54.0939C83.0929 54.1196 82.9681 54.1444 82.8595 54.1646C82.4884 55.3028 81.6156 56.3407 80.5064 57.2402C79.192 58.3062 77.4489 59.2577 75.4905 60.0286C71.5781 61.5688 66.672 62.4407 62.3103 61.9869C60.5723 61.8061 58.8632 61.5619 57.2342 61.279C54.97 60.8858 52.8571 60.4171 51.0325 59.9377ZM88.6806 56.5104C88.5879 56.8411 88.4789 57.1616 88.3542 57.472C88.8586 57.8025 89.3478 58.2014 89.7347 58.6557C90.2748 59.29 90.7034 60.1443 90.4935 61.1089C90.2862 62.0619 89.5114 62.8564 88.2828 63.5119C87.7681 63.7865 87.1517 64.0491 86.4219 64.2978C88.3646 64.0881 89.8486 63.7891 90.9538 63.4308C92.7373 62.8527 93.3309 62.1901 93.4795 61.71C93.5726 61.4091 93.5402 61.0384 93.3091 60.5658C93.0749 60.0872 92.6618 59.5602 92.0947 59.0101C91.179 58.1219 89.9453 57.2531 88.6806 56.5104ZM83.1167 63.5736C85.1995 63.131 86.6199 62.6352 87.5502 62.1388C88.6058 61.5756 88.9069 61.0811 88.9728 60.778C89.0362 60.4866 88.9356 60.1178 88.5498 59.6648C88.3111 59.3844 87.9962 59.1143 87.6452 58.8708C86.5701 60.5995 84.9495 61.8981 82.9885 62.8533C83.034 63.0967 83.0767 63.3368 83.1167 63.5736ZM81.5214 63.4826C80.968 63.6911 80.3931 63.8782 79.7996 64.0454C80.9265 67.4763 81.0912 70.1204 80.466 72.109C79.7747 74.3074 78.1638 75.5682 76.1953 76.1737C74.261 76.7686 71.9561 76.7454 69.7157 76.4194C68.1534 76.1921 66.5903 75.8126 65.1554 75.366C66.6715 75.9895 68.2815 76.5303 69.8833 76.9024C72.8582 77.5933 75.6907 77.6753 77.8425 76.7512C78.6 76.4258 79.2742 75.9757 79.8477 75.3799C80.9903 74.1932 81.8026 72.3531 81.9745 69.5662C82.0485 68.3664 82.0031 66.9964 81.8153 65.4374C81.7827 65.167 81.7458 64.8911 81.7046 64.6095C81.651 64.2435 81.59 63.8679 81.5214 63.4826ZM66.2523 74.0702C67.4375 74.4119 68.6926 74.6978 69.9398 74.8793C72.073 75.1897 74.1169 75.1847 75.7377 74.6861C77.3242 74.1982 78.4745 73.2539 78.9813 71.6422C79.4746 70.0733 79.3959 67.7577 78.2848 64.4217C73.4975 65.4624 67.6508 65.4236 61.9464 64.8574C55.9513 64.2623 50.0495 63.0777 45.5829 61.8979L45.3167 61.8276L45.154 61.6055C42.2485 57.6402 40.5993 54.7664 39.7782 52.7051C39.7609 52.6997 39.7415 52.694 39.7198 52.6881C39.5735 52.6486 39.3838 52.6169 39.1658 52.5947C38.7305 52.5505 38.2612 52.5518 37.969 52.567L37.9637 52.5673L37.9584 52.5675C37.7713 52.5746 37.6847 52.6243 37.6502 52.6535C37.6251 52.6747 37.5711 52.7305 37.552 52.901C37.5075 53.3 37.686 54.1221 38.5395 55.4768C38.7722 55.8462 39.0506 56.2482 39.3803 56.6838C40.7419 58.483 42.9499 60.82 46.3329 63.7513C46.5983 63.8733 46.8891 64.0004 47.2043 64.1312C48.5494 64.6895 50.323 65.3088 52.4198 65.8792C58.0411 67.4084 65.9165 68.5679 74.028 67.3088C74.8758 67.1772 75.726 67.0192 76.5763 66.8325C76.9961 66.7403 77.4111 67.0059 77.5032 67.4257C77.5954 67.8454 77.3298 68.2604 76.91 68.3526C76.704 68.3978 76.498 68.4414 76.2921 68.4834C76.4072 68.5716 76.5141 68.6593 76.613 68.7464C77.0962 69.1722 77.4745 69.6625 77.5695 70.2288C77.6748 70.8564 77.4038 71.3736 77.0201 71.7407C76.658 72.0872 76.1603 72.3425 75.6385 72.54C74.5846 72.9389 73.1622 73.1996 71.7135 73.3671C70.3008 73.5305 68.8134 73.6105 67.523 73.6314C67.0949 73.7878 66.6713 73.9339 66.2523 74.0702ZM70.4855 71.926C70.8377 71.8959 71.1889 71.8611 71.5348 71.8211C72.9467 71.6578 74.2163 71.4142 75.0876 71.0844C75.5285 70.9176 75.8018 70.7525 75.9442 70.6162C76.0103 70.553 76.0295 70.5135 76.0339 70.5027C76.0356 70.4984 76.0367 70.4983 76.0346 70.4862C76.0266 70.4385 75.9609 70.2461 75.5841 69.9141C75.2763 69.6429 74.8157 69.3267 74.162 68.9673C74.0695 69.0881 73.9407 69.1831 73.785 69.2337C66.9722 71.4478 61.3954 72.0755 57.1749 71.9487C52.9768 71.8226 50.0733 70.9475 48.6417 70.101C48.2718 69.8822 48.1493 69.405 48.368 69.0351C48.5868 68.6652 49.064 68.5426 49.4339 68.7614C50.5585 69.4264 53.1731 70.2715 57.2217 70.3931C59.9351 70.4746 63.2718 70.2302 67.1972 69.3997C61.4653 69.4332 56.1747 68.509 52.0657 67.3957C48.6713 66.9813 45.8074 66.5212 43.4045 66.0295C46.2507 69.8802 52 75.2583 61.2996 73.6989C61.992 73.5827 62.7022 73.4368 63.4302 73.2584C64.61 72.9694 65.8365 72.5953 67.1096 72.1253C67.8548 71.8502 68.616 71.5422 69.393 71.1992C69.7862 71.0256 70.2456 71.2037 70.4191 71.5968C70.4664 71.704 70.4876 71.8161 70.4855 71.926ZM43.5284 63.3379C41.35 61.3412 39.7346 59.6284 38.5725 58.1786C38.216 58.4308 37.9049 58.7254 37.6956 59.035C37.4004 59.4716 37.3371 59.8761 37.5335 60.2941C37.7594 60.775 38.4003 61.4341 39.9315 62.1308C40.8366 62.5427 42.0156 62.9508 43.5284 63.3379ZM37.6384 56.9333C37.573 56.8391 37.5097 56.7462 37.4486 56.6546C37.2212 56.7229 36.9166 56.8488 36.5642 57.0151C36.0318 57.2663 35.4761 57.5671 35.0181 57.815C34.8626 57.8991 34.7184 57.9772 34.5902 58.0451C33.7538 58.6699 33.3981 59.2723 33.4118 59.7604C33.4237 60.1822 33.7239 60.8532 35.0461 61.6642C35.858 62.1623 36.9969 62.6742 38.5432 63.1798C37.3108 62.5162 36.5106 61.7768 36.1249 60.9558C35.6368 59.9169 35.8897 58.9274 36.4063 58.1633C36.7319 57.6817 37.1719 57.2681 37.6384 56.9333ZM38.161 64.6921C36.4797 64.1485 35.1903 63.5784 34.2324 62.9908C33.2534 62.3903 32.553 61.7267 32.1761 61.0028C31.6304 61.3809 31.1215 61.7911 30.7306 62.2064C30.0994 62.877 29.9765 63.3393 30.0549 63.6174C30.1473 63.9447 30.5521 64.4794 31.9634 64.9843C32.7093 65.2512 33.8003 65.3441 35.347 65.3662C35.6477 65.3704 36.021 65.3087 36.4851 65.1898C36.8551 65.0949 37.2446 64.9745 37.6715 64.8425C37.7799 64.809 37.8907 64.7747 38.0042 64.7399C38.056 64.7241 38.1083 64.7081 38.161 64.6921ZM41.1102 65.6415C40.2522 65.704 39.3654 65.9506 38.4601 66.228C38.3572 66.2595 38.2535 66.2916 38.1495 66.3238C37.7188 66.457 37.2822 66.5921 36.8714 66.6973C36.537 66.783 36.1939 66.8562 35.8545 66.8943C35.8486 66.939 35.8469 66.9855 35.8504 67.0334C35.8621 67.1972 35.938 67.4447 36.2264 67.7496C36.7967 68.3526 38.1315 69.1037 40.9447 69.6504C41.1232 69.1649 41.2475 68.4662 41.2774 67.6811C41.3072 66.8989 41.2383 66.1664 41.1102 65.6415ZM39.4745 70.9206C37.2487 70.3701 35.8708 69.6385 35.0957 68.819C34.599 68.2939 34.3392 67.7193 34.298 67.1446C34.2919 67.0595 34.2908 66.976 34.294 66.8941C33.4954 66.859 32.7663 66.7886 32.1272 66.6458C32.0895 66.8793 32.107 67.1906 32.243 67.594C32.4955 68.3432 33.1518 69.3707 34.549 70.6316C36.5461 71.1183 37.9649 71.1926 38.9493 71.0363C39.1418 71.0057 39.3163 70.9667 39.4745 70.9206ZM37.1628 72.6384C39.2369 74.0306 42.0816 75.5865 45.9328 77.2698C46.6984 77.4359 47.4954 77.5973 48.3251 77.7535C49.2258 77.9231 50.1649 78.0865 51.1438 78.243C51.2803 78.2649 51.4029 78.321 51.504 78.4012C56.6519 79.4082 62.689 80.3883 66.9228 80.6248C68.2064 80.6965 69.2981 80.6981 70.1368 80.6178C70.5561 80.5776 70.8933 80.5186 71.1503 80.4457C71.3647 80.3849 71.4896 80.3236 71.5556 80.2806C71.5381 80.2405 71.5056 80.1792 71.4455 80.0946C71.1714 79.7092 70.5443 79.1451 69.3953 78.3864C66.5106 77.7005 63.6407 76.5132 61.294 75.2762C52.0133 76.7222 46.0336 71.7836 42.829 67.8256C42.778 68.9382 42.5512 70.1718 42.0233 70.9555C41.4567 71.7968 40.516 72.3633 39.1935 72.5733C38.6022 72.6672 37.9282 72.6916 37.1628 72.6384ZM72.4921 78.9113C72.5742 79.0065 72.6481 79.1003 72.7138 79.1927C72.9476 79.5214 73.133 79.9097 73.1321 80.3369C73.131 80.8039 72.9091 81.1785 72.5984 81.4412C72.3104 81.6847 71.9436 81.8383 71.5752 81.9429C71.1976 82.05 70.7606 82.1214 70.2852 82.167C69.3346 82.258 68.1547 82.2523 66.836 82.1787C61.5712 81.8846 53.6782 80.4802 48.0282 79.2812C47.1607 79.1179 46.3272 78.9487 45.5265 78.7742C36.9478 76.9048 32.0698 74.4173 29.5195 71.9371C27.1466 69.6295 26.7513 67.2656 27.4188 65.5249C26.6496 66.2915 26.0403 67.2478 25.7688 68.298C25.45 69.5313 25.5818 70.9435 26.5513 72.4302C28.079 74.7728 31.7322 77.3594 39.1305 79.4867C40.9924 80.0221 43.0854 80.5266 45.4327 80.9902C47.7778 81.4534 50.3756 81.8755 53.2487 82.2467C58.7612 82.683 66.185 83.041 71.8809 82.8345C73.075 82.7912 74.1884 82.7232 75.189 82.6267C76.2755 82.5218 77.2166 82.3844 77.9779 82.2122C78.6871 82.0519 79.2785 81.5396 79.6289 80.9392C79.8021 80.6424 79.8986 80.3531 79.9276 80.1169C79.9576 79.8733 79.9104 79.7483 79.8823 79.7045C79.6851 79.3974 79.1597 78.9339 78.0957 78.3266C76.4026 78.965 74.4705 79.0981 72.4921 78.9113ZM79.7203 77.5002C80.1896 77.8158 80.5739 78.129 80.8633 78.4435C81.3373 78.3665 81.7973 78.2884 82.2436 78.2094C81.9924 78.131 81.787 77.9271 81.7192 77.653C81.616 77.2358 81.8705 76.814 82.2877 76.7108C82.5341 76.6498 82.775 76.5888 83.0104 76.5278C82.3175 76.5978 81.5626 76.6508 80.7417 76.6854C80.4215 76.9906 80.08 77.2614 79.7203 77.5002ZM82.0417 75.0509C84.0461 74.8988 85.4892 74.6188 86.4985 74.2705C87.7837 73.827 88.2258 73.324 88.3593 72.9767C88.4874 72.6435 88.4255 72.2009 88.0605 71.6289C87.7453 71.1349 87.2599 70.6408 86.7216 70.2135C85.7346 70.3005 84.6528 70.3579 83.4686 70.3819C83.2733 72.2651 82.7838 73.8116 82.0417 75.0509ZM83.561 68.8233C84.7851 68.7958 85.8875 68.7315 86.8785 68.6362C88.1945 68.5096 89.3102 68.3285 90.2509 68.1074C90.8907 67.957 91.447 67.7887 91.9288 67.6077C94.207 66.7517 94.7238 65.6704 94.7318 64.8424C94.7366 64.3464 94.5653 63.8214 94.2772 63.3218C93.6539 63.9824 92.6881 64.5047 91.4337 64.9113C89.6248 65.4976 87.0279 65.9072 83.4497 66.0853C83.5406 67.0609 83.5766 67.9724 83.561 68.8233ZM88.7439 69.976C88.9774 70.2343 89.1911 70.5075 89.3724 70.7917C89.8637 71.5615 90.1933 72.5428 89.812 73.535C89.6975 73.8331 89.5279 74.1076 89.3061 74.3595C89.4237 74.3019 89.5373 74.2445 89.647 74.1874C91.2323 73.361 91.8887 72.6364 92.106 72.1178C92.2905 71.6776 92.2048 71.2669 91.8468 70.8189C91.5085 70.3955 90.9627 70.0003 90.3364 69.684C89.843 69.7927 89.3129 69.8904 88.7439 69.976ZM92.7634 69.5113C92.8695 69.6191 92.9697 69.7311 93.0626 69.8474C93.6729 70.611 94.003 71.6176 93.5414 72.7193C93.1126 73.7425 92.0609 74.6842 90.3664 75.5674C88.8681 76.3484 86.7792 77.1291 83.9474 77.8901C87.2618 77.2327 89.7201 76.5183 91.4989 75.7876C93.8937 74.8038 94.9078 73.8506 95.2382 73.114C95.5251 72.4742 95.3675 71.8044 94.7223 71.0534C94.2438 70.4963 93.5492 69.9685 92.7634 69.5113ZM93.9167 68.3902C94.6699 68.8635 95.3691 69.4179 95.9029 70.0393C96.7635 71.0412 97.2867 72.3496 96.6582 73.7509C96.0731 75.0555 94.5752 76.2063 92.0902 77.2272C89.707 78.2062 86.2759 79.1219 81.4928 79.9173C81.4955 80.0493 81.4879 80.1801 81.4723 80.3069C81.4134 80.7858 81.2346 81.2755 80.973 81.7237C80.9247 81.8065 80.8729 81.8889 80.8178 81.9704C88.0747 81.2821 92.9485 80.0575 96.0741 78.5804C98.3029 77.5271 99.5834 76.3735 100.237 75.2536C100.879 74.1547 100.961 73.015 100.647 71.866C100.078 69.7884 98.2119 67.705 96.0368 66.1411C95.6964 66.9895 95.0034 67.7557 93.9167 68.3902ZM78.8543 83.6997C85.5777 83.188 90.5638 82.2465 94.1685 81.0174C91.7525 83.4065 86.878 85.7207 78.8543 83.6997ZM28.7825 64.8186C29.0787 65.044 29.1783 65.4566 29.0002 65.7976C28.4663 66.8198 28.3942 68.6719 30.6045 70.8214C32.0259 72.2037 34.3699 73.6757 38.0508 75.0382C36.1882 73.9289 34.7517 72.8873 33.6599 71.924C32.052 70.5054 31.148 69.218 30.7682 68.0911C30.5245 67.3681 30.4956 66.698 30.6482 66.1252C29.8688 65.7576 29.2757 65.3117 28.9056 64.775C28.8711 64.7872 28.8357 64.7997 28.7997 64.8125C28.794 64.8145 28.7882 64.8166 28.7825 64.8186ZM25.8448 74.0941C25.4972 74.5508 25.234 75.0313 25.1046 75.4956C24.9195 76.1594 25.0032 76.7762 25.526 77.3445C26.0946 77.9626 27.2561 78.6031 29.4286 79.0293C30.7123 79.2811 32.3156 79.4517 34.2984 79.5086C30.1089 77.8709 27.4157 76.015 25.8448 74.0941ZM49.2114 83.24C51.2066 84.2332 53.6639 85.1434 56.3844 85.6375C60.1349 86.3186 64.3627 86.2061 68.5738 84.4505C63.4411 84.4625 57.6217 84.1544 53.1066 83.7966L53.0875 83.7951L53.0685 83.7927C51.7255 83.6193 50.4406 83.4348 49.2114 83.24ZM72.3634 56.1795C72.6058 56.009 72.834 55.8315 73.0482 55.6491C70.909 57.0721 67.0706 58.1956 61.2254 57.2431C65.6738 58.5605 68.9222 58.0313 71.1813 56.8885C71.5984 56.6775 71.984 56.4445 72.3393 56.1964C72.3472 56.1906 72.3552 56.185 72.3634 56.1795ZM46.883 44.3684C46.8819 44.3678 46.8858 44.3619 46.898 44.3526C46.8903 44.3643 46.8842 44.369 46.883 44.3684ZM52.4859 39.7363C52.4849 39.7361 52.484 39.7298 52.4864 39.7183C52.4881 39.7308 52.4869 39.7365 52.4859 39.7363Z" fill="#F8DC85"/>
<circle cx="61.8025" cy="61.8025" r="60.4291" stroke="#208553" stroke-width="2.74678"/>
<path d="M17.8578 28.8409C16.6314 30.1413 15.5935 31.8384 14.786 33.4338C14.5317 33.9362 14.9026 33.2059 14.1874 34.7078" stroke="#208553" stroke-width="2.06008" stroke-linecap="round"/>
<path d="M12.3574 38.4556C11.8571 39.0064 11.3076 40.4588 11.3076 40.4588" stroke="#208553" stroke-width="2.06008" stroke-linecap="round"/>
<path d="M87.6386 111.181C84.2753 111.855 88.8787 112.056 96.3521 105.709C100.667 102.045 102.143 99.6517 102.143 99.6517" stroke="#208553" stroke-width="2.06008" stroke-linecap="round"/>
</svg>
