<svg width="124" height="124" viewBox="0 0 124 124" fill="none" xmlns="http://www.w3.org/2000/svg">
<path d="M68.8909 54.1311C68.4996 52.4907 68.3307 51.0211 68.3331 49.709C67.2342 49.9358 63.6758 50.1342 58.2332 49.1137C58.0647 49.0821 57.8946 49.0543 57.7229 49.0301C57.0888 48.9407 56.4338 48.9008 55.767 48.904C55.5134 48.9052 55.2581 48.9126 55.0016 48.926C49.8694 49.1926 44.2611 51.8149 42.2455 53.9846C41.8018 54.4622 41.5322 54.9179 41.4801 55.3217C41.1751 57.6854 40.7334 58.9553 40.8292 62.3801C40.8403 62.775 40.7734 63.6309 40.7998 64.088L41.31 64.2875C41.7741 63.6812 42.9056 62.4357 44.4565 61.6304C46.1508 60.7507 48.5485 59.8453 51.7701 59.1177C55.666 58.2377 60.7668 57.6178 67.2851 57.6178C67.8732 56.4453 68.4085 55.2742 68.8909 54.1311Z" fill="#F6D164"/>
<path d="M55.767 48.904C56.4338 48.9008 57.0888 48.9407 57.7229 49.0301C57.7011 48.4926 57.7087 47.8878 57.7548 47.2428C57.8291 46.2043 58.0034 45.0614 58.3166 43.9262C58.6143 42.8475 59.0375 41.7757 59.6193 40.8074C60.1856 39.865 60.9023 39.0205 61.8 38.3628C61.8016 38.3616 61.8033 38.3604 61.8049 38.3592C63.1163 37.4001 64.8136 36.8392 66.9924 36.9529C67.2859 36.9896 67.5738 37.0705 67.847 37.2006C67.1424 36.7822 62.1074 33.2316 61.5498 32.2756C61.0735 31.4592 60.3308 31.3685 60.019 31.4252C56.3127 32.2532 54.4162 35.3847 53.7786 38.8238C53.5912 39.8346 53.5126 40.872 53.5287 41.8853C53.5547 43.5217 53.8279 45.0952 54.2893 46.3924C54.6667 47.4534 55.17 48.3295 55.767 48.904Z" fill="#F6D164"/>
<path d="M70.8606 48.7736C70.3512 50.3995 69.6945 52.2265 68.8909 54.1311C68.4085 55.2742 67.8732 56.4453 67.2851 57.6178C66.4042 59.3737 65.4047 61.1327 64.2867 62.8053C61.5384 66.9169 58.074 70.5063 53.8961 72.2448C51.6524 73.1784 49.5154 73.7681 47.518 74.0652C42.9365 74.7468 39.0901 73.8894 36.3777 72.1141C35.0834 71.267 34.0473 70.2109 33.3127 69.0133C32.644 67.923 32.2251 66.7155 32.0889 65.4416C32.0529 65.1057 32.0366 64.7652 32.0406 64.4211C32.0717 61.7194 32.789 59.2811 33.7187 57.2776C32.5073 59.8572 30.1186 65.9688 30.2547 69.7786C30.3448 72.3031 32.0082 74.7181 33.6564 76.4396C34.4955 77.3161 35.3308 78.0129 35.9524 78.4528C36.2092 78.6095 36.5508 78.7843 36.973 78.9642C38.2886 79.5248 40.3864 80.1351 43.1377 80.4035C44.0421 80.4241 44.9592 80.4692 45.881 80.5428C47.3223 80.5514 48.8926 80.4626 50.5794 80.2387C52.3671 80.0014 54.1435 79.4222 55.852 78.6285C58.3175 77.4832 60.6418 75.891 62.6553 74.2344C65.2467 72.1022 67.3232 69.8633 68.523 68.3329C69.4018 66.6888 71.0062 63.0774 70.3939 61.7848C70.1995 61.3744 70.1342 60.2959 70.1488 58.8934C70.1529 58.4921 70.1636 58.0642 70.1797 57.6178C70.2794 54.8534 70.5856 51.3804 70.8243 49.1137C70.8366 48.9971 70.8487 48.8836 70.8606 48.7736Z" fill="#F6D164"/>
<path d="M39.2691 63.1455C37.5228 61.2405 37.152 59.5848 37.5192 58.2131C37.214 58.7742 36.757 61.2244 37.2184 66.6321C37.2465 66.9613 37.278 67.3013 37.3131 67.6526C37.4027 68.1382 37.7561 68.85 38.5037 69.6475C39.8862 71.1225 42.6166 72.891 47.518 74.0652C49.5154 73.7681 51.6524 73.1784 53.8961 72.2448C58.074 70.5063 61.5384 66.9169 64.2867 62.8053C63.7326 62.954 63.1888 63.0947 62.6553 63.2279C59.8916 63.9178 57.4027 64.404 55.1717 64.7279C54.3736 64.8438 53.6085 64.9389 52.8756 65.0152C47.2244 65.6032 43.4885 65.0701 41.31 64.2875C41.1293 64.2225 40.9593 64.1559 40.7998 64.088C40.392 63.9145 40.053 63.7331 39.7793 63.552C39.5724 63.4151 39.4028 63.2784 39.2691 63.1455Z" fill="#F6D164"/>
<path d="M70.3939 61.7848C71.0062 63.0774 69.4018 66.6888 68.523 68.3329C67.3232 69.8633 65.2467 72.1022 62.6553 74.2344C67.2559 73.8891 75.8003 71.6407 82.0446 69.8102C83.9261 69.2587 85.5989 68.7451 86.8919 68.3329C88.6788 67.7899 91.5309 65.3783 93.5134 61.8327C94.739 59.641 95.6322 57.0159 95.7362 54.1311L86.8919 57.2776L70.3939 61.7848Z" fill="#F6D164"/>
<path d="M67.7577 79.1331C67.1908 78.8721 65.3766 77.5268 62.6553 74.2344C60.6418 75.891 58.3175 77.4832 55.852 78.6285C56.0332 79.6755 56.6218 82.1096 57.5269 83.4702C59.4555 84.4271 61.2029 85.6488 62.6553 87.191C64.152 88.1266 66.2837 88.6728 67.1624 88.8289C72.0888 87.5387 76.9542 85.7868 79.9186 83.5553L78.7009 88.9128C84.0755 86.3956 86.5518 82.9316 86.8919 81.5993C77.9797 84.4567 70.4224 81.1458 67.7577 79.1331Z" fill="#F6D164"/>
<path d="M31.9555 81.3442C34.1666 83.6686 38.6057 88.8788 38.6738 91.1239C38.9228 91.3176 40.5656 91.5869 45.1369 91.1567C45.2485 91.1462 45.3619 91.1352 45.477 91.1239C50.3074 90.6477 52.9323 91.0955 53.641 91.379C54.2285 91.3122 54.8849 91.2291 55.5969 91.1294C58.0597 90.7845 61.1887 90.2418 64.4411 89.496C63.9139 88.6581 63.315 87.8915 62.6553 87.191C61.2029 85.6488 59.4555 84.4271 57.5269 83.4702C54.0159 81.7282 49.9047 80.864 45.881 80.5428C44.9063 80.537 43.9906 80.4867 43.1377 80.4035C41.6906 80.3705 40.2763 80.4001 38.9289 80.4759C36.2524 80.6264 33.8395 80.9589 31.9555 81.3442Z" fill="#F6D164"/>
<path d="M66.142 93.3349C67.7067 94.0153 69.4019 95.4893 70.0538 96.1413C70.6712 96.4499 71.3031 96.6653 71.9247 96.809C74.0436 97.2991 76.0436 96.9584 76.9421 96.6515L77.3673 94.7806L78.7009 88.9128L79.9186 83.5553C76.9542 85.7868 72.0888 87.5387 67.1624 88.8289C66.2536 89.067 65.3426 89.2893 64.4411 89.496C61.1887 90.2418 58.0597 90.7845 55.5969 91.1294C62.06 90.8797 64.186 92.4845 66.142 93.3349Z" fill="#F6D164"/>
<path d="M53.7786 38.8238C51.5217 39.4758 46.7161 41.476 45.4916 44.4014C45.5223 44.4091 45.5531 44.4169 45.584 44.4248C46.634 44.6937 47.7135 45.0799 48.7596 45.5219C49.5079 43.685 52.2621 42.3105 53.5287 41.8853C53.5126 40.872 53.5912 39.8346 53.7786 38.8238Z" fill="#F6D164"/>
<path d="M71.6696 41.733C71.189 41.47 70.543 41.1446 69.7987 40.8074C67.558 39.7923 64.3561 38.5687 61.8049 38.3592C61.8033 38.3604 61.8016 38.3616 61.8 38.3628C60.9023 39.0205 60.1856 39.865 59.6193 40.8074C60.2409 40.7794 60.8588 40.8358 61.4647 40.9576C65.0704 41.0777 68.3647 43.2702 69.5611 44.3514C70.1502 43.2416 70.8955 42.3799 71.6696 41.733Z" fill="#F6D164"/>
<path d="M72.983 42.4805C72.4861 43.459 72.0431 44.5868 71.6696 45.8822C72.5541 46.309 73.6256 47.4306 74.0508 47.9381C75.5671 47.3931 77.2745 46.8052 78.8981 46.2851C78.5389 46.0163 78.0991 45.6925 77.6225 45.3487C75.8 44.0341 73.4384 42.4266 72.983 42.4805Z" fill="#F6D164"/>
<path d="M84.9284 51.8813C84.8607 51.6475 84.326 50.8376 82.5821 49.1137C81.4011 50.3563 80.1251 51.6154 78.829 52.7705L79.8335 53.7798C81.5883 52.9296 83.4345 52.2977 84.9284 51.8813Z" fill="#F6D164"/>
<path d="M58.2332 49.1137C63.6758 50.1342 67.2342 49.9358 68.3331 49.709C68.336 48.1661 68.5757 46.841 68.969 45.7121C68.2919 44.9052 67.071 43.7279 65.5467 42.7281C65.4125 42.6414 62.2604 42.7491 59.934 43.341C59.2749 44.103 57.9163 45.9502 57.7548 47.2428C57.7087 47.8878 57.7011 48.4926 57.7229 49.0301C57.8946 49.0543 58.0647 49.0821 58.2332 49.1137Z" fill="#F6D164"/>
<path d="M71.6696 45.8822C72.0431 44.5868 72.4861 43.459 72.983 42.4805C73.4119 41.6363 73.8809 40.9032 74.3804 40.2695C73.5849 40.4822 72.6062 40.9504 71.6696 41.733C70.8955 42.3799 70.1502 43.2416 69.5611 44.3514C69.3393 44.7692 69.1397 45.2222 68.969 45.7121C68.5757 46.841 68.336 48.1661 68.3331 49.709C68.3307 51.0211 68.4996 52.4907 68.8909 54.1311C69.6945 52.2265 70.3512 50.3995 70.8606 48.7736C70.9797 48.3935 71.0907 48.0245 71.1937 47.668C71.3782 47.0295 71.5368 46.4312 71.6696 45.8822Z" fill="#F6D164"/>
<path d="M64.2867 62.8053C65.4047 61.1327 66.4042 59.3737 67.2851 57.6178C60.7668 57.6178 55.666 58.2377 51.7701 59.1177C52.4821 59.5507 53.7324 60.0932 55.1717 60.6506C57.7205 61.6378 60.8617 62.6718 62.6553 63.2279C63.1888 63.0947 63.7326 62.954 64.2867 62.8053Z" fill="#F6D164"/>
<path d="M62.6553 63.2279C60.8617 62.6718 57.7205 61.6378 55.1717 60.6506V64.7279C57.4027 64.404 59.8916 63.9178 62.6553 63.2279Z" fill="#F6D164"/>
<path d="M70.8243 49.1137C70.5856 51.3804 70.2794 54.8534 70.1797 57.6178C71.4473 57.6733 72.9935 57.0419 74.646 56.0012C76.0006 55.1482 77.4266 54.0203 78.829 52.7705C80.1251 51.6154 81.4011 50.3563 82.5821 49.1137C83.3256 48.3315 84.0314 47.5559 84.6809 46.8169C85.0511 46.3957 85.4031 45.9863 85.7333 45.5945C85.4904 45.2004 85.2243 44.8051 84.9362 44.4181C83.661 44.7992 82.1619 45.2559 80.5989 45.7461C80.0377 45.9222 79.4683 46.1025 78.8981 46.2851C77.2745 46.8052 75.5671 47.3931 74.0508 47.9381C73.315 48.2026 72.6242 48.4569 72.0098 48.6885C71.5172 48.8742 71.232 48.9452 70.8243 49.1137Z" fill="#F6D164"/>
<path d="M70.1797 57.6178C70.1636 58.0642 70.1529 58.4921 70.1488 58.8934C70.8258 59.1769 72.9452 59.0465 76.0067 56.2571C75.7232 56.2566 75.0542 56.2047 74.646 56.0012C72.9935 57.0419 71.4473 57.6733 70.1797 57.6178Z" fill="#F6D164"/>
<path d="M74.646 56.0012C75.0542 56.2047 75.7232 56.2566 76.0067 56.2571C77.0691 55.2892 78.4218 54.4639 79.8335 53.7798L78.829 52.7705C77.4266 54.0203 76.0006 55.1482 74.646 56.0012Z" fill="#F6D164"/>
<path d="M77.0272 74.711C75.8706 75.7995 70.3657 78.1126 67.7577 79.1331C70.4224 81.1458 77.9797 84.4567 86.8919 81.5993C87.3181 81.4851 87.8266 81.2146 88.3696 80.7489C90.6392 78.8027 93.5134 73.4468 93.5134 61.8327C91.8058 67.0415 88.3876 69.924 86.8919 70.7141C86.657 70.7877 86.4003 70.8693 86.1266 70.9578C83.1306 71.9261 78.0869 73.7136 77.0272 74.711Z" fill="#F6D164"/>
<path d="M86.8919 37.9734C83.9644 36.4209 78.2571 35.3508 74.3804 40.2695C73.8809 40.9032 73.4119 41.6363 72.983 42.4805C78.1884 38.2633 82.4105 41.0253 84.9362 44.4181C85.2243 44.8051 85.4904 45.2004 85.7333 45.5945C86.2121 46.3711 86.601 47.1431 86.8919 47.8381V51.4098C87.9179 51.2397 90.5465 51.0016 92.853 51.4098C93.0881 51.5852 93.3081 51.7555 93.5134 51.9201C93.0279 44.9356 88.8968 39.7121 86.8919 37.9734Z" fill="#F6D164"/>
<path d="M33.7187 57.2776C32.789 59.2811 32.0717 61.7194 32.0406 64.4211C32.0366 64.7652 32.0529 65.1057 32.0889 65.4416C33.5389 61.6998 35.0987 60.1974 35.6973 59.9139C35.9014 58.009 36.5771 56.3422 36.8895 55.7469C35.7051 51.1573 39.8191 52.5578 42.2455 53.9846C44.2611 51.8149 49.8694 49.1926 55.0016 48.926C54.5967 48.645 54.058 48.2954 53.4224 47.9129C52.1557 47.1509 50.5041 46.2589 48.7596 45.5219C47.7135 45.0799 46.634 44.6937 45.584 44.4248C45.5531 44.4169 45.5223 44.4091 45.4916 44.4014C45.1423 44.3141 44.7965 44.24 44.4565 44.1814C43.266 44.0963 40.7998 44.5045 40.4596 46.8176C39.7793 48.1499 38.3506 50.9166 38.0785 51.3248C37.8064 51.733 37.3414 52.1185 37.143 52.2602C36.2339 53.1231 34.8258 54.892 33.7187 57.2776Z" fill="#F6D164"/>
<path d="M70.3939 61.7848L86.8919 57.2776L95.7362 54.1311C95.4604 53.6978 94.7539 52.914 93.5134 51.9201C93.3081 51.7555 93.0881 51.5852 92.853 51.4098C90.5465 51.0016 87.9179 51.2397 86.8919 51.4098C86.3705 51.5103 85.696 51.6674 84.9284 51.8813C83.4345 52.2977 81.5883 52.9296 79.8335 53.7798C78.4218 54.4639 77.0691 55.2892 76.0067 56.2571C72.9452 59.0465 70.8258 59.1769 70.1488 58.8934C70.1342 60.2959 70.1995 61.3744 70.3939 61.7848Z" fill="#F6D164"/>
<path d="M51.7762 58.9609C48.5547 59.6885 46.157 60.5939 44.4627 61.4737C44.3682 62.148 45.9196 63.769 52.8818 64.8584C53.6146 64.7822 54.3798 64.6871 55.1779 64.5712V60.4939C53.7386 59.9364 52.4883 59.394 51.7762 58.9609Z" fill="#DDC479"/>
<path d="M53.4285 47.7562C53.2244 47.2119 53.9376 46.4625 54.2955 46.2357C53.8341 44.9385 53.5609 43.3649 53.5348 41.7285C52.2683 42.1537 49.5141 43.5282 48.7658 45.3651C50.5103 46.1021 52.1619 46.9942 53.4285 47.7562Z" fill="#DDC479"/>
<path d="M59.6255 40.6507C59.0436 41.619 58.6205 42.6907 58.3228 43.7695C58.7535 43.536 59.3172 43.3428 59.9401 43.1843C62.2666 42.5923 65.4187 42.4847 65.5528 42.5714C64.3433 41.7781 62.9426 41.0967 61.4709 40.8008C60.865 40.6791 60.2471 40.6226 59.6255 40.6507Z" fill="#DDC479"/>
<path d="M61.811 38.2025C64.3623 38.4119 67.5642 39.6356 69.8049 40.6507C69.6492 38.6952 68.8896 37.579 67.934 37.0841C67.9286 37.0861 67.9008 37.0722 67.8532 37.0439C67.58 36.9138 67.292 36.8328 66.9985 36.7961C64.8198 36.6825 63.1224 37.2433 61.811 38.2025Z" fill="#DDC479"/>
<path d="M86.8981 47.6814C86.6146 47.5392 85.7755 47.1359 84.687 46.6602C84.0375 47.3991 83.3317 48.1748 82.5883 48.957C84.3321 50.6809 84.8668 51.4908 84.9346 51.7246C85.7021 51.5106 86.3767 51.3536 86.8981 51.2531V47.6814Z" fill="#DDC479"/>
<path d="M78.9042 46.1284C79.4745 45.9457 80.0439 45.7654 80.6051 45.5894C80.2082 45.4208 79.0573 45.1053 77.6286 45.1919C78.1053 45.5358 78.5451 45.8596 78.9042 46.1284Z" fill="#DDC479"/>
<path d="M71.6758 45.7254C71.543 46.2744 71.3843 46.8727 71.1999 47.5113C71.4953 47.5793 71.8103 48.2558 72.0159 48.5318C72.6304 48.3002 73.3212 48.0458 74.0569 47.7814C73.6317 47.2739 72.5602 46.1522 71.6758 45.7254Z" fill="#DDC479"/>
<path d="M65.5528 42.5714C67.0772 43.5711 68.2981 44.7485 68.9752 45.5553C69.1459 45.0655 69.3455 44.6125 69.5673 44.1947C68.3708 43.1135 65.0766 40.921 61.4709 40.8008C62.9426 41.0967 64.3433 41.7781 65.5528 42.5714Z" fill="#DDC479"/>
<path d="M70.8668 48.6168C70.8549 48.7268 70.8428 48.8403 70.8305 48.957C71.2382 48.7885 71.5233 48.7175 72.0159 48.5318C71.8103 48.2558 71.4953 47.5793 71.1999 47.5113C71.0969 47.8678 70.9859 48.2368 70.8668 48.6168Z" fill="#DDC479"/>
<path d="M44.4627 61.4737C42.9118 62.279 41.7803 63.5245 41.3162 64.1307C43.4946 64.9133 47.2305 65.4465 52.8818 64.8584C45.9196 63.769 44.3682 62.148 44.4627 61.4737Z" fill="#DDC479"/>
<path d="M41.4863 55.165C41.5384 54.7612 41.808 54.3055 42.2517 53.8279C40.7208 54.3693 38.6922 55.5504 37.8224 57.2812C37.7787 57.3681 37.738 57.4564 37.7003 57.5461C37.6309 57.7115 37.5722 57.8816 37.5254 58.0563C37.1581 59.4281 37.529 61.0837 39.2752 62.9887C39.409 63.1216 39.5786 63.2583 39.7855 63.3952C39.7855 62.836 40.4854 62.381 40.8354 62.2233C40.7396 58.7985 41.1813 57.5287 41.4863 55.165Z" fill="#DDC479"/>
<path d="M37.5254 58.0563C36.7173 59.3036 34.7448 63.2098 33.3189 68.8565C34.0535 70.0541 35.0896 71.1103 36.3838 71.9574C36.2478 69.8118 36.8876 67.4087 37.2246 66.4754C36.7632 61.0677 37.2202 58.6175 37.5254 58.0563Z" fill="#DDC479"/>
<path d="M36.3838 71.9574C39.0963 73.7327 42.9427 74.5901 47.5242 73.9085C42.6228 72.7342 39.8924 70.9658 38.5099 69.4908L36.3838 71.9574Z" fill="#DDC479"/>
<path d="M35.9586 78.2961C35.3369 77.8561 34.5017 77.1594 33.6625 76.2829C32.8405 77.7193 31.3494 80.7112 31.9617 81.1875C33.8456 80.8022 36.2586 80.4696 38.9351 80.3191L36.9791 78.8074C36.557 78.6275 36.2154 78.4528 35.9586 78.2961Z" fill="#DDC479"/>
<path d="M55.8582 78.4718C54.1496 79.2655 52.3733 79.8446 50.5856 80.0819C48.8987 80.3058 47.3285 80.3946 45.8871 80.3861C49.9109 80.7073 54.0221 81.5714 57.5331 83.3135C56.6279 81.9528 56.0393 79.5187 55.8582 78.4718Z" fill="#DDC479"/>
<path d="M36.9791 78.8074L38.9351 80.3191C40.2825 80.2433 41.6967 80.2137 43.1439 80.2467C40.3926 79.9784 38.2948 79.3681 36.9791 78.8074Z" fill="#DDC479"/>
<path d="M67.7639 78.9764C70.3718 77.9559 75.8768 75.6428 77.0333 74.5543C78.0931 73.5569 83.1367 71.7694 86.1327 70.801C84.9762 70.0435 82.9295 69.7204 82.0508 69.6535C75.8064 71.4839 67.2621 73.7324 62.6614 74.0776C65.3828 77.3701 67.197 78.7153 67.7639 78.9764Z" fill="#DDC479"/>
<path d="M86.8981 68.1762C85.605 68.5884 83.9323 69.1019 82.0508 69.6535C82.9295 69.7204 84.9762 70.0435 86.1327 70.801C86.4065 70.7126 86.6631 70.6309 86.8981 70.5573C88.3938 69.7672 91.812 66.8847 93.5196 61.676C91.537 65.2215 88.6849 67.6331 86.8981 68.1762Z" fill="#DDC479"/>
<path d="M86.8981 81.4426C86.5579 82.7749 84.0817 86.2389 78.7071 88.7561L77.3735 94.6239C79.698 93.7451 84.8401 91.5964 86.813 90.0317C87.7415 88.7844 89.3539 85.1504 88.3758 80.5922C87.8327 81.0579 87.3243 81.3283 86.8981 81.4426Z" fill="#DDC479"/>
<path d="M70.06 95.9846C69.408 95.3326 67.7129 93.8585 66.1481 93.1782C64.1922 92.3278 62.0662 90.723 55.6031 90.9726C59.033 93.0401 65.944 97.3282 66.1481 97.9405C66.3522 98.5528 70.0883 97.3368 71.9309 96.6523C71.3092 96.5085 70.6773 96.2932 70.06 95.9846Z" fill="#DDC479"/>
<path d="M64.4473 89.3393C65.3488 89.1325 66.2597 88.9102 67.1686 88.6722C66.2899 88.5161 64.1582 87.9699 62.6614 87.0342C63.3212 87.7347 63.92 88.5013 64.4473 89.3393Z" fill="#DDC479"/>
<path d="M53.6471 91.2223C52.9384 90.9388 50.3135 90.4909 45.4832 90.9671C45.3681 90.9785 45.2547 90.9894 45.143 90.9999C45.7383 91.6126 46.9969 93.0081 47.2691 93.6885C47.5412 94.3688 52.9384 92.1614 55.6031 90.9726C54.891 91.0723 54.2347 91.1555 53.6471 91.2223Z" fill="#DDC479"/>
<path d="M37.1796 56.3444C37.3569 56.7563 37.5691 57.2127 37.7003 57.5461C37.738 57.4564 37.7787 57.3681 37.8224 57.2812C38.6922 55.5504 40.7208 54.3693 42.2517 53.8279C41.1325 53.0785 38.464 51.7667 36.7432 52.5151C36.7315 52.5277 36.7197 52.5405 36.7078 52.5533C36.16 53.1911 36.637 54.9495 37.1796 56.3444Z" fill="#DDC479"/>
<path d="M33.7249 57.1209C32.7952 59.1243 32.0778 61.5626 32.0468 64.2643C32.0428 64.6085 32.0591 64.949 32.095 65.2848C33.5451 61.543 35.1049 60.0406 35.7035 59.7572C35.9076 57.8523 36.5833 56.1855 36.8956 55.5902C36.9441 55.778 37.0529 56.0499 37.1796 56.3444C36.637 54.9495 36.16 53.1911 36.7078 52.5533C35.8233 53.5124 34.6654 55.0941 33.7249 57.1209Z" fill="#DDC479"/>
<path d="M55.7731 48.7473C55.1762 48.1727 54.6729 47.2966 54.2955 46.2357C53.9376 46.4625 53.2244 47.2119 53.4285 47.7562C54.0642 48.1386 54.6029 48.4883 55.0078 48.7692C55.2643 48.7559 55.5195 48.7485 55.7731 48.7473Z" fill="#DDC479"/>
<path d="M59.9401 43.1843C59.3172 43.3428 58.7535 43.536 58.3228 43.7695C58.0096 44.9046 57.8352 46.0476 57.7609 47.0861C57.9225 45.7935 59.2811 43.9463 59.9401 43.1843Z" fill="#DDC479"/>
<path d="M74.6522 55.8445C75.0604 56.0479 75.7294 56.0999 76.0129 56.1004C77.0753 55.1324 78.4279 54.3071 79.8397 53.6231L78.8352 52.6137C77.4327 53.8636 76.0068 54.9915 74.6522 55.8445Z" fill="#DDC479"/>
<path fill-rule="evenodd" clip-rule="evenodd" d="M60.0752 31.5188C56.512 32.3175 54.6629 35.3295 54.0355 38.7136C53.8514 39.7065 53.7739 40.7269 53.7898 41.7245C53.8154 43.3369 54.0848 44.8825 54.5357 46.1502C54.8895 47.1448 55.3496 47.9533 55.8778 48.492C56.4152 48.4931 56.9459 48.5221 57.465 48.5823C57.4559 48.1143 57.468 47.6046 57.5063 47.0679C57.5816 46.015 57.7584 44.8552 58.0767 43.7017C58.3792 42.6057 58.8104 41.5115 59.4067 40.5193C59.9871 39.5533 60.7255 38.6815 61.6552 38.0003C61.6553 38.0003 61.6552 38.0003 61.6552 38.0003C61.8256 37.8755 62.0021 37.7573 62.1849 37.6462C63.3801 36.9199 64.846 36.4977 66.6279 36.5281C66.023 36.1059 65.2557 35.5552 64.4965 34.9873C63.7864 34.4563 63.0783 33.9064 62.5113 33.4279C62.228 33.1888 61.9775 32.9654 61.7786 32.7697C61.5846 32.5788 61.4235 32.3986 61.3354 32.2475C60.9239 31.5421 60.3016 31.4799 60.0752 31.5188ZM66.9757 37.0505C65.1666 36.9577 63.7101 37.3418 62.5395 38.0287C64.8393 38.3578 67.4971 39.3518 69.5039 40.2368C69.2853 38.6311 68.6161 37.7358 67.8401 37.3231C67.8218 37.3165 67.8057 37.3088 67.7955 37.3038C67.7765 37.2943 67.7552 37.2824 67.7334 37.2696C67.4918 37.1559 67.2369 37.084 66.9757 37.0505ZM67.9738 36.8189C67.6181 36.6053 66.206 35.6288 64.8021 34.5787C64.0956 34.0504 63.3964 33.5072 62.8404 33.038C62.5623 32.8032 62.3225 32.5891 62.1365 32.4061C61.9457 32.2182 61.8274 32.0783 61.7761 31.9904C61.2379 31.0677 60.3805 30.9446 59.9794 31.0175L59.9744 31.0185L59.9694 31.0196C56.1802 31.8661 54.2389 35.0331 53.5632 38.4664C52.4166 38.8106 50.7129 39.4642 49.1262 40.3826C47.5497 41.295 46.0446 42.4938 45.3516 43.9467C45.0672 43.8796 44.7849 43.8214 44.5059 43.7733L44.4934 43.7711L44.4808 43.7702C43.8534 43.7254 42.8932 43.8091 42.0365 44.2127C41.1791 44.6166 40.4157 45.348 40.2197 46.5816C39.8794 47.2478 39.3631 48.251 38.896 49.1427C38.4155 50.06 37.9987 50.8369 37.8722 51.0266C37.6249 51.3976 37.1883 51.762 37.0007 51.8959L36.9863 51.9063L36.9734 51.9185C36.8436 52.0416 36.7049 52.1818 36.5592 52.3382C36.5447 52.3529 36.5308 52.368 36.5173 52.3835C35.616 53.3614 34.4447 54.9637 33.4936 57.013C32.8836 58.312 31.9793 60.4953 31.244 62.8336C30.5107 65.1656 29.9361 67.6806 30.0057 69.6311C30.0969 72.1833 31.729 74.5956 33.3474 76.3214C32.942 77.0433 32.4128 78.0715 32.0376 78.9997C31.8359 79.4987 31.6735 79.9813 31.6023 80.3771C31.5669 80.5742 31.5513 80.7643 31.572 80.9305C31.5917 81.0887 31.6489 81.2576 31.7878 81.375C32.8882 82.5328 34.5373 84.4022 35.9197 86.2595C36.6134 87.1915 37.2361 88.1153 37.6885 88.9414C38.1462 89.7771 38.4097 90.4782 38.4248 90.9749L38.4284 91.0949L38.5232 91.1686C38.5895 91.2202 38.6761 91.2566 38.7632 91.2847C38.8554 91.3144 38.97 91.3416 39.1077 91.3658C39.3834 91.4143 39.7673 91.4534 40.281 91.4725C41.2907 91.5102 42.8187 91.4712 45.0444 91.2654C45.3374 91.5712 45.7509 92.0234 46.1307 92.4817C46.5573 92.9965 46.9132 93.486 47.032 93.7833C47.0839 93.913 47.1901 93.9847 47.2876 94.0217C47.3821 94.0576 47.4888 94.0696 47.5924 94.071C47.8012 94.0738 48.0677 94.0336 48.3664 93.9674C48.9684 93.834 49.7641 93.5803 50.6248 93.2717C52.2979 92.6718 54.2506 91.8523 55.5851 91.2599C57.2979 92.2936 59.8155 93.8424 61.9469 95.2167C63.0369 95.9196 64.0231 96.5751 64.7485 97.092C65.1117 97.3508 65.4056 97.5722 65.6133 97.7459C65.7175 97.833 65.7959 97.9046 65.8492 97.9604C65.8954 98.0087 65.9082 98.0304 65.9089 98.03C65.9089 98.03 65.9089 98.0299 65.9089 98.0298C65.9831 98.2381 66.1864 98.3118 66.3315 98.3396C66.4922 98.3704 66.6904 98.3679 66.9026 98.3478C67.3315 98.3072 67.8914 98.1869 68.4899 98.0295C69.6603 97.7216 71.023 97.2595 71.9482 96.9179C74.0922 97.3952 76.1047 97.0525 77.0306 96.7363L77.1654 96.6903L77.5918 94.8139C78.7648 94.3669 80.5685 93.6319 82.332 92.8167C84.1537 91.9746 85.9583 91.0352 86.9714 90.2316L86.9976 90.2109L87.0176 90.1841C87.9742 88.899 89.5859 85.2555 88.6558 80.6857C90.9832 78.5943 93.7638 73.1513 93.7745 61.7423C94.9996 59.5334 95.8924 56.8901 95.9971 53.9836L96 53.9044L95.9574 53.8375C95.6666 53.3805 94.9621 52.6026 93.7659 51.6343C93.2387 44.6214 89.0962 39.3855 87.0651 37.624L87.0432 37.6049L87.0175 37.5913C85.52 36.7972 83.3143 36.1265 80.981 36.2835C78.6592 36.4398 76.2164 37.4162 74.2384 39.889C73.4611 40.1099 72.538 40.5558 71.6466 41.2705C71.2111 41.0371 70.6643 40.7637 70.0458 40.4802C69.8589 38.5575 69.0824 37.3916 68.0512 36.8576C68.0255 36.8443 67.9997 36.8314 67.9738 36.8189ZM71.2298 41.6271C70.8029 41.4032 70.2819 41.147 69.6995 40.8831C67.4902 39.8823 64.3741 38.6928 61.8852 38.465C61.1766 38.9983 60.5843 39.6554 60.0926 40.3901C60.5676 40.3999 61.038 40.4549 61.5003 40.5466C64.9603 40.6695 68.1182 42.645 69.4962 43.7957C70.0002 42.9187 70.6002 42.2014 71.2298 41.6271ZM69.2489 44.2547C68.3487 43.4838 66.5366 42.2705 64.3632 41.5794C64.827 41.8187 65.2718 42.0822 65.6926 42.3581C67.0454 43.2453 68.1631 44.2704 68.8852 45.0653C68.9972 44.7825 69.1189 44.5124 69.2489 44.2547ZM68.6868 45.6105C68.0144 44.833 66.8676 43.7448 65.4503 42.8095C65.4291 42.8073 65.3987 42.8052 65.3581 42.8035C65.2618 42.7996 65.1242 42.7989 64.9515 42.8025C64.6068 42.8095 64.1328 42.833 63.5893 42.8777C62.5252 42.9652 61.2078 43.1328 60.0809 43.412C59.7593 43.7907 59.2925 44.4015 58.8811 45.07C58.4438 45.7806 58.0902 46.5234 58.0148 47.1112C57.9757 47.6614 57.9651 48.181 57.977 48.6527C58.0806 48.6692 58.1837 48.6871 58.2862 48.7063C63.4048 49.666 66.8299 49.5392 68.0859 49.3389C68.1085 47.9213 68.3296 46.6836 68.6868 45.6105ZM68.0865 49.8549C66.6881 50.0605 63.2364 50.1536 58.1922 49.2078C58.0277 49.177 57.8613 49.1497 57.6933 49.1261C57.0728 49.0386 56.4301 48.9993 55.7742 49.0024C55.5248 49.0036 55.2735 49.0109 55.0209 49.0241C52.4903 49.1555 49.8342 49.8688 47.5593 50.8203C45.2789 51.7741 43.4108 52.9548 42.4384 54.0016C42.0075 54.4654 41.7811 54.8727 41.7392 55.1977C41.6578 55.8285 41.5676 56.3784 41.4806 56.9086C41.2378 58.3884 41.0203 59.7144 41.0903 62.2163C41.0953 62.3976 41.0849 62.6674 41.0744 62.9415C41.0728 62.9822 41.0713 63.023 41.0697 63.0636C41.0604 63.3132 41.0526 63.5578 41.0552 63.7549L41.2327 63.8243C41.7676 63.1627 42.8693 62.0136 44.345 61.2473C46.0622 60.3557 48.4813 59.4436 51.7199 58.7121C55.6055 57.8345 60.6745 57.216 67.1333 57.2061C67.6782 56.1122 68.1769 55.0202 68.6294 53.952C68.2769 52.4509 68.1082 51.0884 68.0865 49.8549ZM68.9715 53.1274C69.6325 51.501 70.1831 49.9452 70.6232 48.5406C70.7417 48.1624 70.8522 47.7952 70.9546 47.4405C71.1381 46.8053 71.2958 46.2106 71.4277 45.6655L71.429 45.6601L71.4305 45.6548C71.808 44.3458 72.2565 43.2027 72.7616 42.2083C73.055 41.6308 73.3674 41.1033 73.696 40.6227C73.1084 40.8726 72.4652 41.2491 71.8392 41.7721C71.0889 42.3991 70.3652 43.2354 69.7925 44.3144C69.5768 44.7207 69.3824 45.1617 69.2159 45.6394C68.8326 46.7397 68.5971 48.0364 68.5943 49.5528C68.5923 50.6302 68.7078 51.819 68.9715 53.1274ZM66.8755 57.7171C60.9334 57.7414 56.1963 58.2853 52.4964 59.0649C53.2036 59.4219 54.1764 59.8325 55.2699 60.256C57.7791 61.2279 60.8675 62.2464 62.6687 62.8064C63.1487 62.6862 63.637 62.5598 64.1338 62.4271C65.1454 60.906 66.0594 59.3135 66.8755 57.7171ZM63.6972 63.0701C63.3688 63.1558 63.0441 63.2386 62.7231 63.3188C59.9518 64.0106 57.4546 64.4985 55.2144 64.8237C54.413 64.9401 53.6445 65.0356 52.908 65.1123C51.5099 65.2577 50.2265 65.3351 49.0528 65.3571C47.9156 65.3783 46.8814 65.3476 45.9456 65.2764C43.9345 65.1233 42.3777 64.7833 41.2298 64.3709C41.2244 64.3689 41.219 64.367 41.2136 64.365C41.141 64.3388 41.07 64.3123 41.0007 64.2856C40.899 64.2463 40.8007 64.2064 40.7059 64.1661C40.4962 64.0769 40.303 63.9851 40.1262 63.8918C39.9494 63.7985 39.7889 63.7036 39.6446 63.6081C39.4264 63.4637 39.2431 63.3166 39.0952 63.1697L39.091 63.1655L39.087 63.1612C38.1783 62.1699 37.6235 61.2317 37.35 60.3542C37.3472 60.3911 37.3445 60.4284 37.3419 60.4662C37.2483 61.8087 37.2488 63.7596 37.4787 66.4538C37.5063 66.7782 37.5373 67.1134 37.5719 67.4596C37.6528 67.8816 37.9741 68.5463 38.6959 69.3164C40.0304 70.7402 42.6976 72.4826 47.5354 73.6489C49.4964 73.3528 51.5966 72.7712 53.8041 71.8526C57.7262 70.2206 61.0274 66.9218 63.6972 63.0701ZM46.1488 73.8134C42.2278 72.7026 39.8566 71.2008 38.5208 69.8687L36.7696 71.9005C39.1341 73.3615 42.3436 74.1396 46.1488 73.8134ZM36.6203 71.2922L38.1689 69.4954C37.5845 68.834 37.2503 68.2222 37.1138 67.7365C36.8667 68.7114 36.6271 70.0184 36.6203 71.2922ZM36.9656 66.4419C36.7387 63.7567 36.7377 61.7962 36.8329 60.4307C36.8512 60.1671 36.8732 59.9252 36.8979 59.7044C35.9568 61.5734 34.6334 64.7282 33.5927 68.8141C34.2214 69.8113 35.0689 70.7078 36.1105 71.46C36.0895 69.4505 36.6455 67.3496 36.9656 66.4419ZM33.2301 68.1811C34.6333 62.8896 36.4821 59.212 37.2895 57.9513C37.3271 57.8163 37.3713 57.6842 37.4215 57.5549C37.2726 57.2403 37.1051 56.8565 36.9434 56.4412C36.9174 56.3807 36.8918 56.3205 36.8671 56.261C36.5408 57.0442 36.1112 58.3454 35.957 59.7844L35.9418 59.9266L35.8126 59.9878C35.57 60.1027 35.0609 60.5089 34.424 61.3753C33.7999 62.2242 33.0665 63.4968 32.3553 65.319C32.4705 66.3249 32.7676 67.2877 33.2301 68.1811ZM32.3043 64.113C32.8936 62.7827 33.4854 61.7905 34.0129 61.0731C34.5936 60.2831 35.1075 59.811 35.4648 59.5965C35.6795 57.7916 36.2963 56.2169 36.627 55.555C36.4805 55.1015 36.3569 54.6388 36.2832 54.208C36.2433 53.9748 36.2174 53.7467 36.2113 53.5316C35.4778 54.4622 34.6563 55.7197 33.9562 57.2284C33.0561 59.168 32.3597 61.5159 32.3043 64.113ZM36.8937 52.7286C36.8096 52.8318 36.7491 52.9981 36.7282 53.2406C36.7069 53.4873 36.7289 53.787 36.7861 54.122C36.8291 54.373 36.8908 54.6382 36.9653 54.908L36.9771 54.8855L37.0966 55.3486C37.1937 55.6535 37.3029 55.9577 37.4157 56.2478C37.4773 56.3909 37.5448 56.5431 37.6122 56.6951C37.648 56.7758 37.6838 56.8564 37.7186 56.9356C38.5861 55.4232 40.2718 54.3576 41.6825 53.7733C41.1409 53.4561 40.4138 53.0996 39.6449 52.8528C38.6604 52.5368 37.6605 52.418 36.8937 52.7286ZM41.4907 54.4146C40.1642 55.0307 38.7278 56.0476 38.0502 57.3958C38.0466 57.4031 38.0429 57.4104 38.0393 57.4177C38.0023 57.4924 37.9676 57.5682 37.9355 57.6449C37.9331 57.6505 37.9308 57.6561 37.9284 57.6617C37.8664 57.8117 37.8138 57.9652 37.7717 58.1224C37.4339 59.3839 37.7554 60.9514 39.459 62.8119C39.5095 62.8618 39.5664 62.9131 39.63 62.9653C39.7214 62.7701 39.8636 62.6037 40.0053 62.4719C40.19 62.3002 40.4002 62.1623 40.576 62.0675C40.5185 59.6172 40.7408 58.2627 40.9804 56.8024C41.0664 56.2779 41.1547 55.7398 41.2331 55.1324C41.2635 54.8969 41.3535 54.6563 41.4907 54.4146ZM40.5739 62.6678C40.4985 62.7208 40.4228 62.7805 40.3528 62.8456C40.2005 62.9871 40.0995 63.1308 40.0596 63.2675C40.1494 63.3225 40.246 63.3777 40.3496 63.4327C40.4124 63.4661 40.4777 63.4994 40.5456 63.5325C40.548 63.3744 40.5538 63.2064 40.5598 63.0445C40.5614 63.0029 40.563 62.9618 40.5645 62.9212C40.5679 62.8333 40.5712 62.7482 40.5739 62.6678ZM42.2138 53.4992C41.6278 53.1293 40.747 52.6706 39.8009 52.367C39.0999 52.142 38.3378 51.9938 37.6249 52.048C37.8471 51.853 38.1106 51.5889 38.2968 51.3096C38.4425 51.0911 38.876 50.2806 39.348 49.3794C39.8248 48.4692 40.3524 47.4436 40.6929 46.777L40.712 46.7396L40.7181 46.6981C40.8731 45.6441 41.5053 45.027 42.2539 44.6743C43.0074 44.3194 43.8684 44.2401 44.4319 44.2783C44.7609 44.3354 45.0962 44.4073 45.4357 44.4922C45.4357 44.4922 45.4357 44.4922 45.4357 44.4922C45.466 44.4998 45.4963 44.5075 45.5267 44.5152C45.656 44.5484 45.7858 44.5833 45.9161 44.62C46.8276 44.8765 47.7582 45.2166 48.6663 45.6002C49.1491 45.8041 49.6249 46.0201 50.0873 46.242C51.2425 46.7964 52.3145 47.3875 53.2044 47.9194C53.2354 47.938 53.2663 47.9565 53.2969 47.9749C53.6453 48.1845 53.9658 48.3851 54.2494 48.5689C51.8801 48.7909 49.4583 49.473 47.3624 50.3496C45.1576 51.2717 43.2869 52.4203 42.2138 53.4992ZM54.2494 48.5689C54.2494 48.5689 54.2494 48.5689 54.2494 48.5689ZM55.0814 48.5102C55.1241 48.5082 55.1668 48.5064 55.2094 48.5047C54.8081 48.0022 54.4627 47.3707 54.1799 46.6544C54.0714 46.7572 53.9568 46.8845 53.8605 47.0227C53.7009 47.252 53.6344 47.4488 53.65 47.592C54.2161 47.9348 54.7021 48.2496 55.0814 48.5102ZM53.1677 47.3049C53.2194 47.0922 53.3292 46.8929 53.4418 46.7312C53.6046 46.4973 53.811 46.2869 53.9925 46.1407C53.5913 44.9474 53.344 43.5474 53.2892 42.0892C52.6841 42.3241 51.8682 42.7163 51.0973 43.2298C50.254 43.7915 49.4966 44.4772 49.107 45.2337C49.5854 45.4406 50.0557 45.6582 50.5118 45.8806C51.48 46.3526 52.3843 46.846 53.1677 47.3049ZM48.6358 45.0345C49.0812 44.146 49.937 43.3896 50.8144 42.8052C51.6924 42.2204 52.625 41.7861 53.2777 41.5483C53.2738 40.7149 53.3332 39.8669 53.4637 39.0311C52.358 39.3822 50.8183 39.9927 49.3818 40.8242C47.8629 41.7032 46.5013 42.8054 45.8573 44.0745C46.0179 44.1178 46.179 44.1636 46.3404 44.2118C47.1068 44.4405 47.8797 44.7225 48.6358 45.0345ZM52.8882 64.6013C53.5404 64.533 54.2183 64.4497 54.9226 64.3501V60.6685C53.6079 60.1552 52.4484 59.6514 51.733 59.2324C48.6727 59.9307 46.3746 60.7885 44.7299 61.6233C44.7551 61.7037 44.8155 61.8173 44.9475 61.9618C45.1602 62.1947 45.5335 62.4778 46.1403 62.7824C47.3493 63.3894 49.4391 64.0594 52.8882 64.6013ZM44.2763 61.8666C43.1272 62.5295 42.2412 63.4185 41.7438 64.0069C42.8228 64.3548 44.2552 64.6423 46.0811 64.7748C46.9857 64.8404 47.9868 64.868 49.0894 64.8461C49.6675 64.8346 50.2746 64.8093 50.9092 64.7689C48.5237 64.2933 46.9361 63.7529 45.9114 63.2384C45.2719 62.9174 44.8399 62.6007 44.5707 62.3059C44.4384 62.161 44.3383 62.013 44.2763 61.8666ZM55.4328 60.8653V64.2757C57.3363 63.9901 59.4263 63.5868 61.7132 63.0403C59.9743 62.4855 57.5389 61.6681 55.4328 60.8653ZM58.2791 45.0833C58.3339 44.9884 58.3899 44.8947 58.4466 44.8026C58.7024 44.3867 58.9785 43.993 59.2311 43.659C58.9752 43.7468 58.7424 43.8417 58.5396 43.944C58.4376 44.3246 58.3512 44.7058 58.2791 45.0833ZM58.7275 43.3014C59.0763 43.162 59.4671 43.0414 59.8771 42.9371C61.0598 42.6362 62.4451 42.4598 63.5475 42.3691C63.9505 42.336 64.3174 42.3142 64.625 42.302C63.6321 41.7361 62.5448 41.277 61.4205 41.051C60.8773 40.9419 60.3265 40.8872 59.7738 40.9008C59.3358 41.6533 58.992 42.4687 58.7275 43.3014ZM93.216 51.2028C92.5595 44.6182 88.673 39.7055 86.7527 38.0285C85.3231 37.2761 83.2234 36.644 81.0153 36.7926C78.8028 36.9415 76.4763 37.8734 74.5868 40.2707C74.3113 40.6203 74.0447 41.0014 73.789 41.4164C76.0743 39.8926 78.1839 39.6541 80.0417 40.1939C82.0806 40.7862 83.7713 42.3032 85.0392 43.9662C85.7088 43.7664 86.3128 43.5888 86.8268 43.4395L87.5965 43.216L87.0976 43.8433C86.9519 44.0266 86.795 44.2874 86.6179 44.582C86.6011 44.6099 86.5841 44.6381 86.567 44.6666C86.4079 44.9307 86.2342 45.2143 86.05 45.4573C86.4932 46.1934 86.8565 46.9216 87.1333 47.5829L87.1531 47.6302V50.9567C88.3445 50.7926 90.756 50.6219 92.9035 51.0019L92.9631 51.0125L93.0116 51.0487C93.081 51.1005 93.1492 51.1518 93.216 51.2028ZM86.6428 51.0438V47.8399C86.2995 47.672 85.6154 47.3478 84.7551 46.9688C84.1886 47.6103 83.5811 48.2777 82.9446 48.9517C83.7224 49.7294 84.2459 50.3142 84.5885 50.7396C84.7725 50.968 84.9061 51.1527 84.9993 51.2984C85.0269 51.3415 85.0519 51.3826 85.0741 51.4216C85.6665 51.2608 86.199 51.1349 86.6428 51.0438ZM84.5639 51.5646C84.4834 51.4398 84.3632 51.2733 84.1911 51.0597C83.8645 50.654 83.3569 50.0861 82.5929 49.3216C81.5204 50.4424 80.3731 51.5727 79.2055 52.6244L79.8926 53.3147C81.4976 52.5517 83.1643 51.9693 84.5639 51.5646ZM79.4084 53.5515L78.8241 52.9645C77.6287 54.0193 76.4155 54.9849 75.2428 55.7657C75.3001 55.7772 75.3586 55.7874 75.4174 55.7964C75.6062 55.825 75.7856 55.8387 75.9168 55.8434C76.9089 54.9568 78.1315 54.194 79.4084 53.5515ZM75.3914 56.3082C75.3747 56.3059 75.3578 56.3034 75.3409 56.3008C75.1252 56.2681 74.8845 56.216 74.6727 56.1325C73.1564 57.0728 71.6935 57.6902 70.4322 57.7186C70.4231 58.005 70.4164 58.2827 70.4123 58.5493C70.6183 58.5934 70.935 58.6064 71.361 58.5293C71.9124 58.4295 72.6305 58.1814 73.4934 57.6774C74.0655 57.3432 74.7005 56.897 75.3914 56.3082ZM70.408 59.0672C70.4074 59.6295 70.4215 60.1266 70.4534 60.5346C70.48 60.8757 70.5182 61.1373 70.5636 61.3189L86.8215 56.8774L95.3369 53.8479C94.9966 53.4168 94.3594 52.7633 93.3599 51.9625C93.1711 51.8112 92.9696 51.6549 92.7551 51.494C90.5039 51.1075 87.9462 51.3384 86.943 51.5043C86.4297 51.6033 85.7631 51.7585 85.003 51.9704C83.5196 52.3838 81.6884 53.0109 79.9508 53.8528C78.5518 54.5306 77.2226 55.3433 76.1845 56.2891C75.2947 57.0998 74.4796 57.6923 73.7508 58.118C72.8454 58.6468 72.0713 58.9193 71.4518 59.0314C71.0387 59.1061 70.6865 59.1108 70.408 59.0672ZM95.469 54.3424L86.9744 57.3645L70.7295 61.8026C70.8149 62.1515 70.804 62.5683 70.7421 63.0015C70.6609 63.5695 70.4849 64.2102 70.265 64.853C69.825 66.1392 69.198 67.4659 68.7541 68.2965L68.7436 68.3162L68.7298 68.3337C67.6176 69.7523 65.7647 71.7675 63.4514 73.7476C68.1643 73.2292 76.0815 71.1375 81.9789 69.4087C83.8587 68.8577 85.5295 68.3447 86.8205 67.9332L86.8221 67.9327L86.8238 67.9322C87.6641 67.6768 88.7902 66.9672 89.9605 65.8663C91.1261 64.7698 92.3185 63.3011 93.2968 61.5515C94.4523 59.4849 95.3061 57.0321 95.469 54.3424ZM62.6268 74.4354C63.9225 75.9869 65.0092 77.0946 65.8495 77.8532C66.6956 78.6171 67.3044 79.0384 67.6312 79.196C69.6528 80.7136 74.3469 82.9217 80.2863 82.8069L79.7712 83.1947C76.8603 85.3861 72.0619 87.1234 67.1584 88.4111C66.2678 88.2461 64.2493 87.7166 62.8241 86.8351C61.368 85.2955 59.6249 84.0743 57.7086 83.116C57.2924 82.47 56.9403 81.5757 56.6676 80.6993C56.4204 79.9046 56.2432 79.1404 56.1442 78.6193C58.4881 77.5073 60.6966 76.0038 62.6268 74.4354ZM55.6672 78.8393C54.0323 79.5716 52.3335 80.1073 50.619 80.3349C50.1002 80.4038 49.5923 80.4599 49.0956 80.5045C51.8072 80.9284 54.4827 81.638 56.9121 82.7371C56.6229 82.152 56.3783 81.4871 56.1804 80.8508C55.9461 80.0977 55.773 79.371 55.6672 78.8393ZM43.1285 80.5016C43.9836 80.5848 44.9007 80.6351 45.876 80.6412C49.8772 80.9614 53.95 81.8206 57.4196 83.5421C59.3257 84.4879 61.0473 85.6926 62.4756 87.2092C63.0438 87.8125 63.5658 88.4654 64.0348 89.1714C60.9183 89.8739 57.9342 90.3886 55.5675 90.72C54.8822 90.816 54.249 90.8965 53.6796 90.9618C53.262 90.8104 52.4162 90.6393 51.1272 90.5553C49.763 90.4664 47.8852 90.474 45.458 90.7133C45.3433 90.7246 45.2303 90.7355 45.119 90.746C42.8401 90.9605 41.2984 90.9998 40.3 90.9626C39.8005 90.944 39.4413 90.9064 39.196 90.8633C39.076 90.8422 38.9869 90.8204 38.924 90.8004C38.8623 90.2019 38.5606 89.4715 38.1361 88.6963C37.6679 87.8414 37.0299 86.8965 36.329 85.9548C35.0544 84.2425 33.5591 82.5239 32.4633 81.3483C34.2627 81.0039 36.4939 80.712 38.9492 80.5739C40.2875 80.4986 41.6918 80.4691 43.1285 80.5016ZM45.8979 80.1311C44.9774 80.0578 44.0618 80.0127 43.1591 79.992C40.436 79.7254 38.3671 79.1217 37.079 78.5728C36.6695 78.3983 36.3418 78.2306 36.0986 78.0828C35.4915 77.6523 34.6718 76.9683 33.8467 76.1065C32.2104 74.3974 30.6024 72.0408 30.5156 69.6129C30.4492 67.7535 31.0009 65.3078 31.7308 62.9866C31.7926 62.7902 31.8556 62.5948 31.9195 62.401C31.8435 63.0052 31.7988 63.626 31.7915 64.2615C31.7875 64.6156 31.8042 64.9661 31.8412 65.312C31.9816 66.6245 32.4132 67.8682 33.1013 68.99C33.857 70.222 34.9205 71.3047 36.244 72.1709C39.0177 73.9863 42.9297 74.85 47.5616 74.1609C49.5813 73.8604 51.7386 73.2647 54.0001 72.3237C58.244 70.5578 61.7432 66.9219 64.5048 62.7904C65.6296 61.1077 66.6343 59.3393 67.5191 57.5755C68.11 56.3977 68.6476 55.2215 69.1319 54.0736C69.6 52.9644 70.0184 51.8814 70.3871 50.8486C70.1959 52.9106 70.0055 55.3788 69.9308 57.4519C69.9146 57.9 69.9039 58.3302 69.8997 58.7341C69.8924 59.4389 69.905 60.0675 69.9447 60.5744C69.9833 61.0688 70.0498 61.4848 70.1694 61.7373C70.2891 61.9901 70.3133 62.3953 70.237 62.9293C70.1621 63.4533 69.9968 64.0606 69.7823 64.6878C69.3569 65.9314 68.7487 67.2216 68.3145 68.0364C67.1239 69.5519 65.0664 71.7685 62.4992 73.8807C60.4971 75.528 58.1911 77.1067 55.7506 78.2405C54.0596 79.026 52.3083 79.5959 50.5519 79.8291C48.8805 80.0509 47.3251 80.1391 45.8979 80.1311ZM71.0681 49.1368C70.8397 51.3289 70.5567 54.5594 70.4507 57.2077C71.5926 57.1727 72.9882 56.5908 74.5161 55.6287C75.8546 54.7858 77.269 53.6677 78.6653 52.4233C79.955 51.274 81.2259 50.02 82.4032 48.7813C83.1442 48.0016 83.8478 47.2285 84.4953 46.4918C84.8644 46.0719 85.2152 45.6639 85.5442 45.2734C85.7415 45.0393 85.935 44.7268 86.1299 44.4033C86.1479 44.3734 86.166 44.3432 86.1842 44.313C86.2217 44.2506 86.2594 44.1879 86.2971 44.1258C85.9039 44.2414 85.4741 44.3687 85.0152 44.5058C83.741 44.8866 82.243 45.3431 80.6813 45.8329C80.1205 46.0088 79.5516 46.1889 78.9819 46.3714C77.3618 46.8904 75.6573 47.4773 74.1431 48.0215C73.4084 48.2856 72.7189 48.5395 72.1058 48.7706C71.8828 48.8546 71.7009 48.9158 71.5353 48.9716C71.5142 48.9787 71.4934 48.9857 71.4728 48.9926C71.3353 49.039 71.2068 49.0832 71.0681 49.1368ZM71.1506 48.5635C71.2037 48.545 71.2565 48.5271 71.3097 48.5091C71.3306 48.5021 71.3516 48.495 71.3727 48.4879C71.4543 48.4604 71.5378 48.4323 71.6271 48.4013C71.6265 48.4003 71.6259 48.3994 71.6254 48.3985L71.6046 48.3645C71.5471 48.2702 71.4891 48.1751 71.4292 48.0851C71.3972 48.0372 71.3662 47.9929 71.3361 47.9531C71.2766 48.1531 71.2148 48.3567 71.1506 48.5635ZM71.5009 47.3865C71.5405 47.418 71.5759 47.4516 71.6069 47.4839C71.6967 47.5773 71.78 47.6915 71.8538 47.8021C71.9198 47.9012 71.9834 48.0055 72.0402 48.0987C72.0472 48.1101 72.0541 48.1215 72.0609 48.1326C72.0802 48.1643 72.0985 48.1941 72.1157 48.2217C72.581 48.0472 73.0861 47.8611 73.6183 47.6684C73.4155 47.4457 73.1536 47.176 72.8657 46.9109C72.5338 46.6056 72.1775 46.3158 71.8436 46.1096C71.7422 46.5128 71.628 46.9395 71.5009 47.3865ZM71.9792 45.597C72.3985 45.8346 72.8327 46.1872 73.2112 46.5355C73.5815 46.8763 73.9104 47.2243 74.136 47.482C75.4652 47.0059 76.9312 46.5003 78.3545 46.0377C78.0868 45.84 77.791 45.6238 77.4792 45.3989C76.5696 44.7427 75.528 44.0154 74.6587 43.4597C74.2235 43.1815 73.836 42.9491 73.5319 42.7906C73.3794 42.7111 73.2533 42.653 73.1558 42.617C73.1475 42.6139 73.1395 42.611 73.132 42.6084C72.7024 43.4804 72.3143 44.4721 71.9792 45.597ZM73.5334 42.2226C73.6073 42.2565 73.6857 42.2954 73.7678 42.3382C74.0915 42.5069 74.4937 42.7486 74.9336 43.0298C75.7911 43.578 76.8091 44.2877 77.7045 44.9323C79.0401 44.8662 80.1335 45.1363 80.6152 45.3189C82.0061 44.8831 83.3438 44.4745 84.5155 44.1229C83.2982 42.5687 81.7324 41.2164 79.8993 40.6838C78.0682 40.1518 75.9273 40.4254 73.5334 42.2226ZM79.7289 45.598C79.3673 45.5213 78.9136 45.4555 78.3995 45.4373C78.5964 45.5817 78.7818 45.7189 78.9515 45.8454C79.2111 45.7624 79.4705 45.6799 79.7289 45.598ZM40.0137 80.0139C39.6774 80.0261 39.3446 80.0413 39.0157 80.0592L38.4165 79.5961C38.8985 79.7434 39.4317 79.885 40.0137 80.0139ZM36.8487 79.0292C36.4319 78.8502 36.089 78.6746 35.8255 78.5139L35.8181 78.5094L35.811 78.5044C35.2354 78.097 34.4856 77.478 33.7177 76.705C33.3307 77.4043 32.8528 78.3444 32.5106 79.1909C32.3133 79.679 32.1664 80.1234 32.1045 80.4674C32.0734 80.6402 32.0666 80.7733 32.0783 80.8674C32.0799 80.8804 32.0818 80.8921 32.0839 80.9025C33.7905 80.5623 35.9049 80.2672 38.2429 80.1068L36.8487 79.0292ZM64.5654 89.0503C65.0678 88.9341 65.5728 88.8131 66.0785 88.6873C65.3883 88.5053 64.5381 88.2355 63.7253 87.8766C64.0214 88.2513 64.3018 88.6423 64.5654 89.0503ZM80.3208 82.8063L79.073 88.2969C81.4909 87.1012 83.2762 85.7212 84.509 84.4756C85.5471 83.4268 86.1816 82.4857 86.4802 81.8386C84.328 82.4782 82.2584 82.7659 80.3208 82.8063ZM87.1041 81.6473C86.8646 82.3901 86.1346 83.5586 84.8717 84.8345C83.5359 86.1842 81.5847 87.6738 78.9282 88.9339L77.728 94.2149C78.8857 93.7658 80.5191 93.0926 82.1179 92.3535C83.9251 91.5181 85.6627 90.6098 86.628 89.8527C87.4941 88.6689 88.9848 85.306 88.2071 81.0529C87.8182 81.34 87.4451 81.5353 87.1041 81.6473ZM79.5268 83.9975C76.4923 86.0722 71.8727 87.704 67.2331 88.9191C66.3215 89.1578 65.408 89.3807 64.5042 89.588C62.4775 90.0527 60.4987 90.4388 58.6984 90.7474C60.3343 90.8547 61.6022 91.1068 62.6391 91.4186C63.7837 91.7628 64.6543 92.1847 65.4024 92.5472C65.7012 92.6919 65.9804 92.8272 66.2497 92.9443C67.8349 93.6335 69.5301 95.1008 70.2105 95.7746C70.7963 96.0636 71.3963 96.2669 71.9882 96.4038C73.9529 96.8582 75.8139 96.578 76.7316 96.2968L79.5268 83.9975ZM53.8432 91.4566C53.7868 91.4631 53.731 91.4695 53.6758 91.4758L53.6119 91.4831L53.5522 91.4592C53.2359 91.3327 52.4348 91.1518 51.0941 91.0645C49.7943 90.9798 48.0033 90.9839 45.6869 91.2038C45.944 91.4817 46.2424 91.8169 46.5235 92.1561C46.9274 92.6434 47.3219 93.1697 47.4876 93.5501C47.5092 93.5551 47.5451 93.5601 47.5993 93.5608C47.7482 93.5628 47.9688 93.5329 48.256 93.4693C48.8258 93.343 49.597 93.0981 50.4526 92.7913C51.5453 92.3996 52.761 91.9122 53.8432 91.4566ZM56.4792 91.2047C58.1465 92.2175 60.3353 93.5704 62.2234 94.7879C63.3155 95.4921 64.3096 96.1526 65.0446 96.6765C65.4116 96.9381 65.7179 97.1683 65.9406 97.3544C66.0516 97.4472 66.146 97.5325 66.218 97.6078C66.2731 97.6654 66.3393 97.7412 66.3766 97.8254C66.3867 97.829 66.4029 97.8338 66.4275 97.8385C66.5174 97.8557 66.659 97.8584 66.8545 97.8399C67.2411 97.8033 67.7687 97.6916 68.36 97.536C69.2496 97.302 70.2573 96.9758 71.0922 96.6833C70.7088 96.5576 70.3248 96.4023 69.9458 96.2128L69.9087 96.1943L69.8795 96.165C69.2349 95.5205 67.5669 94.0734 66.0463 93.4122C65.7473 93.2823 65.4515 93.1389 65.1428 92.9892C64.4062 92.632 63.5957 92.2391 62.4922 91.9073C61.084 91.4838 59.21 91.1674 56.4792 91.2047ZM66.3622 97.8186C66.3622 97.8185 66.3634 97.8191 66.3653 97.8206C66.363 97.8194 66.3621 97.8187 66.3622 97.8186ZM68.2928 79.042C71.1945 81.0248 78.3928 83.9016 86.8201 81.1997L86.8259 81.1978L86.8319 81.1962C87.2122 81.0943 87.6875 80.8463 88.2096 80.3986C90.3006 78.6055 93.0182 73.71 93.2486 63.1395C91.4174 67.5464 88.4279 70.0377 87.0171 70.783L86.9965 70.7939L86.9742 70.8009C86.74 70.8742 86.4841 70.9556 86.211 71.0439C84.7159 71.5271 82.7113 72.2143 80.9499 72.9044C80.0689 73.2495 79.2521 73.594 78.5917 73.913C77.9221 74.2364 77.4413 74.5206 77.2081 74.7401C76.8914 75.0381 76.3025 75.4006 75.5843 75.7858C74.858 76.1753 73.9744 76.601 73.0486 77.023C71.3915 77.7784 69.59 78.5265 68.2928 79.042ZM92.2833 64.0312C90.505 67.6268 88.0005 69.6782 86.7991 70.321C86.6026 70.3826 86.3913 70.4498 86.1678 70.5217C85.5647 70.1542 84.7795 69.8961 84.047 69.7203C83.7811 69.6565 83.5193 69.6029 83.2718 69.5585C84.6868 69.1365 85.949 68.7465 86.9738 68.4199C87.92 68.1318 89.1127 67.3643 90.3101 66.2379C90.9748 65.6127 91.6462 64.8719 92.2833 64.0312ZM82.0773 69.9116C76.0565 71.6753 67.886 73.8313 63.1706 74.2897C64.3859 75.7305 65.404 76.7637 66.1914 77.4745C66.9567 78.1654 67.4939 78.5424 67.777 78.6972C69.0801 78.1852 71.0448 77.3757 72.8369 76.5588C73.7579 76.1389 74.6304 75.7184 75.3431 75.3362C76.0638 74.9496 76.5967 74.6148 76.8584 74.3685C77.155 74.0893 77.702 73.7761 78.3698 73.4536C79.0467 73.1266 79.8768 72.7767 80.7637 72.4293C82.3261 71.8172 84.0752 71.2085 85.4955 70.7407C85.0269 70.5208 84.4746 70.3476 83.9279 70.2164C83.2022 70.0423 82.5084 69.9472 82.0773 69.9116ZM85.1077 46.5668C85.608 46.7887 86.0436 46.9895 86.3803 47.1483C86.185 46.7371 85.9592 46.308 85.7042 45.8741C85.5118 46.1002 85.3128 46.3314 85.1077 46.5668Z" fill="#F8DC85"/>
<circle cx="61.8025" cy="61.8025" r="60.4291" stroke="#208553" stroke-width="2.74678"/>
<path d="M17.8578 28.8409C16.6314 30.1413 15.5935 31.8384 14.786 33.4338C14.5317 33.9362 14.9026 33.2059 14.1874 34.7078" stroke="#208553" stroke-width="2.06008" stroke-linecap="round"/>
<path d="M12.3573 38.4556C11.857 39.0064 11.3075 40.4588 11.3075 40.4588" stroke="#208553" stroke-width="2.06008" stroke-linecap="round"/>
<path d="M87.6387 111.181C84.2754 111.855 88.8787 112.056 96.3522 105.709C100.667 102.045 102.143 99.6517 102.143 99.6517" stroke="#208553" stroke-width="2.06008" stroke-linecap="round"/>
</svg>
