<svg width="35" height="27" viewBox="0 0 35 27" fill="none" xmlns="http://www.w3.org/2000/svg">
<path d="M4.92335 18.694C4.92335 18.694 19.2744 2.3267 31.1683 16.9759C40.0815 27.9539 29.1498 24.719 18.8949 21.6399C13.2119 19.9334 7.70372 18.8804 5.99152 18.5711L5.761 18.5588L5.52018 18.5793C5.52017 18.5793 5.52017 18.5793 5.52016 18.5793L4.92335 18.694Z" fill="#208553"/>
<path d="M4.92335 18.694C4.92335 18.694 19.2744 2.3267 31.1683 16.9759C40.0815 27.9539 29.1498 24.719 18.8949 21.6399C13.2119 19.9334 7.70372 18.8804 5.99152 18.5711M4.92335 18.694C4.92335 18.694 5.63982 18.5075 5.99152 18.5711M4.92335 18.694L5.52017 18.5793L5.761 18.5588L5.99152 18.5711M11.8127 16.9762C15.5721 15.8795 24.578 15.2166 30.5265 21.3378" stroke="#DDC479" stroke-width="0.866004" stroke-linecap="round"/>
<path d="M3.46542 12.7584C3.46542 12.7584 2.20825 2.82076 10.8833 3.19522C17.3844 3.47584 12.9341 6.25351 8.74394 8.84559C6.42186 10.2821 4.37816 11.8577 3.74908 12.353M3.46542 12.7584C3.46542 12.7584 3.61987 12.4547 3.74908 12.353M3.46542 12.7584L3.60807 12.5178L3.67453 12.4287L3.74908 12.353M4.97636 9.8614C5.746 8.23199 8.26617 4.92802 12.1897 4.74746" stroke="#DDC479" stroke-width="0.398505" stroke-linecap="round"/>
</svg>
