<svg width="62" height="25" viewBox="0 0 62 25" fill="none" xmlns="http://www.w3.org/2000/svg">
<path d="M59.653 20.1923C59.653 20.1923 36.2993 -14.3207 9.49323 9.59643C-10.5951 27.5199 11.3411 24.5794 31.9308 21.738C43.3412 20.1634 54.2419 19.7557 57.6255 19.6625L58.0733 19.7047L58.5324 19.8106L59.653 20.1923Z" fill="#208553"/>
<path d="M59.653 20.1923C59.653 20.1923 36.2993 -14.3207 9.49323 9.59643C-10.5951 27.5199 11.3411 24.5794 31.9308 21.738C43.3412 20.1634 54.2418 19.7557 57.6255 19.6625M59.653 20.1923C59.653 20.1923 58.3206 19.6433 57.6255 19.6625M59.653 20.1923L58.5324 19.8106L58.0733 19.7047L57.6255 19.6625M46.8205 15.0527C39.86 11.9517 22.6672 8.17916 9.57902 17.8971" stroke="#DDC479" stroke-width="1.42395" stroke-linecap="round"/>
</svg>
