<svg width="736" height="803" viewBox="0 0 736 803" fill="none" xmlns="http://www.w3.org/2000/svg">
<path fill-rule="evenodd" clip-rule="evenodd" d="M538.594 123.743C613.346 160.458 637.652 258.708 642.429 349.76C646.446 426.338 608.327 496.684 561.467 559.757C514.443 623.052 458.714 679.2 387.018 693.547C301.048 710.749 207.066 706.83 150.986 641.894C90.9363 572.361 75.316 464.392 105.396 367.447C133.513 276.832 215.258 223.592 294.633 178.938C373.757 134.425 463.116 86.672 538.594 123.743Z" fill="#F6D164"/>
<path d="M310.156 476.128V477.392L312.94 477.344C312.86 476.88 312.812 476.512 312.764 476C312.7 475.28 312.684 475.232 312.62 474.832C314.7 475.008 314.908 475.04 314.908 475.248C314.908 475.376 314.86 475.408 314.364 475.616C314.38 476.48 314.396 476.8 314.476 477.312L317.004 477.264C317.404 476.784 317.516 476.64 317.916 476.192C318.604 476.656 318.812 476.8 319.484 477.296C319.564 477.376 319.596 477.424 319.596 477.456C319.596 477.52 319.532 477.552 319.404 477.552L314.556 477.648C314.716 478.352 314.924 478.816 315.308 479.392C315.948 478.8 316.14 478.56 316.476 477.952C318.444 478.752 318.476 478.768 318.476 478.912C318.476 479.088 318.316 479.136 317.724 479.136C317.068 479.792 316.78 480.032 316.236 480.416C316.844 480.912 317.26 481.136 318.092 481.408C318.636 480.48 318.684 480.4 319.42 478.896L319.596 478.96L319.244 480.704C319.212 480.864 319.164 481.248 319.164 481.328C319.164 481.488 319.18 481.536 319.452 481.728C319.644 481.872 319.74 482.048 319.74 482.288C319.74 482.752 319.308 483.088 318.748 483.088C318.204 483.088 317.34 482.848 316.684 482.528C316.028 482.208 315.436 481.792 314.876 481.232C313.468 481.936 312.252 482.304 310.284 482.64L310.22 482.432C311.916 481.776 312.908 481.248 314.14 480.352C313.58 479.536 313.228 478.72 313.004 477.68L310.156 477.728V478.928C311.1 478.816 311.212 478.8 312.7 478.592L312.748 478.752C311.692 479.168 311.116 479.376 310.156 479.68V481.44C310.156 482.352 309.948 482.688 309.292 482.96C308.908 483.104 308.348 483.232 308.044 483.232C307.884 483.232 307.836 483.184 307.82 483.008C307.788 482.784 307.692 482.592 307.548 482.432C307.244 482.112 306.956 482 305.772 481.728V481.536C307.452 481.616 307.452 481.616 308.236 481.616C308.46 481.616 308.54 481.552 308.54 481.376V480.128C307.708 480.32 307.34 480.4 306.364 480.608C306.268 480.992 306.204 481.136 306.076 481.136C305.9 481.136 305.868 481.056 305.42 479.184C305.692 479.2 305.9 479.216 306.012 479.216C306.188 479.216 307.02 479.168 308.54 479.056V477.76L306.508 477.792C306.076 477.808 305.66 477.856 305.26 477.92L305.148 477.344C305.58 477.424 305.964 477.456 306.396 477.456H306.508L308.54 477.424V476.32C307.404 476.416 306.876 476.432 305.66 476.448L305.628 476.256C307.9 475.824 309.356 475.344 310.492 474.624C310.844 474.864 311.116 475.04 311.308 475.136C312.044 475.6 312.204 475.712 312.204 475.84C312.204 475.92 312.092 476 311.996 476C311.932 476 311.612 475.952 311.372 475.888C310.764 476.032 310.54 476.064 310.156 476.128ZM310.46 470.592H313.052C313.564 469.632 313.804 469.12 314.012 468.4C316.316 468.944 316.412 468.976 316.412 469.152C316.412 469.328 316.204 469.408 315.628 469.44C314.876 470 314.54 470.208 313.836 470.592H316.172C316.7 470 316.7 470 317.276 469.376C318.012 469.936 318.236 470.112 318.94 470.72C319.004 470.784 319.036 470.816 319.036 470.848C319.036 470.896 318.972 470.928 318.876 470.928H312.908V472.32H315.564C315.996 471.84 316.124 471.696 316.572 471.232C317.276 471.712 317.484 471.872 318.124 472.384C318.22 472.464 318.252 472.512 318.252 472.56C318.252 472.624 318.172 472.656 318.06 472.656H312.908V474.096H316.748C317.196 473.6 317.34 473.44 317.82 472.944C318.556 473.472 318.78 473.632 319.484 474.176C319.564 474.24 319.596 474.288 319.596 474.336C319.596 474.4 319.516 474.432 319.388 474.432H306.476C306.028 474.432 305.628 474.464 305.228 474.544L305.116 473.952C305.596 474.048 305.996 474.096 306.476 474.096H311.18V472.656H307.964C307.532 472.656 307.18 472.688 306.764 472.752L306.668 472.192C307.116 472.288 307.484 472.32 307.948 472.32H311.18V470.928H307.084C306.588 470.928 306.172 470.96 305.788 471.04L305.66 470.448C306.172 470.544 306.62 470.592 307.068 470.592H309.436C309.356 470.48 309.34 470.448 309.276 470.208C309.084 469.584 308.7 469.008 308.172 468.528L308.284 468.384C310.284 468.864 310.972 469.232 310.972 469.808C310.972 470.112 310.796 470.368 310.46 470.592ZM315.132 475.008L315.228 474.88C316.988 475.264 317.548 475.536 317.548 476.048C317.548 476.512 317.068 477.008 316.652 477.008C316.46 477.008 316.348 476.944 316.268 476.8C316.236 476.736 316.22 476.736 316.044 476.288C315.804 475.696 315.596 475.408 315.132 475.008ZM337.9 473.328H331.26C331.676 475.216 332.476 476.784 333.676 478.048C334.444 478.864 335.516 479.616 336.588 480.112C337.18 480.384 337.628 480.528 338.444 480.736L338.428 480.944C337.58 481.36 337.148 481.808 336.876 482.576C336.796 482.8 336.732 482.864 336.636 482.864C336.476 482.864 336.14 482.672 335.628 482.304C333.996 481.104 332.844 479.536 331.996 477.376C331.596 476.32 331.34 475.328 331.1 473.856C330.828 476.512 329.98 478.464 328.428 480.016C327.452 480.992 326.284 481.808 325.036 482.384C324.46 482.656 324.044 482.816 323.116 483.152L323.02 482.944C325.404 481.424 326.572 480.32 327.58 478.704C328.492 477.216 329.036 475.44 329.228 473.328H324.988C324.412 473.328 324.028 473.36 323.5 473.44L323.42 472.848C323.948 472.944 324.428 472.992 325.004 472.992H329.26C329.324 472.208 329.34 471.472 329.34 470.416C329.34 469.648 329.324 469.392 329.26 468.72C329.836 468.768 330.268 468.8 330.556 468.832C331.676 468.912 332.012 469.008 332.012 469.216C332.012 469.376 331.836 469.488 331.324 469.664C331.276 471.376 331.26 472 331.18 472.992H334.764L335.98 471.44C336.876 472.112 337.132 472.32 337.98 473.024C338.06 473.12 338.092 473.168 338.092 473.216C338.092 473.28 338.012 473.328 337.9 473.328ZM346.364 470.512V473.12H347.02C347.452 472.592 347.58 472.432 347.996 471.936C348.636 472.464 348.828 472.624 349.42 473.2C349.484 473.264 349.516 473.312 349.516 473.344C349.516 473.424 349.436 473.456 349.292 473.456H346.364V474.848C348.268 475.632 348.988 476.224 348.988 477.008C348.988 477.648 348.46 478.336 347.964 478.336C347.74 478.336 347.628 478.176 347.516 477.648C347.26 476.512 347.004 475.952 346.364 475.2V482.816C346.364 483.2 346.22 483.264 345.244 483.264C344.636 483.264 344.556 483.216 344.556 482.928C344.636 480.848 344.668 479.952 344.7 478.064L344.716 476.272C343.692 478 343.1 478.688 341.66 479.84L341.532 479.744C342.444 478.4 343.004 477.36 343.548 476.016C343.852 475.264 344.236 474.144 344.428 473.456H342.748C342.396 473.456 342.188 473.472 341.852 473.552L341.756 472.992C342.14 473.088 342.396 473.12 342.764 473.12H344.684V470.832C343.676 470.992 343.18 471.04 341.932 471.12L341.884 470.96C343.18 470.544 344.156 470.16 345.308 469.6C346.172 469.168 346.476 468.976 347.036 468.528C348.716 469.696 348.892 469.824 348.892 469.968C348.892 470.064 348.764 470.144 348.636 470.144C348.46 470.144 348.236 470.112 348.012 470.048C347.212 470.288 346.924 470.384 346.364 470.512ZM349.852 469.696C352.14 469.904 352.268 469.936 352.268 470.16C352.268 470.304 352.14 470.384 351.628 470.576C351.644 474.368 351.66 477.2 351.692 479.088C351.692 479.456 351.532 479.52 350.604 479.52C350.012 479.52 349.9 479.472 349.9 479.2C349.932 477.568 349.948 476.864 349.948 474.8C349.948 470.944 349.932 470.672 349.852 469.696ZM350.46 481.312L350.476 481.088C351.9 481.184 352.316 481.2 353.436 481.232C353.644 481.216 353.708 481.152 353.708 480.896V471.056C353.708 470.176 353.676 469.696 353.612 468.784C354.156 468.832 354.588 468.88 354.86 468.896C355.852 468.976 356.108 469.056 356.108 469.248C356.108 469.392 355.98 469.472 355.468 469.696V478.032C355.468 478.784 355.468 479.456 355.532 481.392C355.532 482.208 355.34 482.592 354.796 482.848C354.396 483.024 353.66 483.2 353.244 483.2C353.068 483.2 353.036 483.168 352.988 482.88C352.908 482.416 352.732 482.16 352.348 481.936C352.028 481.728 351.628 481.6 350.46 481.312ZM364.46 472.608L364.444 473.536C364.444 473.552 364.46 473.632 364.46 473.776C364.892 472.928 365.26 471.76 365.34 471.024C366.716 471.392 366.924 471.472 366.924 471.6C366.924 471.744 366.764 471.808 366.412 471.856C366.204 472.16 366.156 472.24 365.916 472.528C366.956 472.944 367.18 473.12 367.18 473.472C367.18 473.824 366.86 474.256 366.588 474.256C366.412 474.256 366.412 474.256 366.044 473.216C365.98 473.072 365.9 472.944 365.74 472.736C365.308 473.216 365.084 473.44 364.604 473.872C365.34 474.128 365.644 474.272 366.188 474.592C366.716 474.896 366.876 475.104 366.876 475.504C366.876 475.76 366.796 475.984 366.636 476.176C366.492 476.32 366.3 476.432 366.188 476.432C366.076 476.432 366.012 476.384 365.916 476.192C365.756 475.888 365.756 475.888 365.404 475.2C365.164 474.736 364.892 474.416 364.46 474.064C364.476 474.624 364.476 474.624 364.492 475.712C364.492 475.84 364.46 475.904 364.38 475.952C364.252 476.032 363.852 476.096 363.42 476.096C363.084 476.096 363.004 476.048 363.004 475.808C363.004 475.648 363.004 475.648 363.02 475.28V475.04C361.628 476.224 361.164 476.528 359.996 477.056L359.9 476.928C360.572 476.368 360.876 476.064 361.42 475.456C362.156 474.64 362.476 474.192 363.02 473.216V470.688H361.116C360.78 470.688 360.492 470.72 360.156 470.784L360.044 470.224C360.492 470.32 360.764 470.352 361.116 470.352H363.02V469.872C363.02 469.456 363.004 469.168 362.988 468.624C363.356 468.672 363.644 468.704 363.836 468.72C364.892 468.816 365.084 468.88 365.084 469.056C365.084 469.184 364.924 469.28 364.492 469.408V470.352H365.34C365.708 469.936 365.82 469.808 366.204 469.424C366.732 469.84 366.908 469.984 367.484 470.464C367.532 470.528 367.564 470.56 367.564 470.592C367.564 470.656 367.484 470.688 367.324 470.688H364.476V471.728C364.476 471.904 364.476 472.192 364.46 472.608ZM363.484 477.488H364.892C365.228 477.136 365.324 477.04 365.644 476.688C366.172 477.072 366.332 477.184 366.86 477.568C366.956 477.664 367.004 477.728 367.004 477.776C367.004 477.92 366.876 478.016 366.492 478.192C365.932 479.28 365.58 479.808 364.844 480.592C365.9 481.184 367.164 481.408 369.564 481.408C371.596 481.408 372.924 481.328 375.26 481.072V481.216C374.652 481.488 374.412 481.824 374.3 482.624C374.268 482.8 374.204 482.864 374.012 482.88C373.772 482.912 371.74 482.96 370.812 482.96C366.94 482.96 365.532 482.592 364.124 481.248C362.972 482.224 361.612 482.896 359.98 483.296L359.884 483.152C361.436 482.272 362.428 481.472 363.372 480.352C363.004 479.808 362.78 479.424 362.524 478.752C361.756 479.616 361.228 480.048 360.028 480.784L359.916 480.672C360.78 479.568 361.324 478.736 361.82 477.648C362.124 476.992 362.236 476.672 362.348 476.176C362.716 476.272 363.02 476.336 363.196 476.368C364.124 476.576 364.364 476.656 364.364 476.8C364.364 476.928 364.188 477.008 363.724 477.12C363.612 477.312 363.612 477.312 363.484 477.488ZM364.892 477.824H363.244C363.036 478.112 362.94 478.224 362.716 478.512C363.1 479.104 363.324 479.392 363.788 479.824C364.332 479.088 364.54 478.688 364.892 477.824ZM368.812 472.048H369.516C369.692 471.36 369.692 471.36 369.884 470.112H368.348C367.964 470.112 367.772 470.128 367.34 470.192L367.244 469.648C367.708 469.744 367.964 469.776 368.348 469.776H372.556C372.972 469.28 373.1 469.12 373.532 468.624C374.172 469.152 374.364 469.328 374.988 469.872C375.036 469.936 375.068 469.968 375.068 470C375.068 470.064 374.988 470.112 374.876 470.112H371.708C371.212 470.752 371.18 470.8 370.316 471.728C370.22 471.824 370.22 471.824 370.012 472.048H372.908C373.196 471.696 373.276 471.584 373.58 471.232C374.044 471.584 374.188 471.696 374.604 472.048C374.716 472.16 374.764 472.224 374.764 472.304C374.764 472.432 374.62 472.56 374.236 472.768C374.236 473.376 374.236 473.696 374.236 474.096C374.236 475.712 374.268 479.184 374.3 480.208C374.3 480.336 374.268 480.4 374.204 480.448C374.076 480.528 373.708 480.592 373.292 480.592C372.988 480.592 372.908 480.528 372.908 480.288V480H368.7V480.288C368.7 480.416 368.668 480.48 368.604 480.512C368.492 480.592 368.156 480.64 367.788 480.64C367.404 480.64 367.324 480.592 367.324 480.352C367.404 478.528 367.42 477.68 367.42 476.032C367.42 473.568 367.388 472.176 367.324 471.232C367.996 471.568 368.188 471.68 368.812 472.048ZM371.18 479.664V477.232H370.428V479.664H371.18ZM372.3 479.664H372.908V472.384H372.3V479.664ZM371.18 472.384H370.428V474.448H371.18V472.384ZM369.324 472.384H368.7V479.664H369.324V472.384ZM370.428 476.896H371.18V474.784H370.428V476.896ZM360.012 474.864L359.868 474.8C360.364 473.888 360.604 473.296 360.86 472.336C361.036 471.712 361.084 471.44 361.116 471.04C362.604 471.392 362.844 471.488 362.844 471.648C362.844 471.76 362.764 471.792 362.348 471.904C362.156 472.256 362.092 472.368 361.948 472.608C362.524 472.832 362.764 473.056 362.764 473.36C362.764 473.728 362.508 474.096 362.252 474.096C362.092 474.096 362.028 474 362.028 473.744C361.996 473.12 361.98 473.088 361.82 472.8C361.292 473.6 360.86 474.08 360.012 474.864ZM385.276 472.368L385.452 472.496C385.596 472.624 385.644 472.688 385.644 472.752C385.644 472.864 385.532 472.944 385.196 473.104V473.92C385.196 474.752 385.196 475.152 385.228 476.08C385.228 476.384 385.02 476.464 384.204 476.464C383.74 476.464 383.66 476.416 383.644 476.192V475.936H381.18L381.196 479.632V482.912C381.18 483.248 381.004 483.312 380.092 483.312C379.58 483.312 379.436 483.248 379.436 483.024C379.436 483.024 379.436 483.008 379.436 482.976C379.532 480.768 379.564 477.904 379.564 473.28C379.564 472.624 379.564 472.624 379.548 472.208C379.164 472.512 378.94 472.656 378.348 473.024L378.22 472.896C379.004 471.92 379.484 471.184 379.98 470.128C380.348 469.36 380.492 468.992 380.604 468.4C381.084 468.496 381.468 468.576 381.692 468.624C382.732 468.816 382.988 468.912 382.988 469.072C382.988 469.248 382.796 469.328 382.236 469.376C381.964 469.776 381.868 469.888 381.628 470.192H383.676C384.012 469.824 384.332 469.456 384.636 469.12C385.308 469.616 385.516 469.776 386.124 470.32L386.188 470.4C386.604 469.488 386.732 469.104 386.828 468.464C387.244 468.544 387.66 468.624 387.868 468.656C388.988 468.864 389.164 468.928 389.164 469.088C389.164 469.232 388.956 469.312 388.38 469.392C388.252 469.552 388.172 469.68 388.108 469.76C387.948 470 387.916 470.048 387.804 470.192H390.54C390.924 469.776 391.308 469.376 391.66 469.008C392.396 469.552 392.636 469.728 393.356 470.336C393.388 470.384 393.404 470.416 393.404 470.448C393.404 470.496 393.356 470.528 393.276 470.528H388.492C389.708 470.912 390.14 471.184 390.14 471.6C390.14 472.016 389.676 472.496 389.276 472.496C389.116 472.496 388.972 472.416 388.892 472.272C388.828 472.16 388.828 472.16 388.732 471.584C388.668 471.248 388.556 470.992 388.22 470.528H387.5C386.86 471.232 386.22 471.744 385.276 472.368ZM381.34 472.512H383.708C384.06 472.128 384.06 472.128 384.412 471.744C384.764 471.984 384.892 472.08 385.132 472.256C385.612 471.552 385.772 471.248 386.124 470.512L386.044 470.528H382.172C383.356 470.944 383.74 471.184 383.74 471.552C383.74 472.016 383.292 472.48 382.828 472.48C382.652 472.48 382.54 472.336 382.46 471.984C382.284 471.184 382.236 471.072 381.884 470.528H381.356C380.908 471.024 380.492 471.424 379.996 471.84C380.476 472.048 380.7 472.16 381.34 472.512ZM381.18 474.016H383.644V472.848H381.18V474.016ZM383.644 474.352H381.18V475.6H383.644V474.352ZM390.668 475.936H388.14V476.112C388.14 476.384 387.964 476.448 387.148 476.448C386.652 476.448 386.556 476.4 386.556 476.144C386.604 475.104 386.604 474.88 386.604 473.872C386.604 472.624 386.604 472.448 386.54 471.76C387.292 472.064 387.516 472.176 388.188 472.528H390.604C391.02 472.112 391.02 472.112 391.42 471.728C391.932 472.048 392.092 472.16 392.588 472.528C392.732 472.64 392.796 472.704 392.796 472.784C392.796 472.928 392.668 473.056 392.332 473.232V478.688C392.332 479.712 392.332 479.712 392.332 480.384C392.348 481.104 392.348 481.216 392.348 481.84C392.332 482.528 392.076 482.864 391.324 483.104C391.036 483.2 390.62 483.28 390.396 483.28C390.22 483.28 390.172 483.216 390.156 482.992C390.14 482.288 389.916 482.048 388.892 481.664C388.732 481.808 388.428 481.856 387.868 481.856C387.436 481.856 387.372 481.824 387.356 481.6V481.264H384.332V481.76C384.332 482.064 384.14 482.144 383.356 482.144C382.812 482.144 382.732 482.112 382.732 481.84C382.78 480.64 382.796 480 382.796 479.472C382.796 477.328 382.796 477.104 382.748 476.464C383.548 476.768 383.788 476.88 384.524 477.232H387.244C387.596 476.864 387.708 476.768 388.044 476.416C388.54 476.752 388.684 476.864 389.148 477.232C389.292 477.344 389.356 477.424 389.356 477.504C389.356 477.632 389.228 477.744 388.924 477.904V479.008C388.924 479.776 388.924 480.352 388.956 481.424C389.596 481.488 389.804 481.504 390.396 481.52C390.604 481.504 390.668 481.456 390.668 481.264V475.936ZM388.14 474.016H390.668V472.864H388.14V474.016ZM390.668 474.352H388.14V475.6H390.668V474.352ZM387.356 479.024V477.568H384.332V479.024H387.356ZM387.356 479.36H384.332V480.928H387.356V479.36ZM411.676 480.48H405.084C405.084 480.688 405.084 480.8 405.084 480.944C405.084 481.04 405.084 481.712 405.116 482.992C405.1 483.184 405.052 483.28 404.908 483.328C404.716 483.392 404.316 483.44 403.948 483.44C403.42 483.44 403.308 483.376 403.308 483.12C403.34 482.144 403.34 482.144 403.356 480.48H398.668C398.092 480.48 397.564 480.528 397.116 480.608L397.02 479.968C397.66 480.096 398.06 480.144 398.668 480.144H403.372V478.352H400.588V478.992C400.588 479.152 400.524 479.216 400.38 479.264C400.172 479.328 399.772 479.36 399.372 479.36C398.924 479.36 398.812 479.28 398.812 479.008C398.812 478.256 398.812 478.256 398.86 475.76C398.876 475.552 398.876 475.312 398.876 475.136C398.876 474.384 398.844 473.36 398.812 472.848C398.7 472.848 398.62 472.848 398.572 472.848C398.124 472.848 398.028 472.784 398.028 472.496C398.06 471.728 398.06 471.632 398.06 469.984C398.06 469.168 398.044 468.992 398.012 468.464C398.796 468.816 399.036 468.944 399.852 469.408H401.836C402.22 468.976 402.348 468.848 402.7 468.464C403.244 468.896 403.42 469.024 403.948 469.488C404.028 469.568 404.06 469.616 404.06 469.664C404.06 469.792 403.932 469.888 403.548 470.064C403.548 470.48 403.548 470.8 403.548 471.008C403.548 471.088 403.548 471.424 403.564 472.448C403.548 472.656 403.468 472.704 403.116 472.768C403.02 472.784 402.508 472.816 402.364 472.816C402.028 472.816 401.916 472.752 401.9 472.528V472.192H399.692V472.496C399.676 472.72 399.612 472.752 399.052 472.816C399.756 473.088 399.996 473.2 400.86 473.648H407.884L408.828 472.768C409.42 473.136 409.596 473.264 410.172 473.696C410.268 473.776 410.332 473.84 410.332 473.92C410.332 474.048 410.22 474.144 409.788 474.416C409.772 475.12 409.772 475.648 409.772 476C409.772 476.64 409.772 476.848 409.82 478.72C409.82 478.816 409.804 478.848 409.788 478.944L409.884 478.816C410.7 479.392 410.956 479.584 411.788 480.256C411.836 480.304 411.868 480.368 411.868 480.384C411.868 480.448 411.788 480.48 411.676 480.48ZM405.084 480.144H408.636C408.924 479.824 409.292 479.456 409.708 479.008C409.42 479.088 408.924 479.152 408.508 479.152C408.156 479.152 408.044 479.072 408.044 478.864C408.044 478.848 408.044 478.832 408.044 478.816V478.352H405.084V480.144ZM403.372 473.984H400.588V475.76H403.372V473.984ZM405.084 473.984V475.76H408.044V473.984H405.084ZM405.084 478.016H408.044V476.096H405.084V478.016ZM403.372 478.016V476.096H400.588V478.016H403.372ZM399.692 469.744V471.856H401.9V469.744H399.692ZM406.572 472.192V472.496C406.556 472.672 406.508 472.736 406.364 472.768C406.172 472.816 405.836 472.848 405.564 472.848C405.036 472.848 404.908 472.784 404.908 472.528C404.908 472.528 404.908 472.48 404.908 472.464C404.924 471.76 404.94 471.52 404.94 470.48C404.94 469.168 404.94 469.104 404.892 468.592C405.628 468.912 405.868 469.024 406.636 469.408H408.796C409.164 469.008 409.26 468.88 409.612 468.512C410.188 468.912 410.348 469.04 410.908 469.44C411.02 469.536 411.068 469.584 411.068 469.664C411.068 469.808 410.972 469.888 410.588 470.096C410.588 470.464 410.588 470.752 410.588 470.944C410.588 471.536 410.588 471.824 410.62 472.48C410.604 472.656 410.556 472.736 410.412 472.784C410.156 472.848 409.884 472.88 409.34 472.88C409.052 472.88 408.956 472.816 408.956 472.64C408.956 472.64 408.94 472.608 408.94 472.592V472.192H406.572ZM406.572 469.744V471.856H408.94V469.744H406.572ZM422.7 470.576H423.116C423.484 470.112 423.596 469.984 423.98 469.52C424.556 470.016 424.668 470.128 425.212 470.672C426.012 469.84 426.236 469.536 426.7 468.688C427.116 468.896 427.436 469.056 427.644 469.152C428.604 469.6 428.732 469.696 428.732 469.824C428.732 469.968 428.54 470.048 428.22 470.048C428.172 470.048 428.06 470.048 427.948 470.048C426.732 471.312 425.996 471.984 424.94 472.784H427.228C427.756 472.192 427.916 472.032 428.46 471.488C429.196 472.096 429.42 472.272 430.124 472.864C430.188 472.944 430.22 472.976 430.22 473.024C430.22 473.088 430.156 473.12 430.044 473.12H424.476C423.564 473.76 423.164 474 422.06 474.608H425.692C426.092 474.224 426.22 474.112 426.62 473.744C427.196 474.144 427.372 474.272 427.932 474.704C428.044 474.8 428.092 474.864 428.092 474.928C428.092 475.056 427.996 475.136 427.548 475.344C427.548 477.504 427.548 477.52 427.612 479.2C427.612 479.536 427.356 479.632 426.444 479.632C425.916 479.632 425.852 479.6 425.836 479.328V478.976H420.556V479.28C420.556 479.536 420.364 479.6 419.468 479.6C418.908 479.6 418.844 479.568 418.828 479.264C418.876 477.744 418.876 477.552 418.876 476.096C417.916 476.464 416.972 476.736 415.404 477.12L415.34 476.928C416.972 476.256 417.532 476 418.876 475.264C418.86 474.432 418.86 474.336 418.828 473.776C419.628 474.096 419.932 474.224 420.348 474.416C421.228 473.872 421.532 473.664 422.316 473.12H416.508C416.092 473.12 415.804 473.152 415.516 473.216L415.42 472.656C415.804 472.752 416.076 472.784 416.508 472.784H420.94V470.912H418.076C417.724 470.912 417.452 470.944 417.116 471.008L417.02 470.448C417.372 470.544 417.708 470.576 418.076 470.576H420.94V470.08C420.94 469.504 420.924 469.168 420.86 468.512C421.356 468.56 421.756 468.608 421.996 468.64C423.068 468.736 423.308 468.816 423.308 468.992C423.308 469.12 423.148 469.216 422.7 469.344V470.576ZM424.972 470.912H422.7V472.784H422.764C423.772 472.016 424.284 471.584 424.972 470.912ZM420.556 475.376V476.608H425.836V474.944H421.42C421.1 475.104 421.052 475.136 420.556 475.376ZM425.836 476.944H420.556V478.64H425.836V476.944ZM418.012 479.536L418.188 479.568C418.236 480.08 418.252 480.32 418.252 480.608C418.252 482.144 417.468 483.36 416.46 483.36C415.98 483.36 415.644 482.864 415.644 482.128C415.644 481.872 415.724 481.648 415.868 481.52C415.948 481.456 416.076 481.392 416.396 481.28C416.796 481.152 417.228 480.88 417.468 480.608C417.708 480.352 417.836 480.096 418.012 479.536ZM420.028 479.744L420.172 479.664C420.332 479.808 420.444 479.904 420.54 479.968C421.596 480.848 421.932 481.328 421.932 481.888C421.932 482.544 421.308 483.216 420.684 483.216C420.348 483.216 420.172 483.024 420.172 482.64C420.172 482.56 420.172 482.448 420.188 482.32C420.236 481.84 420.268 481.456 420.268 481.184C420.268 480.752 420.204 480.4 420.028 479.744ZM426.396 479.824L426.492 479.712C427.58 480.08 428.284 480.384 428.844 480.736C429.42 481.104 429.612 481.376 429.612 481.824C429.612 482.544 429.036 483.264 428.476 483.264C428.172 483.264 428.076 483.136 427.852 482.432C427.516 481.36 427.228 480.848 426.396 479.824ZM422.988 479.712L423.116 479.6C424.3 480.192 424.62 480.384 424.972 480.688C425.404 481.056 425.596 481.36 425.596 481.712C425.596 482.384 424.988 483.12 424.412 483.12C424.028 483.12 423.9 482.912 423.852 482.32C423.772 481.264 423.58 480.672 422.988 479.712ZM340.124 502.208H338.332C338.188 503.216 338.012 503.712 337.644 504.336C337.1 505.248 336.188 506.016 334.94 506.592C334.396 506.848 334.012 506.976 333.1 507.216L333.02 507.04C334.844 506.08 335.692 505.232 336.268 503.76C336.476 503.232 336.572 502.8 336.636 502.208H336.108C335.884 502.208 335.708 502.224 335.404 502.288L335.308 501.952C334.556 502.64 334.06 502.976 332.748 503.68L332.636 503.52C333.548 502.592 334.092 501.872 334.684 500.8C335.068 500.112 335.26 499.664 335.468 498.976C337.5 499.648 337.644 499.696 337.644 499.856C337.644 500.016 337.532 500.048 336.94 500.112C336.428 500.8 335.98 501.328 335.468 501.808C335.756 501.856 335.916 501.872 336.108 501.872H340.428C340.556 501.76 340.588 501.712 340.716 501.616C340.3 501.056 340.108 500.688 339.756 499.76H339.228C338.844 499.76 338.828 499.76 338.396 499.808C338.268 499.808 338.268 499.808 338.108 499.84L337.996 499.328C338.348 499.392 338.588 499.424 338.78 499.424H339.468C339.692 499.12 339.756 499.024 339.98 498.736C340.332 498.976 340.428 499.04 340.748 499.264C340.892 499.376 340.924 499.424 340.924 499.472C340.924 499.536 340.828 499.616 340.62 499.728L340.204 499.952C340.796 500.624 341.324 500.944 342.252 501.232C342.604 501.328 342.828 501.376 343.372 501.456C343.26 500.656 343.212 499.952 343.212 499.104C343.212 498.928 343.212 498.64 343.212 498.272H335.036C334.748 498.272 334.524 498.288 334.156 498.368L333.996 497.824C334.412 497.904 334.78 497.936 335.036 497.936H343.036C343.42 497.504 343.532 497.36 343.916 496.944C344.78 497.584 344.78 497.584 345.18 497.888C345.34 498.016 345.404 498.096 345.404 498.176C345.404 498.304 345.308 498.384 344.844 498.624C344.812 499.168 344.796 499.536 344.796 499.76C344.796 500.656 344.956 501.744 345.244 502.672C345.42 503.296 345.612 503.648 346.044 504.208C346.604 503.12 346.78 502.704 347.276 501.456L347.452 501.488L347.036 504.336C347.02 504.416 347.004 504.64 347.004 504.688C347.004 504.864 347.116 505.104 347.372 505.52C347.564 505.808 347.628 505.968 347.628 506.192C347.628 506.672 347.292 507.04 346.876 507.04C346.076 507.04 344.956 505.952 344.236 504.496C343.852 503.68 343.596 502.848 343.404 501.728C343.004 501.936 342.796 502.256 342.684 502.848C342.652 503.024 342.604 503.104 342.524 503.104C342.396 503.104 342.076 502.912 341.676 502.592C341.532 504.528 341.244 505.968 340.908 506.352C340.636 506.672 340.332 506.816 339.756 506.928C339.548 506.976 339.244 507.008 339.116 507.008C338.956 507.008 338.924 506.976 338.924 506.752C338.908 506.464 338.796 506.112 338.636 505.952C338.444 505.744 338.236 505.648 337.308 505.376V505.168C337.516 505.2 337.516 505.2 338.044 505.264C338.412 505.328 338.78 505.36 339.1 505.36C339.148 505.36 339.148 505.36 339.26 505.36C339.532 505.376 339.676 505.232 339.756 504.896C339.9 504.304 340.012 503.472 340.124 502.208ZM336.972 494.336H343.244C343.804 493.76 343.964 493.584 344.444 493.024C345.308 493.632 345.564 493.808 346.38 494.432C346.428 494.496 346.46 494.544 346.46 494.576C346.46 494.624 346.396 494.672 346.3 494.672H336.716C335.484 496.24 334.3 497.296 332.54 498.384L332.444 498.256C333.308 497.264 333.804 496.592 334.412 495.536C335.068 494.4 335.436 493.552 335.788 492.4C336.284 492.544 336.732 492.672 336.972 492.736C338.204 493.056 338.348 493.12 338.348 493.296C338.348 493.36 338.316 493.44 338.252 493.456C338.124 493.52 337.932 493.568 337.692 493.584C337.628 493.584 337.548 493.6 337.436 493.616C337.212 493.984 337.132 494.096 336.972 494.336ZM337.116 496.112H342.396C342.876 495.6 343.02 495.44 343.452 494.944C344.22 495.504 344.444 495.664 345.148 496.24C345.196 496.272 345.212 496.32 345.212 496.352C345.212 496.416 345.148 496.448 345.052 496.448H337.116C336.844 496.448 336.636 496.464 336.284 496.512L336.124 496C336.54 496.08 336.844 496.112 337.116 496.112ZM361.292 497.248H361.42C361.772 496.816 361.772 496.816 362.092 496.4C362.54 496.832 362.668 496.96 363.084 497.424C363.116 497.456 363.132 497.488 363.132 497.504C363.132 497.536 363.084 497.584 363.036 497.584H354.604C354.332 497.584 353.948 497.616 353.644 497.68L353.516 497.104C353.916 497.2 354.284 497.248 354.54 497.248H355.644C355.932 496.512 355.98 496.384 356.156 495.872H355.292C355.132 495.872 354.764 495.904 354.412 495.968L354.284 495.408C354.652 495.488 355.052 495.536 355.292 495.536H356.268C356.492 494.832 356.572 494.56 356.652 494.08C357.052 494.144 357.356 494.192 357.548 494.208C358.636 494.368 358.78 494.416 358.78 494.56C358.78 494.688 358.636 494.768 358.156 494.928C358.044 495.232 357.996 495.328 357.932 495.536H359.66C360.044 495.168 360.156 495.056 360.524 494.736C361.004 495.072 361.148 495.184 361.628 495.552C361.692 495.616 361.756 495.68 361.756 495.712C361.756 495.84 361.628 495.952 361.292 496.16V497.248ZM359.756 497.248V495.872H357.804C357.564 496.496 357.484 496.688 357.244 497.248H359.756ZM359.628 501.712H360.492C360.844 501.312 360.956 501.2 361.34 500.864C361.9 501.264 362.06 501.392 362.604 501.84C362.636 501.888 362.668 501.936 362.668 501.968C362.668 502.016 362.588 502.048 362.508 502.048H359.628V502.352C359.628 502.928 359.628 503.04 359.644 503.632H360.7C361.1 503.184 361.228 503.04 361.644 502.624C362.252 503.104 362.428 503.264 363.052 503.792C363.084 503.824 363.116 503.888 363.116 503.904C363.116 503.936 363.052 503.968 362.988 503.968H359.644C359.676 504.736 359.676 504.736 359.692 505.152C359.676 505.296 359.66 505.376 359.596 505.408C359.484 505.488 359.132 505.552 358.716 505.552C358.652 505.552 358.652 505.552 358.508 505.552C358.492 505.552 358.476 505.552 358.46 505.552C358.188 505.552 358.092 505.488 358.044 505.312L358.06 503.968H355.884C355.756 504.496 355.756 504.496 355.724 504.688C355.644 504.912 355.484 504.96 354.796 504.96C354.252 504.96 354.076 504.896 354.076 504.704C354.076 504.672 354.076 504.624 354.076 504.576C354.46 503.168 354.476 503.056 354.492 502.416C354.86 502.464 355.148 502.496 355.34 502.528C356.252 502.624 356.476 502.688 356.476 502.848C356.476 502.96 356.348 503.04 356.06 503.12L355.964 503.632H358.076L358.092 502.352V502.048H355.34C355.084 502.048 354.796 502.08 354.492 502.144L354.38 501.584C354.7 501.664 355.068 501.712 355.34 501.712H358.092V500.512H356.38V500.704C356.364 500.8 356.348 500.832 356.3 500.864C356.172 500.928 355.788 500.976 355.404 500.976C354.94 500.976 354.812 500.928 354.812 500.704C354.828 499.792 354.828 499.76 354.828 499.392C354.828 498.656 354.796 498.112 354.764 497.712C355.468 498.016 355.692 498.112 356.428 498.464H359.916C360.252 498.112 360.364 498.016 360.716 497.712C361.212 498.032 361.356 498.128 361.852 498.48C361.964 498.56 362.028 498.64 362.028 498.704C362.028 498.816 361.932 498.896 361.596 499.104C361.596 499.264 361.596 499.344 361.596 499.44C361.596 499.504 361.596 499.504 361.596 499.936C361.596 500.256 361.596 500.256 361.612 500.56C361.612 500.656 361.58 500.704 361.532 500.736C361.404 500.816 361.02 500.88 360.604 500.88C360.156 500.88 360.076 500.848 360.076 500.688V500.512H359.628V501.712ZM356.38 498.8V500.176H360.076V498.8H356.38ZM353.276 506.208V506.816C353.26 507.072 353.196 507.12 352.876 507.168C352.668 507.2 352.188 507.232 351.948 507.232C351.612 507.232 351.5 507.152 351.5 506.912C351.5 506.912 351.5 506.88 351.5 506.848C351.516 505.84 351.516 505.84 351.548 504.496C351.564 503.008 351.58 502.64 351.58 500.592C351.58 495.584 351.548 493.504 351.484 492.576C352.348 492.928 352.62 493.056 353.516 493.536H362.972C363.404 493.088 363.532 492.944 363.964 492.512C364.668 493.056 364.668 493.056 365.356 493.552C365.468 493.664 365.532 493.744 365.532 493.808C365.532 493.952 365.372 494.096 364.94 494.352V500C364.94 501.52 364.956 503.776 365.02 506.736C365.02 506.96 364.956 507.04 364.812 507.104C364.636 507.168 364.14 507.232 363.74 507.232C363.356 507.232 363.228 507.152 363.212 506.912V506.208H353.276ZM353.276 493.872V505.872H363.212V493.872H353.276ZM375.772 502.96V502.528C375.772 502.128 375.74 501.872 375.66 501.344C376.748 501.472 377.004 501.504 377.596 501.632C378.268 501.136 378.588 500.864 379.132 500.336H372.172C371.788 500.336 371.42 500.368 370.972 500.432L370.86 499.856C371.404 499.968 371.692 500 372.188 500H379.388C379.916 499.6 379.916 499.6 380.428 499.216C381.148 499.696 381.372 499.856 382.092 500.4C382.236 500.512 382.284 500.576 382.284 500.656C382.284 500.784 382.092 500.88 381.82 500.88C381.804 500.88 381.772 500.88 381.74 500.88C381.596 500.864 381.468 500.864 381.34 500.864C381.26 500.864 381.148 500.864 380.988 500.864C379.692 501.344 379.132 501.536 378.092 501.856C378.108 501.888 378.124 501.92 378.124 501.936C378.124 502.048 377.964 502.144 377.532 502.272V502.96H381.1C381.628 502.368 381.788 502.192 382.348 501.616C383.132 502.192 383.372 502.368 384.156 503.008C384.236 503.088 384.268 503.136 384.268 503.184C384.268 503.248 384.188 503.296 384.092 503.296H377.532V504.256C377.532 504.944 377.548 505.472 377.548 505.584C377.548 505.664 377.548 505.712 377.532 505.856C377.532 506.416 377.388 506.704 376.972 506.912C376.588 507.104 376.316 507.184 375.692 507.264C375.372 507.296 375.292 507.312 375.196 507.312C375.052 507.312 375.02 507.28 374.988 507.04C374.956 506.736 374.876 506.512 374.716 506.368C374.556 506.192 374.124 505.984 373.628 505.824C373.532 505.792 373.132 505.696 372.428 505.504L372.444 505.28C373.228 505.328 373.228 505.328 375.404 505.44C375.676 505.424 375.772 505.36 375.772 505.184V503.296H370.716C370.364 503.296 369.9 503.328 369.548 503.392L369.404 502.816C369.868 502.912 370.252 502.96 370.716 502.96H375.772ZM377.484 494.448H380.908C381.436 493.872 381.596 493.696 382.124 493.152C382.892 493.712 383.132 493.888 383.932 494.48C383.996 494.544 384.028 494.592 384.028 494.624C384.028 494.72 383.932 494.784 383.82 494.784H370.716C370.412 494.784 369.948 494.832 369.644 494.88L369.5 494.336C370.028 494.416 370.348 494.448 370.716 494.448H375.692V493.632C375.692 493.248 375.66 492.992 375.596 492.464C375.836 492.496 375.836 492.496 376.54 492.56C376.94 492.608 376.94 492.608 377.58 492.704C377.964 492.752 378.124 492.832 378.124 492.992C378.124 493.136 378.124 493.136 377.484 493.408V494.448ZM373.868 496H379.516C379.884 495.584 379.996 495.472 380.38 495.104C380.972 495.456 381.132 495.568 381.692 495.936C381.852 496.064 381.932 496.144 381.932 496.224C381.932 496.368 381.788 496.496 381.404 496.688C381.404 497.136 381.404 497.152 381.404 497.632C381.42 498.128 381.42 498.128 381.42 498.704C381.436 498.736 381.436 498.784 381.436 498.816C381.436 498.944 381.372 499.04 381.276 499.088C381.116 499.152 380.428 499.216 379.9 499.216C379.724 499.216 379.66 499.152 379.644 498.992V498.72H373.644V498.992C373.628 499.152 373.596 499.2 373.532 499.264C373.42 499.344 373.036 499.392 372.572 499.392C371.98 499.392 371.852 499.328 371.852 499.056C371.852 499.04 371.852 499.008 371.852 498.992C371.884 498.224 371.9 497.968 371.9 497.392C371.9 496.144 371.884 495.776 371.82 495.152C372.732 495.472 373.004 495.6 373.868 496ZM373.644 496.336V498.384H379.644V496.336H373.644ZM395.644 497.648H397.132C397.74 496.608 398.108 495.68 398.428 494.384C398.892 494.544 399.244 494.672 399.468 494.752C400.7 495.136 400.796 495.184 400.796 495.36C400.796 495.424 400.748 495.504 400.7 495.536C400.588 495.6 400.588 495.6 400.012 495.712C398.652 497.024 398.572 497.088 397.82 497.648H399.788C400.156 497.264 400.268 497.152 400.652 496.752C401.372 497.296 401.596 497.472 402.332 498.08C402.476 498.224 402.508 498.288 402.508 498.352C402.508 498.4 402.46 498.48 402.412 498.512C402.348 498.544 402.22 498.576 402.044 498.576L401.756 498.592C401.644 498.592 401.532 498.608 401.436 498.608C400.252 499.456 400.22 499.488 399.452 499.92C399.612 500.016 399.66 500.064 399.82 500.208C399.932 500.32 399.98 500.384 399.98 500.464C399.98 500.64 399.884 500.672 399.052 500.8C397.804 502.464 397.26 503.056 396.332 503.84C397.964 504.576 399.564 504.88 402.316 504.976V505.136C401.804 505.328 401.596 505.504 401.308 505.92C401.132 506.176 401.02 506.416 400.924 506.752C400.876 506.928 400.828 506.976 400.652 506.976C400.556 506.976 400.22 506.928 399.916 506.848C398.316 506.496 396.62 505.68 395.26 504.64C394.364 505.296 393.276 505.84 391.82 506.336C390.588 506.752 389.66 506.96 388.06 507.184L388.012 507.008C389.708 506.464 391.068 505.84 392.46 504.976C393.052 504.608 393.34 504.384 394.204 503.68C393.18 502.608 392.636 501.68 392.124 500.16H391.628C391.276 500.16 391.052 500.176 390.588 500.24L390.492 499.696C390.908 499.792 391.228 499.824 391.772 499.824H397.228C397.628 499.44 397.756 499.328 398.156 498.944C398.652 499.28 398.876 499.44 399.164 499.68C399.436 499.2 399.436 499.2 399.868 497.984H390.092C390.108 498.224 390.108 498.24 390.108 498.448C390.108 499.296 389.932 499.952 389.612 500.4C389.372 500.72 389.004 500.928 388.716 500.928C388.3 500.928 387.852 500.304 387.852 499.744C387.852 499.392 387.948 499.248 388.348 499.008C388.78 498.752 389.164 498.352 389.356 497.936C389.532 497.584 389.596 497.296 389.612 496.672L389.788 496.64C389.948 497.12 389.996 497.28 390.044 497.648H391.612C391.516 497.568 391.484 497.536 391.452 497.424C391.436 497.376 391.436 497.376 391.212 496.512C391.02 495.792 390.892 495.472 390.62 495.056C390.268 495.056 390.204 495.056 390.124 495.056C389.884 495.056 389.612 495.056 388.876 495.04L388.86 494.816C393.372 494.32 397.372 493.392 399.212 492.432C399.612 492.688 399.916 492.896 400.124 493.008C401.196 493.664 401.244 493.696 401.244 493.856C401.244 493.984 401.116 494.064 400.94 494.064C400.828 494.064 400.684 494.048 400.3 493.984C397.676 494.56 396.62 494.704 394.14 494.896C395.692 495.632 396.236 496.064 396.236 496.624C396.236 497.024 395.964 497.472 395.644 497.648ZM392.444 497.648H394.812C394.668 497.504 394.668 497.504 394.396 496.416C394.252 495.808 394.06 495.36 393.756 494.912C392.604 494.992 392.204 495.008 391.004 495.04C392.54 495.824 392.94 496.16 392.94 496.688C392.94 497.104 392.764 497.456 392.444 497.648ZM397.196 500.16H392.428C392.94 501.328 393.644 502.128 394.924 503.04C395.836 502.16 396.38 501.456 397.196 500.16Z" fill="#151515"/>
<path d="M249.53 395.108V398.89C256.226 401.556 258.52 403.354 258.52 406.144C258.52 408.624 256.722 411.104 254.924 411.104C254.118 411.104 253.746 410.608 253.312 408.748C252.258 404.284 251.018 401.556 249.53 400.068V405.028L249.592 427.72C249.53 429.084 248.91 429.27 245.19 429.27C243.144 429.27 242.834 429.084 242.834 428.092C243.082 419.474 243.268 413.894 243.33 411.228L243.454 406.02C239.796 412.654 236.944 416.374 232.48 420.404L231.922 419.908C236.51 412.034 239.486 404.78 242.028 395.108H236.138C234.96 395.108 234.278 395.17 233.162 395.418L232.79 393.31C233.968 393.682 234.774 393.806 236.138 393.806H243.268V380.476C243.268 377.748 243.144 375.826 242.71 372.106C250.77 372.664 252.01 372.85 252.01 373.718C252.01 374.276 251.266 374.71 249.53 375.144V393.806H251.948C253.312 391.946 253.746 391.388 255.172 389.714C257.342 391.574 257.9 392.132 259.76 394.116C259.946 394.364 260.132 394.55 260.132 394.736C260.132 394.984 259.822 395.108 259.326 395.108H249.53ZM282.39 407.88L283.196 407.756C284.374 405.338 284.746 404.594 285.924 402.052C288.466 403.974 289.21 404.594 291.38 406.516C291.69 406.764 291.876 406.95 291.876 407.136C291.876 407.322 291.628 407.508 291.256 407.57L282.39 409.306C282.514 420.652 282.514 420.652 282.7 427.72C282.638 428.96 281.77 429.27 277.926 429.27C275.632 429.27 275.322 429.084 275.322 428.03C275.384 424.558 275.384 424.558 275.508 410.67L259.14 413.894C258.148 414.08 257.652 414.204 256.35 414.886L255.482 412.716C255.854 412.778 256.164 412.778 256.412 412.778C257.156 412.778 257.776 412.716 258.954 412.468L275.57 409.244L275.632 402.61V394.116C275.632 380.724 275.508 376.012 275.136 372.044C282.948 372.788 283.444 372.85 284.126 373.098C284.622 373.284 284.932 373.532 284.932 373.842C284.932 374.462 284.188 374.896 282.39 375.33C282.328 388.908 282.328 388.908 282.328 391.574C282.328 395.666 282.328 396.968 282.39 407.88ZM233.534 376.384L234.03 376.074C238.742 380.166 241.098 383.7 241.098 386.614C241.098 388.97 238.99 391.636 237.192 391.636C236.634 391.636 236.262 391.388 236.138 390.768C236.014 390.334 236.014 390.334 235.952 386.924C235.828 383.08 235.146 380.104 233.534 376.384ZM251.08 391.636L250.584 391.388C252.382 386.366 253.684 380.972 254.242 376.074C257.156 377.066 259.946 378.244 260.938 378.802C261.372 379.05 261.62 379.298 261.62 379.546C261.62 380.042 261 380.29 259.512 380.476C255.42 386.924 254.8 387.73 251.08 391.636ZM261.992 377.81L262.302 377.314C269.99 380.166 273.028 382.522 273.028 385.684C273.028 388.164 270.92 390.83 269.06 390.83C268.564 390.83 268.13 390.644 267.882 390.272C267.572 389.9 267.572 389.9 267.014 387.792C266.022 384.072 264.534 381.158 261.992 377.81ZM260.256 393.806L260.566 393.372C265.402 394.922 266.766 395.48 268.998 396.906C270.982 398.146 271.664 399.2 271.664 400.874C271.664 402.3 271.106 403.788 270.238 404.718C269.556 405.524 268.502 406.144 267.758 406.144C266.828 406.144 266.332 405.462 265.712 403.54C264.782 400.378 263.17 397.464 260.256 393.806ZM350.962 401.866H344.266V412.158H349.536C351.024 410.484 352.512 408.934 353.876 407.384C356.604 409.616 357.41 410.298 360.076 412.592C360.324 412.84 360.386 412.964 360.386 413.15C360.386 413.398 360.2 413.46 359.642 413.46H344.266V424.93H350.776C352.76 422.574 353.38 421.892 355.364 419.66C358.278 421.954 359.146 422.698 361.998 425.24C362.246 425.55 362.37 425.674 362.37 425.86C362.37 426.108 362.122 426.232 361.564 426.232H321.822C320.396 426.232 319.59 426.294 317.978 426.542L317.482 424.434C318.97 424.806 320.334 424.93 321.822 424.93H337.632V413.46H328.394C326.906 413.46 326.038 413.522 324.364 413.77L323.93 411.662C325.604 412.034 326.72 412.158 328.332 412.158H337.632V401.866H331.432V403.974C331.432 404.098 331.432 404.16 331.432 404.222C331.432 405.4 330.254 405.772 326.844 405.772C325.046 405.772 324.55 405.524 324.55 404.532V404.47C324.736 400.874 324.736 400.874 324.798 395.046C324.612 395.232 324.55 395.232 324.178 395.232H316.8V409.926C320.52 408.748 322.07 408.19 325.666 406.826L325.976 407.508C319.094 412.902 314.754 415.816 308.12 419.598C308.058 421.644 307.81 422.326 307.19 422.326C306.446 422.326 306.26 422.016 303.16 413.522C305.64 413.15 306.322 412.964 310.29 411.91V395.232H307.686C306.384 395.232 305.764 395.294 304.338 395.48L303.966 393.496C305.578 393.806 306.446 393.93 307.748 393.93H310.29V378.554H307.686C306.136 378.554 305.454 378.616 303.966 378.802L303.594 376.818C305.206 377.19 306.074 377.252 307.748 377.252H315.374C317.358 375.082 317.358 375.082 319.28 372.974C321.76 374.958 322.38 375.516 324.798 377.748C324.736 375.64 324.736 374.834 324.488 372.354C327.836 373.842 328.766 374.338 331.866 376.012H350.342C351.83 374.4 352.264 373.904 353.814 372.292C356.17 373.904 356.852 374.4 359.022 376.074C359.58 376.57 359.828 376.942 359.828 377.252C359.828 377.748 359.394 378.12 357.534 379.174C357.472 381.53 357.472 382.894 357.472 384.382C357.472 389.652 357.534 393.434 357.906 403.602C357.906 404.408 357.658 404.718 356.914 404.904C356.356 405.09 354.124 405.338 352.884 405.338C351.396 405.338 350.962 405.028 350.962 404.098V401.866ZM350.962 400.564V389.528H344.266V400.564H350.962ZM350.962 388.226V377.314H344.266V388.226H350.962ZM337.632 400.564V389.528H331.432V400.564H337.632ZM337.632 388.226V377.314H331.432V388.226H337.632ZM324.798 378.492L324.426 378.554H316.8V393.93H317.11C318.412 392.07 318.846 391.574 320.21 389.838C322.194 391.822 322.752 392.442 324.55 394.488L324.798 394.798C324.86 390.024 324.86 387.048 324.86 385.746C324.86 383.204 324.86 381.158 324.798 378.492ZM433.36 388.474H428.152C427.16 394.984 426.664 397.526 425.548 401.06C424.308 405.09 422.51 408.872 420.154 412.344C424.432 416.436 427.904 418.42 433.98 420.528V421.148C431.934 421.892 430.818 422.822 429.64 424.744C429.206 425.55 429.082 425.798 428.524 427.224C428.4 427.658 428.214 427.844 427.904 427.844C427.532 427.844 426.726 427.41 425.61 426.604C422.2 424.124 419.348 420.9 416.744 416.622C413.954 419.598 411.164 421.83 407.816 423.814C404.096 426.046 401.368 427.162 395.788 428.836L395.54 428.34C401.182 424.868 403.848 422.884 407.382 419.536C410.11 416.932 412.156 414.39 414.078 411.476C411.908 406.454 411.164 403.912 409.986 396.968C407.63 400.75 405.894 402.92 402.36 406.516L401.802 406.206C402.98 404.098 403.29 403.478 404.22 401.494C403.724 401.556 403.538 401.618 402.918 401.68C402.05 402.114 401.368 402.486 400.934 402.734C398.144 404.16 397.772 404.346 396.284 405.028C395.602 405.338 395.602 405.338 395.106 405.586C396.408 405.772 397.028 406.082 397.028 406.516C397.028 406.888 396.47 407.322 395.23 407.756V409.74C398.578 409.244 401.244 408.748 406.266 407.694L406.39 408.314C401.616 410.422 399.57 411.29 395.23 412.778V418.048C395.23 418.172 395.23 419.102 395.292 420.404C395.292 420.714 395.292 421.086 395.292 421.272C395.292 421.582 395.292 422.078 395.292 422.884C395.292 423.256 395.23 423.876 395.23 424.62C394.982 426.728 394.176 427.596 391.634 428.34C390.394 428.712 388.286 429.084 387.232 429.084C386.798 429.084 386.612 428.898 386.55 428.402C386.302 426.418 386.054 425.736 385.186 424.992C383.946 424 382.21 423.38 379.048 422.76L379.11 422.016C384.194 422.326 384.194 422.326 387.17 422.45C387.356 422.45 387.542 422.45 387.604 422.45C388.782 422.45 388.968 422.264 388.968 421.21V415.01C387.604 415.506 386.674 415.816 384.194 416.56C383.574 416.746 383.574 416.746 380.846 417.49C380.474 417.614 380.102 417.738 379.792 417.862C379.606 418.42 379.482 418.916 379.358 419.226C379.172 419.908 378.924 420.218 378.552 420.218C378.242 420.218 378.056 420.032 377.87 419.536C377.436 418.482 376.32 414.638 375.7 412.034C376.258 412.034 376.63 412.034 376.754 412.034C378.304 412.034 383.822 411.476 386.302 411.104C388.534 410.732 388.534 410.732 388.968 410.67V409.802C388.968 408.004 388.844 406.516 388.596 404.966C391.014 405.152 392.068 405.276 393.556 405.4C394.734 403.912 395.106 403.168 396.532 399.82H390.456C385.124 404.346 382.458 406.082 375.08 409.554L374.646 408.872C379.172 405.834 381.59 403.788 385.372 399.82H380.04C379.482 399.82 378.8 399.882 378.118 399.944C377.25 400.068 377.25 400.068 376.878 400.068L376.444 398.084C377.684 398.332 379.048 398.518 380.226 398.518H386.612C388.162 396.782 390.394 394.116 391.696 392.318H378.8C377.994 392.318 377.25 392.38 375.452 392.566L375.018 390.582C376.32 390.83 377.622 391.016 378.8 391.016H385.806V382.398H380.846C379.668 382.398 378.862 382.46 377.436 382.646L377.064 380.6C378.676 380.972 379.73 381.096 380.846 381.096H385.806V378.244C385.682 374.958 385.558 372.974 385.496 372.292C392.564 372.788 393.308 372.85 394.114 373.284C394.486 373.408 394.672 373.594 394.672 373.842C394.672 374.4 393.928 374.834 392.192 375.454L392.13 381.096H392.874C393.804 379.918 394.114 379.484 395.292 378.182C395.974 378.864 397.586 380.29 398.516 381.22C400.19 377.81 400.748 376.446 401.554 373.904C403.166 374.586 404.406 375.082 405.274 375.454C408.56 376.756 409.614 377.376 409.614 377.996C409.614 378.554 409.118 378.74 407.072 379.05C404.592 383.266 401.306 388.164 398.95 391.016H401.182C402.174 389.59 402.484 389.156 403.6 387.792C405.522 389.28 406.08 389.776 407.816 391.512L408.064 391.698C410.11 385.126 411.846 376.818 412.156 372.23C414.14 372.664 415.69 372.974 416.682 373.16C420.526 373.78 421.89 374.338 421.89 375.082C421.89 375.64 421.518 375.826 419.1 376.384C417.798 381.096 416.62 384.32 415.256 387.172H423.13C424.866 384.94 425.424 384.32 427.222 382.15C430.136 384.568 431.004 385.312 433.794 387.73C433.918 387.854 433.918 387.978 433.918 388.102C433.918 388.35 433.67 388.474 433.36 388.474ZM421.332 388.474H414.636C413.396 391.202 412.28 393.248 410.854 395.666C412.218 400.998 413.52 404.036 416.186 407.756C418.976 402.238 420.216 397.464 421.332 388.474ZM407.816 392.318H397.896C396.408 394.054 393.556 397.092 391.944 398.518H397.028C398.206 397.278 398.578 396.844 399.818 395.666C402.422 397.402 403.042 397.898 405.026 399.634C406.142 397.216 406.824 395.356 407.816 392.318ZM397.896 382.398H392.13L392.068 391.016H392.626C394.548 388.226 396.284 385.436 397.896 382.398ZM496.848 389.404H474.962C469.94 395.48 469.94 395.48 466.034 399.262C473.164 399.138 474.404 399.138 487.238 398.332C484.944 395.666 483.58 394.364 480.542 391.822L480.852 391.388C486.742 393.124 489.222 394.054 491.888 395.418C495.67 397.402 497.096 399.076 497.096 401.494C497.096 404.098 495.67 406.578 494.12 406.578C493.376 406.578 492.818 406.02 491.516 403.85C490.772 402.61 489.966 401.556 488.54 399.82C479.674 401.866 479.674 401.866 475.768 402.548C471.118 403.354 461.074 404.842 456.362 405.4C456.114 407.136 455.742 407.88 455.06 407.88C454.192 407.88 453.696 406.33 452.208 398.89C455.37 399.2 456.92 399.262 463.058 399.262C464.918 394.86 465.414 393.372 466.406 389.404H460.764C459.524 389.404 458.594 389.528 456.672 389.838L456.176 387.668C458.036 387.978 459.09 388.102 460.764 388.102H486.308C487.982 386.18 488.54 385.622 490.276 383.824L492.198 385.188C492.632 383.576 492.818 382.832 493.066 380.972H456.052C456.052 384.258 455.742 386.118 454.874 388.04C453.944 390.148 452.146 391.574 450.472 391.574C448.426 391.574 446.814 389.59 446.814 387.234C446.814 386.242 447.062 385.56 447.744 385.002C447.992 384.816 447.992 384.816 449.48 383.886C451.216 382.832 452.58 381.53 453.324 380.166C453.882 379.112 454.13 378.182 454.502 375.702H455.246C455.804 377.438 455.866 377.996 455.99 379.67H470.932V376.198C470.932 373.78 470.932 373.222 470.746 371.61C479.178 372.168 480.852 372.478 480.852 373.346C480.852 373.966 479.984 374.462 477.938 375.02V379.67H492.57C494.058 378.058 494.554 377.562 496.104 375.95C499.204 378.058 500.134 378.74 503.048 380.972C503.544 381.406 503.73 381.654 503.73 382.026C503.73 382.274 503.544 382.522 503.234 382.708C502.986 382.832 502.366 382.956 501.56 383.018L500.444 383.08C500.072 383.08 499.7 383.142 499.328 383.142C498.584 383.576 497.84 383.948 497.468 384.134C494.554 385.684 494.492 385.684 493.562 386.18L496.848 388.66C497.096 388.784 497.22 388.97 497.22 389.094C497.22 389.218 497.034 389.404 496.848 389.404ZM477.938 413.212H487.548C489.904 410.67 489.904 410.67 492.074 408.376C495.05 410.546 495.98 411.228 499.018 413.708C499.204 413.894 499.266 414.018 499.266 414.142C499.266 414.39 499.018 414.514 498.77 414.514H477.938V425.426H491.764C493.81 423.132 494.43 422.45 496.538 420.28C499.514 422.45 500.506 423.194 503.73 425.798C503.978 426.046 504.164 426.232 504.164 426.418C504.164 426.604 503.978 426.728 503.73 426.728H452.952C451.464 426.728 450.1 426.852 447.868 427.162L447.372 424.93C449.046 425.24 450.906 425.426 453.014 425.426H471.056V414.514H457.54C455.928 414.514 454.998 414.576 452.952 414.886L452.456 412.778C454.502 413.088 456.052 413.212 457.54 413.212H471.056V410.608C471.056 408.066 470.994 406.888 470.746 404.346C472.606 404.532 474.218 404.718 475.086 404.842C479.674 405.276 480.48 405.462 480.48 406.144C480.48 406.764 480.108 406.95 477.938 407.694V413.212Z" fill="white"/>
</svg>
