<svg width="24" height="17" viewBox="0 0 24 17" fill="none" xmlns="http://www.w3.org/2000/svg">
<path d="M21.8167 1.66867C21.8167 1.26747 20.4981 1 19.9573 1L19.6192 1.08358L19.2811 1.16717L18.605 1.5015L17.2526 2.50451L16.0694 3.50751L14.0409 5.17919C13.9282 5.29063 12.3505 6.51653 11.3362 6.51653C11.145 6.51653 10.6037 6.12647 10.322 5.84786C10.0402 5.51352 9.24012 4.57738 8.2935 3.50751C7.34687 2.43764 5.41981 1.72439 4.57461 1.5015C3.98572 1.49483 3.48535 1.5015 3.48535 1.98966C3.48535 2.97933 4.74365 4.67769 4.57461 4.67769C4.40557 4.67769 2.20804 3.67468 2.20804 3.84185C2.20804 4.00902 2.98497 4.95866 2.54613 5.01202C2.37835 5.03242 1.36285 5.34636 1.19381 5.51352C1.02477 5.68069 2.82268 6.43648 2.54613 6.51653C2.38389 6.56349 0.983469 7.43281 1.02476 7.85387C1.04322 8.04212 2.32905 8.48292 2.54613 8.91731C2.82942 9.47258 1.48388 9.41214 1.02477 10.027C0.798328 10.3303 2.20804 10.5374 1.86997 11.0301C1.6577 11.3393 1.19374 11.649 1.02476 12.2002C0.915095 12.5579 2.8227 12.3882 2.54615 12.876C2.41387 13.1093 1.48385 14.3605 2.20804 14.3734C2.4846 14.3605 3.62062 13.9593 3.48539 14.3605C3.31635 14.862 2.98498 15.3501 3.22228 15.5436C3.32021 15.6234 3.98572 15.845 4.57461 15.8779C5.486 15.9289 6.46375 15.8779 7.44829 14.7077C8.98948 12.876 10.991 10.8966 12.0124 11.0301C12.202 11.0548 12.4921 11.3915 13.4929 12.3811L14.717 13.3704C15.3932 13.9276 16.4951 14.8553 17.5907 15.3764C18.6863 15.8975 19.594 16.1759 20.4981 15.8779C21.5124 15.5436 21.5708 15.4608 22.1548 15.0112C23 14.3605 21.0187 14.5214 20.9985 13.8656C21.0187 13.5317 21.8843 13.5041 22.1548 13.3704C22.4253 13.2367 21.2239 12.2206 20.9985 11.8863C20.6806 11.5724 22.4929 11.6319 22.4929 11.3644C22.4929 11.0969 21.6116 10.1856 21.4989 9.90697C21.3433 9.61973 23 9.59241 23 9.19121C23 8.79001 21.9268 8.60683 21.8167 8.42248C21.6612 8.16192 23 7.61983 23 7.35237C23 7.0849 21.8167 7.23799 21.4786 6.93798C21.1608 6.53694 22.7633 5.61382 22.4929 5.34636C22.2224 5.07889 21.4989 4.95866 21.4786 4.67769C21.4989 3.96899 22.4929 3.57438 22.4929 3.17318C22.4929 2.77198 20.1643 3.47416 20.3063 3.17318C20.5317 2.83884 21.8167 2.06987 21.8167 1.66867Z" fill="#F6D164" stroke="#F6D164" stroke-width="0.3"/>
<path d="M4.79736 5.95532C4.96657 5.97053 5.13225 6.0581 5.29277 6.10737C5.82998 6.27224 6.35304 6.44308 6.87011 6.66486C7.52152 6.94427 8.18263 7.17906 8.84605 7.42508" stroke="white" stroke-width="0.3" stroke-linecap="round"/>
<path d="M7.00122 9.14817C8.48915 8.91731 8.48915 8.91731 10.2812 8.57942C12.9925 7.92765 13.9933 7.43281 15.9698 6.41138" stroke="white" stroke-width="0.3" stroke-linecap="round"/>
<path d="M11.7673 9.90888C13.8792 9.90888 16.0173 10.0135 18.1222 9.85767" stroke="white" stroke-width="0.3" stroke-linecap="round"/>
</svg>
