<svg width="122" height="122" viewBox="0 0 122 122" fill="none" xmlns="http://www.w3.org/2000/svg">
<path d="M46.9297 50.4558C65.6075 50.3892 78.8014 80.3423 77.3982 84.1819" stroke="#FFD55A" stroke-width="2.32533"/>
<path d="M118.134 58.347C118.134 88.3999 93.5094 112.83 63.0494 112.83C32.5894 112.83 7.96449 88.3999 7.96449 58.347C7.96449 28.2941 32.5894 3.8639 63.0494 3.8639C93.5094 3.8639 118.134 28.2941 118.134 58.347Z" stroke="#208553" stroke-width="7.72781"/>
<ellipse cx="62.9747" cy="58.3322" rx="50.6691" ry="51.2304" fill="url(#paint0_diamond_548_761)" fill-opacity="0.7"/>
<path d="M109.921 58.3322C109.921 84.6085 88.8637 105.839 62.9747 105.839C37.0857 105.839 16.0287 84.6085 16.0287 58.3322C16.0287 32.0558 37.0857 10.8248 62.9747 10.8248C88.8637 10.8248 109.921 32.0558 109.921 58.3322Z" stroke="#F4D478" stroke-opacity="0.04" stroke-width="7.44606"/>
<ellipse cx="32.1658" cy="33.0772" rx="32.1658" ry="33.0772" transform="matrix(0.987949 -0.154776 0.151481 0.98846 26.6504 30.2529)" fill="url(#paint1_angular_548_761)" fill-opacity="0.7"/>
<path fill-rule="evenodd" clip-rule="evenodd" d="M62.5582 31.6369C61.1832 31.3131 59.8135 31.7238 58.9798 32.71L39.0295 56.313L33.5293 63.9158C31.4293 66.4003 33.7557 71.0969 36.5515 73.412L38.9365 75.7606L11.1065 105.75C9.67471 107.444 8.69869 109.692 10.6048 111.27L13.4738 113.352C15.38 114.931 18.425 112.113 19.8568 110.419L42.7996 78.5939L45.7099 80.4658C48.5057 82.7809 56.1669 82.3108 58.2668 79.8264L62.456 75.7989L64.6042 73.4437L82.4063 52.1959C83.24 51.2096 83.4066 49.8027 82.8418 48.5202C82.661 48.1096 82.2832 47.7968 81.843 47.6931C80.468 47.3693 79.0983 47.78 78.2646 48.7662L57.2967 73.3495C57.0503 73.6385 56.6413 73.7326 56.2921 73.5806L54.9017 72.9755C54.3845 72.7505 54.224 72.1009 54.5775 71.6635L75.2074 46.1385C76.0411 45.1522 76.6373 43.186 75.9466 42.5658C75.4141 42.0876 75.4081 42.214 74.9679 42.1103C73.5928 41.7864 72.6556 42.4449 71.8219 43.4312L50.8209 68.9597C50.5181 69.3278 49.9703 69.3808 49.6025 69.0775L48.0419 67.7908C47.679 67.4916 47.6282 66.9582 47.9281 66.5959L57.8629 54.5967L68.7334 41.4181C69.567 40.4318 70.5213 39.1326 69.9565 37.8502C69.7756 37.4396 69.3979 37.1268 68.9577 37.0231C67.5826 36.6992 66.2129 37.1099 65.3793 38.0962L51.4836 55.6788L44.0095 64.7748C43.7114 65.1375 43.1744 65.1956 42.8055 64.9049L41.733 64.0598C41.3627 63.768 41.3006 63.2343 41.5941 62.8657L63.2751 35.6359C64.1087 34.6496 64.2328 32.867 63.4561 32.0915C62.9793 31.6154 62.9985 31.7406 62.5582 31.6369Z" fill="url(#paint2_angular_548_761)"/>
<g filter="url(#filter0_b_548_761)">
<path d="M63.6678 33.7876C65.4584 31.0226 100.194 45.2855 91.0716 55.235C79.6685 67.6718 49.3843 31.9509 58.8888 33.1812C68.3934 34.4115 87.2759 47.7839 86.3266 54.6175C85.3773 61.4511 78.8603 63.5888 76.2804 62.2611C73.7004 60.9333 38.9376 37.5518 47.6268 34.7014C56.3161 31.8511 83.6203 64.2015 80.091 69.7073C76.5618 75.2131 30.256 40.3996 44.9206 44.2854C59.5851 48.1712 89.9526 79.9642 72.2289 76.6344C55.3726 73.4676 43.4414 59.989 43.0338 57.9487C42.6261 55.9083 75.612 72.7747 67.8843 78.0596C61.775 82.2377 58.9233 79.5497 58.7874 78.8696" stroke="#F4D478" stroke-width="2.32533"/>
</g>
<path d="M53.2529 47.6904C46.8204 62.1846 63.1985 91.7969 66.356 93.1844" stroke="#F7D164" stroke-width="2.32533"/>
<defs>
<filter id="filter0_b_548_761" x="27.6187" y="18.7019" width="79.418" height="76.0947" filterUnits="userSpaceOnUse" color-interpolation-filters="sRGB">
<feFlood flood-opacity="0" result="BackgroundImageFix"/>
<feGaussianBlur in="BackgroundImageFix" stdDeviation="6.6438"/>
<feComposite in2="SourceAlpha" operator="in" result="effect1_backgroundBlur_548_761"/>
<feBlend mode="normal" in="SourceGraphic" in2="effect1_backgroundBlur_548_761" result="shape"/>
</filter>
<radialGradient id="paint0_diamond_548_761" cx="0" cy="0" r="1" gradientUnits="userSpaceOnUse" gradientTransform="translate(62.6786 58.2003) rotate(174.611) scale(59.5843 58.9315)">
<stop stop-color="white"/>
<stop offset="1" stop-color="#F4D478" stop-opacity="0.29"/>
</radialGradient>
<radialGradient id="paint1_angular_548_761" cx="0" cy="0" r="1" gradientUnits="userSpaceOnUse" gradientTransform="translate(32.1658 33.0772) rotate(-148.866) scale(10.1776 10.1821)">
<stop stop-color="#D9D9D9"/>
<stop offset="1" stop-color="white"/>
</radialGradient>
<radialGradient id="paint2_angular_548_761" cx="0" cy="0" r="1" gradientUnits="userSpaceOnUse" gradientTransform="translate(42.3529 76.075) rotate(130.206) scale(47.3587 15.2953)">
<stop stop-color="#979797"/>
<stop offset="1" stop-color="#979797" stop-opacity="0.91"/>
</radialGradient>
</defs>
</svg>
