<svg width="25" height="25" viewBox="0 0 25 25" fill="none" xmlns="http://www.w3.org/2000/svg">
<path d="M9.49585 10.2092C13.2751 10.1957 15.9447 16.2564 15.6608 17.0333" stroke="#FFD55A" stroke-width="0.470506"/>
<path d="M23.9033 11.8059C23.9033 17.8868 18.9208 22.83 12.7575 22.83C6.59423 22.83 1.61165 17.8868 1.61165 11.8059C1.61165 5.72501 6.59423 0.78182 12.7575 0.78182C18.9208 0.78182 23.9033 5.72501 23.9033 11.8059Z" stroke="#208553" stroke-width="1.56364"/>
<ellipse cx="12.7423" cy="11.8029" rx="10.2523" ry="10.3659" fill="url(#paint0_diamond_36_2752)" fill-opacity="0.7"/>
<path d="M22.2414 11.8029C22.2414 17.1197 17.9807 21.4155 12.7423 21.4155C7.50397 21.4155 3.24331 17.1197 3.24331 11.8029C3.24331 6.48619 7.50397 2.19033 12.7423 2.19033C17.9807 2.19033 22.2414 6.48619 22.2414 11.8029Z" stroke="#F4D478" stroke-opacity="0.04" stroke-width="1.50663"/>
<ellipse cx="6.50841" cy="6.69282" rx="6.50841" ry="6.69282" transform="matrix(0.987949 -0.154776 0.151481 0.98846 5.39282 6.12134)" fill="url(#paint1_angular_36_2752)" fill-opacity="0.7"/>
<path fill-rule="evenodd" clip-rule="evenodd" d="M12.6581 6.40142C12.3798 6.33589 12.1027 6.41899 11.934 6.61855L7.89729 11.3944L6.78438 12.9327C6.35947 13.4354 6.83019 14.3857 7.39588 14.8542L7.87846 15.3294L2.24736 21.3975C1.95765 21.7402 1.76017 22.195 2.14585 22.5144L2.72636 22.9356C3.11205 23.255 3.72817 22.6849 4.01788 22.3421L8.66013 15.9027L9.249 16.2814C9.81469 16.7499 11.3648 16.6547 11.7897 16.152L12.6374 15.3371L13.072 14.8606L16.6741 10.5613C16.8428 10.3617 16.8765 10.0771 16.7622 9.81758C16.7256 9.7345 16.6492 9.67121 16.5601 9.65022C16.2819 9.58469 16.0048 9.66779 15.8361 9.86735L11.5935 14.8415C11.5436 14.9 11.4608 14.919 11.3902 14.8883L11.1088 14.7658C11.0042 14.7203 10.9717 14.5889 11.0433 14.5004L15.2175 9.33566C15.3862 9.13609 15.5068 8.73826 15.3671 8.61276C15.2593 8.516 15.2581 8.54158 15.169 8.5206C14.8908 8.45507 14.7012 8.5883 14.5325 8.78787L10.2832 13.9533C10.2219 14.0278 10.111 14.0385 10.0366 13.9771L9.72084 13.7168C9.64741 13.6562 9.63713 13.5483 9.69782 13.475L11.708 11.0471L13.9075 8.38053C14.0762 8.18097 14.2693 7.9181 14.155 7.6586C14.1184 7.57552 14.042 7.51224 13.9529 7.49125C13.6747 7.42572 13.3976 7.50882 13.2289 7.70838L10.4172 11.266L8.90493 13.1065C8.84462 13.1799 8.73596 13.1917 8.66132 13.1328L8.4443 12.9618C8.36937 12.9028 8.35681 12.7948 8.4162 12.7202L12.8031 7.21057C12.9718 7.01101 12.9969 6.65031 12.8398 6.4934C12.7433 6.39706 12.7471 6.42241 12.6581 6.40142Z" fill="url(#paint2_angular_36_2752)"/>
<g filter="url(#filter0_b_36_2752)">
<path d="M12.8825 6.83657C13.2448 6.2771 20.2733 9.16306 18.4274 11.1762C16.1201 13.6927 9.99241 6.46493 11.9156 6.71387C13.8387 6.96281 17.6594 9.66858 17.4673 11.0513C17.2752 12.434 15.9566 12.8665 15.4345 12.5979C14.9125 12.3292 7.87864 7.59821 9.63681 7.02148C11.395 6.44474 16.9197 12.9905 16.2056 14.1045C15.4915 15.2186 6.12202 8.17444 9.08923 8.96069C12.0564 9.74693 18.201 16.1799 14.6148 15.5062C11.2041 14.8654 8.78994 12.1381 8.70745 11.7253C8.62496 11.3125 15.2993 14.7252 13.7357 15.7945C12.4995 16.6399 11.9225 16.0961 11.895 15.9584" stroke="#F4D478" stroke-width="0.470506"/>
</g>
<path d="M10.7754 9.64966C9.47383 12.5824 12.7878 18.5741 13.4267 18.8549" stroke="#F7D164" stroke-width="0.470506"/>
<defs>
<filter id="filter0_b_36_2752" x="5.5885" y="3.78405" width="16.0691" height="15.397" filterUnits="userSpaceOnUse" color-interpolation-filters="sRGB">
<feFlood flood-opacity="0" result="BackgroundImageFix"/>
<feGaussianBlur in="BackgroundImageFix" stdDeviation="1.3443"/>
<feComposite in2="SourceAlpha" operator="in" result="effect1_backgroundBlur_36_2752"/>
<feBlend mode="normal" in="SourceGraphic" in2="effect1_backgroundBlur_36_2752" result="shape"/>
</filter>
<radialGradient id="paint0_diamond_36_2752" cx="0" cy="0" r="1" gradientUnits="userSpaceOnUse" gradientTransform="translate(12.6824 11.7762) rotate(174.611) scale(12.0563 11.9242)">
<stop stop-color="white"/>
<stop offset="1" stop-color="#F4D478" stop-opacity="0.29"/>
</radialGradient>
<radialGradient id="paint1_angular_36_2752" cx="0" cy="0" r="1" gradientUnits="userSpaceOnUse" gradientTransform="translate(6.50841 6.69282) rotate(-148.866) scale(2.05933 2.06024)">
<stop stop-color="#D9D9D9"/>
<stop offset="1" stop-color="white"/>
</radialGradient>
<radialGradient id="paint2_angular_36_2752" cx="0" cy="0" r="1" gradientUnits="userSpaceOnUse" gradientTransform="translate(8.56973 15.393) rotate(130.206) scale(9.58252 3.09484)">
<stop stop-color="#979797"/>
<stop offset="1" stop-color="#979797" stop-opacity="0.91"/>
</radialGradient>
</defs>
</svg>
