<svg width="153" height="102" viewBox="0 0 153 102" fill="none" xmlns="http://www.w3.org/2000/svg">
<path d="M100.565 20.5747C100.575 20.5796 100.585 20.5845 100.595 20.5894C104.573 22.5166 109.994 26.0051 111.663 29.7766C113.594 31.5679 114.265 33.4588 113.953 35.3372C115.072 35.5542 124.765 31.8908 125.138 38.8432C131.177 42.0509 137.909 47.1581 136.629 51.2575C137.988 52.7466 139.083 54.7139 139.064 56.7141C148.993 62.885 158.27 75.578 140.76 83.7805C137.688 90.0638 125.389 100.405 100.763 91.5011C98.8332 91.6856 96.6964 91.8146 94.4163 91.8966C74.1952 104.208 52.4091 94.703 44.0438 88.4115C39.5678 87.5353 35.5674 86.5798 32 85.5631C-0.337768 86.9891 2.11048 76.9323 7.37683 71.7256C3.2592 65.4667 6.09294 59.4466 10.2016 56.0518C11.335 55.6342 13.6456 54.7992 13.8211 54.7992C13.07 52.1604 16.8015 49.188 20.1168 47.2115C20.0692 45.5355 21.2814 43.9868 23.0316 42.7152C24.8214 41.782 29.2838 39.2152 30.0432 39.9156C26.7252 34.6953 27.7699 32.3138 30.1332 32.2242C31.3522 32.1615 33.9938 32.2112 34.8087 32.9116C32.5742 27.0166 34.4954 25.3948 36.5482 25.5559L38.3672 25.9076C38.5428 24.5744 39.8117 24.2748 41.4212 24.5254C41.4212 22.9352 42.6578 19.9907 47.604 20.9343C46.5734 19.7971 45.9697 18.7402 45.7056 17.9074C45.7841 16.9749 47.5795 15.5767 54.1329 17.4444C52.8352 16.061 52.2857 14.7949 52.222 13.8637C51.9585 12.9295 52.7268 11.4074 57.9085 12.7935C56.5766 11.6399 56.1479 10.6238 56.2398 9.91474C55.9128 8.65158 57.3786 6.20658 65.8578 6.53183C73.4631 4.21925 85.7845 3.29338 91.3989 13.2542C92.0386 14.3893 92.4134 15.3407 92.5586 16.1289C95.0534 15.3881 100.187 14.7564 100.763 18.156C100.782 19.0213 100.713 19.8268 100.565 20.5747Z" fill="#F8DC85"/>
<path fill-rule="evenodd" clip-rule="evenodd" d="M79.1504 6.73258C74.7085 6.05254 69.9618 6.81026 66.2897 7.92685C65.2087 8.25555 64.2336 8.61155 63.4008 8.9632C62.6529 9.27903 61.7882 8.93403 61.4696 8.19262C61.4594 8.16889 61.4499 8.14503 61.441 8.12109C59.9783 8.30007 59.027 8.6062 58.4365 8.91668C57.8221 9.23976 57.6954 9.49175 57.6741 9.58378L57.7361 9.82315L57.7001 10.1007C57.7002 10.0997 57.7003 10.1004 57.7005 10.1029C57.7033 10.1455 57.7413 10.7109 58.8773 11.6947C60.7021 13.2751 64.7582 15.3653 72.7516 17.1828C73.661 17.3896 74.6199 17.5925 75.6305 17.7906C72.1004 16.541 68.5921 15.0822 65.7313 13.7776L65.4601 13.6539L65.2589 13.4352C64.785 12.9202 64.0793 11.9408 64.3246 10.7722C64.6062 9.43107 65.8672 8.85561 67.0131 8.62693C68.2399 8.38212 69.9782 8.37758 72.3486 8.64833C74.744 8.92194 77.8826 9.48908 81.9571 10.4537C82.7479 10.6409 83.2358 11.4281 83.047 12.212C82.8581 12.9958 82.0639 13.4794 81.2732 13.2922C77.2669 12.3437 74.2511 11.8033 72.0116 11.5475C69.8586 11.3016 68.5078 11.3294 67.7133 11.4658C72.5694 13.6387 78.9398 16.0977 84.0048 17.2511C86.7186 17.8691 88.8294 18.0557 90.1081 17.7833C90.7227 17.6524 90.9513 17.4561 91.0335 17.3455C91.0963 17.2609 91.2272 17.0233 91.1107 16.3911C91.0052 15.8187 90.7104 15.0241 90.1139 13.9659C87.5773 9.46555 83.5459 7.4055 79.1504 6.73258ZM83.3967 20.107C83.4185 20.2466 83.4199 20.3917 83.3985 20.5388C83.2969 21.2356 82.7141 21.7459 82.0318 21.7867C84.1136 22.6408 86.0505 23.2502 87.6656 23.4612C89.6847 23.7251 90.704 23.3188 91.1846 22.6559C91.4936 22.2296 91.7383 21.5046 91.7345 20.3299C91.4071 20.4646 91.0667 20.5641 90.7266 20.6365C88.7796 21.0512 86.1398 20.7282 83.3967 20.107ZM94.3234 17.2089C94.9493 20.2838 94.7764 22.7025 93.5754 24.359C92.1123 26.3771 89.6118 26.6592 87.2808 26.3545C84.891 26.0422 82.1449 25.06 79.4716 23.8688C76.8479 22.6997 74.199 21.2854 71.8813 19.9788C64.1535 18.2023 59.6363 16.0924 57.2127 14.121C55.1306 13.5951 54.108 13.6606 53.6915 13.7731C53.728 14.2637 54.0611 15.2248 55.2112 16.4508C57.6783 19.0807 63.5456 22.5152 75.7076 24.3897C76.7619 24.5521 77.8626 24.7028 79.0115 24.84C79.6998 24.9223 80.2197 25.4629 80.2975 26.1165C83.6295 27.0615 87.2633 27.39 90.4647 26.9358C95.0826 26.2807 98.3636 24.1076 99.1204 20.2932C99.1479 20.1545 99.1723 20.0128 99.1935 19.8681C99.1942 19.8634 99.1949 19.8587 99.1956 19.8539C99.2655 19.372 99.2998 18.8565 99.2931 18.3053C99.2071 17.9153 99.0194 17.6825 98.7583 17.5056C98.4313 17.284 97.9234 17.1139 97.226 17.0409C96.3053 16.9446 95.2576 17.0377 94.3234 17.2089ZM97.4088 27.5449C95.5225 28.7584 93.2461 29.4893 90.8818 29.8247C85.7212 30.5568 79.7155 29.5125 75.0302 27.2384C73.175 26.9478 71.4502 26.6199 69.8482 26.2612C75.1624 30.228 81.8729 33.7962 87.4996 34.0427C90.4045 34.1699 92.9239 33.4116 94.8875 31.4454C95.8378 30.4939 96.6984 29.2193 97.4088 27.5449ZM67.0679 25.5765C60.0357 23.676 55.7551 21.1511 53.3488 18.7414C50.3949 17.9351 48.6714 17.8946 47.7573 18.061C47.6088 18.088 47.4908 18.1174 47.3975 18.1461C47.6618 18.656 48.0793 19.2751 48.6993 19.9592C49.1728 20.4817 49.7574 21.0342 50.4675 21.596C53.4353 23.9441 58.576 26.4369 66.8304 27.5748C66.4398 27.0591 66.43 26.3288 66.851 25.7977C66.9166 25.715 66.9894 25.6411 67.0679 25.5765ZM71.47 30.9466C71.392 30.9539 71.3123 30.9551 71.2316 30.9497C68.7508 30.7853 66.4739 30.5107 64.3877 30.1486C65.9622 31.366 68.0061 32.7483 70.2004 33.8736C73.3473 35.4875 76.5087 36.4196 78.9793 35.9385C79.7771 35.7832 80.5508 36.2983 80.7075 37.0891C80.8642 37.8798 80.3446 38.6468 79.5468 38.8021C76.057 39.4816 72.1344 38.1513 68.8475 36.4656C65.5018 34.7497 62.5086 32.5054 60.7529 30.9436C60.2734 30.5171 60.1423 29.8494 60.3786 29.2921C59.7366 29.1271 59.1169 28.9532 58.5189 28.7715C58.8477 30.2192 59.9226 32.7367 62.4053 35.9247C65.2226 39.5422 69.7895 43.938 76.9069 48.4767C84.5305 49.1917 93.1795 47.6635 100.113 44.9578C103.628 43.5861 106.639 41.9363 108.826 40.1779C110.697 38.6743 111.842 37.1933 112.309 35.842C111.957 36.313 111.537 36.7671 111.05 37.2034C108.491 39.4947 103.904 41.4599 96.695 43.031C95.9735 43.5168 95.1986 43.9731 94.3687 44.3892C89.0971 47.0323 81.7502 47.9876 72.0899 44.8527C71.3172 44.6019 70.8959 43.7778 71.1489 43.0119C71.3404 42.432 71.8636 42.0517 72.4419 42.0101C71.9805 41.6935 71.7235 41.1281 71.8317 40.5456C71.9788 39.753 72.7463 39.2288 73.5459 39.3747C89.1219 42.2165 96.002 36.9805 97.3923 34.7098C97.8142 34.0209 98.7195 33.8014 99.4146 34.2195C99.8314 34.4703 100.078 34.8936 100.117 35.3409C100.542 34.636 100.87 33.9593 101.104 33.3448C101.392 32.5911 102.242 32.2115 103.002 32.4968C103.763 32.7821 104.146 33.6244 103.858 34.3781C103.336 35.7438 102.476 37.3007 101.249 38.8402C105.183 37.6277 107.649 36.3153 109.076 35.0379C110.046 34.169 110.481 33.3655 110.632 32.6615C110.784 31.9566 110.684 31.1982 110.315 30.3627C109.628 28.8108 108.087 27.1777 106.093 25.6444C104.722 24.5902 103.206 23.6363 101.762 22.8397C100.936 27.6827 99.2983 31.1771 96.9799 33.4985C94.3043 36.1775 90.9053 37.1131 87.3696 36.9582C82.1195 36.7282 76.3671 34.0944 71.47 30.9466ZM102.174 19.7451C104.012 20.6943 106.057 21.9235 107.897 23.3384C109.937 24.9061 111.862 26.8057 112.883 28.9152C114.374 30.3668 115.237 31.9659 115.448 33.6423C115.571 33.6182 115.702 33.5927 115.842 33.566C116.93 33.3587 118.368 33.1162 119.814 33.1053C121.235 33.0946 122.863 33.3033 124.199 34.1735C125.432 34.9773 126.247 36.2314 126.519 37.9281C129.402 39.5138 132.418 41.5195 134.653 43.6686C135.858 44.8274 136.897 46.0849 137.545 47.3983C138.076 48.4751 138.374 49.6548 138.218 50.8566C139.334 52.2327 140.285 53.984 140.494 55.8901C145.364 59.0615 150.17 63.8416 151.622 69.1005C152.399 71.9158 152.21 74.8755 150.55 77.6946C148.967 80.38 146.129 82.8037 141.846 84.8819C138.067 91.9044 125.032 101.705 100.572 92.9846C98.8063 93.1459 96.8847 93.2622 94.8543 93.3405C84.4737 99.5375 73.7182 100.222 64.5213 98.5659C55.446 96.9321 47.8261 93.0126 43.4287 89.7782C39.1457 88.9316 35.2897 88.0111 31.8252 87.0312C23.7998 87.373 17.8369 87.0126 13.4864 86.1667C9.12488 85.3186 6.1999 83.9473 4.50367 82.1195C2.72084 80.1984 2.45756 77.9538 3.03715 75.893C3.48876 74.2872 4.44358 72.7905 5.54434 71.5342C3.79675 68.3923 3.54493 65.265 4.27933 62.4494C5.07906 59.3833 7.01986 56.7812 9.25919 54.931L9.45274 54.771L9.68893 54.684C10.2596 54.4738 11.1278 54.158 11.8781 53.8939C12.0097 53.8476 12.1387 53.8025 12.2626 53.7595C12.3866 52.2111 13.3631 50.8197 14.3723 49.7569C15.5837 48.4811 17.1804 47.3147 18.7015 46.3624C19.0131 44.3525 20.5374 42.7183 22.1616 41.5383L22.2498 41.4742L22.3465 41.4238C22.5639 41.3104 22.8363 41.1643 23.1464 40.9979C24.0259 40.5261 25.2081 39.8919 26.2958 39.3832C26.7617 39.1653 27.2415 38.9551 27.7008 38.782C26.7602 36.9251 26.3448 35.316 26.4949 33.984C26.6007 33.0447 26.9954 32.2109 27.7048 31.6158C28.3935 31.0382 29.2422 30.7995 30.0666 30.7665C30.7005 30.7344 31.6697 30.7296 32.6242 30.816C32.2159 29.0203 32.2408 27.557 32.7061 26.416C33.0623 25.5424 33.6639 24.8983 34.4223 24.5111C35.1561 24.1365 35.9494 24.0452 36.6645 24.1013L36.748 24.1078L37.4893 24.2512C37.8238 23.8074 38.2796 23.4741 38.8188 23.2643C39.2558 23.0943 39.7232 23.0136 40.1922 22.9919C40.4416 22.1998 40.905 21.3717 41.6801 20.689C42.4635 19.9989 43.4749 19.5349 44.7204 19.3652C44.5448 19.0136 44.4053 18.6722 44.3015 18.345L44.2148 18.0716L44.2389 17.7861C44.3593 16.3555 45.662 15.4753 47.2254 15.1907C48.1977 15.0137 49.4421 15.0115 51.0221 15.2512C50.8877 14.856 50.8019 14.4698 50.7648 14.097C50.6632 13.6265 50.6749 13.0607 50.9311 12.5028C51.2278 11.8569 51.7774 11.3846 52.4707 11.1061C53.1013 10.8529 53.8815 10.7448 54.8284 10.7854C54.7725 10.5254 54.7479 10.2646 54.7572 10.004C54.5371 8.6082 55.3864 7.21695 57.0568 6.33861C58.7491 5.44881 61.4712 4.92779 65.6657 5.06491C69.5698 3.90676 74.6774 3.09484 79.5998 3.84843C84.67 4.62465 89.6064 7.0821 92.6842 12.5426C93.0459 13.1843 93.3435 13.797 93.571 14.3805C94.771 14.1442 96.1973 13.9987 97.535 14.1387C98.5048 14.2401 99.5442 14.5032 100.42 15.0962C101.341 15.7203 102.002 16.6609 102.215 17.9145L102.232 18.0184L102.235 18.1236C102.247 18.6814 102.227 19.222 102.174 19.7451ZM46.8662 22.2902C45.0114 22.0251 44.0899 22.4704 43.6358 22.8704C43.4455 23.038 43.2974 23.2324 43.1852 23.4349C43.6431 23.5692 44.1009 23.7273 44.5474 23.9C45.6132 24.2558 47.1747 24.7833 48.5276 25.2534C48.3775 24.6007 48.2642 24.0005 48.1818 23.5109C47.6967 23.1035 47.2589 22.6951 46.8662 22.2902ZM51.7501 25.9486C51.8696 26.3493 52.0035 26.7492 52.153 27.1331C54.1209 32.1852 58.6663 39.8941 67.5427 47.2083C68.5482 47.3787 69.5691 47.5409 70.602 47.6934C65.8142 44.1399 62.4189 40.718 60.0748 37.7079C57.0145 33.7784 55.6763 30.4579 55.4835 28.4233C55.4611 28.1868 55.4969 27.9582 55.5794 27.7515C54.1529 27.1897 52.8804 26.5821 51.7501 25.9486ZM61.9435 46.1482C55.3263 39.7963 51.5476 33.4201 49.6334 28.7516C49.5915 28.7357 49.547 28.719 49.4998 28.7014C49.0554 28.5354 48.4358 28.3149 47.7387 28.0719C46.3476 27.5869 44.683 27.0245 43.5743 26.6546L43.5399 26.6431L43.5061 26.6299C42.6743 26.3063 41.8743 26.073 41.193 25.9669C40.4892 25.8573 40.0768 25.91 39.8945 25.9809C39.8716 25.9898 39.8567 25.9973 39.8478 26.0024C39.8421 26.0178 39.8336 26.0473 39.8271 26.0965C39.7944 26.3454 39.8404 26.906 40.2647 27.9215C40.6777 28.9102 41.3952 30.2034 42.5252 31.8601C44.6414 34.9624 48.115 39.2103 53.469 44.9316C53.8279 44.5311 54.3967 44.3421 54.954 44.4911C57.0728 45.0574 59.4258 45.6206 61.9435 46.1482ZM54.9228 47.5028C54.8529 47.7506 54.716 47.9832 54.513 48.1722C53.9204 48.7238 52.9888 48.6948 52.4322 48.1074C46.3984 41.7386 42.4721 36.9924 40.0863 33.4947C38.8939 31.7468 38.0608 30.2738 37.5445 29.0381C37.2654 28.3699 37.0605 27.7284 36.9551 27.1212L36.3597 27.0061C36.087 26.9943 35.8937 27.0426 35.7704 27.1055C35.661 27.1614 35.5371 27.261 35.4357 27.5096C35.1938 28.1027 35.1016 29.5351 36.1869 32.3984C37.5012 35.8658 40.3855 41.0245 45.8693 48.4881C54.1271 50.6228 64.9191 52.7475 75.8602 53.824C87.0498 54.925 98.2754 54.9171 107.086 52.7771C109.269 52.2467 111.291 51.5884 113.118 50.7911C117.411 48.9183 120.577 46.3059 122.331 42.8153C122.944 41.5957 123.394 40.2514 123.657 38.7671C123.558 37.524 123.09 36.9433 122.582 36.6122C121.96 36.2072 121.025 36.0146 119.836 36.0236C118.673 36.0324 117.454 36.2306 116.398 36.4318C116.206 36.4684 116.01 36.5071 115.819 36.5446C115.574 36.5929 115.338 36.6394 115.132 36.6773C114.43 38.8116 112.779 40.7578 110.681 42.4446C108.194 44.4435 104.897 46.2276 101.192 47.6733C93.7905 50.5615 84.5092 52.1964 76.2578 51.3454C72.97 51.0063 69.7367 50.5486 66.655 50.0181C62.3718 49.2808 58.3745 48.4018 54.9228 47.5028ZM126.144 41.076C125.969 41.6961 125.763 42.2971 125.527 42.8791C126.481 43.499 127.407 44.247 128.139 45.0989C129.16 46.2882 129.971 47.8903 129.574 49.6991C129.182 51.4861 127.716 52.9759 125.392 54.2051C124.418 54.72 123.252 55.2125 121.871 55.6787C125.547 55.2855 128.354 54.7248 130.445 54.053C133.819 52.969 134.942 51.7265 135.223 50.8262C135.399 50.262 135.338 49.5668 134.9 48.6807C134.457 47.7832 133.676 46.7949 132.603 45.7634C130.871 44.0978 128.537 42.4687 126.144 41.076ZM115.619 54.3208C119.559 53.4908 122.246 52.5611 124.006 51.6304C126.003 50.5742 126.572 49.647 126.697 49.0786C126.817 48.5321 126.627 47.8405 125.897 46.9911C125.445 46.4653 124.85 45.9587 124.186 45.5022C122.152 48.7437 119.086 51.179 115.376 52.9701C115.462 53.4265 115.543 53.8767 115.619 54.3208ZM112.601 54.1502C111.554 54.5411 110.466 54.8919 109.344 55.2055C111.475 61.6391 111.787 66.5972 110.604 70.3262C109.297 74.4486 106.249 76.8128 102.525 77.9481C98.8659 79.0637 94.5054 79.0202 90.2672 78.4089C87.3117 77.9827 84.3546 77.2712 81.6401 76.4336C84.5083 77.6028 87.5539 78.617 90.5842 79.3146C96.212 80.6103 101.57 80.7641 105.641 79.0311C107.074 78.421 108.35 77.5769 109.435 76.4598C111.596 74.2344 113.133 70.7839 113.458 65.5579C113.598 63.3081 113.512 60.7391 113.157 57.8157C113.095 57.3088 113.025 56.7913 112.947 56.2632C112.846 55.5769 112.731 54.8727 112.601 54.1502ZM83.7152 74.0038C85.9573 74.6446 88.3317 75.1807 90.6912 75.521C94.7266 76.103 98.5933 76.0936 101.659 75.1588C104.661 74.2437 106.837 72.4731 107.796 69.4508C108.729 66.5089 108.58 62.1667 106.478 55.9111C97.4214 57.8627 86.3609 57.7899 75.5694 56.7281C64.228 55.6121 53.0633 53.391 44.6135 51.1786L44.1098 51.0467L43.802 50.6302C38.3054 43.1946 35.1857 37.8057 33.6322 33.9403C33.5996 33.9302 33.5629 33.9195 33.5218 33.9085C33.2451 33.8344 32.8861 33.775 32.4738 33.7335C31.6503 33.6505 30.7625 33.653 30.2097 33.6814L30.1997 33.6819L30.1897 33.6823C29.8357 33.6957 29.6719 33.7888 29.6066 33.8436C29.5592 33.8834 29.4569 33.988 29.4209 34.3078C29.3366 35.056 29.6742 36.5975 31.2889 39.1379C31.7291 39.8305 32.2559 40.5843 32.8795 41.4011C35.4554 44.775 39.6325 49.1572 46.0323 54.654C46.5343 54.8828 47.0846 55.1212 47.6807 55.3664C50.2254 56.4133 53.5806 57.5746 57.5472 58.6442C68.1814 61.5118 83.0799 63.6859 98.425 61.3249C100.029 61.0781 101.637 60.7819 103.246 60.4318C104.04 60.259 104.825 60.757 104.999 61.5441C105.174 62.3313 104.671 63.1095 103.877 63.2823C103.487 63.3671 103.098 63.4488 102.708 63.5276C102.926 63.693 103.128 63.8573 103.315 64.0207C104.229 64.8191 104.945 65.7385 105.125 66.8004C105.324 67.9774 104.811 68.9471 104.085 69.6355C103.4 70.2853 102.459 70.7641 101.472 71.1344C99.478 71.8823 96.7872 72.3713 94.0466 72.6854C91.3741 72.9917 88.5603 73.1417 86.119 73.1809C85.3092 73.4742 84.5079 73.7482 83.7152 74.0038ZM91.7234 69.983C92.3896 69.9267 93.0541 69.8613 93.7084 69.7864C96.3795 69.4802 98.7812 69.0234 100.43 68.405C101.264 68.0921 101.781 67.7826 102.05 67.527C102.175 67.4084 102.211 67.3344 102.22 67.3141C102.223 67.306 102.225 67.3058 102.221 67.2831C102.206 67.1937 102.082 66.8329 101.369 66.2103C100.787 65.7017 99.9151 65.1089 98.6785 64.4349C98.5035 64.6615 98.2598 64.8396 97.9654 64.9345C85.0772 69.0863 74.5271 70.2634 66.5429 70.0256C58.601 69.7891 53.1083 68.1482 50.4001 66.5608C49.7003 66.1506 49.4684 65.2557 49.8822 64.5621C50.2961 63.8684 51.1988 63.6386 51.8987 64.0488C54.0262 65.2958 58.9724 66.8805 66.6313 67.1086C71.7645 67.2615 78.0768 66.803 85.5028 65.2458C74.6594 65.3085 64.6508 63.5756 56.8775 61.4879C50.456 60.7108 45.0381 59.848 40.4924 58.926C45.8767 66.1468 56.7532 76.2317 74.3457 73.3075C75.6557 73.0897 76.9993 72.816 78.3764 72.4816C80.6083 71.9396 82.9286 71.238 85.337 70.3567C86.7467 69.8408 88.1867 69.2633 89.6567 68.6201C90.4005 68.2947 91.2696 68.6285 91.5979 69.3658C91.6874 69.5667 91.7275 69.7769 91.7234 69.983ZM40.7268 53.8789C36.6058 50.1346 33.5497 46.9228 31.3513 44.2042C30.6769 44.6771 30.0884 45.2296 29.6925 45.8101C29.134 46.6288 29.0143 47.3874 29.3857 48.1711C29.8132 49.0729 31.0257 50.3089 33.9223 51.6153C35.6344 52.3876 37.865 53.1528 40.7268 53.8789ZM29.5842 41.869C29.4605 41.6925 29.3408 41.5182 29.2252 41.3464C28.795 41.4744 28.2189 41.7107 27.5521 42.0225C26.5449 42.4936 25.4936 43.0576 24.6272 43.5224C24.3331 43.6802 24.0603 43.8265 23.8177 43.9539C22.2355 45.1254 21.5625 46.2551 21.5885 47.1704C21.611 47.9613 22.179 49.2195 24.6803 50.7404C26.2162 51.6743 28.3707 52.6343 31.2959 53.5824C28.9645 52.338 27.4507 50.9516 26.721 49.412C25.7976 47.4638 26.2761 45.6083 27.2535 44.1754C27.8695 43.2724 28.7018 42.4968 29.5842 41.869ZM30.5729 56.4182C27.3923 55.3989 24.953 54.3298 23.1408 53.228C21.2889 52.1019 19.9638 50.8574 19.2508 49.5C18.2185 50.2091 17.2558 50.9782 16.5162 51.7571C15.3223 53.0145 15.0896 53.8814 15.2381 54.403C15.4128 55.0167 16.1787 56.0194 18.8485 56.9662C20.2595 57.4666 22.3235 57.6407 25.2495 57.6821C25.8184 57.6902 26.5245 57.5743 27.4024 57.3514C28.1024 57.1736 28.8393 56.9477 29.6468 56.7002C29.8519 56.6374 30.0616 56.5731 30.2764 56.5079C30.3743 56.4781 30.4732 56.4482 30.5729 56.4182ZM36.1522 58.1985C34.5289 58.3156 32.8514 58.7781 31.1388 59.2982C30.9441 59.3573 30.7479 59.4175 30.5511 59.4778C29.7364 59.7277 28.9104 59.981 28.1332 60.1784C27.5006 60.339 26.8516 60.4762 26.2096 60.5478C26.1983 60.6316 26.1952 60.7187 26.2017 60.8085C26.2239 61.1157 26.3675 61.5798 26.9131 62.1516C27.9919 63.2823 30.5171 64.6906 35.839 65.7159C36.1768 64.8055 36.4119 63.4952 36.4684 62.0232C36.5248 60.5564 36.3945 59.1828 36.1522 58.1985ZM33.0578 68.0978C28.847 67.0654 26.2403 65.6936 24.7741 64.1569C23.8345 63.1721 23.3429 62.0947 23.2651 61.017C23.2535 60.8576 23.2513 60.7009 23.2574 60.5474C21.7466 60.4815 20.3674 60.3494 19.1584 60.0816C19.0871 60.5197 19.1202 61.1033 19.3774 61.8598C19.8551 63.2646 21.0966 65.1914 23.7398 67.5558C27.518 68.4685 30.202 68.6078 32.0643 68.3147C32.4284 68.2573 32.7585 68.1841 33.0578 68.0978ZM28.6845 71.3189C32.6083 73.9295 37.9898 76.8472 45.2754 80.0037C46.7236 80.3151 48.2315 80.6178 49.801 80.9106C51.5049 81.2286 53.2815 81.535 55.1334 81.8286C55.3917 81.8696 55.6235 81.9748 55.8148 82.1252C65.5534 84.0134 76.9742 85.8514 84.9836 86.2948C87.4119 86.4292 89.4771 86.4322 91.0638 86.2816C91.8571 86.2063 92.4949 86.0958 92.9811 85.959C93.3866 85.8449 93.623 85.7301 93.7478 85.6493C93.7148 85.5741 93.6533 85.4592 93.5395 85.3006C93.0211 84.5779 91.8346 83.5201 89.6611 82.0974C84.2039 80.8112 78.7746 78.5849 74.3353 76.2653C56.7782 78.9767 45.4661 69.7161 39.4037 62.294C39.3072 64.3803 38.8782 66.6936 37.8796 68.1632C36.8077 69.7407 35.028 70.803 32.5261 71.1969C31.4076 71.3729 30.1326 71.4186 28.6845 71.3189ZM95.5196 83.0818C95.6748 83.2603 95.8146 83.4361 95.9389 83.6093C96.3812 84.2258 96.7319 84.9539 96.7301 85.7549C96.7282 86.6307 96.3083 87.3332 95.7206 87.8257C95.1758 88.2823 94.4819 88.5704 93.7849 88.7665C93.0705 88.9674 92.2438 89.1013 91.3445 89.1867C89.5461 89.3574 87.3141 89.3467 84.8195 89.2086C74.8596 88.6573 59.9278 86.0238 49.2394 83.7754C47.5983 83.4691 46.0215 83.1518 44.5067 82.8246C28.2778 79.3193 19.0497 74.6547 14.2251 70.0039C9.73621 65.6766 8.98841 61.2439 10.2511 57.9798C8.79589 59.4173 7.64341 61.2107 7.12977 63.1799C6.52656 65.4925 6.77603 68.1407 8.61009 70.9285C11.5 75.3212 18.4111 80.1717 32.407 84.1607C35.9293 85.1647 39.8888 86.1107 44.3292 86.98C48.7658 87.8486 53.6801 88.6401 59.1154 89.3362C69.5438 90.1544 83.588 90.8256 94.3631 90.4384C96.6221 90.3572 98.7285 90.2297 100.621 90.0487C102.677 89.8521 104.457 89.5944 105.897 89.2716C107.239 88.9708 108.358 88.0102 109.021 86.8844C109.348 86.3279 109.531 85.7854 109.586 85.3425C109.642 84.8855 109.553 84.6512 109.5 84.5691C109.127 83.9933 108.133 83.124 106.12 81.9853C102.917 83.1824 99.2621 83.432 95.5196 83.0818ZM109.194 80.4357C110.081 81.0274 110.808 81.6147 111.356 82.2046C112.253 82.0601 113.123 81.9137 113.967 81.7655C113.492 81.6186 113.103 81.2362 112.975 80.7222C112.78 79.9399 113.261 79.1488 114.05 78.9553C114.517 78.841 114.972 78.7266 115.418 78.6122C114.107 78.7436 112.679 78.843 111.126 78.9077C110.52 79.48 109.874 79.9879 109.194 80.4357ZM113.585 75.8428C117.377 75.5575 120.107 75.0326 122.016 74.3794C124.448 73.5477 125.284 72.6046 125.537 71.9533C125.779 71.3284 125.662 70.4985 124.971 69.4259C124.375 68.4996 123.457 67.5731 122.438 66.7718C120.571 66.9348 118.525 67.0425 116.284 67.0876C115.915 70.6189 114.989 73.5189 113.585 75.8428ZM116.459 64.1649C118.775 64.1133 120.861 63.9928 122.735 63.8141C125.225 63.5767 127.335 63.2371 129.115 62.8225C130.325 62.5405 131.378 62.2249 132.289 61.8855C136.599 60.2803 137.577 58.2526 137.592 56.7001C137.601 55.7699 137.277 54.7855 136.732 53.8485C135.553 55.0873 133.726 56.0667 131.353 56.8292C127.931 57.9287 123.018 58.6968 116.249 59.0307C116.421 60.86 116.489 62.5694 116.459 64.1649ZM126.264 66.3265C126.706 66.8109 127.11 67.3232 127.453 67.856C128.383 69.2996 129.006 71.1397 128.285 73.0002C128.068 73.5592 127.747 74.0739 127.328 74.5463C127.55 74.4383 127.765 74.3307 127.973 74.2235C130.972 72.674 132.213 71.3151 132.624 70.3426C132.973 69.5173 132.811 68.747 132.134 67.907C131.494 67.1131 130.462 66.372 129.277 65.7789C128.343 65.9828 127.341 66.1659 126.264 66.3265ZM133.868 65.455C134.069 65.6571 134.258 65.8672 134.434 66.0853C135.589 67.5173 136.213 69.4047 135.34 71.4706C134.529 73.3893 132.539 75.1551 129.333 76.8114C126.499 78.2758 122.547 79.7397 117.19 81.1668C123.46 79.934 128.111 78.5944 131.476 77.2242C136.006 75.3794 137.925 73.592 138.55 72.2108C139.093 71.0111 138.794 69.755 137.574 68.3467C136.669 67.3021 135.355 66.3124 133.868 65.455ZM136.05 63.3528C137.475 64.2404 138.797 65.2799 139.807 66.4451C141.435 68.3238 142.425 70.7773 141.236 73.4051C140.129 75.8514 137.296 78.0094 132.595 79.9237C128.086 81.7595 121.595 83.4767 112.547 84.9681C112.552 85.2157 112.537 85.4609 112.508 85.6986C112.397 86.5967 112.058 87.515 111.563 88.3555C111.472 88.5108 111.374 88.6652 111.27 88.8181C124.998 87.5274 134.218 85.2311 140.131 82.4612C144.348 80.486 146.77 78.3228 148.007 76.2229C149.221 74.1622 149.376 72.0251 148.782 69.8705C147.707 65.9746 144.175 62.0679 140.061 59.1354C139.417 60.7262 138.106 62.163 136.05 63.3528ZM107.555 92.0608C120.274 91.1014 129.707 89.3358 136.526 87.0311C131.956 91.5109 122.734 95.8505 107.555 92.0608ZM12.831 56.6554C13.3913 57.0781 13.5798 57.8517 13.2427 58.4912C12.2327 60.408 12.0963 63.8809 16.2778 67.9118C18.9666 70.5038 23.4011 73.2641 30.3644 75.819C26.8409 73.7388 24.1233 71.7856 22.0579 69.9793C19.0161 67.3191 17.306 64.905 16.5875 62.7919C16.1265 61.4362 16.0718 60.1796 16.3604 59.1054C14.886 58.4161 13.764 57.5801 13.0637 56.5737C12.9985 56.5965 12.9316 56.6199 12.8634 56.644C12.8526 56.6477 12.8418 56.6516 12.831 56.6554ZM7.27355 74.0485C6.61587 74.905 6.11803 75.806 5.87317 76.6767C5.52311 77.9213 5.68144 79.078 6.67048 80.1437C7.74611 81.3028 9.94325 82.5037 14.0531 83.3029C16.4816 83.7751 19.5148 84.095 23.2658 84.2017C15.3402 81.1308 10.2453 77.6506 7.27355 74.0485ZM51.4778 91.1988C55.2522 93.0612 59.9009 94.768 65.0474 95.6945C72.1424 96.9718 80.1406 96.7607 88.107 93.4687C78.397 93.4912 67.3882 92.9135 58.8466 92.2426L58.8104 92.2397L58.7745 92.2351C56.2339 91.9101 53.8031 91.5641 51.4778 91.1988ZM95.2759 40.4555C95.7345 40.1358 96.1662 39.8029 96.5715 39.461C92.5245 42.1293 85.2633 44.2361 74.2054 42.45C82.6208 44.9203 88.766 43.9279 93.0398 41.785C93.8287 41.3895 94.5583 40.9525 95.2304 40.4871C95.2454 40.4763 95.2605 40.4658 95.2759 40.4555ZM47.073 18.3075C47.0709 18.3064 47.0782 18.2954 47.1014 18.278C47.0867 18.2999 47.0751 18.3086 47.073 18.3075ZM57.6723 9.62159C57.6704 9.62113 57.6687 9.60943 57.6732 9.58785C57.6765 9.61124 57.6742 9.62204 57.6723 9.62159Z" fill="#FFEDBA"/>
<path d="M54.5254 11.1053C51.5378 4.88631 62.7414 2.83799 68.7166 2.5912C86.6418 0.518205 92.8669 8.88423 93.7388 13.3264C103.897 13.0302 103.947 17.1515 102.702 19.2492C111.366 21.9145 115.026 29.4908 115.773 32.9458C128.619 32.6497 130.337 37.7581 129.59 40.3494C128.3 38.3399 125.359 37.9202 119.505 38.1283C118.011 38.1283 119.948 45.9088 118.758 47.3827C117.264 49.2336 114.65 48.4933 113.854 47.0126C113.08 45.5718 115.725 38.5726 113.854 38.1283C106.061 36.2774 104.466 39.392 103.822 40.3494C102.328 42.5704 101.581 55.8969 102.702 59.2285C103.598 61.8938 103.075 63.794 102.702 64.411C102.204 65.8917 100.386 68.4829 97.0999 67.0022C93.8135 65.5215 93.9877 61.2028 94.4857 59.2285C95.2326 56.3904 95.3073 48.6414 89.6308 40.3494C83.9543 32.0574 74.3192 36.8944 70.2112 40.3494C69.7133 42.9406 68.8668 48.6414 69.4643 50.7144C70.2112 53.3056 72.4519 60.339 68.7174 67.0022C64.9829 73.6654 59.537 70.6789 57.5138 67.0022C55.2731 62.9302 57.5138 42.2003 56.02 40.3494C54.8249 38.8687 54.0282 40.9663 53.7793 42.2003C53.5303 45.0383 53.1817 51.3807 53.7793 54.046C54.3768 56.7113 54.0282 58.1179 53.7793 58.4881C53.1568 59.2285 51.3145 60.265 48.9244 58.4881C45.9367 56.267 48.1775 50.7144 48.1775 42.2003C48.1775 33.6862 40.7084 36.6476 39.2146 38.1283C38.0195 39.3129 38.7166 47.0126 39.2146 50.7144C38.7165 51.2079 37.571 51.8989 36.9739 50.7144C36.2274 49.2337 37.7203 42.2003 35.8535 38.1283C34.36 34.8707 33.9849 32.2054 32.8646 33.6862C33.2381 42.0769 35.151 47.3827 29.1292 47.3827C25.0206 47.3827 25.0229 43.3108 26.8903 38.1283C23.3052 31.6132 28.3841 30.2312 31.3718 30.3546C31.3718 24.4317 35.6041 23.4446 37.7203 23.6914C37.4216 21.3222 41.8283 19.7428 44.069 19.2492C42.5752 15.6955 47.181 14.8071 49.6707 14.8071C48.1769 10.0688 52.2847 10.3649 54.5254 11.1053Z" fill="#FFFEDA"/>
<rect width="1.4889" height="2.22848" transform="matrix(0.792669 -0.609652 0.616394 0.787438 51.7534 16.2345)" fill="#557D43"/>
<rect width="1.48393" height="2.23593" transform="matrix(0.498101 0.867119 -0.870868 0.491518 61.6333 6.80157)" fill="#557D43"/>
<rect width="1.49372" height="2.22122" transform="matrix(0.996336 0.085521 -0.0870297 0.996206 74.5732 9.78558)" fill="#557D43"/>
<rect width="1.48347" height="2.23662" transform="matrix(0.460768 -0.88752 0.890801 0.454395 62.7402 15.3834)" fill="#557D43"/>
<path d="M84.3209 6.7845L85.6825 6.17529L86.6044 8.19966L85.2429 8.80887L84.3209 6.7845Z" fill="#557D43"/>
<path d="M81.0162 17.2466L82.3777 16.6374L83.2996 18.6617L81.9381 19.271L81.0162 17.2466Z" fill="#557D43"/>
<path d="M55.44 26.0688C55.4729 22.217 50.2273 19.809 47.7191 21.2622C46.2125 22.3743 43.9349 25.3273 48.2279 25.9443L47.3704 27.4044C47.2325 27.6392 48.398 29.8933 50.3353 29.4295L51.3307 27.7347C53.3852 30.6802 55.2275 28.0416 55.44 26.0688Z" fill="#F2EADF"/>
<path d="M49.8858 23.4626L48.619 25.6197C48.6623 23.9394 47.6567 24.1476 46.8959 24.4192C47.1834 24.1267 47.6491 23.0659 48.1465 23.353C48.6439 23.64 49.5233 23.5285 49.8858 23.4626Z" fill="#B8A791"/>
<path d="M52.8091 25.218L51.5724 27.3237C53.0251 26.4566 53.3692 27.3749 53.5066 28.1647C53.6213 27.7725 54.2615 26.95 53.7641 26.663C53.2667 26.376 52.9302 25.563 52.8091 25.218Z" fill="#B8A791"/>
<path d="M74.7425 2.37043C72.5614 -0.817649 66.8646 0.155612 65.6338 2.76409C65.0316 4.5278 64.8504 8.24054 68.7366 6.33026L68.868 8.01473C68.8892 8.28555 71.1404 9.48385 72.4687 8.01108L72.3161 6.05579C75.6953 7.32234 75.6986 4.11339 74.7425 2.37043Z" fill="#F2EADF"/>
<path d="M68.6776 3.35447L68.8718 5.84301C67.9442 4.43592 67.2361 5.1737 66.7658 5.82568C66.8346 5.42303 66.6097 4.2879 67.1835 4.2439C67.7574 4.1999 68.4171 3.61287 68.6776 3.35447Z" fill="#B8A791"/>
<path d="M72.0895 3.15243L72.2791 5.58171C72.9774 4.04996 73.7869 4.61175 74.3527 5.18429C74.2223 4.79692 74.2776 3.75952 73.7038 3.80352C73.1299 3.84752 72.387 3.36804 72.0895 3.15243Z" fill="#B8A791"/>
<path d="M79.5013 30.4314C81.8923 27.3948 79.2082 22.3198 76.3258 21.9599C74.4475 21.9335 70.8273 22.9029 73.8549 25.9821L72.2781 26.6235C72.0246 26.7266 71.5655 29.2183 73.3875 30.0189L75.2178 29.2744C75.0397 32.8511 78.1216 31.8687 79.5013 30.4314Z" fill="#F2EADF"/>
<path d="M76.6936 25.0127L74.364 25.9602C75.43 24.653 74.5042 24.2116 73.7338 23.9683C74.1415 23.9095 75.1623 23.3487 75.3808 23.8765C75.5992 24.4043 76.3655 24.8464 76.6936 25.0127Z" fill="#B8A791"/>
<path d="M77.9358 28.1689L75.6617 29.0939C77.3468 29.2821 77.0561 30.2183 76.6802 30.9279C77.012 30.6859 78.025 30.4195 77.8065 29.8917C77.588 29.3639 77.8202 28.5157 77.9358 28.1689Z" fill="#B8A791"/>
<path d="M92.5353 10.4106C89.2802 8.30658 84.4063 11.3878 84.2888 14.2651C84.4215 16.1224 85.7028 19.6158 88.5415 16.3645L89.3198 17.8675C89.445 18.1092 91.9886 18.3513 92.639 16.484L91.7354 14.7393C95.3458 14.6121 94.097 11.6515 92.5353 10.4106Z" fill="#F2EADF"/>
<path d="M87.3263 13.6428L88.4762 15.8633C87.0718 14.9212 86.7066 15.873 86.5273 16.6545C86.4336 16.2569 85.7834 15.2962 86.2954 15.0357C86.8075 14.7752 87.1869 13.9809 87.3263 13.6428Z" fill="#B8A791"/>
<path d="M90.394 12.1488L91.5165 14.3164C91.5629 12.6362 92.5286 12.844 93.2738 13.1551C93.0024 12.8478 92.6487 11.8699 92.1366 12.1305C91.6246 12.391 90.7524 12.2336 90.394 12.1488Z" fill="#B8A791"/>
<path d="M98.821 27.2348C97.9666 30.9925 102.579 34.4462 105.341 33.5521C107.051 32.7812 109.907 30.3728 105.843 28.8693L106.993 27.6221C107.178 27.4216 106.52 24.974 104.528 25.0209L103.193 26.4686C101.814 23.1588 99.4498 25.3513 98.821 27.2348Z" fill="#F2EADF"/>
<path d="M103.693 30.947L105.392 29.1045C104.991 30.7377 106.018 30.7451 106.819 30.6392C106.476 30.8649 105.795 31.8039 105.37 31.4191C104.945 31.0342 104.061 30.9587 103.693 30.947Z" fill="#B8A791"/>
<path d="M101.211 28.6183L102.869 26.8197C101.264 27.3624 101.124 26.3928 101.159 25.592C100.963 25.9513 100.161 26.6208 100.586 27.0057C101.011 27.3906 101.166 28.2558 101.211 28.6183Z" fill="#B8A791"/>
</svg>
