<svg width="153" height="102" viewBox="0 0 153 102" fill="none" xmlns="http://www.w3.org/2000/svg">
<path d="M100.565 29.5184C100.575 29.5228 100.585 29.5271 100.595 29.5315C104.573 31.247 109.994 34.3523 111.663 37.7096C113.594 39.3042 114.265 40.9874 113.953 42.6595C115.072 42.8526 124.765 39.5916 125.138 45.7803C131.177 48.6357 137.909 53.182 136.629 56.8311C137.988 58.1566 139.083 59.9078 139.064 61.6883C148.993 67.1814 158.27 78.4802 140.76 85.7817C137.688 91.3749 125.389 100.58 100.763 92.6543C98.8332 92.8186 96.6964 92.9334 94.4163 93.0063C74.1952 103.966 52.4092 95.5046 44.0438 89.9041C39.5678 89.1241 35.5674 88.2736 32 87.3685C-0.337769 88.6379 2.11048 79.6857 7.37683 75.0509C3.2592 69.4795 6.09294 64.1206 10.2016 61.0987C11.335 60.7271 13.6456 59.9837 13.8211 59.9837C13.07 57.6348 16.8015 54.9889 20.1168 53.2295C20.0692 51.7375 21.2814 50.359 23.0316 49.227C24.8214 48.3963 29.2838 46.1115 30.0432 46.735C26.7252 42.088 27.7699 39.9681 30.1332 39.8883C31.3522 39.8325 33.9938 39.8768 34.8087 40.5003C32.5742 35.2528 34.4954 33.8091 36.5482 33.9525L38.3672 34.2656C38.5428 33.0788 39.8117 32.8121 41.4212 33.0352C41.4212 31.6196 42.6578 28.9985 47.604 29.8385C46.5734 28.8262 45.9697 27.8854 45.7056 27.1441C45.7841 26.314 47.5795 25.0694 54.133 26.732C52.8352 25.5005 52.2857 24.3735 52.222 23.5446C51.9585 22.7129 52.7268 21.3581 57.9085 22.5919C56.5766 21.565 56.1479 20.6605 56.2398 20.0293C55.9128 18.9049 57.3786 16.7285 65.8578 17.018C73.4631 14.9594 85.7845 14.1353 91.3989 23.002C92.0386 24.0124 92.4134 24.8594 92.5586 25.5609C95.0534 24.9015 100.187 24.3392 100.763 27.3654C100.782 28.1357 100.713 28.8527 100.565 29.5184Z" fill="#F8DC85"/>
<path fill-rule="evenodd" clip-rule="evenodd" d="M79.1504 17.1967C74.7085 16.5914 69.9618 17.2659 66.2897 18.2598C65.2087 18.5524 64.2336 18.8693 63.4008 19.1823C62.6529 19.4635 61.7882 19.1564 61.4696 18.4964C61.4594 18.4753 61.4499 18.454 61.441 18.4327C59.9783 18.5921 59.027 18.8646 58.4365 19.1409C57.8221 19.4285 57.6954 19.6528 57.6741 19.7348L57.7361 19.9478L57.7001 20.1949C57.7002 20.194 57.7003 20.1947 57.7005 20.1968C57.7033 20.2347 57.7413 20.738 58.8773 21.6138C60.7021 23.0206 64.7582 24.8813 72.7516 26.4991C73.661 26.6832 74.6199 26.8638 75.6305 27.0401C72.1004 25.9278 68.5921 24.6292 65.7313 23.4679L65.4601 23.3578L65.2589 23.1632C64.785 22.7047 64.0793 21.8329 64.3246 20.7926C64.6062 19.5988 65.8672 19.0866 67.0131 18.883C68.2399 18.6651 69.9782 18.6611 72.3486 18.9021C74.744 19.1456 77.8826 19.6505 81.9571 20.5092C82.7479 20.6758 83.2358 21.3765 83.047 22.0743C82.8581 22.772 82.0639 23.2025 81.2732 23.0359C77.2669 22.1916 74.2511 21.7105 72.0116 21.4828C69.8586 21.2639 68.5078 21.2887 67.7133 21.4101C72.5694 23.3443 78.9398 25.5332 84.0048 26.5599C86.7186 27.11 88.8294 27.2761 90.1081 27.0337C90.7227 26.9172 90.9513 26.7424 91.0335 26.6439C91.0963 26.5686 91.2272 26.3571 91.1107 25.7944C91.0052 25.2849 90.7104 24.5775 90.1139 23.6356C87.5773 19.6295 83.5459 17.7957 79.1504 17.1967ZM83.3967 29.1021C83.4185 29.2263 83.4199 29.3555 83.3985 29.4864C83.2969 30.1068 82.7141 30.561 82.0318 30.5973C84.1136 31.3576 86.0505 31.9 87.6656 32.0879C89.6847 32.3228 90.704 31.9612 91.1846 31.3711C91.4936 30.9916 91.7383 30.3462 91.7345 29.3005C91.4071 29.4204 91.0667 29.509 90.7266 29.5735C88.7796 29.9426 86.1398 29.6551 83.3967 29.1021ZM94.3234 26.5223C94.9493 29.2595 94.7764 31.4125 93.5754 32.8871C92.1123 34.6835 89.6118 34.9346 87.2808 34.6634C84.891 34.3854 82.1449 33.511 79.4716 32.4507C76.8479 31.41 74.199 30.1511 71.8813 28.988C64.1535 27.4066 59.6363 25.5284 57.2127 23.7736C55.1306 23.3055 54.108 23.3638 53.6915 23.4639C53.728 23.9006 54.0611 24.7562 55.2112 25.8475C57.6783 28.1886 63.5456 31.2458 75.7076 32.9144C76.7619 33.059 77.8626 33.1931 79.0115 33.3153C79.6998 33.3885 80.2197 33.8697 80.2975 34.4515C83.6295 35.2928 87.2633 35.5851 90.4647 35.1808C95.0826 34.5977 98.3636 32.6633 99.1203 29.2678C99.1479 29.1444 99.1723 29.0183 99.1935 28.8895C99.1942 28.8853 99.1949 28.8811 99.1956 28.8769C99.2655 28.4479 99.2998 27.9889 99.2931 27.4983C99.2071 27.1512 99.0194 26.9439 98.7583 26.7864C98.4313 26.5892 97.9234 26.4377 97.226 26.3728C96.3053 26.287 95.2576 26.37 94.3234 26.5223ZM97.4088 35.723C95.5225 36.8033 93.2461 37.4539 90.8818 37.7524C85.7212 38.4041 79.7155 37.4746 75.0302 35.4502C73.175 35.1915 71.4502 34.8996 69.8482 34.5804C75.1624 38.1114 81.8729 41.2877 87.4996 41.5071C90.4045 41.6204 92.9239 40.9453 94.8875 39.1951C95.8378 38.3481 96.6984 37.2136 97.4088 35.723ZM67.0679 33.9708C60.0357 32.2791 55.7551 30.0316 53.3488 27.8865C50.3949 27.1688 48.6714 27.1327 47.7573 27.2808C47.6088 27.3049 47.4908 27.3311 47.3975 27.3566C47.6618 27.8105 48.0793 28.3615 48.6993 28.9705C49.1728 29.4357 49.7574 29.9275 50.4675 30.4275C53.4353 32.5177 58.576 34.7367 66.8304 35.7497C66.4398 35.2906 66.43 34.6405 66.851 34.1678C66.9166 34.0941 66.9894 34.0284 67.0679 33.9708ZM71.47 38.7511C71.392 38.7576 71.3123 38.7587 71.2316 38.7539C68.7508 38.6075 66.4739 38.3631 64.3877 38.0407C65.9622 39.1245 68.0061 40.3549 70.2004 41.3566C73.3473 42.7932 76.5087 43.6229 78.9793 43.1947C79.7771 43.0564 80.5508 43.515 80.7075 44.2189C80.8642 44.9228 80.3446 45.6055 79.5468 45.7438C76.057 46.3486 72.1344 45.1644 68.8475 43.6639C65.5018 42.1365 62.5086 40.1387 60.7529 38.7484C60.2734 38.3688 60.1423 37.7744 60.3786 37.2784C59.7366 37.1315 59.1169 36.9767 58.5189 36.8149C58.8477 38.1036 59.9226 40.3446 62.4053 43.1824C65.2226 46.4026 69.7895 50.3156 76.9069 54.3557C84.5305 54.9922 93.1795 53.6319 100.113 51.2233C103.628 50.0023 106.639 48.5337 108.826 46.9684C110.697 45.63 111.842 44.3116 112.309 43.1088C111.957 43.528 111.537 43.9323 111.05 44.3207C108.491 46.3603 103.904 48.1096 96.695 49.5082C95.9735 49.9406 95.1986 50.3468 94.3687 50.7172C89.0971 53.07 81.7502 53.9203 72.0899 51.1297C71.3172 50.9065 70.8959 50.1729 71.1489 49.4912C71.3404 48.9749 71.8636 48.6365 72.4418 48.5994C71.9805 48.3176 71.7235 47.8143 71.8317 47.2958C71.9788 46.5902 72.7463 46.1236 73.5459 46.2534C89.1219 48.7831 96.002 44.1223 97.3923 42.101C97.8142 41.4877 98.7195 41.2923 99.4146 41.6645C99.8314 41.8878 100.078 42.2646 100.117 42.6627C100.542 42.0353 100.87 41.4329 101.104 40.8859C101.392 40.215 102.242 39.877 103.002 40.131C103.763 40.385 104.146 41.1348 103.858 41.8057C103.336 43.0213 102.476 44.4072 101.249 45.7777C105.183 44.6984 107.649 43.5301 109.076 42.393C110.046 41.6195 110.481 40.9043 110.632 40.2776C110.784 39.6502 110.684 38.9751 110.315 38.2313C109.628 36.8499 108.087 35.3962 106.093 34.0313C104.722 33.0929 103.206 32.2438 101.762 31.5347C100.936 35.8457 99.2983 38.9563 96.9799 41.0227C94.3043 43.4075 90.9053 44.2402 87.3696 44.1024C82.1195 43.8976 76.3671 41.5531 71.47 38.7511ZM102.174 28.78C104.012 29.6249 106.057 30.7191 107.897 31.9786C109.937 33.3741 111.862 35.0651 112.883 36.9429C114.374 38.235 115.237 39.6585 115.448 41.1507C115.571 41.1292 115.702 41.1066 115.842 41.0828C116.93 40.8982 118.368 40.6824 119.814 40.6727C121.235 40.6632 122.863 40.8489 124.199 41.6236C125.432 42.3391 126.247 43.4554 126.519 44.9658C129.402 46.3772 132.418 48.1626 134.653 50.0758C135.858 51.1072 136.897 52.2267 137.545 53.3958C138.076 54.3542 138.374 55.4044 138.218 56.4742C139.334 57.6991 140.285 59.2581 140.494 60.9548C145.364 63.7778 150.17 68.033 151.622 72.7142C152.399 75.2203 152.21 77.8549 150.55 80.3643C148.967 82.7548 146.129 84.9122 141.846 86.7622C138.067 93.0133 125.032 101.737 100.572 93.9749C98.8063 94.1185 96.8847 94.222 94.8543 94.2917C84.4737 99.808 73.7182 100.417 64.5213 98.9431C55.446 97.4888 47.8261 93.9998 43.4287 91.1206C39.1457 90.367 35.2897 89.5476 31.8252 88.6754C23.7998 88.9796 17.8369 88.6589 13.4864 87.9058C9.12488 87.1509 6.1999 85.9302 4.50367 84.3032C2.72084 82.5931 2.45756 80.595 3.03715 78.7606C3.48876 77.3312 4.44358 75.9989 5.54434 74.8806C3.79675 72.0838 3.54493 69.3 4.27933 66.7937C5.07906 64.0644 7.01986 61.7481 9.25919 60.101L9.45274 59.9587L9.68893 59.8812C10.2596 59.6941 11.1278 59.413 11.8781 59.1779C12.0097 59.1366 12.1387 59.0965 12.2626 59.0583C12.3866 57.6799 13.3631 56.4414 14.3723 55.4953C15.5837 54.3597 17.1804 53.3214 18.7015 52.4736C19.0131 50.6845 20.5374 49.2298 22.1616 48.1794L22.2498 48.1224L22.3465 48.0775C22.5639 47.9766 22.8363 47.8465 23.1464 47.6984C24.0259 47.2784 25.2081 46.7138 26.2958 46.261C26.7617 46.067 27.2415 45.88 27.7008 45.7259C26.7602 44.0729 26.3448 42.6405 26.4949 41.4548C26.6007 40.6187 26.9954 39.8765 27.7048 39.3468C28.3935 38.8326 29.2422 38.6202 30.0666 38.5908C30.7005 38.5622 31.6697 38.558 32.6242 38.6348C32.2159 37.0364 32.2408 35.7338 32.7061 34.7181C33.0623 33.9405 33.6639 33.3671 34.4223 33.0225C35.1561 32.689 35.9494 32.6077 36.6645 32.6577L36.748 32.6635L37.4893 32.7911C37.8238 32.3961 38.2796 32.0994 38.8188 31.9126C39.2558 31.7613 39.7232 31.6895 40.1922 31.6701C40.4416 30.9651 40.905 30.2279 41.6801 29.6202C42.4635 29.0059 43.4749 28.5929 44.7204 28.4418C44.5448 28.1288 44.4053 27.8249 44.3015 27.5336L44.2148 27.2903L44.2389 27.0362C44.3593 25.7627 45.662 24.9792 47.2254 24.7258C48.1977 24.5682 49.4421 24.5663 51.0221 24.7797C50.8877 24.4279 50.8019 24.0841 50.7648 23.7522C50.6632 23.3334 50.6749 22.8298 50.9311 22.3332C51.2278 21.7582 51.7774 21.3377 52.4707 21.0899C53.1013 20.8644 53.8815 20.7682 54.8284 20.8044C54.7725 20.573 54.7479 20.3408 54.7572 20.1088C54.5371 18.8663 55.3864 17.6279 57.0568 16.846C58.7491 16.054 61.4712 15.5902 65.6657 15.7122C69.5698 14.6813 74.6774 13.9586 79.5998 14.6294C84.67 15.3203 89.6064 17.5079 92.6842 22.3686C93.0459 22.9398 93.3435 23.4852 93.571 24.0046C94.771 23.7943 96.1973 23.6648 97.535 23.7893C98.5047 23.8797 99.5442 24.1138 100.42 24.6417C101.341 25.1973 102.002 26.0346 102.215 27.1504L102.232 27.2429L102.235 27.3366C102.247 27.8331 102.227 28.3143 102.174 28.78ZM46.8662 31.0455C45.0114 30.8095 44.0899 31.2059 43.6358 31.562C43.4455 31.7112 43.2974 31.8843 43.1852 32.0645C43.6431 32.184 44.1009 32.3247 44.5474 32.4785C45.6132 32.7952 47.1747 33.2647 48.5276 33.6833C48.3775 33.1022 48.2642 32.5679 48.1818 32.1321C47.6967 31.7695 47.2589 31.4059 46.8662 31.0455ZM51.7501 34.3021C51.8696 34.6588 52.0035 35.0148 52.153 35.3564C54.1209 39.8536 58.6663 46.7158 67.5427 53.2267C68.5482 53.3783 69.5691 53.5227 70.602 53.6585C65.8142 50.4952 62.4189 47.4492 60.0748 44.7698C57.0145 41.2718 55.6763 38.3161 55.4835 36.505C55.4611 36.2945 55.4969 36.091 55.5794 35.9069C54.1529 35.4068 52.8804 34.866 51.7501 34.3021ZM61.9435 52.283C55.3263 46.6288 51.5476 40.9529 49.6334 36.7972C49.5915 36.7831 49.547 36.7682 49.4998 36.7525C49.0554 36.6047 48.4358 36.4085 47.7387 36.1921C46.3476 35.7604 44.683 35.2598 43.5743 34.9305L43.5399 34.9203L43.5061 34.9086C42.6743 34.6205 41.8743 34.4128 41.193 34.3184C40.4892 34.2208 40.0768 34.2677 39.8945 34.3308C39.8716 34.3388 39.8567 34.3454 39.8478 34.35C39.8421 34.3637 39.8336 34.3899 39.8271 34.4337C39.7944 34.6553 39.8404 35.1543 40.2647 36.0583C40.6777 36.9384 41.3952 38.0896 42.5252 39.5643C44.6414 42.3258 48.115 46.1071 53.469 51.2C53.8279 50.8435 54.3967 50.6753 54.954 50.8079C57.0728 51.312 59.4257 51.8134 61.9435 52.283ZM54.9228 53.4888C54.8529 53.7093 54.716 53.9164 54.513 54.0846C53.9204 54.5757 52.9888 54.5499 52.4322 54.027C46.3984 48.3577 42.4721 44.1329 40.0863 41.0194C38.8939 39.4634 38.0608 38.1522 37.5445 37.0522C37.2654 36.4575 37.0605 35.8864 36.9551 35.3459L36.3597 35.2434C36.087 35.233 35.8937 35.2759 35.7704 35.3319C35.661 35.3816 35.5371 35.4703 35.4357 35.6916C35.1938 36.2196 35.1016 37.4946 36.1869 40.0435C37.5012 43.13 40.3855 47.722 45.8693 54.3659C54.1271 56.2661 64.9191 58.1574 75.8602 59.1157C87.0498 60.0958 98.2754 60.0887 107.086 58.1837C109.269 57.7116 111.291 57.1256 113.118 56.4159C117.411 54.7488 120.577 52.4233 122.331 49.3161C122.944 48.2305 123.394 47.0338 123.657 45.7126C123.558 44.606 123.09 44.0891 122.582 43.7944C121.96 43.4339 121.025 43.2625 119.836 43.2704C118.673 43.2783 117.454 43.4547 116.398 43.6339C116.206 43.6664 116.01 43.7008 115.819 43.7342C115.574 43.7772 115.338 43.8186 115.132 43.8523C114.43 45.7522 112.779 47.4847 110.681 48.9862C108.194 50.7655 104.897 52.3537 101.192 53.6406C93.7905 56.2115 84.5092 57.6669 76.2578 56.9093C72.97 56.6075 69.7367 56.2 66.655 55.7278C62.3718 55.0715 58.3745 54.2891 54.9228 53.4888ZM126.144 47.7679C125.969 48.3199 125.763 48.8548 125.527 49.373C126.481 49.9248 127.407 50.5906 128.139 51.3489C129.16 52.4076 129.971 53.8337 129.574 55.4439C129.182 57.0346 127.716 58.3607 125.392 59.4549C124.418 59.9133 123.252 60.3516 121.871 60.7667C125.547 60.4167 128.354 59.9175 130.445 59.3196C133.819 58.3546 134.942 57.2485 135.223 56.4471C135.399 55.9449 135.338 55.3261 134.9 54.5373C134.457 53.7384 133.676 52.8586 132.603 51.9404C130.871 50.4578 128.537 49.0076 126.144 47.7679ZM115.619 59.5579C119.559 58.819 122.246 57.9915 124.006 57.163C126.003 56.2228 126.572 55.3974 126.697 54.8915C126.817 54.405 126.627 53.7894 125.897 53.0332C125.445 52.5653 124.85 52.1143 124.186 51.7079C122.152 54.5934 119.086 56.7612 115.376 58.3555C115.462 58.7618 115.543 59.1626 115.619 59.5579ZM112.601 59.406C111.554 59.754 110.466 60.0663 109.344 60.3455C111.475 66.0723 111.787 70.4858 110.604 73.8052C109.297 77.4748 106.249 79.5793 102.525 80.59C98.8659 81.5831 94.5054 81.5443 90.2672 81.0002C87.3117 80.6208 84.3546 79.9874 81.6401 79.2419C84.5083 80.2826 87.5539 81.1854 90.5842 81.8064C96.212 82.9597 101.57 83.0966 105.641 81.554C107.074 81.0109 108.35 80.2596 109.435 79.2651C111.596 77.2842 113.133 74.2127 113.458 69.5607C113.598 67.5581 113.512 65.2712 113.157 62.6689C113.095 62.2177 113.025 61.757 112.947 61.2869C112.846 60.676 112.731 60.0491 112.601 59.406ZM83.7152 77.0789C85.9573 77.6493 88.3317 78.1266 90.6912 78.4295C94.7266 78.9476 98.5933 78.9392 101.659 78.107C104.661 77.2925 106.837 75.7163 107.796 73.026C108.729 70.4073 108.58 66.542 106.478 60.9735C97.4214 62.7108 86.3609 62.646 75.5694 61.7008C64.228 60.7074 53.0633 58.7302 44.6135 56.7608L44.1098 56.6435L43.802 56.2727C38.3054 49.6538 35.1857 44.8568 33.6322 41.416C33.5996 41.407 33.5629 41.3975 33.5218 41.3877C33.2451 41.3217 32.8861 41.2688 32.4738 41.2319C31.6503 41.158 30.7625 41.1602 30.2097 41.1855L30.1997 41.186L30.1897 41.1863C29.8357 41.1983 29.6719 41.2811 29.6066 41.3299C29.5592 41.3653 29.4569 41.4584 29.4209 41.7431C29.3366 42.4091 29.6742 43.7813 31.2889 46.0426C31.7291 46.6592 32.2559 47.3302 32.8795 48.0573C35.4554 51.0606 39.6325 54.9615 46.0323 59.8545C46.5343 60.0582 47.0846 60.2704 47.6807 60.4887C50.2254 61.4206 53.5806 62.4543 57.5472 63.4064C68.1814 65.959 83.0799 67.8944 98.425 65.7927C100.029 65.573 101.637 65.3093 103.246 64.9977C104.04 64.8438 104.825 65.2872 104.999 65.9878C105.174 66.6885 104.671 67.3812 103.877 67.535C103.487 67.6105 103.098 67.6833 102.708 67.7534C102.926 67.9006 103.128 68.0469 103.315 68.1924C104.229 68.903 104.945 69.7215 105.125 70.6667C105.324 71.7145 104.811 72.5777 104.085 73.1905C103.4 73.7689 102.459 74.1951 101.472 74.5247C99.478 75.1905 96.7872 75.6257 94.0466 75.9053C91.3741 76.178 88.5603 76.3115 86.119 76.3464C85.3092 76.6075 84.5079 76.8514 83.7152 77.0789ZM91.7234 73.4998C92.3896 73.4496 93.0541 73.3915 93.7084 73.3247C96.3795 73.0522 98.7812 72.6455 100.43 72.0951C101.264 71.8166 101.781 71.541 102.05 71.3135C102.175 71.2079 102.211 71.1421 102.22 71.124C102.223 71.1168 102.225 71.1167 102.221 71.0964C102.206 71.0168 102.082 70.6957 101.369 70.1414C100.787 69.6887 99.9151 69.1611 98.6785 68.5611C98.5035 68.7628 98.2598 68.9213 97.9654 69.0058C85.0772 72.7015 74.5271 73.7494 66.5429 73.5377C58.601 73.3271 53.1083 71.8665 50.4001 70.4535C49.7003 70.0883 49.4684 69.2918 49.8822 68.6743C50.2961 68.0568 51.1988 67.8522 51.8987 68.2174C54.0262 69.3274 58.9724 70.738 66.6313 70.9411C71.7645 71.0772 78.0768 70.6691 85.5028 69.2829C74.6594 69.3387 64.6508 67.7962 56.8775 65.9378C50.456 65.246 45.0381 64.478 40.4924 63.6572C45.8767 70.085 56.7532 79.0622 74.3457 76.4591C75.6557 76.2652 76.9993 76.0216 78.3764 75.7239C80.6083 75.2414 82.9286 74.6169 85.337 73.8324C86.7467 73.3732 88.1867 72.8591 89.6567 72.2866C90.4005 71.9969 91.2696 72.2941 91.5979 72.9503C91.6874 73.1292 91.7275 73.3163 91.7234 73.4998ZM40.7268 59.1645C36.6058 55.8315 33.5497 52.9725 31.3513 50.5525C30.6769 50.9734 30.0884 51.4653 29.6925 51.982C29.134 52.7108 29.0143 53.3861 29.3857 54.0836C29.8132 54.8864 31.0257 55.9866 33.9223 57.1496C35.6344 57.837 37.865 58.5182 40.7268 59.1645ZM29.5842 48.4738C29.4605 48.3166 29.3408 48.1616 29.2252 48.0086C28.795 48.1226 28.2189 48.3328 27.5521 48.6104C26.5449 49.0298 25.4936 49.5318 24.6272 49.9456C24.3331 50.086 24.0603 50.2163 23.8177 50.3297C22.2355 51.3725 21.5625 52.3781 21.5885 53.1929C21.611 53.8969 22.179 55.0169 24.6803 56.3707C26.2162 57.2021 28.3707 58.0566 31.2959 58.9006C28.9645 57.7929 27.4507 56.5587 26.721 55.1883C25.7976 53.4541 26.2761 51.8023 27.2535 50.5269C27.8695 49.7231 28.7018 49.0327 29.5842 48.4738ZM30.5729 61.4249C27.3923 60.5176 24.953 59.5659 23.1408 58.5851C21.2889 57.5828 19.9638 56.4749 19.2508 55.2666C18.2185 55.8978 17.2558 56.5825 16.5162 57.2758C15.3223 58.3951 15.0896 59.1668 15.2381 59.631C15.4128 60.1774 16.1787 61.0699 18.8485 61.9127C20.2595 62.3582 22.3235 62.5132 25.2495 62.55C25.8184 62.5572 26.5245 62.4541 27.4024 62.2556C28.1024 62.0973 28.8393 61.8963 29.6468 61.676C29.8519 61.62 30.0616 61.5628 30.2764 61.5047C30.3743 61.4783 30.4732 61.4516 30.5729 61.4249ZM36.1522 63.0096C34.5289 63.1139 32.8514 63.5256 31.1388 63.9886C30.9441 64.0412 30.7479 64.0948 30.5511 64.1485C29.7364 64.3709 28.9104 64.5964 28.1332 64.7721C27.5006 64.9151 26.8516 65.0372 26.2096 65.1009C26.1983 65.1755 26.1952 65.2531 26.2017 65.333C26.2239 65.6064 26.3675 66.0195 26.9131 66.5285C27.9919 67.5351 30.5171 68.7887 35.839 69.7014C36.1768 68.891 36.4119 67.7246 36.4684 66.4142C36.5248 65.1086 36.3945 63.8858 36.1522 63.0096ZM33.0578 71.8216C28.847 70.9027 26.2403 69.6815 24.7741 68.3136C23.8345 67.437 23.3429 66.4779 23.2651 65.5186C23.2535 65.3767 23.2513 65.2372 23.2574 65.1005C21.7466 65.0419 20.3674 64.9243 19.1584 64.686C19.0871 65.0759 19.1202 65.5954 19.3774 66.2688C19.8551 67.5193 21.0966 69.2345 23.7398 71.3392C27.518 72.1516 30.202 72.2757 32.0643 72.0147C32.4284 71.9636 32.7585 71.8985 33.0578 71.8216ZM28.6845 74.689C32.6083 77.0128 37.9898 79.61 45.2754 82.4198C46.7236 82.697 48.2315 82.9664 49.801 83.2271C51.5049 83.5102 53.2815 83.7829 55.1334 84.0443C55.3917 84.0807 55.6235 84.1744 55.8148 84.3083C65.5534 85.9891 76.9742 87.6252 84.9836 88.0199C87.4119 88.1395 89.4771 88.1422 91.0638 88.0082C91.8571 87.9411 92.4949 87.8427 92.9811 87.721C93.3866 87.6194 93.623 87.5172 93.7478 87.4453C93.7148 87.3784 93.6533 87.2761 93.5395 87.1349C93.0211 86.4916 91.8346 85.55 89.6611 84.2836C84.2039 83.1386 78.7746 81.1568 74.3353 79.0921C56.7782 81.5056 45.4661 73.2622 39.4037 66.6553C39.3072 68.5125 38.8782 70.5716 37.8796 71.8799C36.8077 73.2841 35.028 74.2297 32.5261 74.5803C31.4076 74.737 30.1326 74.7777 28.6845 74.689ZM95.5196 85.1598C95.6748 85.3187 95.8146 85.4752 95.9389 85.6294C96.3812 86.1782 96.7319 86.8263 96.7301 87.5393C96.7282 88.3189 96.3083 88.9442 95.7206 89.3827C95.1758 89.7891 94.4819 90.0455 93.7849 90.2201C93.0705 90.3989 92.2438 90.5181 91.3445 90.5941C89.5461 90.7461 87.3141 90.7366 84.8195 90.6137C74.8596 90.1229 59.9278 87.7786 49.2394 85.7773C47.5983 85.5045 46.0215 85.2221 44.5067 84.9308C28.2778 81.8105 19.0497 77.6584 14.2251 73.5184C9.73621 69.6664 8.98841 65.7206 10.2511 62.815C8.79589 64.0946 7.64341 65.691 7.12977 67.4439C6.52656 69.5025 6.77603 71.8598 8.61009 74.3414C11.5 78.2517 18.4111 82.5693 32.407 86.1202C35.9293 87.0139 39.8888 87.856 44.3292 88.6299C48.7658 89.403 53.6801 90.1076 59.1154 90.7272C69.5438 91.4555 83.588 92.0531 94.3631 91.7083C96.6221 91.6361 98.7285 91.5226 100.621 91.3615C102.677 91.1865 104.457 90.9571 105.897 90.6697C107.239 90.402 108.358 89.5468 109.021 88.5447C109.348 88.0493 109.531 87.5664 109.586 87.1721C109.642 86.7654 109.553 86.5568 109.5 86.4838C109.127 85.9712 108.133 85.1974 106.12 84.1837C102.917 85.2494 99.2621 85.4716 95.5196 85.1598ZM109.194 82.8043C110.081 83.3311 110.808 83.8539 111.356 84.3789C112.253 84.2504 113.123 84.12 113.967 83.9881C113.492 83.8573 113.103 83.517 112.975 83.0594C112.78 82.363 113.261 81.6588 114.05 81.4866C114.517 81.3848 114.972 81.283 115.418 81.1812C114.107 81.2981 112.679 81.3865 111.126 81.4442C110.52 81.9536 109.874 82.4058 109.194 82.8043ZM113.585 78.7159C117.377 78.4619 120.107 77.9947 122.016 77.4133C124.448 76.6729 125.284 75.8334 125.537 75.2537C125.779 74.6974 125.662 73.9587 124.971 73.0038C124.375 72.1793 123.457 71.3546 122.438 70.6413C120.571 70.7864 118.525 70.8822 116.284 70.9224C115.915 74.0658 114.989 76.6473 113.585 78.7159ZM116.459 68.3207C118.775 68.2748 120.861 68.1676 122.735 68.0084C125.225 67.7971 127.335 67.4949 129.115 67.1258C130.325 66.8748 131.378 66.5938 132.289 66.2917C136.599 64.8628 137.577 63.0578 137.592 61.6758C137.601 60.8478 137.277 59.9715 136.732 59.1375C135.553 60.2402 133.726 61.112 131.353 61.7908C127.931 62.7695 123.018 63.4532 116.249 63.7505C116.421 65.3789 116.489 66.9005 116.459 68.3207ZM126.264 70.2449C126.706 70.676 127.11 71.1321 127.453 71.6064C128.383 72.8914 129.006 74.5294 128.285 76.1855C128.068 76.6831 127.747 77.1414 127.328 77.5618C127.55 77.4657 127.765 77.3699 127.973 77.2745C130.972 75.8952 132.213 74.6856 132.624 73.8199C132.973 73.0852 132.811 72.3996 132.134 71.6518C131.494 70.9451 130.462 70.2854 129.277 69.7575C128.343 69.9389 127.341 70.102 126.264 70.2449ZM133.868 69.4692C134.069 69.649 134.258 69.8361 134.434 70.0302C135.589 71.3049 136.213 72.985 135.34 74.8239C134.529 76.5319 132.539 78.1037 129.333 79.5781C126.499 80.8817 122.547 82.1848 117.19 83.4551C123.46 82.3577 128.111 81.1653 131.476 79.9456C136.006 78.3035 137.925 76.7124 138.55 75.4829C139.093 74.4149 138.794 73.2969 137.574 72.0432C136.669 71.1134 135.355 70.2323 133.868 69.4692ZM136.05 67.5978C137.475 68.3879 138.797 69.3132 139.807 70.3505C141.435 72.0228 142.425 74.2068 141.236 76.546C140.129 78.7236 137.296 80.6446 132.595 82.3486C128.086 83.9827 121.595 85.5113 112.547 86.8389C112.552 87.0593 112.537 87.2776 112.508 87.4892C112.397 88.2886 112.058 89.1061 111.563 89.8543C111.472 89.9925 111.374 90.1299 111.27 90.266C124.998 89.1171 134.218 87.073 140.131 84.6074C144.348 82.8492 146.77 80.9236 148.007 79.0543C149.221 77.22 149.376 75.3175 148.782 73.3996C147.707 69.9317 144.175 66.4541 140.061 63.8437C139.417 65.2598 138.106 66.5387 136.05 67.5978ZM107.555 93.1526C120.274 92.2985 129.707 90.7269 136.526 88.6753C131.956 92.6631 122.734 96.526 107.555 93.1526ZM12.831 61.636C13.3913 62.0123 13.5798 62.701 13.2427 63.2703C12.2327 64.9765 12.0963 68.0679 16.2778 71.6561C18.9666 73.9634 23.4011 76.4205 30.3644 78.6948C26.8409 76.8431 24.1233 75.1044 22.0579 73.4965C19.0161 71.1285 17.306 68.9795 16.5875 67.0985C16.1265 65.8917 16.0718 64.7732 16.3604 63.817C14.886 63.2034 13.764 62.4592 13.0637 61.5633C12.9985 61.5836 12.9316 61.6045 12.8634 61.6259C12.8526 61.6293 12.8418 61.6326 12.831 61.636ZM7.27355 77.1187C6.61587 77.8811 6.11803 78.6832 5.87317 79.4582C5.52311 80.5662 5.68144 81.5958 6.67048 82.5445C7.74611 83.5762 9.94325 84.6452 14.0531 85.3566C16.4816 85.777 19.5148 86.0617 23.2658 86.1567C15.3402 83.4231 10.2453 80.3252 7.27355 77.1187ZM51.4778 92.3852C55.2522 94.0431 59.9009 95.5624 65.0474 96.3872C72.1424 97.5241 80.1406 97.3362 88.107 94.4058C78.397 94.4258 67.3882 93.9116 58.8466 93.3144L58.8104 93.3118L58.7745 93.3078C56.2339 93.0184 53.8031 92.7104 51.4778 92.3852ZM95.2759 47.2156C95.7345 46.931 96.1662 46.6347 96.5715 46.3303C92.5245 48.7055 85.2633 50.5809 74.2054 48.9909C82.6208 51.1899 88.766 50.3066 93.0398 48.3991C93.8287 48.0469 94.5583 47.658 95.2304 47.2437C95.2454 47.2341 95.2605 47.2247 95.2759 47.2156ZM47.073 27.5003C47.0709 27.4993 47.0782 27.4895 47.1014 27.474C47.0867 27.4935 47.0751 27.5013 47.073 27.5003ZM57.6723 19.7684C57.6704 19.768 57.6687 19.7576 57.6732 19.7384C57.6765 19.7592 57.6742 19.7688 57.6723 19.7684Z" fill="#FFEDBA"/>
<path d="M54.5254 21.0892C51.5378 15.5533 62.7414 13.73 68.7166 13.5103C86.6418 11.665 92.8669 19.1121 93.7388 23.0663C103.897 22.8027 103.947 26.4713 102.702 28.3386C111.366 30.7111 115.026 37.4553 115.773 40.5308C128.619 40.2671 130.337 44.8145 129.59 47.1211C128.3 45.3323 125.359 44.9588 119.505 45.144C118.011 45.144 119.948 52.0699 118.758 53.3819C117.264 55.0295 114.65 54.3705 113.854 53.0524C113.08 51.7699 115.725 45.5395 113.854 45.144C106.061 43.4964 104.466 46.2689 103.822 47.1211C102.328 49.0982 101.581 60.9609 102.702 63.9265C103.598 66.2991 103.075 67.9906 102.702 68.5398C102.204 69.8579 100.386 72.1645 97.0999 70.8464C93.8135 69.5284 93.9877 65.684 94.4857 63.9265C95.2326 61.4002 95.3073 54.5023 89.6308 47.1211C83.9543 39.7399 74.3192 44.0456 70.2112 47.1211C69.7133 49.4277 68.8668 54.5023 69.4643 56.3476C70.2112 58.6543 72.4519 64.9151 68.7174 70.8464C64.9829 76.7777 59.537 74.1193 57.5138 70.8464C55.2731 67.2217 57.5138 48.7687 56.02 47.1211C54.8249 45.803 54.0282 47.6703 53.7793 48.7687C53.5303 51.295 53.1817 56.9408 53.7793 59.3133C54.3768 61.6858 54.0282 62.938 53.7793 63.2675C53.1568 63.9265 51.3145 64.8492 48.9244 63.2675C45.9367 61.2904 48.1775 56.3476 48.1775 48.7687C48.1775 41.1898 40.7084 43.8259 39.2146 45.144C38.0195 46.1985 38.7166 53.0524 39.2146 56.3476C38.7165 56.787 37.571 57.4021 36.9739 56.3476C36.2274 55.0296 37.7203 48.7687 35.8535 45.144C34.36 42.2443 33.9849 39.8717 32.8646 41.1898C33.2381 48.6589 35.151 53.3819 29.1292 53.3819C25.0206 53.3819 25.0229 49.7573 26.8903 45.144C23.3052 39.3445 28.3841 38.1143 31.3718 38.2241C31.3718 32.9518 35.6041 32.0731 37.7203 32.2928C37.4216 30.1839 41.8283 28.7779 44.069 28.3386C42.5752 25.1752 47.181 24.3844 49.6707 24.3844C48.1769 20.1665 52.2847 20.4302 54.5254 21.0892Z" fill="#B3E889"/>
<rect width="1.43031" height="2.0801" transform="matrix(0.825144 -0.564922 0.660363 0.750947 51.7534 25.655)" fill="#8ABD72"/>
<rect width="1.3632" height="2.17913" transform="matrix(0.542217 0.840239 -0.893565 0.448933 61.6333 17.2581)" fill="#8ABD72"/>
<rect width="1.49258" height="1.9792" transform="matrix(0.997094 0.0761853 -0.0976716 0.995219 74.5732 19.9144)" fill="#8ABD72"/>
<path d="M84.3209 17.2429L85.6825 16.7006L86.6044 18.5026L85.2429 19.0449L84.3209 17.2429Z" fill="#8ABD72"/>
<path d="M81.0162 26.5559L82.3777 26.0136L83.2996 27.8156L81.9381 28.3579L81.0162 26.5559Z" fill="#8ABD72"/>
<path d="M62.9254 24.1388L63.6089 22.9668L65.6013 23.8715L64.9177 25.0434L62.9254 24.1388Z" fill="#8ABD72"/>
<rect width="1.43031" height="2.0801" transform="matrix(0.825144 -0.564922 0.660363 0.750947 38.0923 39.27)" fill="#8ABD72"/>
<rect width="1.3632" height="2.17913" transform="matrix(0.542217 0.840239 -0.893565 0.448933 47.9722 30.8732)" fill="#8ABD72"/>
<rect width="1.49258" height="1.9792" transform="matrix(0.997094 0.0761853 -0.0976716 0.995219 60.9121 33.5294)" fill="#8ABD72"/>
<path d="M70.6598 30.858L72.0213 30.3157L72.9432 32.1177L71.5817 32.66L70.6598 30.858Z" fill="#8ABD72"/>
<path d="M67.3551 40.1709L68.7166 39.6286L69.6385 41.4306L68.277 41.9729L67.3551 40.1709Z" fill="#8ABD72"/>
<path d="M49.2637 37.7538L49.9473 36.5818L51.9397 37.4864L51.2561 38.6584L49.2637 37.7538Z" fill="#8ABD72"/>
<rect width="1.43031" height="2.0801" transform="matrix(0.825144 -0.564922 0.660363 0.750947 85.8945 39.2701)" fill="#8ABD72"/>
<rect width="1.3632" height="2.17913" transform="matrix(0.542217 0.840239 -0.893565 0.448933 95.7739 30.8732)" fill="#8ABD72"/>
<rect width="1.49258" height="1.9792" transform="matrix(0.997094 0.0761853 -0.0976716 0.995219 108.714 33.5295)" fill="#8ABD72"/>
<path d="M97.066 37.7539L97.7495 36.5819L99.7419 37.4866L99.0584 38.6586L97.066 37.7539Z" fill="#8ABD72"/>
<path d="M73.4474 15.8712C73.4021 15.6357 73.3674 15.3858 73.341 15.1362C70.4967 13.5545 73.2806 7.85404 73.9438 5.54742L73.3077 12.797C74.0159 6.94665 83.4908 6.58774 88.2683 7.1654C84.3986 15.4566 79.0267 17.5703 76.8244 17.5907C75.7738 17.408 73.6275 16.8083 73.4474 15.8712Z" fill="#559658"/>
<path d="M73.2366 13.6564C73.0567 8.26805 64.6563 7.93122 60.4786 8.43635C63.7701 15.4886 68.3394 17.2865 70.2125 17.3039C71.1062 17.1485 72.9318 16.6384 73.0849 15.8413C73.1103 15.7093 73.1318 15.572 73.1499 15.433C73.2413 14.7322 73.2477 13.987 73.2366 13.6564Z" fill="#559658"/>
<path d="M84.774 8.51306C79.695 8.51306 74.9397 12.9066 73.1969 15.1034C71.5786 13.2362 67.6698 9.56752 64.981 9.83113" stroke="#38793B"/>
</svg>
