<svg width="153" height="102" viewBox="0 0 153 102" fill="none" xmlns="http://www.w3.org/2000/svg">
<path d="M100.565 29.5184C100.575 29.5227 100.585 29.5271 100.595 29.5314C104.573 31.247 109.994 34.3523 111.663 37.7096C113.594 39.3041 114.265 40.9873 113.953 42.6594C115.072 42.8526 124.765 39.5916 125.138 45.7803C131.177 48.6357 137.909 53.1819 136.629 56.8311C137.988 58.1566 139.083 59.9078 139.064 61.6883C148.993 67.1814 158.27 78.4802 140.76 85.7817C137.688 91.3749 125.389 100.58 100.763 92.6543C98.8332 92.8186 96.6964 92.9334 94.4163 93.0063C74.1952 103.966 52.4092 95.5045 44.0438 89.9041C39.5678 89.1241 35.5674 88.2736 32 87.3685C-0.337769 88.6379 2.11048 79.6857 7.37683 75.0509C3.2592 69.4795 6.09294 64.1206 10.2016 61.0987C11.335 60.727 13.6456 59.9837 13.8211 59.9837C13.07 57.6347 16.8015 54.9888 20.1168 53.2294C20.0692 51.7375 21.2814 50.3589 23.0316 49.227C24.8214 48.3963 29.2838 46.1115 30.0432 46.7349C26.7252 42.088 27.7699 39.9681 30.1332 39.8883C31.3522 39.8325 33.9938 39.8768 34.8087 40.5002C32.5742 35.2528 34.4954 33.8091 36.5482 33.9524L38.3672 34.2655C38.5428 33.0788 39.8117 32.8121 41.4212 33.0352C41.4212 31.6196 42.6578 28.9985 47.604 29.8385C46.5734 28.8262 45.9697 27.8854 45.7056 27.1441C45.7841 26.314 47.5795 25.0694 54.133 26.7319C52.8352 25.5005 52.2857 24.3735 52.222 23.5445C51.9585 22.7129 52.7268 21.3581 57.9085 22.5919C56.5766 21.565 56.1479 20.6605 56.2398 20.0293C55.9128 18.9049 57.3786 16.7285 65.8578 17.018C73.4631 14.9594 85.7845 14.1352 91.3989 23.002C92.0386 24.0124 92.4134 24.8593 92.5586 25.5609C95.0534 24.9015 100.187 24.3391 100.763 27.3654C100.782 28.1356 100.713 28.8526 100.565 29.5184Z" fill="#F8DC85"/>
<path fill-rule="evenodd" clip-rule="evenodd" d="M79.1504 17.1967C74.7085 16.5913 69.9618 17.2658 66.2897 18.2598C65.2087 18.5524 64.2336 18.8693 63.4008 19.1823C62.6529 19.4634 61.7882 19.1563 61.4696 18.4963C61.4594 18.4752 61.4499 18.454 61.441 18.4327C59.9783 18.592 59.027 18.8645 58.4365 19.1409C57.8221 19.4285 57.6954 19.6528 57.6741 19.7347L57.7361 19.9478L57.7001 20.1949C57.7002 20.194 57.7003 20.1946 57.7005 20.1968C57.7033 20.2347 57.7413 20.738 58.8773 21.6137C60.7021 23.0206 64.7582 24.8812 72.7516 26.4991C73.661 26.6831 74.6199 26.8638 75.6305 27.0401C72.1004 25.9278 68.5921 24.6292 65.7313 23.4679L65.4601 23.3578L65.2589 23.1631C64.785 22.7046 64.0793 21.8328 64.3246 20.7926C64.6062 19.5988 65.8672 19.0865 67.0131 18.883C68.2399 18.665 69.9782 18.661 72.3486 18.902C74.744 19.1456 77.8826 19.6504 81.9571 20.5091C82.7479 20.6758 83.2358 21.3765 83.047 22.0742C82.8581 22.7719 82.0639 23.2025 81.2732 23.0358C77.2669 22.1915 74.2511 21.7104 72.0116 21.4827C69.8586 21.2638 68.5078 21.2886 67.7133 21.41C72.5694 23.3442 78.9398 25.5332 84.0048 26.5598C86.7186 27.1099 88.8294 27.276 90.1081 27.0336C90.7227 26.9171 90.9513 26.7423 91.0335 26.6438C91.0963 26.5686 91.2272 26.357 91.1107 25.7943C91.0052 25.2848 90.7104 24.5775 90.1139 23.6355C87.5773 19.6295 83.5459 17.7957 79.1504 17.1967ZM83.3967 29.102C83.4185 29.2263 83.4199 29.3555 83.3985 29.4864C83.2969 30.1067 82.7141 30.5609 82.0318 30.5973C84.1136 31.3575 86.0505 31.9 87.6656 32.0879C89.6847 32.3227 90.704 31.9611 91.1846 31.371C91.4936 30.9915 91.7383 30.3462 91.7345 29.3004C91.4071 29.4204 91.0667 29.509 90.7266 29.5734C88.7796 29.9426 86.1398 29.655 83.3967 29.102ZM94.3234 26.5223C94.9493 29.2594 94.7764 31.4125 93.5754 32.887C92.1123 34.6834 89.6118 34.9345 87.2808 34.6634C84.891 34.3854 82.1449 33.511 79.4716 32.4506C76.8479 31.41 74.199 30.151 71.8813 28.988C64.1535 27.4066 59.6363 25.5284 57.2127 23.7736C55.1306 23.3055 54.108 23.3637 53.6915 23.4639C53.728 23.9006 54.0611 24.7561 55.2112 25.8475C57.6783 28.1885 63.5456 31.2457 75.7076 32.9143C76.7619 33.0589 77.8626 33.193 79.0115 33.3152C79.6998 33.3884 80.2197 33.8697 80.2975 34.4515C83.6295 35.2927 87.2633 35.5851 90.4647 35.1808C95.0826 34.5976 98.3636 32.6632 99.1203 29.2678C99.1479 29.1443 99.1723 29.0182 99.1935 28.8894C99.1942 28.8852 99.1949 28.881 99.1956 28.8768C99.2655 28.4478 99.2998 27.9889 99.2931 27.4982C99.2071 27.1511 99.0194 26.9438 98.7583 26.7864C98.4313 26.5892 97.9234 26.4377 97.226 26.3727C96.3053 26.287 95.2576 26.3699 94.3234 26.5223ZM97.4088 35.723C95.5225 36.8032 93.2461 37.4538 90.8818 37.7524C85.7212 38.4041 79.7155 37.4745 75.0302 35.4501C73.175 35.1915 71.4502 34.8996 69.8482 34.5803C75.1624 38.1113 81.8729 41.2876 87.4996 41.507C90.4045 41.6203 92.9239 40.9453 94.8875 39.195C95.8378 38.3481 96.6984 37.2135 97.4088 35.723ZM67.0679 33.9707C60.0357 32.279 55.7551 30.0315 53.3488 27.8865C50.3949 27.1687 48.6714 27.1326 47.7573 27.2808C47.6088 27.3048 47.4908 27.331 47.3975 27.3566C47.6618 27.8105 48.0793 28.3615 48.6993 28.9705C49.1728 29.4356 49.7574 29.9274 50.4675 30.4275C53.4353 32.5177 58.576 34.7367 66.8304 35.7496C66.4398 35.2906 66.43 34.6404 66.851 34.1677C66.9166 34.094 66.9894 34.0283 67.0679 33.9707ZM71.47 38.751C71.392 38.7575 71.3123 38.7586 71.2316 38.7538C68.7508 38.6075 66.4739 38.363 64.3877 38.0407C65.9622 39.1244 68.0061 40.3548 70.2004 41.3566C73.3473 42.7932 76.5087 43.6229 78.9793 43.1946C79.7771 43.0564 80.5508 43.5149 80.7075 44.2188C80.8642 44.9227 80.3446 45.6054 79.5468 45.7437C76.057 46.3486 72.1344 45.1643 68.8475 43.6638C65.5018 42.1364 62.5086 40.1387 60.7529 38.7484C60.2734 38.3688 60.1423 37.7744 60.3786 37.2783C59.7366 37.1314 59.1169 36.9766 58.5189 36.8148C58.8477 38.1036 59.9226 40.3445 62.4053 43.1823C65.2226 46.4025 69.7895 50.3155 76.9069 54.3556C84.5305 54.9921 93.1795 53.6318 100.113 51.2233C103.628 50.0023 106.639 48.5336 108.826 46.9684C110.697 45.6299 111.842 44.3116 112.309 43.1088C111.957 43.528 111.537 43.9322 111.05 44.3206C108.491 46.3603 103.904 48.1096 96.695 49.5081C95.9735 49.9406 95.1986 50.3467 94.3687 50.7171C89.0971 53.0699 81.7502 53.9202 72.0899 51.1297C71.3172 50.9065 70.8959 50.1729 71.1489 49.4911C71.3404 48.9749 71.8636 48.6364 72.4418 48.5994C71.9805 48.3175 71.7235 47.8142 71.8317 47.2957C71.9788 46.5902 72.7463 46.1235 73.5459 46.2534C89.1219 48.783 96.002 44.1222 97.3923 42.1009C97.8142 41.4877 98.7195 41.2923 99.4146 41.6645C99.8314 41.8877 100.078 42.2645 100.117 42.6627C100.542 42.0352 100.87 41.4329 101.104 40.8858C101.392 40.2149 102.242 39.877 103.002 40.131C103.763 40.385 104.146 41.1347 103.858 41.8056C103.336 43.0213 102.476 44.4072 101.249 45.7776C105.183 44.6983 107.649 43.53 109.076 42.393C110.046 41.6195 110.481 40.9043 110.632 40.2775C110.784 39.6501 110.684 38.975 110.315 38.2313C109.628 36.8498 108.087 35.3962 106.093 34.0312C104.722 33.0928 103.206 32.2437 101.762 31.5346C100.936 35.8456 99.2983 38.9562 96.9799 41.0226C94.3043 43.4074 90.9053 44.2402 87.3696 44.1023C82.1195 43.8976 76.3671 41.5531 71.47 38.751ZM102.174 28.7799C104.012 29.6248 106.057 30.719 107.897 31.9785C109.937 33.374 111.862 35.065 112.883 36.9428C114.374 38.235 115.237 39.6584 115.448 41.1506C115.571 41.1292 115.702 41.1065 115.842 41.0827C116.93 40.8982 118.368 40.6824 119.814 40.6727C121.235 40.6631 122.863 40.8489 124.199 41.6235C125.432 42.3391 126.247 43.4554 126.519 44.9657C129.402 46.3772 132.418 48.1626 134.653 50.0757C135.858 51.1071 136.897 52.2266 137.545 53.3957C138.076 54.3542 138.374 55.4044 138.218 56.4741C139.334 57.6991 140.285 59.258 140.494 60.9548C145.364 63.7778 150.17 68.0329 151.622 72.7141C152.399 75.2202 152.21 77.8549 150.55 80.3643C148.967 82.7547 146.129 84.9122 141.846 86.7621C138.067 93.0132 125.032 101.737 100.572 93.9748C98.8063 94.1184 96.8847 94.222 94.8543 94.2916C84.4737 99.808 73.7182 100.417 64.5213 98.9431C55.446 97.4888 47.8261 93.9998 43.4287 91.1206C39.1457 90.367 35.2897 89.5476 31.8252 88.6754C23.7998 88.9796 17.8369 88.6588 13.4864 87.9058C9.12488 87.1508 6.1999 85.9301 4.50367 84.3031C2.72084 82.5931 2.45756 80.595 3.03715 78.7605C3.48876 77.3311 4.44358 75.9989 5.54434 74.8805C3.79675 72.0838 3.54493 69.3 4.27933 66.7936C5.07906 64.0643 7.01986 61.748 9.25919 60.101L9.45274 59.9586L9.68893 59.8812C10.2596 59.694 11.1278 59.4129 11.8781 59.1778C12.0097 59.1366 12.1387 59.0964 12.2626 59.0582C12.3866 57.6798 13.3631 56.4413 14.3723 55.4952C15.5837 54.3596 17.1804 53.3213 18.7015 52.4735C19.0131 50.6845 20.5374 49.2298 22.1616 48.1794L22.2498 48.1223L22.3465 48.0774C22.5639 47.9765 22.8363 47.8464 23.1464 47.6984C24.0259 47.2784 25.2081 46.7138 26.2958 46.2609C26.7617 46.067 27.2415 45.8799 27.7008 45.7258C26.7602 44.0729 26.3448 42.6405 26.4949 41.4548C26.6007 40.6187 26.9954 39.8764 27.7048 39.3467C28.3935 38.8326 29.2422 38.6201 30.0666 38.5907C30.7005 38.5621 31.6697 38.5579 32.6242 38.6348C32.2159 37.0363 32.2408 35.7338 32.7061 34.718C33.0623 33.9404 33.6639 33.3671 34.4223 33.0224C35.1561 32.6889 35.9494 32.6077 36.6645 32.6576L36.748 32.6634L37.4893 32.791C37.8238 32.396 38.2796 32.0993 38.8188 31.9126C39.2558 31.7612 39.7232 31.6894 40.1922 31.67C40.4416 30.965 40.905 30.2279 41.6801 29.6201C42.4635 29.0058 43.4749 28.5928 44.7204 28.4417C44.5448 28.1288 44.4053 27.8249 44.3015 27.5336L44.2148 27.2903L44.2389 27.0361C44.3593 25.7626 45.662 24.9791 47.2254 24.7257C48.1977 24.5682 49.4421 24.5662 51.0221 24.7796C50.8877 24.4278 50.8019 24.084 50.7648 23.7522C50.6632 23.3334 50.6749 22.8297 50.9311 22.3331C51.2278 21.7581 51.7774 21.3377 52.4707 21.0898C53.1013 20.8644 53.8815 20.7682 54.8284 20.8043C54.7725 20.5729 54.7479 20.3407 54.7572 20.1087C54.5371 18.8663 55.3864 17.6278 57.0568 16.846C58.7491 16.0539 61.4712 15.5901 65.6657 15.7122C69.5698 14.6812 74.6774 13.9585 79.5998 14.6293C84.67 15.3203 89.6064 17.5078 92.6842 22.3685C93.0459 22.9397 93.3435 23.4851 93.571 24.0045C94.771 23.7942 96.1973 23.6647 97.535 23.7893C98.5047 23.8796 99.5442 24.1137 100.42 24.6416C101.341 25.1972 102.002 26.0345 102.215 27.1504L102.232 27.2428L102.235 27.3366C102.247 27.8331 102.227 28.3143 102.174 28.7799ZM46.8662 31.0454C45.0114 30.8095 44.0899 31.2059 43.6358 31.5619C43.4455 31.7112 43.2974 31.8842 43.1852 32.0644C43.6431 32.184 44.1009 32.3247 44.5474 32.4784C45.6132 32.7951 47.1747 33.2647 48.5276 33.6832C48.3775 33.1022 48.2642 32.5679 48.1818 32.1321C47.6967 31.7694 47.2589 31.4059 46.8662 31.0454ZM51.7501 34.302C51.8696 34.6587 52.0035 35.0147 52.153 35.3564C54.1209 39.8536 58.6663 46.7157 67.5427 53.2266C68.5482 53.3782 69.5691 53.5227 70.602 53.6584C65.8142 50.4952 62.4189 47.4492 60.0748 44.7697C57.0145 41.2718 55.6763 38.316 55.4835 36.5049C55.4611 36.2944 55.4969 36.0909 55.5794 35.9069C54.1529 35.4068 52.8804 34.866 51.7501 34.302ZM61.9435 52.2829C55.3263 46.6287 51.5476 40.9528 49.6334 36.7971C49.5915 36.783 49.547 36.7681 49.4998 36.7524C49.0554 36.6047 48.4358 36.4084 47.7387 36.1921C46.3476 35.7604 44.683 35.2597 43.5743 34.9304L43.5399 34.9202L43.5061 34.9085C42.6743 34.6204 41.8743 34.4127 41.193 34.3183C40.4892 34.2208 40.0768 34.2676 39.8945 34.3308C39.8716 34.3387 39.8567 34.3453 39.8478 34.3499C39.8421 34.3637 39.8336 34.3899 39.8271 34.4337C39.7944 34.6552 39.8404 35.1543 40.2647 36.0582C40.6777 36.9383 41.3952 38.0895 42.5252 39.5642C44.6414 42.3258 48.115 46.107 53.469 51.1999C53.8279 50.8434 54.3967 50.6752 54.954 50.8078C57.0728 51.3119 59.4257 51.8133 61.9435 52.2829ZM54.9228 53.4887C54.8529 53.7093 54.716 53.9163 54.513 54.0846C53.9204 54.5756 52.9888 54.5498 52.4322 54.0269C46.3984 48.3577 42.4721 44.1328 40.0863 41.0193C38.8939 39.4633 38.0608 38.1522 37.5445 37.0522C37.2654 36.4574 37.0605 35.8863 36.9551 35.3458L36.3597 35.2434C36.087 35.2329 35.8937 35.2758 35.7704 35.3319C35.661 35.3816 35.5371 35.4702 35.4357 35.6915C35.1938 36.2195 35.1016 37.4946 36.1869 40.0434C37.5012 43.1299 40.3855 47.722 45.8693 54.3658C54.1271 56.266 64.9191 58.1573 75.8602 59.1156C87.0498 60.0957 98.2754 60.0887 107.086 58.1837C109.269 57.7115 111.291 57.1256 113.118 56.4158C117.411 54.7487 120.577 52.4232 122.331 49.3161C122.944 48.2305 123.394 47.0338 123.657 45.7126C123.558 44.606 123.09 44.0891 122.582 43.7944C121.96 43.4339 121.025 43.2624 119.836 43.2704C118.673 43.2782 117.454 43.4546 116.398 43.6338C116.206 43.6664 116.01 43.7008 115.819 43.7342C115.574 43.7772 115.338 43.8186 115.132 43.8523C114.43 45.7522 112.779 47.4846 110.681 48.9861C108.194 50.7654 104.897 52.3536 101.192 53.6405C93.7905 56.2114 84.5092 57.6668 76.2578 56.9093C72.97 56.6074 69.7367 56.1999 66.655 55.7277C62.3718 55.0714 58.3745 54.289 54.9228 53.4887ZM126.144 47.7679C125.969 48.3198 125.763 48.8548 125.527 49.3729C126.481 49.9247 127.407 50.5906 128.139 51.3489C129.16 52.4075 129.971 53.8336 129.574 55.4438C129.182 57.0345 127.716 58.3607 125.392 59.4549C124.418 59.9132 123.252 60.3516 121.871 60.7666C125.547 60.4166 128.354 59.9175 130.445 59.3195C133.819 58.3545 134.942 57.2485 135.223 56.4471C135.399 55.9448 135.338 55.326 134.9 54.5372C134.457 53.7383 133.676 52.8585 132.603 51.9404C130.871 50.4578 128.537 49.0075 126.144 47.7679ZM115.619 59.5579C119.559 58.819 122.246 57.9914 124.006 57.1629C126.003 56.2227 126.572 55.3974 126.697 54.8914C126.817 54.405 126.627 53.7893 125.897 53.0332C125.445 52.5652 124.85 52.1142 124.186 51.7078C122.152 54.5933 119.086 56.7611 115.376 58.3555C115.462 58.7617 115.543 59.1625 115.619 59.5579ZM112.601 59.4059C111.554 59.7539 110.466 60.0662 109.344 60.3454C111.475 66.0723 111.787 70.4858 110.604 73.8052C109.297 77.4748 106.249 79.5793 102.525 80.59C98.8659 81.583 94.5054 81.5443 90.2672 81.0001C87.3117 80.6207 84.3546 79.9874 81.6401 79.2418C84.5083 80.2825 87.5539 81.1854 90.5842 81.8064C96.212 82.9597 101.57 83.0966 105.641 81.5539C107.074 81.0109 108.35 80.2595 109.435 79.2651C111.596 77.2841 113.133 74.2127 113.458 69.5607C113.598 67.558 113.512 65.2711 113.157 62.6689C113.095 62.2176 113.025 61.757 112.947 61.2869C112.846 60.676 112.731 60.0491 112.601 59.4059ZM83.7152 77.0788C85.9573 77.6493 88.3317 78.1265 90.6912 78.4294C94.7266 78.9475 98.5933 78.9391 101.659 78.107C104.661 77.2925 106.837 75.7163 107.796 73.026C108.729 70.4072 108.58 66.542 106.478 60.9735C97.4214 62.7107 86.3609 62.6459 75.5694 61.7007C64.228 60.7073 53.0633 58.7301 44.6135 56.7608L44.1098 56.6434L43.802 56.2727C38.3054 49.6537 35.1857 44.8568 33.6322 41.416C33.5996 41.4069 33.5629 41.3974 33.5218 41.3876C33.2451 41.3216 32.8861 41.2688 32.4738 41.2318C31.6503 41.1579 30.7625 41.1602 30.2097 41.1855L30.1997 41.1859L30.1897 41.1863C29.8357 41.1982 29.6719 41.2811 29.6066 41.3298C29.5592 41.3653 29.4569 41.4584 29.4209 41.7431C29.3366 42.4091 29.6742 43.7812 31.2889 46.0426C31.7291 46.6591 32.2559 47.3302 32.8795 48.0573C35.4554 51.0605 39.6325 54.9614 46.0323 59.8545C46.5343 60.0581 47.0846 60.2703 47.6807 60.4886C50.2254 61.4205 53.5806 62.4542 57.5472 63.4064C68.1814 65.959 83.0799 67.8943 98.425 65.7926C100.029 65.5729 101.637 65.3092 103.246 64.9976C104.04 64.8438 104.825 65.2871 104.999 65.9878C105.174 66.6884 104.671 67.3811 103.877 67.535C103.487 67.6105 103.098 67.6833 102.708 67.7534C102.926 67.9006 103.128 68.0469 103.315 68.1923C104.229 68.903 104.945 69.7214 105.125 70.6667C105.324 71.7144 104.811 72.5776 104.085 73.1904C103.4 73.7688 102.459 74.195 101.472 74.5246C99.478 75.1904 96.7872 75.6256 94.0466 75.9053C91.3741 76.1779 88.5603 76.3115 86.119 76.3464C85.3092 76.6074 84.5079 76.8514 83.7152 77.0788ZM91.7234 73.4997C92.3896 73.4496 93.0541 73.3914 93.7084 73.3247C96.3795 73.0521 98.7812 72.6455 100.43 72.095C101.264 71.8165 101.781 71.541 102.05 71.3134C102.175 71.2079 102.211 71.1421 102.22 71.1239C102.223 71.1168 102.225 71.1166 102.221 71.0964C102.206 71.0168 102.082 70.6956 101.369 70.1414C100.787 69.6887 99.9151 69.161 98.6785 68.561C98.5035 68.7627 98.2598 68.9213 97.9654 69.0057C85.0772 72.7015 74.5271 73.7493 66.5429 73.5376C58.601 73.3271 53.1083 71.8664 50.4001 70.4534C49.7003 70.0883 49.4684 69.2917 49.8822 68.6742C50.2961 68.0567 51.1988 67.8522 51.8987 68.2173C54.0262 69.3274 58.9724 70.738 66.6313 70.941C71.7645 71.0771 78.0768 70.669 85.5028 69.2828C74.6594 69.3387 64.6508 67.7961 56.8775 65.9377C50.456 65.2459 45.0381 64.478 40.4924 63.6572C45.8767 70.0849 56.7532 79.0621 74.3457 76.459C75.6557 76.2652 76.9993 76.0215 78.3764 75.7238C80.6083 75.2414 82.9286 74.6169 85.337 73.8324C86.7467 73.3731 88.1867 72.8591 89.6567 72.2865C90.4005 71.9968 91.2696 72.294 91.5979 72.9503C91.6874 73.1292 91.7275 73.3163 91.7234 73.4997ZM40.7268 59.1644C36.6058 55.8314 33.5497 52.9724 31.3513 50.5525C30.6769 50.9734 30.0884 51.4652 29.6925 51.9819C29.134 52.7107 29.0143 53.386 29.3857 54.0836C29.8132 54.8864 31.0257 55.9866 33.9223 57.1495C35.6344 57.837 37.865 58.5182 40.7268 59.1644ZM29.5842 48.4738C29.4605 48.3166 29.3408 48.1615 29.2252 48.0085C28.795 48.1225 28.2189 48.3328 27.5521 48.6104C26.5449 49.0297 25.4936 49.5317 24.6272 49.9455C24.3331 50.0859 24.0603 50.2162 23.8177 50.3296C22.2355 51.3724 21.5625 52.378 21.5885 53.1928C21.611 53.8968 22.179 55.0169 24.6803 56.3707C26.2162 57.202 28.3707 58.0566 31.2959 58.9006C28.9645 57.7928 27.4507 56.5587 26.721 55.1882C25.7976 53.454 26.2761 51.8023 27.2535 50.5268C27.8695 49.723 28.7018 49.0326 29.5842 48.4738ZM30.5729 61.4249C27.3923 60.5175 24.953 59.5659 23.1408 58.5851C21.2889 57.5827 19.9638 56.4749 19.2508 55.2666C18.2185 55.8977 17.2558 56.5824 16.5162 57.2757C15.3223 58.395 15.0896 59.1667 15.2381 59.631C15.4128 60.1773 16.1787 61.0698 18.8485 61.9127C20.2595 62.3581 22.3235 62.5131 25.2495 62.55C25.8184 62.5571 26.5245 62.454 27.4024 62.2555C28.1024 62.0973 28.8393 61.8962 29.6468 61.6759C29.8519 61.6199 30.0616 61.5627 30.2764 61.5047C30.3743 61.4782 30.4732 61.4516 30.5729 61.4249ZM36.1522 63.0096C34.5289 63.1139 32.8514 63.5255 31.1388 63.9885C30.9441 64.0411 30.7479 64.0947 30.5511 64.1484C29.7364 64.3708 28.9104 64.5963 28.1332 64.772C27.5006 64.915 26.8516 65.0371 26.2096 65.1008C26.1983 65.1755 26.1952 65.253 26.2017 65.333C26.2239 65.6063 26.3675 66.0195 26.9131 66.5285C27.9919 67.535 30.5171 68.7887 35.839 69.7013C36.1768 68.8909 36.4119 67.7245 36.4684 66.4142C36.5248 65.1085 36.3945 63.8858 36.1522 63.0096ZM33.0578 71.8215C28.847 70.9026 26.2403 69.6814 24.7741 68.3135C23.8345 67.4369 23.3429 66.4779 23.2651 65.5185C23.2535 65.3766 23.2513 65.2371 23.2574 65.1005C21.7466 65.0418 20.3674 64.9243 19.1584 64.6859C19.0871 65.0758 19.1202 65.5953 19.3774 66.2687C19.8551 67.5193 21.0966 69.2344 23.7398 71.3391C27.518 72.1516 30.202 72.2756 32.0643 72.0146C32.4284 71.9636 32.7585 71.8984 33.0578 71.8215ZM28.6845 74.6889C32.6083 77.0128 37.9898 79.6099 45.2754 82.4197C46.7236 82.6969 48.2315 82.9664 49.801 83.2271C51.5049 83.5101 53.2815 83.7829 55.1334 84.0442C55.3917 84.0807 55.6235 84.1743 55.8148 84.3082C65.5534 85.989 76.9742 87.6252 84.9836 88.0198C87.4119 88.1395 89.4771 88.1422 91.0638 88.0081C91.8571 87.9411 92.4949 87.8427 92.9811 87.7209C93.3866 87.6194 93.623 87.5171 93.7478 87.4452C93.7148 87.3783 93.6533 87.276 93.5395 87.1348C93.0211 86.4915 91.8346 85.5499 89.6611 84.2835C84.2039 83.1385 78.7746 81.1567 74.3353 79.092C56.7782 81.5056 45.4661 73.2621 39.4037 66.6553C39.3072 68.5124 38.8782 70.5716 37.8796 71.8798C36.8077 73.284 35.028 74.2296 32.5261 74.5802C31.4076 74.737 30.1326 74.7777 28.6845 74.6889ZM95.5196 85.1597C95.6748 85.3187 95.8146 85.4752 95.9389 85.6293C96.3812 86.1781 96.7319 86.8262 96.7301 87.5392C96.7282 88.3188 96.3083 88.9441 95.7206 89.3826C95.1758 89.789 94.4819 90.0455 93.7849 90.22C93.0705 90.3989 92.2438 90.5181 91.3445 90.5941C89.5461 90.746 87.3141 90.7365 84.8195 90.6136C74.8596 90.1228 59.9278 87.7786 49.2394 85.7772C47.5983 85.5045 46.0215 85.222 44.5067 84.9308C28.2778 81.8105 19.0497 77.6583 14.2251 73.5183C9.73621 69.6664 8.98841 65.7205 10.2511 62.8149C8.79589 64.0945 7.64341 65.6909 7.12977 67.4439C6.52656 69.5025 6.77603 71.8598 8.61009 74.3414C11.5 78.2516 18.4111 82.5692 32.407 86.1202C35.9293 87.0138 39.8888 87.856 44.3292 88.6298C48.7658 89.403 53.6801 90.1076 59.1154 90.7272C69.5438 91.4555 83.588 92.053 94.3631 91.7083C96.6221 91.636 98.7285 91.5226 100.621 91.3614C102.677 91.1864 104.457 90.957 105.897 90.6696C107.239 90.4019 108.358 89.5468 109.021 88.5446C109.348 88.0493 109.531 87.5663 109.586 87.1721C109.642 86.7654 109.553 86.5567 109.5 86.4837C109.127 85.9711 108.133 85.1973 106.12 84.1837C102.917 85.2493 99.2621 85.4715 95.5196 85.1597ZM109.194 82.8043C110.081 83.331 110.808 83.8538 111.356 84.3789C112.253 84.2503 113.123 84.12 113.967 83.988C113.492 83.8573 113.103 83.5169 112.975 83.0593C112.78 82.3629 113.261 81.6588 114.05 81.4865C114.517 81.3848 114.972 81.283 115.418 81.1811C114.107 81.298 112.679 81.3865 111.126 81.4442C110.52 81.9536 109.874 82.4057 109.194 82.8043ZM113.585 78.7159C117.377 78.4619 120.107 77.9947 122.016 77.4132C124.448 76.6728 125.284 75.8334 125.537 75.2536C125.779 74.6974 125.662 73.9586 124.971 73.0038C124.375 72.1792 123.457 71.3545 122.438 70.6413C120.571 70.7864 118.525 70.8822 116.284 70.9223C115.915 74.0657 114.989 76.6472 113.585 78.7159ZM116.459 68.3206C118.775 68.2747 120.861 68.1675 122.735 68.0084C125.225 67.797 127.335 67.4948 129.115 67.1257C130.325 66.8747 131.378 66.5938 132.289 66.2916C136.599 64.8627 137.577 63.0578 137.592 61.6758C137.601 60.8478 137.277 59.9715 136.732 59.1374C135.553 60.2401 133.726 61.112 131.353 61.7907C127.931 62.7694 123.018 63.4531 116.249 63.7504C116.421 65.3788 116.489 66.9004 116.459 68.3206ZM126.264 70.2448C126.706 70.676 127.11 71.132 127.453 71.6064C128.383 72.8914 129.006 74.5293 128.285 76.1855C128.068 76.6831 127.747 77.1413 127.328 77.5618C127.55 77.4656 127.765 77.3699 127.973 77.2744C130.972 75.8951 132.213 74.6855 132.624 73.8198C132.973 73.0852 132.811 72.3995 132.134 71.6518C131.494 70.9451 130.462 70.2853 129.277 69.7574C128.343 69.9389 127.341 70.1019 126.264 70.2448ZM133.868 69.4691C134.069 69.649 134.258 69.836 134.434 70.0301C135.589 71.3048 136.213 72.9849 135.34 74.8239C134.529 76.5318 132.539 78.1037 129.333 79.5781C126.499 80.8817 122.547 82.1848 117.19 83.4551C123.46 82.3577 128.111 81.1652 131.476 79.9456C136.006 78.3034 137.925 76.7123 138.55 75.4828C139.093 74.4148 138.794 73.2968 137.574 72.0432C136.669 71.1133 135.355 70.2323 133.868 69.4691ZM136.05 67.5977C137.475 68.3878 138.797 69.3132 139.807 70.3504C141.435 72.0228 142.425 74.2068 141.236 76.5459C140.129 78.7235 137.296 80.6445 132.595 82.3485C128.086 83.9827 121.595 85.5113 112.547 86.8388C112.552 87.0593 112.537 87.2775 112.508 87.4891C112.397 88.2886 112.058 89.106 111.563 89.8542C111.472 89.9924 111.374 90.1299 111.27 90.266C124.998 89.117 134.218 87.073 140.131 84.6073C144.348 82.8491 146.77 80.9235 148.007 79.0542C149.221 77.2199 149.376 75.3175 148.782 73.3996C147.707 69.9316 144.175 66.454 140.061 63.8436C139.417 65.2597 138.106 66.5387 136.05 67.5977ZM107.555 93.1525C120.274 92.2984 129.707 90.7268 136.526 88.6752C131.956 92.663 122.734 96.526 107.555 93.1525ZM12.831 61.636C13.3913 62.0123 13.5798 62.7009 13.2427 63.2702C12.2327 64.9764 12.0963 68.0679 16.2778 71.656C18.9666 73.9633 23.4011 76.4204 30.3644 78.6947C26.8409 76.843 24.1233 75.1043 22.0579 73.4964C19.0161 71.1284 17.306 68.9795 16.5875 67.0985C16.1265 65.8917 16.0718 64.7731 16.3604 63.8169C14.886 63.2033 13.764 62.4592 13.0637 61.5633C12.9985 61.5836 12.9316 61.6044 12.8634 61.6258C12.8526 61.6292 12.8418 61.6326 12.831 61.636ZM7.27355 77.1187C6.61587 77.8811 6.11803 78.6831 5.87317 79.4581C5.52311 80.5661 5.68144 81.5957 6.67048 82.5444C7.74611 83.5761 9.94325 84.6452 14.0531 85.3566C16.4816 85.7769 19.5148 86.0617 23.2658 86.1567C15.3402 83.423 10.2453 80.3251 7.27355 77.1187ZM51.4778 92.3852C55.2522 94.043 59.9009 95.5624 65.0474 96.3871C72.1424 97.5241 80.1406 97.3361 88.107 94.4057C78.397 94.4257 67.3882 93.9116 58.8466 93.3143L58.8104 93.3118L58.7745 93.3077C56.2339 93.0184 53.8031 92.7104 51.4778 92.3852ZM95.2759 47.2155C95.7345 46.9309 96.1662 46.6346 96.5715 46.3302C92.5245 48.7054 85.2633 50.5808 74.2054 48.9909C82.6208 51.1898 88.766 50.3065 93.0398 48.399C93.8287 48.0469 94.5583 47.6579 95.2304 47.2436C95.2454 47.234 95.2605 47.2247 95.2759 47.2155ZM47.073 27.5002C47.0709 27.4992 47.0782 27.4895 47.1014 27.474C47.0867 27.4935 47.0751 27.5012 47.073 27.5002ZM57.6723 19.7684C57.6704 19.7679 57.6687 19.7575 57.6732 19.7383C57.6765 19.7591 57.6742 19.7688 57.6723 19.7684Z" fill="#FFEDBA"/>
<rect width="1.43031" height="2.0801" transform="matrix(0.825144 -0.564922 0.660363 0.750947 51.7534 25.6549)" fill="#8ABD72"/>
<rect width="1.3632" height="2.17913" transform="matrix(0.542217 0.840239 -0.893565 0.448933 61.6333 17.2581)" fill="#8ABD72"/>
<rect width="1.49258" height="1.9792" transform="matrix(0.997094 0.0761853 -0.0976716 0.995219 74.5732 19.9144)" fill="#8ABD72"/>
<path d="M84.3209 17.2429L85.6825 16.7006L86.6044 18.5026L85.2429 19.0449L84.3209 17.2429Z" fill="#8ABD72"/>
<path d="M81.0162 26.5558L82.3777 26.0135L83.2996 27.8156L81.9381 28.3579L81.0162 26.5558Z" fill="#8ABD72"/>
<path d="M62.9254 24.1387L63.6089 22.9667L65.6013 23.8714L64.9177 25.0434L62.9254 24.1387Z" fill="#8ABD72"/>
<rect width="1.43031" height="2.0801" transform="matrix(0.825144 -0.564922 0.660363 0.750947 38.0923 39.27)" fill="#8ABD72"/>
<rect width="1.3632" height="2.17913" transform="matrix(0.542217 0.840239 -0.893565 0.448933 47.9722 30.8732)" fill="#8ABD72"/>
<rect width="1.49258" height="1.9792" transform="matrix(0.997094 0.0761853 -0.0976716 0.995219 60.9121 33.5294)" fill="#8ABD72"/>
<path d="M70.6598 30.858L72.0213 30.3157L72.9432 32.1177L71.5817 32.66L70.6598 30.858Z" fill="#8ABD72"/>
<path d="M67.3551 40.1709L68.7166 39.6286L69.6385 41.4306L68.277 41.9729L67.3551 40.1709Z" fill="#8ABD72"/>
<path d="M49.2637 37.7538L49.9473 36.5818L51.9397 37.4865L51.2561 38.6585L49.2637 37.7538Z" fill="#8ABD72"/>
<rect width="1.43031" height="2.0801" transform="matrix(0.825144 -0.564922 0.660363 0.750947 85.8945 39.27)" fill="#8ABD72"/>
<rect width="1.3632" height="2.17913" transform="matrix(0.542217 0.840239 -0.893565 0.448933 95.7739 30.8732)" fill="#8ABD72"/>
<rect width="1.49258" height="1.9792" transform="matrix(0.997094 0.0761853 -0.0976716 0.995219 108.714 33.5294)" fill="#8ABD72"/>
<path d="M97.066 37.7538L97.7495 36.5818L99.7419 37.4865L99.0584 38.6585L97.066 37.7538Z" fill="#8ABD72"/>
<path d="M73.4474 15.8712C73.4021 15.6357 73.3674 15.3858 73.341 15.1362C70.4967 13.5545 73.2806 7.85404 73.9438 5.54742L73.3077 12.797C74.0159 6.94665 83.4908 6.58774 88.2683 7.1654C84.3986 15.4566 79.0267 17.5703 76.8244 17.5907C75.7738 17.408 73.6275 16.8083 73.4474 15.8712Z" fill="#559658"/>
<path d="M73.2366 13.6564C73.0567 8.26802 64.6563 7.93119 60.4786 8.43632C63.7701 15.4886 68.3394 17.2865 70.2125 17.3038C71.1062 17.1484 72.9318 16.6383 73.0849 15.8413C73.1103 15.7093 73.1318 15.572 73.1499 15.433C73.2413 14.7322 73.2477 13.987 73.2366 13.6564Z" fill="#559658"/>
<path d="M84.774 8.51309C79.695 8.51309 74.9397 12.9067 73.1969 15.1035C71.5786 13.2362 67.6698 9.56755 64.981 9.83116" stroke="#38793B"/>
<path d="M91.6463 28.2086C93.3003 26.2061 92.1127 24.1458 91.2336 23.2046C88.1608 24.3684 88.3495 26.9727 88.9064 28.2907C89.1306 29.0977 89.9923 30.2111 91.6463 28.2086Z" fill="#F8F4E5"/>
<path d="M91.0985 23.4469C91.169 24.6307 90.9346 27.3697 89.4336 28.8555C88.8955 27.4029 88.475 24.2876 91.0985 23.4469Z" fill="#FFFDF6"/>
<path d="M75.7852 39.6709C78.2003 38.4064 78.03 36.0998 77.6429 34.9289C74.299 34.9289 73.3082 37.3877 73.2308 38.7927C73.076 39.6123 73.3702 40.9354 75.7852 39.6709Z" fill="#F8F4E5"/>
<path d="M77.4106 35.1046C76.9462 36.2169 75.5064 38.6522 73.4629 39.4952C73.6177 37.9731 74.624 34.9641 77.4106 35.1046Z" fill="#FFFDF6"/>
<path d="M56.6634 28.5238C59.3014 29.3734 61.2176 27.7972 62 26.7918C59.8836 24.5074 57.0991 25.3867 55.8172 26.223C55.0001 26.636 54.0253 27.6743 56.6634 28.5238Z" fill="#F8F4E5"/>
<path d="M61.6989 26.7441C60.429 27.1308 57.3808 27.6886 55.3477 26.8261C56.7813 25.9685 60.0586 24.7515 61.6989 26.7441Z" fill="#FFFDF6"/>
<path d="M59.951 47.921C59.3786 45.4951 56.8505 44.8892 55.4698 44.8326C54.3853 47.6236 56.7 49.248 58.1812 49.7683C59.0096 50.1633 60.5234 50.3468 59.951 47.921Z" fill="#F8F4E5"/>
<path d="M55.5828 45.0835C56.6246 45.8319 58.7686 47.8234 59.0096 49.8025C57.428 49.1796 54.5284 47.3638 55.5828 45.0835Z" fill="#FFFDF6"/>
<path d="M39.9337 50.8745C42.3487 49.61 42.1784 47.3034 41.7914 46.1326C38.4475 46.1326 37.4567 48.5913 37.3793 49.9963C37.2245 50.8159 37.5186 52.139 39.9337 50.8745Z" fill="#F8F4E5"/>
<path d="M41.559 46.3082C41.0946 47.4205 39.6548 49.8558 37.6113 50.6988C37.7661 49.1767 38.7724 46.1677 41.559 46.3082Z" fill="#FFFDF6"/>
<path d="M90.8988 54.1114C93.4582 55.1312 95.5015 53.6848 96.3663 52.7333C94.4478 50.3167 91.597 51.0114 90.2484 51.7616C89.3988 52.1199 88.3394 53.0916 90.8988 54.1114Z" fill="#F8F4E5"/>
<path d="M96.0701 52.6661C94.7711 52.9687 91.6845 53.3254 89.7295 52.3323C91.2312 51.5709 94.6017 50.5717 96.0701 52.6661Z" fill="#FFFDF6"/>
<path d="M113.993 45.4942C114.7 43.0962 112.74 41.5632 111.531 40.9717C109.155 43.048 110.412 45.4101 111.478 46.4564C112.021 47.1348 113.286 47.8922 113.993 45.4942Z" fill="#F8F4E5"/>
<path d="M111.506 41.2408C112.063 42.3194 112.983 44.9437 112.203 46.8115C111.099 45.6339 109.414 42.8712 111.506 41.2408Z" fill="#FFFDF6"/>
</svg>
