<svg width="153" height="102" viewBox="0 0 153 102" fill="none" xmlns="http://www.w3.org/2000/svg">
<path d="M100.565 19.9794C100.575 19.9843 100.585 19.9892 100.595 19.9941C104.573 21.9355 109.994 25.4495 111.663 29.2486C113.594 31.053 114.265 32.9577 113.953 34.8499C115.072 35.0684 124.765 31.3782 125.138 38.3815C131.177 41.6126 137.909 46.7572 136.629 50.8866C137.988 52.3865 139.083 54.3682 139.064 56.383C148.993 62.5991 158.27 75.3848 140.76 83.6473C137.688 89.9765 125.389 100.393 100.763 91.4244C98.8332 91.6102 96.6964 91.7402 94.4163 91.8227C74.1952 104.224 52.4092 94.6497 44.0438 88.3122C39.5678 87.4295 35.5674 86.4671 32 85.4429C-0.337768 86.8794 2.11048 76.749 7.37683 71.5042C3.2592 65.1996 6.09294 59.1355 10.2016 55.7158C11.335 55.2953 13.6456 54.4541 13.8211 54.4541C13.07 51.796 16.8015 48.8019 20.1168 46.8109C20.0692 45.1226 21.2814 43.5626 23.0316 42.2817C24.8214 41.3417 29.2838 38.7562 30.0432 39.4617C26.7252 34.2032 27.7699 31.8043 30.1332 31.714C31.3522 31.6509 33.9938 31.701 34.8087 32.4065C32.5742 26.4684 34.4954 24.8348 36.5482 24.997L38.3672 25.3513C38.5428 24.0083 39.8117 23.7065 41.4212 23.959C41.4212 22.3571 42.6578 19.3911 47.604 20.3416C46.5734 19.196 45.9697 18.1314 45.7056 17.2926C45.7841 16.3532 47.5795 14.9448 54.1329 16.8262C52.8352 15.4327 52.2857 14.1574 52.222 13.2193C51.9585 12.2782 52.7268 10.7451 57.9085 12.1413C56.5766 10.9793 56.1479 9.95573 56.2398 9.24147C55.9128 7.96908 57.3786 5.5062 65.8578 5.83383C73.4631 3.50433 85.7845 2.57169 91.3989 12.6054C92.0386 13.7487 92.4134 14.7071 92.5586 15.5011C95.0534 14.7548 100.187 14.1185 100.763 17.543C100.782 18.4146 100.713 19.226 100.565 19.9794Z" fill="#F8DC85"/>
<path fill-rule="evenodd" clip-rule="evenodd" d="M79.1504 6.03603C74.7085 5.35102 69.9618 6.11428 66.2897 7.23904C65.2087 7.57013 64.2336 7.92874 63.4008 8.28296C62.6529 8.6011 61.7882 8.25358 61.4696 7.50674C61.4594 7.48284 61.4499 7.45881 61.441 7.43469C59.9783 7.61498 59.027 7.92335 58.4365 8.23611C57.8221 8.56154 57.6954 8.81537 57.6741 8.90808L57.7361 9.1492L57.7001 9.42882C57.7002 9.42778 57.7003 9.4285 57.7005 9.43097C57.7033 9.47386 57.7413 10.0434 58.8773 11.0344C60.7021 12.6264 64.7582 14.7319 72.7516 16.5627C73.661 16.771 74.6199 16.9754 75.6305 17.1749C72.1004 15.9162 68.5921 14.4467 65.7313 13.1326L65.4601 13.008L65.2589 12.7877C64.785 12.2689 64.0793 11.2823 64.3246 10.1052C64.6062 8.75425 65.8672 8.17458 67.0131 7.94424C68.2399 7.69763 69.9782 7.69306 72.3486 7.96579C74.744 8.2414 77.8826 8.81269 81.9571 9.78439C82.7479 9.97298 83.2358 10.7659 83.047 11.5555C82.8581 12.345 82.0639 12.8322 81.2732 12.6436C77.267 11.6882 74.2511 11.1438 72.0116 10.8861C69.8586 10.6384 68.5078 10.6665 67.7133 10.8039C72.5694 12.9926 78.9398 15.4696 84.0048 16.6314C86.7186 17.2539 88.8294 17.4419 90.1081 17.1676C90.7227 17.0357 90.9513 16.8379 91.0335 16.7265C91.0963 16.6413 91.2272 16.402 91.1107 15.7652C91.0052 15.1886 90.7104 14.3882 90.1139 13.3223C87.5773 8.78898 83.5459 6.71387 79.1504 6.03603ZM83.3967 19.5082C83.4185 19.6488 83.4199 19.795 83.3985 19.9431C83.2969 20.6451 82.7141 21.1591 82.0318 21.2002C84.1136 22.0605 86.0505 22.6744 87.6656 22.887C89.6848 23.1528 90.704 22.7436 91.1846 22.0758C91.4936 21.6464 91.7383 20.9161 91.7345 19.7327C91.4071 19.8685 91.0667 19.9687 90.7266 20.0417C88.7796 20.4594 86.1398 20.134 83.3967 19.5082ZM94.3234 16.5889C94.9493 19.6863 94.7764 22.1227 93.5754 23.7913C92.1123 25.8242 89.6118 26.1083 87.2808 25.8015C84.8911 25.4869 82.1449 24.4974 79.4716 23.2975C76.8479 22.1199 74.199 20.6952 71.8813 19.3791C64.1535 17.5896 59.6363 15.4642 57.2127 13.4785C55.1306 12.9488 54.108 13.0147 53.6915 13.128C53.728 13.6222 54.0611 14.5904 55.2112 15.8253C57.6783 18.4745 63.5456 21.934 75.7077 23.8222C76.7619 23.9859 77.8626 24.1376 79.0115 24.2759C79.6998 24.3587 80.2197 24.9033 80.2975 25.5617C83.6295 26.5136 87.2633 26.8444 90.4647 26.387C95.0826 25.7271 98.3637 23.5381 99.1204 19.6958C99.1479 19.5561 99.1723 19.4134 99.1935 19.2676C99.1942 19.2629 99.1949 19.2581 99.1956 19.2533C99.2655 18.7679 99.2998 18.2486 99.2931 17.6933C99.2072 17.3005 99.0194 17.066 98.7583 16.8878C98.4313 16.6646 97.9234 16.4932 97.226 16.4197C96.3053 16.3227 95.2576 16.4165 94.3234 16.5889ZM97.4088 27.0005C95.5225 28.2229 93.2461 28.9591 90.8818 29.297C85.7212 30.0344 79.7155 28.9825 75.0302 26.6918C73.175 26.399 71.4502 26.0687 69.8482 25.7075C75.1624 29.7032 81.8729 33.2975 87.4996 33.5458C90.4045 33.674 92.9239 32.9101 94.8875 30.9295C95.8378 29.9711 96.6984 28.6872 97.4088 27.0005ZM67.0679 25.0177C60.0357 23.1033 55.7551 20.56 53.3488 18.1327C50.3949 17.3205 48.6714 17.2796 47.7573 17.4473C47.6088 17.4745 47.4908 17.5041 47.3975 17.533C47.6618 18.0467 48.0793 18.6702 48.6993 19.3593C49.1729 19.8857 49.7574 20.4422 50.4675 21.0081C53.4353 23.3734 58.576 25.8844 66.8304 27.0306C66.4398 26.5112 66.43 25.7755 66.851 25.2405C66.9166 25.1572 66.9894 25.0828 67.0679 25.0177ZM71.47 30.4271C71.392 30.4344 71.3123 30.4356 71.2316 30.4302C68.7508 30.2646 66.4739 29.988 64.3877 29.6232C65.9622 30.8496 68.0061 32.2419 70.2004 33.3755C73.3473 35.0012 76.5087 35.9401 78.9793 35.4555C79.7771 35.299 80.5508 35.8179 80.7075 36.6145C80.8642 37.411 80.3446 38.1836 79.5468 38.34C76.057 39.0245 72.1344 37.6844 68.8475 35.9864C65.5018 34.258 62.5086 31.9973 60.7529 30.4241C60.2734 29.9945 60.1423 29.3219 60.3786 28.7605C59.7366 28.5943 59.1169 28.4191 58.5189 28.2361C58.8477 29.6944 59.9226 32.2303 62.4053 35.4415C65.2226 39.0856 69.7895 43.5135 76.9069 48.0853C84.5305 48.8056 93.1795 47.2663 100.113 44.5407C103.628 43.159 106.639 41.4971 108.826 39.7259C110.697 38.2113 111.842 36.7194 112.309 35.3583C111.957 35.8327 111.537 36.2902 111.05 36.7297C108.491 39.0377 103.904 41.0173 96.695 42.5998C95.9735 43.0892 95.1986 43.5488 94.3687 43.968C89.0971 46.6304 81.7502 47.5926 72.0899 44.4348C71.3172 44.1822 70.8959 43.3521 71.1489 42.5806C71.3404 41.9964 71.8636 41.6134 72.4419 41.5715C71.9805 41.2526 71.7235 40.6831 71.8317 40.0963C71.9788 39.2979 72.7463 38.7698 73.5459 38.9168C89.1219 41.7793 96.002 36.5051 97.3923 34.2178C97.8142 33.5239 98.7195 33.3028 99.4146 33.7239C99.8315 33.9766 100.078 34.403 100.117 34.8535C100.542 34.1435 100.87 33.4618 101.104 32.8428C101.392 32.0836 102.242 31.7012 103.002 31.9886C103.763 32.2761 104.146 33.1245 103.858 33.8837C103.336 35.2593 102.476 36.8276 101.249 38.3784C105.183 37.1571 107.649 35.835 109.076 34.5483C110.046 33.673 110.481 32.8637 110.632 32.1545C110.784 31.4445 110.684 30.6805 110.315 29.8389C109.628 28.2757 108.087 26.6307 106.093 25.0861C104.722 24.0242 103.206 23.0634 101.762 22.2609C100.936 27.1393 99.2983 30.6593 96.9799 32.9977C94.3043 35.6963 90.9053 36.6386 87.3696 36.4826C82.1195 36.2509 76.3671 33.5979 71.47 30.4271ZM102.174 19.1437C104.012 20.0998 106.057 21.338 107.897 22.7632C109.937 24.3424 111.862 26.2559 112.883 28.3809C114.374 29.8431 115.237 31.4539 115.448 33.1425C115.571 33.1182 115.702 33.0926 115.842 33.0657C116.93 32.8568 118.368 32.6126 119.814 32.6016C121.235 32.5908 122.863 32.801 124.199 33.6776C125.432 34.4873 126.247 35.7505 126.52 37.4597C129.402 39.0569 132.418 41.0772 134.653 43.2421C135.858 44.4093 136.897 45.6761 137.545 46.9991C138.076 48.0837 138.374 49.2721 138.218 50.4826C139.334 51.8688 140.285 53.633 140.494 55.553C145.364 58.7475 150.17 63.5627 151.622 68.8599C152.399 71.6959 152.21 74.6772 150.55 77.5169C148.967 80.2219 146.129 82.6633 141.846 84.7568C138.067 91.8305 125.032 101.702 100.572 92.9187C98.8063 93.0811 96.8847 93.1984 94.8543 93.2772C84.4737 99.5195 73.7182 100.209 64.5213 98.5408C55.446 96.8951 47.8261 92.9469 43.4287 89.6888C39.1457 88.836 35.2897 87.9088 31.8252 86.9218C23.7998 87.266 17.8369 86.9031 13.4864 86.0509C9.12489 85.1966 6.1999 83.8153 4.50367 81.9741C2.72084 80.039 2.45756 77.778 3.03715 75.7021C3.48876 74.0846 4.44358 72.577 5.54434 71.3115C3.79675 68.1466 3.54493 64.9964 4.27933 62.1602C5.07906 59.0717 7.01986 56.4506 9.25919 54.5868L9.45274 54.4257L9.68893 54.3381C10.2596 54.1263 11.1278 53.8082 11.8781 53.5422C12.0097 53.4955 12.1387 53.4501 12.2626 53.4068C12.3866 51.847 13.3631 50.4455 14.3723 49.3749C15.5837 48.0898 17.1804 46.9149 18.7015 45.9556C19.0131 43.931 20.5374 42.2849 22.1616 41.0962L22.2498 41.0317L22.3465 40.9809C22.5639 40.8667 22.8363 40.7195 23.1464 40.5519C24.0259 40.0767 25.2081 39.4378 26.2958 38.9253C26.7617 38.7059 27.2415 38.4942 27.7008 38.3198C26.7602 36.4493 26.3448 34.8284 26.4949 33.4867C26.6007 32.5405 26.9954 31.7006 27.7048 31.1012C28.3935 30.5193 29.2422 30.2789 30.0666 30.2457C30.7005 30.2133 31.6697 30.2085 32.6242 30.2955C32.2159 28.4867 32.2408 27.0127 32.7061 25.8633C33.0623 24.9833 33.6639 24.3345 34.4223 23.9445C35.1561 23.5672 35.9494 23.4752 36.6645 23.5317L36.748 23.5383L37.4893 23.6827C37.8238 23.2357 38.2796 22.9 38.8188 22.6886C39.2558 22.5174 39.7232 22.4361 40.1922 22.4142C40.4416 21.6164 40.905 20.7822 41.6801 20.0945C42.4635 19.3993 43.4749 18.9319 44.7204 18.761C44.5448 18.4069 44.4053 18.063 44.3015 17.7333L44.2148 17.458L44.2389 17.1704C44.3593 15.7293 45.662 14.8427 47.2254 14.556C48.1977 14.3777 49.4421 14.3754 51.0221 14.6169C50.8877 14.2188 50.8019 13.8298 50.7648 13.4543C50.6632 12.9804 50.6749 12.4104 50.9311 11.8485C51.2278 11.1978 51.7774 10.722 52.4707 10.4415C53.1013 10.1864 53.8815 10.0776 54.8284 10.1184C54.7725 9.85663 54.7479 9.59385 54.7572 9.33133C54.5371 7.92537 55.3864 6.52394 57.0568 5.63918C58.7491 4.74287 61.4712 4.21804 65.6657 4.35617C69.5698 3.18955 74.6774 2.3717 79.5998 3.1308C84.67 3.91269 89.6064 6.38811 92.6842 11.8885C93.0459 12.5349 93.3435 13.1521 93.571 13.7399C94.771 13.5019 96.1973 13.3553 97.535 13.4963C98.5048 13.5985 99.5442 13.8634 100.42 14.4608C101.341 15.0895 102.002 16.037 102.215 17.2997L102.232 17.4043L102.235 17.5104C102.247 18.0723 102.227 18.6168 102.174 19.1437ZM46.8662 21.7074C45.0114 21.4404 44.0899 21.8889 43.6358 22.2918C43.4455 22.4607 43.2974 22.6565 43.1852 22.8605C43.6431 22.9958 44.1009 23.155 44.5474 23.329C45.6132 23.6874 47.1747 24.2187 48.5276 24.6923C48.3775 24.0348 48.2642 23.4302 48.1818 22.937C47.6967 22.5266 47.2589 22.1152 46.8662 21.7074ZM51.7501 25.3926C51.8696 25.7962 52.0035 26.199 52.153 26.5857C54.1209 31.6747 58.6663 39.44 67.5427 46.8077C68.5482 46.9793 69.5691 47.1427 70.602 47.2964C65.8142 43.7168 62.4189 40.2699 60.0748 37.2379C57.0145 33.2796 55.6763 29.9348 55.4835 27.8854C55.4611 27.6471 55.4969 27.4169 55.5794 27.2086C54.1529 26.6427 52.8804 26.0307 51.7501 25.3926ZM61.9435 45.7398C55.3263 39.3415 51.5476 32.9187 49.6334 28.216C49.5915 28.2001 49.547 28.1832 49.4998 28.1655C49.0554 27.9982 48.4358 27.7761 47.7387 27.5313C46.3476 27.0428 44.683 26.4763 43.5743 26.1037L43.5399 26.0921L43.5061 26.0789C42.6743 25.7529 41.8743 25.5179 41.193 25.411C40.4892 25.3006 40.0768 25.3536 39.8945 25.4251C39.8716 25.434 39.8567 25.4416 39.8478 25.4468C39.8421 25.4623 39.8336 25.492 39.8271 25.5415C39.7944 25.7922 39.8404 26.357 40.2647 27.3799C40.6777 28.3758 41.3952 29.6785 42.5252 31.3473C44.6414 34.4723 48.115 38.7512 53.469 44.5143C53.8279 44.1109 54.3967 43.9206 54.954 44.0706C57.0728 44.6411 59.4258 45.2084 61.9435 45.7398ZM54.9228 47.1043C54.853 47.3539 54.716 47.5882 54.513 47.7786C53.9204 48.3343 52.9888 48.3051 52.4322 47.7133C46.3984 41.298 42.4721 36.5171 40.0863 32.9939C38.8939 31.2331 38.0608 29.7494 37.5445 28.5046C37.2654 27.8316 37.0605 27.1853 36.9551 26.5737L36.3598 26.4578C36.087 26.4459 35.8937 26.4945 35.7704 26.5579C35.661 26.6142 35.5371 26.7145 35.4357 26.9649C35.1938 27.5624 35.1016 29.0053 36.1869 31.8895C37.5012 35.3823 40.3855 40.5786 45.8693 48.0969C54.1271 50.2472 64.9191 52.3873 75.8602 53.4718C87.0498 54.5809 98.2754 54.5729 107.086 52.4172C109.269 51.8829 111.291 51.2198 113.118 50.4167C117.411 48.5302 120.577 45.8986 122.331 42.3825C122.944 41.1541 123.394 39.7999 123.657 38.3048C123.558 37.0526 123.09 36.4676 122.582 36.1341C121.96 35.7262 121.025 35.5322 119.836 35.5412C118.673 35.55 117.454 35.7497 116.398 35.9524C116.206 35.9893 116.01 36.0282 115.819 36.066C115.574 36.1147 115.338 36.1615 115.132 36.1997C114.43 38.3496 112.779 40.3101 110.681 42.0091C108.194 44.0226 104.897 45.8198 101.192 47.2761C93.7905 50.1854 84.5092 51.8323 76.2578 50.9751C72.97 50.6335 69.7367 50.1724 66.655 49.638C62.3718 48.8953 58.3745 48.01 54.9228 47.1043ZM126.144 40.6306C125.969 41.2552 125.763 41.8605 125.527 42.4469C126.481 43.0713 127.407 43.8248 128.139 44.6829C129.16 45.8808 129.971 47.4947 129.574 49.3167C129.182 51.1168 127.716 52.6175 125.392 53.8557C124.418 54.3743 123.252 54.8704 121.871 55.34C125.547 54.944 128.354 54.3792 130.445 53.7025C133.819 52.6105 134.942 51.3589 135.223 50.452C135.399 49.8837 135.338 49.1835 134.9 48.2908C134.457 47.3868 133.676 46.3912 132.603 45.3522C130.871 43.6745 128.537 42.0334 126.144 40.6306ZM115.619 53.9722C119.559 53.1361 122.246 52.1996 124.006 51.2621C126.003 50.1982 126.572 49.2642 126.697 48.6917C126.817 48.1412 126.627 47.4445 125.897 46.5889C125.445 46.0593 124.85 45.549 124.186 45.0891C122.152 48.3543 119.086 50.8074 115.376 52.6116C115.462 53.0713 115.543 53.5249 115.619 53.9722ZM112.601 53.8003C111.554 54.1941 110.466 54.5475 109.344 54.8634C111.475 61.344 111.787 66.3383 110.604 70.0946C109.297 74.2471 106.249 76.6286 102.525 77.7723C98.8659 78.896 94.5054 78.8522 90.2672 78.2364C87.3117 77.8071 84.3546 77.0904 81.6401 76.2467C84.5083 77.4244 87.5539 78.446 90.5842 79.1488C96.212 80.4539 101.57 80.6088 105.641 78.8631C107.074 78.2486 108.35 77.3983 109.435 76.273C111.596 74.0313 113.133 70.5557 113.458 65.2915C113.598 63.0252 113.512 60.4374 113.157 57.4927C113.095 56.982 113.025 56.4608 112.947 55.9288C112.846 55.2375 112.731 54.5281 112.601 53.8003ZM83.7152 73.7991C85.9573 74.4446 88.3317 74.9846 90.6912 75.3274C94.7266 75.9137 98.5933 75.9042 101.66 74.9625C104.661 74.0408 106.837 72.2572 107.796 69.2128C108.729 66.2494 108.58 61.8755 106.478 55.5742C97.4214 57.54 86.3609 57.4667 75.5694 56.3971C64.228 55.273 53.0633 53.0355 44.6135 50.807L44.1098 50.6742L43.802 50.2547C38.3054 42.7647 35.1857 37.3364 33.6322 33.4427C33.5996 33.4325 33.5629 33.4218 33.5218 33.4107C33.2451 33.336 32.8861 33.2762 32.4738 33.2343C31.6503 33.1508 30.7625 33.1533 30.2097 33.1819L30.1997 33.1824L30.1897 33.1828C29.8357 33.1963 29.6719 33.2901 29.6066 33.3453C29.5592 33.3853 29.4569 33.4907 29.4209 33.8129C29.3366 34.5665 29.6742 36.1193 31.2889 38.6782C31.7291 39.3759 32.2559 40.1353 32.8795 40.9581C35.4554 44.3566 39.6325 48.7709 46.0323 54.3078C46.5343 54.5383 47.0846 54.7784 47.6807 55.0255C50.2254 56.08 53.5806 57.2498 57.5472 58.3272C68.1814 61.2157 83.0799 63.4058 98.425 61.0275C100.029 60.7789 101.637 60.4805 103.246 60.1279C104.04 59.9538 104.825 60.4555 104.999 61.2483C105.174 62.0412 104.671 62.8251 103.877 62.9992C103.487 63.0846 103.098 63.167 102.708 63.2463C102.926 63.4129 103.128 63.5784 103.315 63.743C104.229 64.5472 104.945 65.4734 105.125 66.543C105.324 67.7286 104.811 68.7054 104.086 69.3989C103.4 70.0534 102.459 70.5357 101.472 70.9087C99.478 71.6621 96.7872 72.1546 94.0466 72.471C91.3741 72.7796 88.5603 72.9307 86.119 72.9702C85.3092 73.2656 84.5079 73.5417 83.7152 73.7991ZM91.7234 69.7489C92.3896 69.6922 93.0542 69.6264 93.7084 69.5508C96.3795 69.2424 98.7812 68.7823 100.43 68.1593C101.264 67.8442 101.781 67.5324 102.05 67.2749C102.175 67.1554 102.211 67.081 102.22 67.0604C102.223 67.0523 102.225 67.0522 102.221 67.0293C102.206 66.9392 102.082 66.5758 101.369 65.9486C100.787 65.4363 99.9151 64.8392 98.6785 64.1603C98.5035 64.3885 98.2598 64.5679 97.9654 64.6635C85.0772 68.8456 74.5271 70.0314 66.5429 69.7918C58.601 69.5536 53.1083 67.9007 50.4001 66.3017C49.7003 65.8885 49.4684 64.9871 49.8822 64.2883C50.2961 63.5896 51.1988 63.3581 51.8987 63.7713C54.0262 65.0275 58.9724 66.6237 66.6313 66.8535C71.7645 67.0075 78.0768 66.5457 85.5028 64.9771C74.6594 65.0402 64.6508 63.2947 56.8775 61.1917C50.456 60.4089 45.0381 59.5398 40.4924 58.611C45.8767 65.8847 56.7532 76.0433 74.3457 73.0977C75.6557 72.8783 76.9993 72.6026 78.3764 72.2657C80.6083 71.7198 82.9286 71.0131 85.337 70.1254C86.7467 69.6057 88.1867 69.0239 89.6567 68.3761C90.4005 68.0482 91.2696 68.3845 91.5979 69.1272C91.6874 69.3296 91.7275 69.5413 91.7234 69.7489ZM40.7268 53.527C36.6058 49.7553 33.5497 46.5201 31.3513 43.7817C30.6769 44.258 30.0884 44.8145 29.6925 45.3992C29.134 46.224 29.0143 46.9881 29.3857 47.7775C29.8132 48.6859 31.0257 49.9309 33.9223 51.247C35.6344 52.0249 37.865 52.7957 40.7268 53.527ZM29.5842 41.4294C29.4605 41.2515 29.3408 41.076 29.2252 40.9029C28.795 41.0319 28.2189 41.2698 27.5521 41.584C26.5449 42.0585 25.4936 42.6266 24.6272 43.0948C24.3331 43.2537 24.0603 43.4012 23.8177 43.5295C22.2355 44.7095 21.5625 45.8475 21.5885 46.7695C21.611 47.5662 22.179 48.8336 24.6803 50.3656C26.2162 51.3063 28.3707 52.2733 31.2959 53.2284C28.9645 51.9749 27.4507 50.5783 26.721 49.0275C25.7976 47.065 26.2761 45.196 27.2535 43.7527C27.8695 42.843 28.7018 42.0618 29.5842 41.4294ZM30.5729 56.085C27.3923 55.0582 24.953 53.9813 23.1408 52.8714C21.2889 51.7371 19.9638 50.4835 19.2508 49.1162C18.2185 49.8304 17.2558 50.6052 16.5162 51.3897C15.3223 52.6563 15.0896 53.5296 15.2381 54.055C15.4128 54.6732 16.1787 55.6832 18.8485 56.6369C20.2595 57.141 22.3235 57.3164 25.2495 57.3581C25.8184 57.3662 26.5245 57.2495 27.4024 57.0249C28.1024 56.8458 28.8393 56.6183 29.6468 56.369C29.8519 56.3057 30.0616 56.241 30.2764 56.1753C30.3743 56.1453 30.4732 56.1152 30.5729 56.085ZM36.1522 57.8782C34.5289 57.9962 32.8514 58.4621 31.1388 58.986C30.9441 59.0455 30.7479 59.1061 30.5511 59.1669C29.7364 59.4186 28.9104 59.6738 28.1332 59.8726C27.5006 60.0344 26.8516 60.1726 26.2096 60.2447C26.1983 60.3291 26.1952 60.4169 26.2017 60.5074C26.2239 60.8167 26.3675 61.2842 26.9131 61.8602C27.9919 62.9992 30.5171 64.4179 35.839 65.4506C36.1768 64.5336 36.4119 63.2137 36.4684 61.7309C36.5248 60.2534 36.3945 58.8697 36.1522 57.8782ZM33.0578 67.8499C28.847 66.81 26.2403 65.4281 24.7741 63.8802C23.8345 62.8882 23.3429 61.803 23.2651 60.7173C23.2535 60.5568 23.2513 60.3989 23.2574 60.2443C21.7466 60.1779 20.3674 60.0449 19.1584 59.7751C19.0871 60.2164 19.1202 60.8042 19.3774 61.5663C19.8551 62.9814 21.0966 64.9223 23.7398 67.3039C27.518 68.2234 30.202 68.3637 32.0643 68.0684C32.4284 68.0106 32.7585 67.9369 33.0578 67.8499ZM28.6845 71.0946C32.6083 73.7243 37.9898 76.6633 45.2754 79.8429C46.7236 80.1566 48.2315 80.4614 49.801 80.7564C51.5049 81.0767 53.2815 81.3854 55.1334 81.6811C55.3917 81.7224 55.6235 81.8284 55.8148 81.9799C65.5534 83.8819 76.9742 85.7334 84.9836 86.18C87.4119 86.3154 89.4771 86.3184 91.0638 86.1667C91.8571 86.0908 92.4949 85.9795 92.9811 85.8417C93.3866 85.7268 93.623 85.6111 93.7479 85.5298C93.7148 85.454 93.6533 85.3383 93.5395 85.1785C93.0211 84.4506 91.8346 83.385 89.6611 81.9519C84.2039 80.6563 78.7746 78.4136 74.3353 76.0772C56.7782 78.8084 45.4661 69.48 39.4037 62.0037C39.3072 64.1053 38.8782 66.4354 37.8796 67.9158C36.8077 69.5048 35.028 70.5749 32.5261 70.9716C31.4076 71.149 30.1326 71.195 28.6845 71.0946ZM95.5196 82.9434C95.6748 83.1233 95.8146 83.3004 95.9389 83.4749C96.3812 84.0959 96.7319 84.8292 96.7301 85.6361C96.7282 86.5183 96.3083 87.2259 95.7206 87.7221C95.1758 88.182 94.4819 88.4722 93.7849 88.6697C93.0705 88.8721 92.2438 89.007 91.3445 89.093C89.5461 89.2649 87.3141 89.2542 84.8195 89.1151C74.8596 88.5597 59.9278 85.9069 49.2394 83.6422C47.5983 83.3336 46.0215 83.0139 44.5067 82.6844C28.2778 79.1534 19.0497 74.4548 14.2251 69.77C9.73621 65.4111 8.98841 60.9459 10.2511 57.6579C8.79589 59.1059 7.64341 60.9124 7.12977 62.8961C6.52656 65.2256 6.77603 67.8932 8.61009 70.7013C11.5 75.1262 18.4111 80.0121 32.407 84.0303C35.9293 85.0416 39.8888 85.9945 44.3292 86.8702C48.7658 87.7451 53.6801 88.5425 59.1154 89.2436C69.5438 90.0677 83.588 90.7439 94.3631 90.3538C96.6221 90.2721 98.7285 90.1437 100.621 89.9613C102.677 89.7633 104.457 89.5037 105.897 89.1785C107.239 88.8755 108.358 87.9079 109.021 86.7739C109.348 86.2133 109.531 85.6668 109.586 85.2207C109.642 84.7604 109.553 84.5243 109.5 84.4417C109.127 83.8616 108.133 82.986 106.12 81.839C102.917 83.0448 99.2621 83.2963 95.5196 82.9434ZM109.194 80.278C110.081 80.8741 110.808 81.4657 111.356 82.0598C112.253 81.9143 113.123 81.7669 113.967 81.6175C113.492 81.4696 113.103 81.0844 112.975 80.5666C112.78 79.7786 113.261 78.9818 114.05 78.7868C114.517 78.6717 114.972 78.5565 115.418 78.4412C114.107 78.5735 112.679 78.6736 111.126 78.7389C110.52 79.3154 109.874 79.827 109.194 80.278ZM113.585 75.6515C117.377 75.3641 120.107 74.8354 122.016 74.1774C124.448 73.3396 125.284 72.3897 125.537 71.7336C125.779 71.1042 125.662 70.2682 124.971 69.1877C124.375 68.2546 123.457 67.3214 122.438 66.5143C120.571 66.6785 118.525 66.7869 116.285 66.8323C115.915 70.3894 114.989 73.3107 113.585 75.6515ZM116.459 63.8882C118.775 63.8363 120.861 63.7149 122.735 63.5349C125.225 63.2957 127.335 62.9537 129.115 62.5361C130.325 62.252 131.378 61.9341 132.289 61.5922C136.599 59.9753 137.577 57.9327 137.592 56.3689C137.601 55.4319 137.277 54.4403 136.732 53.4965C135.553 54.7443 133.726 55.7308 131.353 56.4989C127.931 57.6065 123.018 58.3801 116.249 58.7166C116.421 60.5592 116.489 62.2811 116.459 63.8882ZM126.264 66.0656C126.706 66.5536 127.11 67.0696 127.453 67.6064C128.383 69.0605 129.006 70.914 128.285 72.7881C128.068 73.3512 127.747 73.8698 127.328 74.3455C127.55 74.2368 127.765 74.1284 127.973 74.0204C130.972 72.4595 132.213 71.0908 132.624 70.1112C132.973 69.2798 132.811 68.5039 132.134 67.6578C131.494 66.858 130.462 66.1115 129.277 65.5141C128.343 65.7194 127.341 65.9039 126.264 66.0656ZM133.868 65.1878C134.069 65.3914 134.258 65.603 134.434 65.8227C135.589 67.2651 136.213 69.1664 135.34 71.2473C134.529 73.1801 132.539 74.9588 129.333 76.6272C126.499 78.1024 122.547 79.577 117.19 81.0145C123.46 79.7726 128.111 78.4233 131.476 77.0431C136.006 75.1848 137.925 73.3843 138.55 71.993C139.093 70.7845 138.794 69.5193 137.574 68.1007C136.669 67.0484 135.355 66.0514 133.868 65.1878ZM136.05 63.0702C137.475 63.9643 138.797 65.0114 139.807 66.1852C141.435 68.0776 142.425 70.549 141.236 73.196C140.129 75.6602 137.296 77.834 132.595 79.7623C128.086 81.6115 121.595 83.3413 112.547 84.8435C112.552 85.093 112.537 85.34 112.508 85.5794C112.397 86.4841 112.058 87.4091 111.563 88.2558C111.472 88.4121 111.374 88.5677 111.27 88.7217C124.998 87.4216 134.218 85.1085 140.131 82.3184C144.348 80.3287 146.77 78.1497 148.007 76.0344C149.221 73.9587 149.376 71.8059 148.782 69.6356C147.707 65.7112 144.175 61.7759 140.061 58.822C139.417 60.4245 138.106 61.8718 136.05 63.0702ZM107.555 91.9882C120.274 91.0217 129.707 89.2432 136.526 86.9216C131.956 91.4343 122.734 95.8056 107.555 91.9882ZM12.831 56.3238C13.3913 56.7496 13.5798 57.5289 13.2427 58.1731C12.2327 60.1039 12.0963 63.6022 16.2778 67.6625C18.9666 70.2735 23.4011 73.054 30.3644 75.6276C26.8409 73.5322 24.1233 71.5647 22.0579 69.7452C19.0161 67.0655 17.306 64.6338 16.5875 62.5052C16.1265 61.1396 16.0718 59.8738 16.3604 58.7918C14.886 58.0975 13.764 57.2553 13.0637 56.2416C12.9985 56.2645 12.9316 56.2881 12.8634 56.3123C12.8526 56.3162 12.8418 56.32 12.831 56.3238ZM7.27355 73.8442C6.61587 74.7069 6.11803 75.6145 5.87317 76.4915C5.52311 77.7453 5.68144 78.9104 6.67048 79.9839C7.74611 81.1515 9.94325 82.3612 14.0531 83.1662C16.4816 83.6419 19.5148 83.9641 23.2658 84.0716C15.3402 80.9782 10.2453 77.4726 7.27355 73.8442ZM51.4778 91.1198C55.2522 92.9958 59.9009 94.7152 65.0474 95.6484C72.1424 96.935 80.1406 96.7224 88.107 93.4063C78.397 93.4289 67.3882 92.8471 58.8466 92.1712L58.8105 92.1684L58.7745 92.1637C56.2339 91.8363 53.8031 91.4878 51.4778 91.1198ZM95.2759 40.0055C95.7345 39.6835 96.1662 39.3482 96.5715 39.0037C92.5245 41.6916 85.2633 43.8137 74.2054 42.0146C82.6208 44.5029 88.766 43.5033 93.0398 41.3448C93.8287 40.9463 94.5583 40.5062 95.2304 40.0374C95.2454 40.0265 95.2605 40.0159 95.2759 40.0055ZM47.073 17.6956C47.0709 17.6945 47.0782 17.6834 47.1014 17.6659C47.0867 17.6879 47.0751 17.6967 47.073 17.6956ZM57.6723 8.94616C57.6704 8.9457 57.6687 8.93392 57.6732 8.91218C57.6765 8.93574 57.6742 8.94662 57.6723 8.94616Z" fill="#FFEDBA"/>
<path d="M54.2632 10.3947C51.2756 4.13028 62.4792 2.06698 68.4544 1.81839C86.3796 -0.269764 92.6047 8.15743 93.4766 12.632C103.635 12.3337 103.684 16.4852 102.439 18.5982C111.104 21.283 114.763 28.9147 115.51 32.3949C128.357 32.0966 130.075 37.2424 129.328 39.8526C128.038 37.8284 125.097 37.4057 119.243 37.6153C117.749 37.6153 119.685 45.4527 118.496 46.9374C117.002 48.8018 114.388 48.0561 113.592 46.5645C112.817 45.1132 115.463 38.0629 113.592 37.6153C105.798 35.7509 104.204 38.8883 103.56 39.8526C102.066 42.0899 101.319 55.5138 102.439 58.8698C103.336 61.5545 102.813 63.4687 102.439 64.0901C101.942 65.5817 100.124 68.1919 96.8376 66.7003C93.5513 65.2088 93.7255 60.8585 94.2235 58.8698C94.9704 56.011 95.0451 48.2052 89.3686 39.8526C83.6921 31.5 74.057 36.3724 69.949 39.8526C69.4511 42.4628 68.6046 48.2053 69.2021 50.2934C69.949 52.9036 72.1897 59.9884 68.4552 66.7003C64.7207 73.4123 59.2748 70.4039 57.2516 66.7003C55.0109 62.5986 57.2516 41.7171 55.7578 39.8526C54.5627 38.3611 53.766 40.4741 53.5171 41.7171C53.2681 44.5758 52.9195 50.9646 53.5171 53.6494C54.1146 56.3341 53.766 57.7511 53.5171 58.124C52.8946 58.8698 51.0523 59.9138 48.6622 58.124C45.6745 55.8867 47.9152 50.2934 47.9152 41.7171C47.9152 33.1407 40.4462 36.1238 38.9524 37.6153C37.7573 38.8086 38.4544 46.5646 38.9524 50.2934C38.4543 50.7906 37.3088 51.4866 36.7116 50.2934C35.9652 48.8019 37.4581 41.7171 35.5913 37.6153C34.0978 34.3339 33.7227 31.6491 32.6024 33.1407C32.9759 41.5928 34.8887 46.9374 28.867 46.9374C24.7584 46.9374 24.7607 42.8357 26.6281 37.6153C23.043 31.0526 28.1219 29.6604 31.1096 29.7847C31.1096 23.8186 35.3419 22.8242 37.4581 23.0728C37.1594 20.6864 41.5661 19.0954 43.8068 18.5982C42.313 15.0185 46.9188 14.1236 49.4085 14.1236C47.9147 9.35066 52.0225 9.64897 54.2632 10.3947Z" fill="#FFEBE5"/>
<rect width="1.49296" height="2.23859" transform="matrix(0.790516 -0.612441 0.613608 0.789611 52.2837 16.0989)" fill="#DD9696"/>
<rect width="1.4921" height="2.23989" transform="matrix(0.495375 0.868679 -0.869328 0.494236 62.1631 6.59703)" fill="#DD9696"/>
<rect width="1.4938" height="2.23733" transform="matrix(0.996283 0.0861416 -0.0864027 0.99626 75.103 9.60287)" fill="#DD9696"/>
<rect width="1.49202" height="2.24001" transform="matrix(0.458128 -0.888886 0.889454 0.457025 63.27 15.2416)" fill="#DD9696"/>
<path d="M84.8512 6.57983L86.2127 5.96616L87.1347 8.00534L85.7731 8.619L84.8512 6.57983Z" fill="#DD9696"/>
<path d="M81.5465 17.1184L82.908 16.5047L83.8299 18.5439L82.4684 19.1576L81.5465 17.1184Z" fill="#DD9696"/>
<rect width="1.49296" height="2.23859" transform="matrix(0.790516 -0.612441 0.613608 0.789611 37.3452 29.5228)" fill="#DD9696"/>
<rect width="1.4921" height="2.23989" transform="matrix(0.495375 0.868679 -0.869328 0.494236 47.2251 20.0209)" fill="#DD9696"/>
<rect width="1.4938" height="2.23733" transform="matrix(0.996283 0.0861416 -0.0864027 0.99626 60.165 23.0267)" fill="#DD9696"/>
<rect width="1.49202" height="2.24001" transform="matrix(0.458128 -0.888886 0.889454 0.457025 48.332 28.6654)" fill="#DD9696"/>
<path d="M69.9127 20.0037L71.2743 19.39L72.1962 21.4292L70.8347 22.0428L69.9127 20.0037Z" fill="#DD9696"/>
<path d="M66.608 30.5423L67.9695 29.9286L68.8914 31.9678L67.5299 32.5814L66.608 30.5423Z" fill="#DD9696"/>
<rect width="1.49296" height="2.23859" transform="matrix(0.790516 -0.612441 0.613608 0.789611 82.1597 29.5228)" fill="#DD9696"/>
<rect width="1.4921" height="2.23989" transform="matrix(0.495375 0.868679 -0.869328 0.494236 92.0396 20.0209)" fill="#DD9696"/>
<rect width="1.4938" height="2.23733" transform="matrix(0.996283 0.0861416 -0.0864027 0.99626 104.979 23.0267)" fill="#DD9696"/>
<rect width="1.49202" height="2.24001" transform="matrix(0.458128 -0.888886 0.889454 0.457025 93.1465 28.6654)" fill="#DD9696"/>
</svg>
